<?xml version="1.0" standalone="no"?>
<!DOCTYPE svg PUBLIC "-//W3C//DTD SVG 1.1//EN" "http://www.w3.org/Graphics/SVG/1.1/DTD/svg11.dtd" >
<svg xmlns="http://www.w3.org/2000/svg" xmlns:xlink="http://www.w3.org/1999/xlink" version="1.1">
<metadata>
Created by FontForge 20200314 at Sat Aug 16 14:06:46 2003
 By 藤本　誠
Removed
</metadata>
<defs>
<font id="cmmi5" horiz-adv-x="736" >
  <font-face 
    font-family="BKM-cmmi5"
    font-weight="400"
    font-stretch="normal"
    units-per-em="1000"
    panose-1="2 11 5 1 1 1 1 1 1 1"
    ascent="800"
    descent="-200"
    x-height="442"
    cap-height="683"
    bbox="38 -250 1349 750"
    underline-thickness="10"
    underline-position="-30"
    stemh="48"
    stemv="46"
    unicode-range="U+0020-F0C4"
  />
<missing-glyph horiz-adv-x="1000" 
 />
    <glyph glyph-name=".notdef" horiz-adv-x="1000" 
 />
    <glyph glyph-name="A" unicode="A" horiz-adv-x="1036" 
d="M118 0c-8 0 -14 9 -14 17c0 13 4 28 18 31c56 0 99 18 132 63c1 2 3 2 4 3l401 586c7 9 18 16 30 16h16c10 0 19 -6 21 -16l119 -637c8 -15 65 -15 84 -15c9 0 15 -9 15 -16c0 -14 -4 -29 -18 -32c-44 0 -88 4 -132 4c-49 0 -99 -4 -148 -4c-8 0 -15 9 -15 17
c0 13 5 28 19 31c22 0 69 0 82 18l-29 155h-320l-84 -124c-3 -4 -9 -18 -9 -24c0 -22 35 -25 51 -25c9 0 15 -9 15 -16c0 -14 -4 -29 -18 -32c-42 0 -83 4 -124 4c-32 0 -64 -4 -96 -4zM416 269h278l-59 318z" />
    <glyph glyph-name="A" unicode="&#xf041;" horiz-adv-x="1036" 
d="M118 0c-8 0 -14 9 -14 17c0 13 4 28 18 31c56 0 99 18 132 63c1 2 3 2 4 3l401 586c7 9 18 16 30 16h16c10 0 19 -6 21 -16l119 -637c8 -15 65 -15 84 -15c9 0 15 -9 15 -16c0 -14 -4 -29 -18 -32c-44 0 -88 4 -132 4c-49 0 -99 -4 -148 -4c-8 0 -15 9 -15 17
c0 13 5 28 19 31c22 0 69 0 82 18l-29 155h-320l-84 -124c-3 -4 -9 -18 -9 -24c0 -22 35 -25 51 -25c9 0 15 -9 15 -16c0 -14 -4 -29 -18 -32c-42 0 -83 4 -124 4c-32 0 -64 -4 -96 -4zM416 269h278l-59 318z" />
    <glyph glyph-name="B" unicode="B" horiz-adv-x="1037" 
d="M134 0c-8 0 -15 9 -15 17c0 13 5 28 19 31c27 0 62 0 84 4c13 3 19 12 23 24l135 541v7c0 2 0 5 -3 6c-25 5 -58 5 -84 5c-9 0 -15 9 -15 17c0 13 4 28 19 31h426c87 0 238 -35 238 -146c0 -107 -152 -166 -239 -180c75 0 194 -56 194 -144c0 -70 -63 -126 -119 -159
c-67 -38 -140 -54 -210 -54h-453zM339 50c11 -2 23 -2 34 -2h192c94 0 236 56 236 168c0 81 -75 121 -147 121h-244l-67 -269c-2 -6 -4 -12 -4 -18zM419 374h192c89 0 239 54 239 159c0 72 -78 102 -139 102h-183c-31 0 -43 0 -51 -28z" />
    <glyph glyph-name="B" unicode="&#xf042;" horiz-adv-x="1037" 
d="M134 0c-8 0 -15 9 -15 17c0 13 5 28 19 31c27 0 62 0 84 4c13 3 19 12 23 24l135 541v7c0 2 0 5 -3 6c-25 5 -58 5 -84 5c-9 0 -15 9 -15 17c0 13 4 28 19 31h426c87 0 238 -35 238 -146c0 -107 -152 -166 -239 -180c75 0 194 -56 194 -144c0 -70 -63 -126 -119 -159
c-67 -38 -140 -54 -210 -54h-453zM339 50c11 -2 23 -2 34 -2h192c94 0 236 56 236 168c0 81 -75 121 -147 121h-244l-67 -269c-2 -6 -4 -12 -4 -18zM419 374h192c89 0 239 54 239 159c0 72 -78 102 -139 102h-183c-31 0 -43 0 -51 -28z" />
    <glyph glyph-name="C" unicode="C" horiz-adv-x="996" 
d="M115 271c0 255 297 434 530 434c80 0 161 -28 213 -90l87 86c3 2 6 3 9 4h9c7 -2 13 -7 13 -15l-67 -268c-3 -6 -6 -8 -12 -9h-23c-7 2 -12 7 -12 16c1 11 2 22 2 32c0 117 -87 196 -201 196s-232 -42 -312 -123c-74 -74 -121 -182 -121 -286c0 -157 128 -222 269 -222
c135 0 285 85 320 223c3 5 5 7 11 8h21c7 -2 13 -6 13 -14c0 -3 0 -1 -1 -5c-42 -166 -233 -260 -392 -260c-176 0 -356 97 -356 293z" />
    <glyph glyph-name="C" unicode="&#xf043;" horiz-adv-x="996" 
d="M115 271c0 255 297 434 530 434c80 0 161 -28 213 -90l87 86c3 2 6 3 9 4h9c7 -2 13 -7 13 -15l-67 -268c-3 -6 -6 -8 -12 -9h-23c-7 2 -12 7 -12 16c1 11 2 22 2 32c0 117 -87 196 -201 196s-232 -42 -312 -123c-74 -74 -121 -182 -121 -286c0 -157 128 -222 269 -222
c135 0 285 85 320 223c3 5 5 7 11 8h21c7 -2 13 -6 13 -14c0 -3 0 -1 -1 -5c-42 -166 -233 -260 -392 -260c-176 0 -356 97 -356 293z" />
    <glyph glyph-name="D" unicode="D" horiz-adv-x="1109" 
d="M132 0c-8 0 -15 9 -15 17c0 13 5 28 19 31c26 0 62 0 84 4c13 3 19 12 23 24l135 541v7c0 2 0 5 -3 6c-26 5 -57 5 -84 5c-9 0 -15 9 -15 17c0 13 4 28 19 31h429c161 0 306 -98 306 -271c0 -236 -258 -412 -477 -412h-421zM341 50c11 -2 23 -2 34 -2h160
c99 0 201 31 272 102s112 191 112 290c0 141 -110 195 -237 195h-152c-31 0 -43 0 -51 -28l-134 -539c-2 -6 -4 -12 -4 -18z" />
    <glyph glyph-name="D" unicode="&#xf044;" horiz-adv-x="1109" 
d="M132 0c-8 0 -15 9 -15 17c0 13 5 28 19 31c26 0 62 0 84 4c13 3 19 12 23 24l135 541v7c0 2 0 5 -3 6c-26 5 -57 5 -84 5c-9 0 -15 9 -15 17c0 13 4 28 19 31h429c161 0 306 -98 306 -271c0 -236 -258 -412 -477 -412h-421zM341 50c11 -2 23 -2 34 -2h160
c99 0 201 31 272 102s112 191 112 290c0 141 -110 195 -237 195h-152c-31 0 -43 0 -51 -28l-134 -539c-2 -6 -4 -12 -4 -18z" />
    <glyph glyph-name="E" unicode="E" horiz-adv-x="1007" 
d="M130 0c-8 0 -15 9 -15 17c0 13 5 28 19 31c26 0 62 0 84 4c13 3 19 12 23 24l135 541v7c0 2 0 5 -3 6c-26 5 -57 5 -84 5c-9 0 -15 9 -15 17c0 13 4 28 19 31h657c9 0 15 -10 15 -18l-20 -209c0 -7 -7 -15 -15 -15h-16c-9 0 -15 10 -15 18c2 17 3 34 3 50
c0 48 -9 95 -59 112c-49 14 -104 14 -155 14h-156c-31 0 -43 0 -51 -28l-57 -228h97c98 0 144 0 171 105c2 6 8 12 15 12h16c8 0 15 -9 15 -16c0 -2 0 -2 -1 -4l-62 -249c-1 -7 -7 -13 -14 -13h-16c-9 0 -15 9 -15 17c0 12 8 34 8 53c0 12 -2 25 -12 34
c-21 13 -79 13 -106 13h-108l-65 -263c-2 -6 -4 -12 -4 -18c11 -2 23 -2 34 -2h161c207 0 260 27 347 218c2 4 8 9 14 9h16c8 0 15 -9 15 -16c0 -3 -1 -5 -2 -7l-110 -242c-3 -5 -8 -10 -14 -10h-674z" />
    <glyph glyph-name="E" unicode="&#xf045;" horiz-adv-x="1007" 
d="M130 0c-8 0 -15 9 -15 17c0 13 5 28 19 31c26 0 62 0 84 4c13 3 19 12 23 24l135 541v7c0 2 0 5 -3 6c-26 5 -57 5 -84 5c-9 0 -15 9 -15 17c0 13 4 28 19 31h657c9 0 15 -10 15 -18l-20 -209c0 -7 -7 -15 -15 -15h-16c-9 0 -15 10 -15 18c2 17 3 34 3 50
c0 48 -9 95 -59 112c-49 14 -104 14 -155 14h-156c-31 0 -43 0 -51 -28l-57 -228h97c98 0 144 0 171 105c2 6 8 12 15 12h16c8 0 15 -9 15 -16c0 -2 0 -2 -1 -4l-62 -249c-1 -7 -7 -13 -14 -13h-16c-9 0 -15 9 -15 17c0 12 8 34 8 53c0 12 -2 25 -12 34
c-21 13 -79 13 -106 13h-108l-65 -263c-2 -6 -4 -12 -4 -18c11 -2 23 -2 34 -2h161c207 0 260 27 347 218c2 4 8 9 14 9h16c8 0 15 -9 15 -16c0 -3 -1 -5 -2 -7l-110 -242c-3 -5 -8 -10 -14 -10h-674z" />
    <glyph glyph-name="F" unicode="F" horiz-adv-x="867" 
d="M130 0c-9 0 -15 9 -15 17c0 13 5 28 19 31c26 0 62 0 84 4c13 3 19 12 23 24l135 541v7c0 2 0 5 -3 6c-26 5 -57 5 -84 5c-9 0 -15 9 -15 17c0 13 4 28 19 31h639c9 0 15 -10 15 -18l-20 -209c0 -7 -7 -15 -15 -15h-16c-9 0 -15 10 -15 18c2 18 3 36 3 54
c0 122 -101 122 -205 122h-147c-31 0 -43 0 -51 -28l-60 -241h93c97 0 141 0 167 105c2 6 8 12 15 12h16c8 0 15 -9 15 -16c0 -2 0 -2 -1 -4l-62 -249c-2 -7 -8 -13 -15 -13h-16c-8 0 -15 9 -15 17c0 12 9 35 9 54c0 12 -2 25 -12 33c-21 13 -76 13 -102 13h-104l-63 -251
v-5c0 -6 3 -8 9 -9c25 -5 71 -5 106 -5c8 0 15 -9 15 -16c0 -14 -5 -29 -19 -32c-60 0 -120 4 -181 4c-48 0 -97 -4 -146 -4z" />
    <glyph glyph-name="F" unicode="&#xf046;" horiz-adv-x="867" 
d="M130 0c-9 0 -15 9 -15 17c0 13 5 28 19 31c26 0 62 0 84 4c13 3 19 12 23 24l135 541v7c0 2 0 5 -3 6c-26 5 -57 5 -84 5c-9 0 -15 9 -15 17c0 13 4 28 19 31h639c9 0 15 -10 15 -18l-20 -209c0 -7 -7 -15 -15 -15h-16c-9 0 -15 10 -15 18c2 18 3 36 3 54
c0 122 -101 122 -205 122h-147c-31 0 -43 0 -51 -28l-60 -241h93c97 0 141 0 167 105c2 6 8 12 15 12h16c8 0 15 -9 15 -16c0 -2 0 -2 -1 -4l-62 -249c-2 -7 -8 -13 -15 -13h-16c-8 0 -15 9 -15 17c0 12 9 35 9 54c0 12 -2 25 -12 33c-21 13 -76 13 -102 13h-104l-63 -251
v-5c0 -6 3 -8 9 -9c25 -5 71 -5 106 -5c8 0 15 -9 15 -16c0 -14 -5 -29 -19 -32c-60 0 -120 4 -181 4c-48 0 -97 -4 -146 -4z" />
    <glyph glyph-name="G" unicode="G" horiz-adv-x="1064" 
d="M115 271c0 255 296 434 530 434c79 0 160 -28 212 -90l87 86c3 2 6 3 9 4h9c7 -2 13 -7 13 -15l-67 -268c-3 -6 -6 -8 -12 -9h-23c-7 2 -12 7 -12 16c1 11 2 22 2 32c0 117 -87 196 -201 196c-113 0 -231 -42 -311 -123c-73 -73 -121 -180 -121 -284
c0 -161 137 -224 280 -224c69 0 199 15 216 99l21 86c0 1 0 2 1 3c0 8 -5 9 -12 11c-27 5 -81 5 -120 5c-9 0 -15 9 -15 17c0 13 4 28 18 31c66 0 132 -4 198 -4c41 0 82 4 123 4c8 0 14 -9 14 -16c0 -14 -4 -29 -19 -32c-21 0 -47 0 -68 -5c-9 -3 -12 -15 -14 -23l-22 -86
l-26 -107c-4 -6 -7 -9 -13 -9c-15 0 -47 40 -55 52c-66 -66 -180 -74 -267 -74c-175 0 -355 97 -355 293z" />
    <glyph glyph-name="G" unicode="&#xf047;" horiz-adv-x="1064" 
d="M115 271c0 255 296 434 530 434c79 0 160 -28 212 -90l87 86c3 2 6 3 9 4h9c7 -2 13 -7 13 -15l-67 -268c-3 -6 -6 -8 -12 -9h-23c-7 2 -12 7 -12 16c1 11 2 22 2 32c0 117 -87 196 -201 196c-113 0 -231 -42 -311 -123c-73 -73 -121 -180 -121 -284
c0 -161 137 -224 280 -224c69 0 199 15 216 99l21 86c0 1 0 2 1 3c0 8 -5 9 -12 11c-27 5 -81 5 -120 5c-9 0 -15 9 -15 17c0 13 4 28 18 31c66 0 132 -4 198 -4c41 0 82 4 123 4c8 0 14 -9 14 -16c0 -14 -4 -29 -19 -32c-21 0 -47 0 -68 -5c-9 -3 -12 -15 -14 -23l-22 -86
l-26 -107c-4 -6 -7 -9 -13 -9c-15 0 -47 40 -55 52c-66 -66 -180 -74 -267 -74c-175 0 -355 97 -355 293z" />
    <glyph glyph-name="H" unicode="H" horiz-adv-x="1110" 
d="M130 0c-9 0 -15 9 -15 17c0 13 5 28 19 31c26 0 62 0 84 4c13 3 19 12 23 24l135 541v7c0 2 0 5 -3 6c-26 5 -57 5 -84 5c-9 0 -15 9 -15 17c0 13 4 28 19 31c51 0 101 -4 152 -4c49 0 98 4 147 4c8 0 15 -9 15 -16c0 -14 -5 -29 -19 -32c-27 0 -62 0 -84 -4
c-13 -3 -19 -12 -23 -24l-57 -228h377l60 238v7c0 2 0 5 -3 6c-26 5 -57 5 -84 5c-9 0 -15 9 -15 17c0 13 4 28 19 31c51 0 101 -4 152 -4c49 0 98 4 147 4c8 0 15 -9 15 -16c0 -14 -5 -29 -19 -32c-27 0 -62 0 -84 -4c-13 -3 -19 -12 -23 -24l-135 -541c0 -2 -1 -4 -1 -7
c0 -2 0 -5 3 -6c27 -5 58 -5 85 -5c8 0 15 -9 15 -16c0 -14 -5 -29 -19 -32c-51 0 -102 4 -153 4c-48 0 -97 -4 -146 -4c-9 0 -15 9 -15 17c0 13 5 28 19 31c26 0 62 0 84 4c13 3 19 12 23 24l63 255h-377l-66 -265c0 -2 -1 -4 -1 -7c0 -2 0 -5 3 -6c27 -5 58 -5 85 -5
c8 0 15 -9 15 -16c0 -14 -5 -29 -19 -32c-51 0 -102 4 -153 4c-48 0 -97 -4 -146 -4z" />
    <glyph glyph-name="H" unicode="&#xf048;" horiz-adv-x="1110" 
d="M130 0c-9 0 -15 9 -15 17c0 13 5 28 19 31c26 0 62 0 84 4c13 3 19 12 23 24l135 541v7c0 2 0 5 -3 6c-26 5 -57 5 -84 5c-9 0 -15 9 -15 17c0 13 4 28 19 31c51 0 101 -4 152 -4c49 0 98 4 147 4c8 0 15 -9 15 -16c0 -14 -5 -29 -19 -32c-27 0 -62 0 -84 -4
c-13 -3 -19 -12 -23 -24l-57 -228h377l60 238v7c0 2 0 5 -3 6c-26 5 -57 5 -84 5c-9 0 -15 9 -15 17c0 13 4 28 19 31c51 0 101 -4 152 -4c49 0 98 4 147 4c8 0 15 -9 15 -16c0 -14 -5 -29 -19 -32c-27 0 -62 0 -84 -4c-13 -3 -19 -12 -23 -24l-135 -541c0 -2 -1 -4 -1 -7
c0 -2 0 -5 3 -6c27 -5 58 -5 85 -5c8 0 15 -9 15 -16c0 -14 -5 -29 -19 -32c-51 0 -102 4 -153 4c-48 0 -97 -4 -146 -4c-9 0 -15 9 -15 17c0 13 5 28 19 31c26 0 62 0 84 4c13 3 19 12 23 24l63 255h-377l-66 -265c0 -2 -1 -4 -1 -7c0 -2 0 -5 3 -6c27 -5 58 -5 85 -5
c8 0 15 -9 15 -16c0 -14 -5 -29 -19 -32c-51 0 -102 4 -153 4c-48 0 -97 -4 -146 -4z" />
    <glyph glyph-name="I" unicode="I" horiz-adv-x="626" 
d="M124 0c-8 0 -14 9 -14 17c0 13 4 28 18 31c29 0 66 0 89 4c13 3 20 12 24 24l134 540c1 2 1 4 1 7c0 6 -2 7 -7 8c-22 4 -58 4 -86 4c-8 0 -15 9 -15 17c0 13 5 28 19 31c53 0 106 -4 158 -4c51 0 102 4 153 4c8 0 14 -9 14 -16c0 -14 -4 -29 -19 -32c-28 0 -65 0 -89 -4
c-12 -3 -19 -12 -23 -24l-135 -540c0 -2 0 -4 -1 -7c0 -6 3 -7 8 -8c21 -4 58 -4 85 -4c9 0 15 -9 15 -16c0 -14 -4 -29 -18 -32c-53 0 -106 4 -159 4c-50 0 -101 -4 -152 -4z" />
    <glyph glyph-name="I" unicode="&#xf049;" horiz-adv-x="626" 
d="M124 0c-8 0 -14 9 -14 17c0 13 4 28 18 31c29 0 66 0 89 4c13 3 20 12 24 24l134 540c1 2 1 4 1 7c0 6 -2 7 -7 8c-22 4 -58 4 -86 4c-8 0 -15 9 -15 17c0 13 5 28 19 31c53 0 106 -4 158 -4c51 0 102 4 153 4c8 0 14 -9 14 -16c0 -14 -4 -29 -19 -32c-28 0 -65 0 -89 -4
c-12 -3 -19 -12 -23 -24l-135 -540c0 -2 0 -4 -1 -7c0 -6 3 -7 8 -8c21 -4 58 -4 85 -4c9 0 15 -9 15 -16c0 -14 -4 -29 -18 -32c-53 0 -106 4 -159 4c-50 0 -101 -4 -152 -4z" />
    <glyph glyph-name="J" unicode="J" horiz-adv-x="772" 
d="M211 52c25 -29 70 -37 107 -37c73 0 139 64 156 132l117 469c1 1 1 3 1 4c0 6 -4 9 -9 10c-26 5 -75 5 -111 5c-9 0 -15 9 -15 17c0 13 4 28 18 31c62 0 123 -4 184 -4c39 0 78 4 117 4c9 0 15 -9 15 -16c0 -14 -5 -29 -19 -32c-20 0 -43 0 -63 -4
c-10 -3 -14 -15 -16 -24l-117 -468c-26 -106 -159 -161 -259 -161c-69 0 -169 27 -169 112c0 45 29 86 77 86c28 0 52 -20 52 -49c0 -38 -30 -70 -66 -75z" />
    <glyph glyph-name="J" unicode="&#xf04a;" horiz-adv-x="772" 
d="M211 52c25 -29 70 -37 107 -37c73 0 139 64 156 132l117 469c1 1 1 3 1 4c0 6 -4 9 -9 10c-26 5 -75 5 -111 5c-9 0 -15 9 -15 17c0 13 4 28 18 31c62 0 123 -4 184 -4c39 0 78 4 117 4c9 0 15 -9 15 -16c0 -14 -5 -29 -19 -32c-20 0 -43 0 -63 -4
c-10 -3 -14 -15 -16 -24l-117 -468c-26 -106 -159 -161 -259 -161c-69 0 -169 27 -169 112c0 45 29 86 77 86c28 0 52 -20 52 -49c0 -38 -30 -70 -66 -75z" />
    <glyph glyph-name="K" unicode="K" horiz-adv-x="1138" 
d="M130 0c-9 0 -15 9 -15 17c0 13 5 28 19 31c26 0 62 0 84 4c13 3 19 12 23 24l134 539c1 3 1 6 1 9c0 2 0 5 -3 6c-26 5 -57 5 -84 5c-9 0 -15 9 -15 17c0 13 4 28 19 31c50 0 101 -4 152 -4c49 0 98 4 147 4c8 0 15 -9 15 -16c0 -14 -5 -29 -19 -32c-27 0 -62 0 -84 -4
c-13 -3 -19 -12 -23 -24l-77 -309l459 294c7 11 31 17 31 34c0 9 -18 9 -25 9c-8 0 -15 9 -15 17c0 13 5 28 19 31c49 0 99 -4 149 -4c25 0 51 4 76 4c8 0 14 -9 14 -16c0 -14 -4 -29 -18 -32c-68 0 -130 -31 -186 -65c-2 -2 -5 -2 -8 -3l-239 -153l210 -341
c23 -25 52 -25 85 -25c8 0 15 -9 15 -16c0 -14 -5 -29 -19 -32c-38 0 -75 4 -113 4c-50 0 -101 -4 -151 -4c-8 0 -14 9 -14 17c0 13 4 28 18 31c13 0 55 0 55 18v4l-177 286l-181 -116l-42 -172c-1 -3 -2 -6 -2 -9c0 -2 0 -5 3 -6c27 -5 58 -5 85 -5c8 0 15 -9 15 -16
c0 -14 -5 -29 -19 -32c-51 0 -102 4 -153 4c-49 0 -97 -4 -146 -4z" />
    <glyph glyph-name="K" unicode="&#xf04b;" horiz-adv-x="1138" 
d="M130 0c-9 0 -15 9 -15 17c0 13 5 28 19 31c26 0 62 0 84 4c13 3 19 12 23 24l134 539c1 3 1 6 1 9c0 2 0 5 -3 6c-26 5 -57 5 -84 5c-9 0 -15 9 -15 17c0 13 4 28 19 31c50 0 101 -4 152 -4c49 0 98 4 147 4c8 0 15 -9 15 -16c0 -14 -5 -29 -19 -32c-27 0 -62 0 -84 -4
c-13 -3 -19 -12 -23 -24l-77 -309l459 294c7 11 31 17 31 34c0 9 -18 9 -25 9c-8 0 -15 9 -15 17c0 13 5 28 19 31c49 0 99 -4 149 -4c25 0 51 4 76 4c8 0 14 -9 14 -16c0 -14 -4 -29 -18 -32c-68 0 -130 -31 -186 -65c-2 -2 -5 -2 -8 -3l-239 -153l210 -341
c23 -25 52 -25 85 -25c8 0 15 -9 15 -16c0 -14 -5 -29 -19 -32c-38 0 -75 4 -113 4c-50 0 -101 -4 -151 -4c-8 0 -14 9 -14 17c0 13 4 28 18 31c13 0 55 0 55 18v4l-177 286l-181 -116l-42 -172c-1 -3 -2 -6 -2 -9c0 -2 0 -5 3 -6c27 -5 58 -5 85 -5c8 0 15 -9 15 -16
c0 -14 -5 -29 -19 -32c-51 0 -102 4 -153 4c-49 0 -97 -4 -146 -4z" />
    <glyph glyph-name="L" unicode="L" horiz-adv-x="955" 
d="M130 0c-8 0 -15 9 -15 17c0 13 5 28 19 31c27 0 62 0 84 4c13 3 19 12 23 24l135 541v7c0 2 0 5 -3 6c-25 5 -58 5 -84 5c-9 0 -15 9 -15 17c0 13 4 28 19 31c51 0 101 -4 152 -4c58 0 117 4 175 4c8 0 14 -9 14 -16c0 -14 -4 -29 -18 -32c-35 0 -83 0 -110 -5
c-12 -3 -21 -10 -25 -23l-134 -539c-2 -6 -4 -12 -4 -18c11 -2 23 -2 34 -2h126c169 0 236 65 295 217c2 5 8 10 14 10h16c8 0 15 -9 15 -17c0 -2 -1 -4 -2 -7l-93 -241c-2 -5 -8 -10 -14 -10h-604z" />
    <glyph glyph-name="L" unicode="&#xf04c;" horiz-adv-x="955" 
d="M130 0c-8 0 -15 9 -15 17c0 13 5 28 19 31c27 0 62 0 84 4c13 3 19 12 23 24l135 541v7c0 2 0 5 -3 6c-25 5 -58 5 -84 5c-9 0 -15 9 -15 17c0 13 4 28 19 31c51 0 101 -4 152 -4c58 0 117 4 175 4c8 0 14 -9 14 -16c0 -14 -4 -29 -18 -32c-35 0 -83 0 -110 -5
c-12 -3 -21 -10 -25 -23l-134 -539c-2 -6 -4 -12 -4 -18c11 -2 23 -2 34 -2h126c169 0 236 65 295 217c2 5 8 10 14 10h16c8 0 15 -9 15 -17c0 -2 -1 -4 -2 -7l-93 -241c-2 -5 -8 -10 -14 -10h-604z" />
    <glyph glyph-name="M" unicode="M" horiz-adv-x="1284" 
d="M135 0c-8 0 -14 9 -14 17c0 13 5 28 19 31c44 0 99 6 113 56l128 511c1 3 1 6 1 9c0 2 0 5 -3 6c-26 5 -57 5 -84 5c-9 0 -15 9 -15 17c0 13 4 28 19 31h197c11 0 20 -6 22 -16l128 -571l413 571c7 9 18 16 30 16h190c8 0 15 -9 15 -16c0 -14 -5 -29 -19 -32
c-27 0 -62 0 -84 -4c-13 -3 -19 -12 -23 -24l-134 -539c-1 -3 -2 -6 -2 -9c0 -2 0 -5 3 -6c27 -5 58 -5 85 -5c8 0 15 -9 15 -16c0 -14 -5 -29 -19 -32c-49 0 -98 4 -147 4c-46 0 -93 -4 -140 -4c-9 0 -15 9 -15 17c0 13 5 28 19 31c26 0 62 0 84 4c13 3 19 12 23 24
l140 562l-450 -621c-6 -10 -18 -17 -30 -17h-5c-11 0 -20 6 -22 17l-137 612l-134 -533c0 -4 -1 -8 -1 -12c0 -36 55 -36 81 -36c8 0 15 -9 15 -16c0 -14 -5 -29 -19 -32c-41 0 -83 4 -124 4c-40 0 -79 -4 -119 -4z" />
    <glyph glyph-name="M" unicode="&#xf04d;" horiz-adv-x="1284" 
d="M135 0c-8 0 -14 9 -14 17c0 13 5 28 19 31c44 0 99 6 113 56l128 511c1 3 1 6 1 9c0 2 0 5 -3 6c-26 5 -57 5 -84 5c-9 0 -15 9 -15 17c0 13 4 28 19 31h197c11 0 20 -6 22 -16l128 -571l413 571c7 9 18 16 30 16h190c8 0 15 -9 15 -16c0 -14 -5 -29 -19 -32
c-27 0 -62 0 -84 -4c-13 -3 -19 -12 -23 -24l-134 -539c-1 -3 -2 -6 -2 -9c0 -2 0 -5 3 -6c27 -5 58 -5 85 -5c8 0 15 -9 15 -16c0 -14 -5 -29 -19 -32c-49 0 -98 4 -147 4c-46 0 -93 -4 -140 -4c-9 0 -15 9 -15 17c0 13 5 28 19 31c26 0 62 0 84 4c13 3 19 12 23 24
l140 562l-450 -621c-6 -10 -18 -17 -30 -17h-5c-11 0 -20 6 -22 17l-137 612l-134 -533c0 -4 -1 -8 -1 -12c0 -36 55 -36 81 -36c8 0 15 -9 15 -16c0 -14 -5 -29 -19 -32c-41 0 -83 4 -124 4c-40 0 -79 -4 -119 -4z" />
    <glyph glyph-name="N" unicode="N" horiz-adv-x="1075" 
d="M129 0c-8 0 -14 9 -14 17c0 13 5 28 19 31c44 0 99 6 113 56l132 527c-25 4 -61 4 -90 4c-9 0 -15 9 -15 17c0 13 4 28 19 31h195c4 0 10 -3 12 -7l303 -519l107 430c1 4 2 8 2 12c0 36 -55 36 -81 36c-9 0 -15 9 -15 17c0 13 4 28 19 31c41 0 82 -4 124 -4
c39 0 79 4 118 4c8 0 15 -9 15 -16c0 -14 -5 -29 -19 -32c-44 0 -99 -6 -114 -56l-141 -566c-2 -7 -8 -13 -15 -13h-20c-4 0 -10 3 -12 7l-348 596l-127 -507c0 -4 -1 -8 -1 -12c0 -36 55 -36 81 -36c8 0 15 -9 15 -16c0 -14 -5 -29 -19 -32c-41 0 -83 4 -124 4
c-40 0 -79 -4 -119 -4z" />
    <glyph glyph-name="N" unicode="&#xf04e;" horiz-adv-x="1075" 
d="M129 0c-8 0 -14 9 -14 17c0 13 5 28 19 31c44 0 99 6 113 56l132 527c-25 4 -61 4 -90 4c-9 0 -15 9 -15 17c0 13 4 28 19 31h195c4 0 10 -3 12 -7l303 -519l107 430c1 4 2 8 2 12c0 36 -55 36 -81 36c-9 0 -15 9 -15 17c0 13 4 28 19 31c41 0 82 -4 124 -4
c39 0 79 4 118 4c8 0 15 -9 15 -16c0 -14 -5 -29 -19 -32c-44 0 -99 -6 -114 -56l-141 -566c-2 -7 -8 -13 -15 -13h-20c-4 0 -10 3 -12 7l-348 596l-127 -507c0 -4 -1 -8 -1 -12c0 -36 55 -36 81 -36c8 0 15 -9 15 -16c0 -14 -5 -29 -19 -32c-41 0 -83 4 -124 4
c-40 0 -79 -4 -119 -4z" />
    <glyph glyph-name="O" unicode="O" horiz-adv-x="1047" 
d="M114 263c0 251 284 442 518 442c172 0 335 -101 335 -288c0 -252 -283 -439 -517 -439c-170 0 -336 98 -336 285zM229 248c0 -139 92 -230 231 -230c221 0 395 218 395 429c0 139 -99 218 -233 218c-225 0 -393 -201 -393 -417z" />
    <glyph glyph-name="O" unicode="&#xf04f;" horiz-adv-x="1047" 
d="M114 263c0 251 284 442 518 442c172 0 335 -101 335 -288c0 -252 -283 -439 -517 -439c-170 0 -336 98 -336 285zM229 248c0 -139 92 -230 231 -230c221 0 395 218 395 429c0 139 -99 218 -233 218c-225 0 -393 -201 -393 -417z" />
    <glyph glyph-name="P" unicode="P" horiz-adv-x="875" 
d="M132 0c-9 0 -15 9 -15 17c0 13 5 28 19 31c26 0 62 0 84 4c13 3 19 12 23 24l134 539c1 3 1 6 1 9c0 2 0 5 -3 6c-26 5 -57 5 -84 5c-9 0 -15 9 -15 17c0 13 4 28 19 31h411c98 0 250 -42 250 -163c0 -150 -223 -220 -346 -220h-204l-57 -232c-1 -3 -2 -6 -2 -9
c0 -2 0 -5 3 -6c27 -5 58 -5 85 -5c8 0 15 -9 15 -16c0 -14 -5 -29 -19 -32c-51 0 -102 4 -153 4c-49 0 -97 -4 -146 -4zM413 342h179c56 0 116 5 171 38c51 31 78 97 78 155c0 93 -106 100 -176 100h-135c-31 0 -43 0 -51 -28z" />
    <glyph glyph-name="P" unicode="&#xf050;" horiz-adv-x="875" 
d="M132 0c-9 0 -15 9 -15 17c0 13 5 28 19 31c26 0 62 0 84 4c13 3 19 12 23 24l134 539c1 3 1 6 1 9c0 2 0 5 -3 6c-26 5 -57 5 -84 5c-9 0 -15 9 -15 17c0 13 4 28 19 31h411c98 0 250 -42 250 -163c0 -150 -223 -220 -346 -220h-204l-57 -232c-1 -3 -2 -6 -2 -9
c0 -2 0 -5 3 -6c27 -5 58 -5 85 -5c8 0 15 -9 15 -16c0 -14 -5 -29 -19 -32c-51 0 -102 4 -153 4c-49 0 -97 -4 -146 -4zM413 342h179c56 0 116 5 171 38c51 31 78 97 78 155c0 93 -106 100 -176 100h-135c-31 0 -43 0 -51 -28z" />
    <glyph glyph-name="Q" unicode="Q" horiz-adv-x="1082" 
d="M450 -22c-170 0 -336 98 -336 285c0 251 284 442 518 442c172 0 335 -101 335 -288c0 -193 -172 -350 -343 -409c16 -42 36 -84 87 -84c53 0 119 24 136 80c2 7 8 13 16 13c9 0 16 -8 16 -17v-4c-23 -88 -97 -190 -197 -190c-98 0 -114 110 -114 186
c-39 -9 -79 -14 -118 -14zM402 53c0 -31 35 -35 58 -35c34 0 69 5 103 16c-7 44 -22 84 -74 84c-35 0 -87 -24 -87 -65zM365 52c0 63 69 103 125 103c67 0 97 -49 118 -105c149 66 248 226 248 388c0 141 -96 227 -234 227c-222 0 -397 -208 -397 -423
c0 -97 48 -178 143 -210c-2 7 -3 14 -3 20z" />
    <glyph glyph-name="Q" unicode="&#xf051;" horiz-adv-x="1082" 
d="M450 -22c-170 0 -336 98 -336 285c0 251 284 442 518 442c172 0 335 -101 335 -288c0 -193 -172 -350 -343 -409c16 -42 36 -84 87 -84c53 0 119 24 136 80c2 7 8 13 16 13c9 0 16 -8 16 -17v-4c-23 -88 -97 -190 -197 -190c-98 0 -114 110 -114 186
c-39 -9 -79 -14 -118 -14zM402 53c0 -31 35 -35 58 -35c34 0 69 5 103 16c-7 44 -22 84 -74 84c-35 0 -87 -24 -87 -65zM365 52c0 63 69 103 125 103c67 0 97 -49 118 -105c149 66 248 226 248 388c0 141 -96 227 -234 227c-222 0 -397 -208 -397 -423
c0 -97 48 -178 143 -210c-2 7 -3 14 -3 20z" />
    <glyph glyph-name="R" unicode="R" horiz-adv-x="1030" 
d="M132 0c-9 0 -15 9 -15 17c0 13 5 28 19 31c26 0 62 0 84 4c13 3 19 12 23 24l134 539c1 3 1 6 1 9c0 2 0 5 -3 6c-26 5 -57 5 -84 5c-9 0 -15 9 -15 17c0 13 4 28 19 31h359c94 0 285 -35 285 -159c0 -104 -141 -163 -225 -184c53 -18 97 -53 97 -113c0 -6 -1 -11 -2 -17
l-11 -87c-1 -12 -2 -25 -2 -36c0 -38 9 -72 53 -72c47 0 85 45 96 87c2 6 8 12 14 12h16c9 0 15 -8 15 -16v-4c-16 -63 -76 -116 -141 -116c-74 0 -173 21 -173 114c0 12 2 24 5 37l21 87c2 7 2 14 2 21c0 68 -85 86 -137 86h-159l-63 -255c-1 -3 -2 -6 -2 -9
c0 -2 0 -5 3 -6c27 -5 58 -5 85 -5c8 0 15 -9 15 -16c0 -14 -5 -29 -19 -32c-50 0 -100 4 -151 4c-48 0 -96 -4 -144 -4zM418 360h141c60 0 124 4 183 36c49 26 82 82 82 137c0 99 -124 102 -197 102h-97c-31 0 -43 0 -51 -28z" />
    <glyph glyph-name="R" unicode="&#xf052;" horiz-adv-x="1030" 
d="M132 0c-9 0 -15 9 -15 17c0 13 5 28 19 31c26 0 62 0 84 4c13 3 19 12 23 24l134 539c1 3 1 6 1 9c0 2 0 5 -3 6c-26 5 -57 5 -84 5c-9 0 -15 9 -15 17c0 13 4 28 19 31h359c94 0 285 -35 285 -159c0 -104 -141 -163 -225 -184c53 -18 97 -53 97 -113c0 -6 -1 -11 -2 -17
l-11 -87c-1 -12 -2 -25 -2 -36c0 -38 9 -72 53 -72c47 0 85 45 96 87c2 6 8 12 14 12h16c9 0 15 -8 15 -16v-4c-16 -63 -76 -116 -141 -116c-74 0 -173 21 -173 114c0 12 2 24 5 37l21 87c2 7 2 14 2 21c0 68 -85 86 -137 86h-159l-63 -255c-1 -3 -2 -6 -2 -9
c0 -2 0 -5 3 -6c27 -5 58 -5 85 -5c8 0 15 -9 15 -16c0 -14 -5 -29 -19 -32c-50 0 -100 4 -151 4c-48 0 -96 -4 -144 -4zM418 360h141c60 0 124 4 183 36c49 26 82 82 82 137c0 99 -124 102 -197 102h-97c-31 0 -43 0 -51 -28z" />
    <glyph glyph-name="S" unicode="S" horiz-adv-x="856" 
d="M136 -22c-7 2 -13 7 -13 15l56 226c3 5 6 7 12 8h21c6 -2 12 -7 12 -15c-4 -18 -6 -35 -7 -50c0 -116 134 -136 223 -136c92 0 223 66 223 170c0 57 -50 92 -101 104l-166 34c-74 17 -146 63 -146 148c0 139 169 223 291 223c67 0 140 -16 185 -70l62 66c3 2 6 3 9 4h9
c7 -2 13 -7 13 -15l-56 -225c-4 -6 -6 -8 -12 -9h-21c-7 2 -12 7 -12 16c1 12 2 23 2 34c0 112 -82 154 -183 154c-84 0 -219 -55 -219 -153c0 -55 53 -85 100 -95l165 -35c80 -18 148 -69 148 -158c0 -143 -165 -241 -296 -241c-40 0 -79 4 -118 13c-51 13 -63 24 -103 55
l-60 -64c-3 -2 -6 -3 -9 -4h-9z" />
    <glyph glyph-name="S" unicode="&#xf053;" horiz-adv-x="856" 
d="M136 -22c-7 2 -13 7 -13 15l56 226c3 5 6 7 12 8h21c6 -2 12 -7 12 -15c-4 -18 -6 -35 -7 -50c0 -116 134 -136 223 -136c92 0 223 66 223 170c0 57 -50 92 -101 104l-166 34c-74 17 -146 63 -146 148c0 139 169 223 291 223c67 0 140 -16 185 -70l62 66c3 2 6 3 9 4h9
c7 -2 13 -7 13 -15l-56 -225c-4 -6 -6 -8 -12 -9h-21c-7 2 -12 7 -12 16c1 12 2 23 2 34c0 112 -82 154 -183 154c-84 0 -219 -55 -219 -153c0 -55 53 -85 100 -95l165 -35c80 -18 148 -69 148 -158c0 -143 -165 -241 -296 -241c-40 0 -79 4 -118 13c-51 13 -63 24 -103 55
l-60 -64c-3 -2 -6 -3 -9 -4h-9z" />
    <glyph glyph-name="T" unicode="T" horiz-adv-x="832" 
d="M173 17c0 13 5 28 19 31c41 0 97 0 127 6c12 2 22 10 26 22l134 539c2 6 3 12 3 18c-10 2 -23 2 -34 2h-82c-160 0 -183 -42 -234 -184c-2 -5 -8 -10 -14 -10h-16c-8 0 -15 9 -15 17c0 2 1 4 2 7l75 209c2 4 8 9 14 9h736c8 0 15 -10 15 -18l-30 -209
c-1 -7 -7 -15 -15 -15h-16c-8 0 -15 10 -15 18c4 28 9 58 9 86c0 90 -67 90 -141 90h-85c-31 0 -43 0 -51 -28l-135 -540v-3c0 -4 1 -7 4 -9c18 -7 105 -7 129 -7c8 0 15 -9 15 -16c0 -14 -5 -29 -19 -32c-66 0 -132 4 -199 4c-64 0 -128 -4 -192 -4c-9 0 -15 9 -15 17z" />
    <glyph glyph-name="T" unicode="&#xf054;" horiz-adv-x="832" 
d="M173 17c0 13 5 28 19 31c41 0 97 0 127 6c12 2 22 10 26 22l134 539c2 6 3 12 3 18c-10 2 -23 2 -34 2h-82c-160 0 -183 -42 -234 -184c-2 -5 -8 -10 -14 -10h-16c-8 0 -15 9 -15 17c0 2 1 4 2 7l75 209c2 4 8 9 14 9h736c8 0 15 -10 15 -18l-30 -209
c-1 -7 -7 -15 -15 -15h-16c-8 0 -15 10 -15 18c4 28 9 58 9 86c0 90 -67 90 -141 90h-85c-31 0 -43 0 -51 -28l-135 -540v-3c0 -4 1 -7 4 -9c18 -7 105 -7 129 -7c8 0 15 -9 15 -16c0 -14 -5 -29 -19 -32c-66 0 -132 4 -199 4c-64 0 -128 -4 -192 -4c-9 0 -15 9 -15 17z" />
    <glyph glyph-name="U" unicode="U" horiz-adv-x="943" 
d="M141 183c0 17 3 32 6 49l96 383c1 3 1 6 1 9c0 2 0 5 -3 6c-26 5 -57 5 -84 5c-9 0 -15 9 -15 17c0 13 4 28 19 31c51 0 101 -4 152 -4c49 0 98 4 147 4c8 0 15 -9 15 -16c0 -14 -5 -29 -19 -32c-27 0 -62 0 -84 -4c-13 -3 -19 -12 -23 -24l-96 -383
c-5 -21 -8 -43 -8 -65c0 -93 73 -133 158 -133c125 0 257 80 288 206l89 355c1 4 2 8 2 12c0 36 -55 36 -81 36c-9 0 -15 9 -15 17c0 13 4 28 19 31c41 0 82 -4 123 -4c39 0 78 4 117 4c8 0 15 -9 15 -16c0 -14 -5 -29 -19 -32c-44 0 -99 -6 -114 -56l-89 -355
c-36 -145 -194 -246 -339 -246c-122 0 -258 65 -258 205z" />
    <glyph glyph-name="U" unicode="&#xf055;" horiz-adv-x="943" 
d="M141 183c0 17 3 32 6 49l96 383c1 3 1 6 1 9c0 2 0 5 -3 6c-26 5 -57 5 -84 5c-9 0 -15 9 -15 17c0 13 4 28 19 31c51 0 101 -4 152 -4c49 0 98 4 147 4c8 0 15 -9 15 -16c0 -14 -5 -29 -19 -32c-27 0 -62 0 -84 -4c-13 -3 -19 -12 -23 -24l-96 -383
c-5 -21 -8 -43 -8 -65c0 -93 73 -133 158 -133c125 0 257 80 288 206l89 355c1 4 2 8 2 12c0 36 -55 36 -81 36c-9 0 -15 9 -15 17c0 13 4 28 19 31c41 0 82 -4 123 -4c39 0 78 4 117 4c8 0 15 -9 15 -16c0 -14 -5 -29 -19 -32c-44 0 -99 -6 -114 -56l-89 -355
c-36 -145 -194 -246 -339 -246c-122 0 -258 65 -258 205z" />
    <glyph glyph-name="V" unicode="V" horiz-adv-x="827" 
d="M363 -6l-141 626c-8 15 -61 15 -80 15c-9 0 -15 9 -15 17c0 13 4 28 19 31c42 0 84 -4 126 -4c50 0 99 4 149 4c8 0 14 -9 14 -16c0 -14 -4 -29 -18 -32c-16 0 -74 0 -80 -17l117 -520l354 488c3 4 9 19 9 25c0 21 -34 24 -49 24c-8 0 -15 9 -15 17c0 13 5 28 19 31
c41 0 82 -4 124 -4c30 0 60 4 90 4c9 0 15 -9 15 -16c0 -14 -5 -29 -19 -32c-51 0 -96 -19 -127 -60c-2 -2 -5 -4 -7 -6l-416 -575c-7 -9 -18 -16 -30 -16h-17c-10 0 -19 6 -22 16z" />
    <glyph glyph-name="V" unicode="&#xf056;" horiz-adv-x="827" 
d="M363 -6l-141 626c-8 15 -61 15 -80 15c-9 0 -15 9 -15 17c0 13 4 28 19 31c42 0 84 -4 126 -4c50 0 99 4 149 4c8 0 14 -9 14 -16c0 -14 -4 -29 -18 -32c-16 0 -74 0 -80 -17l117 -520l354 488c3 4 9 19 9 25c0 21 -34 24 -49 24c-8 0 -15 9 -15 17c0 13 5 28 19 31
c41 0 82 -4 124 -4c30 0 60 4 90 4c9 0 15 -9 15 -16c0 -14 -5 -29 -19 -32c-51 0 -96 -19 -127 -60c-2 -2 -5 -4 -7 -6l-416 -575c-7 -9 -18 -16 -30 -16h-17c-10 0 -19 6 -22 16z" />
    <glyph glyph-name="W" unicode="W" horiz-adv-x="1279" 
d="M305 -6l-93 627c-7 14 -55 14 -72 14c-8 0 -15 9 -15 17c0 13 5 28 19 31c40 0 80 -4 120 -4c49 0 98 4 148 4c8 0 14 -9 14 -16c0 -14 -4 -29 -19 -32c-22 0 -70 0 -83 -19l74 -499l291 450l-8 54c-7 14 -55 14 -72 14c-8 0 -15 9 -15 17c0 13 5 28 19 31
c40 0 80 -4 120 -4c49 0 99 4 148 4c8 0 14 -9 14 -16c0 -14 -4 -29 -18 -32c-23 0 -70 0 -84 -19l1 -3l73 -496l304 468c2 4 7 16 7 21c0 25 -46 29 -64 29c-9 0 -15 9 -15 17c0 13 4 28 19 31c44 0 89 -4 133 -4c28 0 56 4 84 4c8 0 14 -9 14 -16c0 -14 -4 -29 -18 -32
c-48 0 -90 -21 -116 -61c-2 -2 -4 -3 -5 -5l-373 -575c-6 -9 -17 -16 -28 -16h-14c-10 0 -19 6 -21 16l-75 511l-331 -511c-6 -9 -17 -16 -29 -16h-14c-10 0 -18 6 -20 16z" />
    <glyph glyph-name="W" unicode="&#xf057;" horiz-adv-x="1279" 
d="M305 -6l-93 627c-7 14 -55 14 -72 14c-8 0 -15 9 -15 17c0 13 5 28 19 31c40 0 80 -4 120 -4c49 0 98 4 148 4c8 0 14 -9 14 -16c0 -14 -4 -29 -19 -32c-22 0 -70 0 -83 -19l74 -499l291 450l-8 54c-7 14 -55 14 -72 14c-8 0 -15 9 -15 17c0 13 5 28 19 31
c40 0 80 -4 120 -4c49 0 99 4 148 4c8 0 14 -9 14 -16c0 -14 -4 -29 -18 -32c-23 0 -70 0 -84 -19l1 -3l73 -496l304 468c2 4 7 16 7 21c0 25 -46 29 -64 29c-9 0 -15 9 -15 17c0 13 4 28 19 31c44 0 89 -4 133 -4c28 0 56 4 84 4c8 0 14 -9 14 -16c0 -14 -4 -29 -18 -32
c-48 0 -90 -21 -116 -61c-2 -2 -4 -3 -5 -5l-373 -575c-6 -9 -17 -16 -28 -16h-14c-10 0 -19 6 -21 16l-75 511l-331 -511c-6 -9 -17 -16 -29 -16h-14c-10 0 -18 6 -20 16z" />
    <glyph glyph-name="X" unicode="X" horiz-adv-x="1112" 
d="M111 0c-8 0 -14 9 -14 17c0 13 4 28 18 31c64 0 126 20 174 63c2 2 6 3 8 5l250 226l-164 277c-19 16 -69 16 -95 16c-9 0 -15 9 -15 17c0 13 4 28 18 31c44 0 88 -4 132 -4c51 0 102 4 153 4c8 0 14 -9 14 -16c0 -14 -4 -29 -19 -32c-18 0 -45 -3 -58 -17l118 -199
l187 170c4 10 16 15 16 27c0 17 -25 19 -37 19c-9 0 -15 9 -15 17c0 13 4 28 18 31c47 0 93 -4 139 -4c35 0 70 4 105 4c8 0 14 -9 14 -16c0 -14 -5 -29 -19 -32c-64 0 -126 -20 -173 -63c-3 -2 -6 -3 -8 -5l-205 -185l189 -318c19 -16 68 -16 95 -16c8 0 15 -9 15 -16
c0 -14 -5 -29 -19 -32c-44 0 -88 4 -131 4c-51 0 -103 -4 -154 -4c-8 0 -14 9 -14 17c0 13 4 28 19 31c19 0 44 3 58 17l-142 240l-233 -211c-3 -10 -15 -15 -15 -27c0 -17 25 -19 37 -19c9 0 15 -9 15 -16c0 -14 -4 -29 -19 -32c-46 0 -92 4 -138 4c-35 0 -70 -4 -105 -4z
" />
    <glyph glyph-name="X" unicode="&#xf058;" horiz-adv-x="1112" 
d="M111 0c-8 0 -14 9 -14 17c0 13 4 28 18 31c64 0 126 20 174 63c2 2 6 3 8 5l250 226l-164 277c-19 16 -69 16 -95 16c-9 0 -15 9 -15 17c0 13 4 28 18 31c44 0 88 -4 132 -4c51 0 102 4 153 4c8 0 14 -9 14 -16c0 -14 -4 -29 -19 -32c-18 0 -45 -3 -58 -17l118 -199
l187 170c4 10 16 15 16 27c0 17 -25 19 -37 19c-9 0 -15 9 -15 17c0 13 4 28 18 31c47 0 93 -4 139 -4c35 0 70 4 105 4c8 0 14 -9 14 -16c0 -14 -5 -29 -19 -32c-64 0 -126 -20 -173 -63c-3 -2 -6 -3 -8 -5l-205 -185l189 -318c19 -16 68 -16 95 -16c8 0 15 -9 15 -16
c0 -14 -5 -29 -19 -32c-44 0 -88 4 -131 4c-51 0 -103 -4 -154 -4c-8 0 -14 9 -14 17c0 13 4 28 19 31c19 0 44 3 58 17l-142 240l-233 -211c-3 -10 -15 -15 -15 -27c0 -17 25 -19 37 -19c9 0 15 -9 15 -16c0 -14 -4 -29 -19 -32c-46 0 -92 4 -138 4c-35 0 -70 -4 -105 -4z
" />
    <glyph glyph-name="Y" unicode="Y" horiz-adv-x="824" 
d="M223 17c0 13 5 28 19 31c26 0 62 0 84 4c11 3 17 10 21 20c1 2 2 6 3 8l48 193l-186 346c-19 16 -67 16 -93 16c-9 0 -15 9 -15 17c0 13 4 28 19 31c44 0 88 -4 132 -4c52 0 103 4 155 4c8 0 14 -9 14 -16c0 -14 -4 -29 -19 -32c-10 0 -61 0 -64 -11l158 -294l269 258
c5 13 21 19 21 34c0 13 -26 13 -35 13c-8 0 -15 9 -15 17c0 13 5 28 19 31c42 0 84 -4 125 -4c31 0 62 4 92 4c8 0 15 -9 15 -16c0 -14 -5 -29 -19 -32c-59 0 -113 -23 -156 -63c-2 -2 -6 -3 -7 -5l-307 -294l-50 -201c-1 -4 -2 -9 -2 -13c0 -2 0 -5 3 -6c27 -5 58 -5 85 -5
c8 0 15 -9 15 -16c0 -14 -5 -29 -19 -32c-50 0 -100 4 -150 4c-49 0 -97 -4 -145 -4c-9 0 -15 9 -15 17z" />
    <glyph glyph-name="Y" unicode="&#xf059;" horiz-adv-x="824" 
d="M223 17c0 13 5 28 19 31c26 0 62 0 84 4c11 3 17 10 21 20c1 2 2 6 3 8l48 193l-186 346c-19 16 -67 16 -93 16c-9 0 -15 9 -15 17c0 13 4 28 19 31c44 0 88 -4 132 -4c52 0 103 4 155 4c8 0 14 -9 14 -16c0 -14 -4 -29 -19 -32c-10 0 -61 0 -64 -11l158 -294l269 258
c5 13 21 19 21 34c0 13 -26 13 -35 13c-8 0 -15 9 -15 17c0 13 5 28 19 31c42 0 84 -4 125 -4c31 0 62 4 92 4c8 0 15 -9 15 -16c0 -14 -5 -29 -19 -32c-59 0 -113 -23 -156 -63c-2 -2 -6 -3 -7 -5l-307 -294l-50 -201c-1 -4 -2 -9 -2 -13c0 -2 0 -5 3 -6c27 -5 58 -5 85 -5
c8 0 15 -9 15 -16c0 -14 -5 -29 -19 -32c-50 0 -100 4 -150 4c-49 0 -97 -4 -145 -4c-9 0 -15 9 -15 17z" />
    <glyph glyph-name="Z" unicode="Z" horiz-adv-x="943" 
d="M129 12c0 11 3 25 11 33l631 590h-169c-154 0 -248 -24 -300 -184c-2 -5 -8 -10 -14 -10h-16c-8 0 -15 9 -15 17c0 1 0 2 1 4l65 209c2 6 7 12 15 12h566c7 0 13 -5 13 -12c0 -11 -3 -23 -11 -31l-630 -589h178c190 0 261 31 324 219c2 7 7 14 15 14h16c8 0 15 -9 15 -16
c0 -2 0 -3 -1 -4l-82 -251c-2 -7 -8 -13 -15 -13h-584c-8 0 -13 5 -13 12z" />
    <glyph glyph-name="Z" unicode="&#xf05a;" horiz-adv-x="943" 
d="M129 12c0 11 3 25 11 33l631 590h-169c-154 0 -248 -24 -300 -184c-2 -5 -8 -10 -14 -10h-16c-8 0 -15 9 -15 17c0 1 0 2 1 4l65 209c2 6 7 12 15 12h566c7 0 13 -5 13 -12c0 -11 -3 -23 -11 -31l-630 -589h178c190 0 261 31 324 219c2 7 7 14 15 14h16c8 0 15 -9 15 -16
c0 -2 0 -3 -1 -4l-82 -251c-2 -7 -8 -13 -15 -13h-584c-8 0 -13 5 -13 12z" />
    <glyph glyph-name="a" unicode="a" horiz-adv-x="774" 
d="M103 163c0 145 141 279 284 279c46 0 91 -20 118 -57c7 22 28 37 51 37c21 0 38 -15 38 -36c0 -4 0 -7 -1 -10l-67 -270c-3 -10 -4 -20 -4 -29c0 -25 11 -51 39 -51c50 0 70 84 80 123c1 5 6 7 11 9h21c8 -2 11 -6 13 -13c0 -2 -1 -5 -1 -7c-15 -60 -53 -149 -126 -149
c-47 0 -104 19 -121 68c-44 -39 -99 -68 -157 -68c-101 0 -178 72 -178 174zM283 26c64 0 120 46 156 94l49 198c-11 49 -51 87 -103 87c-126 0 -189 -177 -189 -281c0 -53 30 -98 87 -98z" />
    <glyph glyph-name="a" unicode="&#xf061;" horiz-adv-x="774" 
d="M103 163c0 145 141 279 284 279c46 0 91 -20 118 -57c7 22 28 37 51 37c21 0 38 -15 38 -36c0 -4 0 -7 -1 -10l-67 -270c-3 -10 -4 -20 -4 -29c0 -25 11 -51 39 -51c50 0 70 84 80 123c1 5 6 7 11 9h21c8 -2 11 -6 13 -13c0 -2 -1 -5 -1 -7c-15 -60 -53 -149 -126 -149
c-47 0 -104 19 -121 68c-44 -39 -99 -68 -157 -68c-101 0 -178 72 -178 174zM283 26c64 0 120 46 156 94l49 198c-11 49 -51 87 -103 87c-126 0 -189 -177 -189 -281c0 -53 30 -98 87 -98z" />
    <glyph glyph-name="b" unicode="b" horiz-adv-x="633" 
d="M281 -11c-100 0 -172 73 -172 173c0 20 4 38 7 58l95 380c2 7 4 15 4 22c0 13 -57 13 -69 13c-9 0 -15 9 -15 17c0 13 4 28 18 31l154 11c10 0 18 -6 18 -16v-4l-71 -284c39 30 87 52 137 52c101 0 177 -72 177 -174c0 -145 -140 -279 -283 -279zM283 26
c126 0 188 178 188 281c0 53 -29 98 -86 98c-63 0 -119 -45 -155 -94l-25 -99c-8 -26 -10 -56 -10 -83c0 -56 28 -103 88 -103z" />
    <glyph glyph-name="b" unicode="&#xf062;" horiz-adv-x="633" 
d="M281 -11c-100 0 -172 73 -172 173c0 20 4 38 7 58l95 380c2 7 4 15 4 22c0 13 -57 13 -69 13c-9 0 -15 9 -15 17c0 13 4 28 18 31l154 11c10 0 18 -6 18 -16v-4l-71 -284c39 30 87 52 137 52c101 0 177 -72 177 -174c0 -145 -140 -279 -283 -279zM283 26
c126 0 188 178 188 281c0 53 -29 98 -86 98c-63 0 -119 -45 -155 -94l-25 -99c-8 -26 -10 -56 -10 -83c0 -56 28 -103 88 -103z" />
    <glyph glyph-name="c" unicode="c" horiz-adv-x="649" 
d="M201 139c0 -72 48 -113 118 -113c88 0 183 20 241 91c3 2 7 4 11 4c11 0 25 -14 25 -26c0 -4 -2 -6 -4 -9c-67 -81 -177 -97 -276 -97c-107 0 -211 64 -211 182c0 155 172 271 317 271c56 0 154 -13 154 -87c0 -38 -27 -72 -66 -72c-25 0 -45 17 -45 42c0 27 18 53 43 61
c-22 16 -61 19 -88 19c-138 0 -219 -142 -219 -266z" />
    <glyph glyph-name="c" unicode="&#xf063;" horiz-adv-x="649" 
d="M201 139c0 -72 48 -113 118 -113c88 0 183 20 241 91c3 2 7 4 11 4c11 0 25 -14 25 -26c0 -4 -2 -6 -4 -9c-67 -81 -177 -97 -276 -97c-107 0 -211 64 -211 182c0 155 172 271 317 271c56 0 154 -13 154 -87c0 -38 -27 -72 -66 -72c-25 0 -45 17 -45 42c0 27 18 53 43 61
c-22 16 -61 19 -88 19c-138 0 -219 -142 -219 -266z" />
    <glyph glyph-name="d" unicode="d" horiz-adv-x="739" 
d="M103 163c0 145 141 279 284 279c46 0 90 -20 118 -57l53 215c2 7 4 15 4 22c0 13 -57 13 -69 13c-9 0 -15 9 -15 17c0 13 4 28 18 31l154 11c10 0 18 -6 18 -16v-4l-143 -571c-2 -9 -3 -18 -3 -26c0 -25 11 -51 39 -51c50 0 70 84 80 123c1 5 6 7 11 9h21
c8 -2 11 -6 13 -13c0 -2 -1 -5 -1 -7c-15 -60 -53 -149 -126 -149c-47 0 -104 19 -121 68c-44 -39 -99 -68 -157 -68c-101 0 -178 72 -178 174zM283 26c63 0 120 45 155 94l50 198c-10 49 -52 87 -103 87c-126 0 -189 -177 -189 -281c0 -53 30 -98 87 -98z" />
    <glyph glyph-name="d" unicode="&#xf064;" horiz-adv-x="739" 
d="M103 163c0 145 141 279 284 279c46 0 90 -20 118 -57l53 215c2 7 4 15 4 22c0 13 -57 13 -69 13c-9 0 -15 9 -15 17c0 13 4 28 18 31l154 11c10 0 18 -6 18 -16v-4l-143 -571c-2 -9 -3 -18 -3 -26c0 -25 11 -51 39 -51c50 0 70 84 80 123c1 5 6 7 11 9h21
c8 -2 11 -6 13 -13c0 -2 -1 -5 -1 -7c-15 -60 -53 -149 -126 -149c-47 0 -104 19 -121 68c-44 -39 -99 -68 -157 -68c-101 0 -178 72 -178 174zM283 26c63 0 120 45 155 94l50 198c-10 49 -52 87 -103 87c-126 0 -189 -177 -189 -281c0 -53 30 -98 87 -98z" />
    <glyph glyph-name="e" unicode="e" horiz-adv-x="677" 
d="M206 148c0 -70 40 -122 113 -122c88 0 183 20 241 91c3 2 7 4 11 4c11 0 25 -14 25 -26c0 -4 -2 -6 -4 -9c-67 -81 -177 -97 -276 -97c-115 0 -206 78 -206 196c0 162 166 257 312 257c57 0 145 -18 145 -90c0 -129 -255 -129 -348 -129c-2 0 -4 1 -5 1
c-5 -26 -8 -52 -8 -76zM224 260c66 0 287 0 287 90c0 43 -57 55 -91 55c-94 0 -166 -56 -196 -145z" />
    <glyph glyph-name="e" unicode="&#xf065;" horiz-adv-x="677" 
d="M206 148c0 -70 40 -122 113 -122c88 0 183 20 241 91c3 2 7 4 11 4c11 0 25 -14 25 -26c0 -4 -2 -6 -4 -9c-67 -81 -177 -97 -276 -97c-115 0 -206 78 -206 196c0 162 166 257 312 257c57 0 145 -18 145 -90c0 -129 -255 -129 -348 -129c-2 0 -4 1 -5 1
c-5 -26 -8 -52 -8 -76zM224 260c66 0 287 0 287 90c0 43 -57 55 -91 55c-94 0 -166 -56 -196 -145z" />
    <glyph glyph-name="f" unicode="f" horiz-adv-x="684" 
d="M120 -127c0 36 28 69 66 69c24 0 45 -17 45 -42c0 -26 -16 -49 -39 -59c14 -6 29 -9 44 -9c36 0 58 52 66 81c14 56 33 166 45 237l40 233h-106c-8 0 -15 9 -15 17c0 13 5 28 19 31h110l11 65c17 98 44 209 169 209c48 0 117 -18 117 -78c0 -36 -28 -69 -65 -69
c-25 0 -46 17 -46 42s16 49 38 59c-14 7 -30 9 -46 9c-26 0 -46 -22 -52 -46c-8 -32 -17 -88 -24 -124l-11 -67h127c8 0 15 -9 15 -16c0 -14 -5 -29 -19 -32h-131l-40 -231c-13 -78 -31 -199 -72 -266c-27 -44 -74 -91 -131 -91c-48 0 -115 19 -115 78z" />
    <glyph glyph-name="f" unicode="&#xf066;" horiz-adv-x="684" 
d="M120 -127c0 36 28 69 66 69c24 0 45 -17 45 -42c0 -26 -16 -49 -39 -59c14 -6 29 -9 44 -9c36 0 58 52 66 81c14 56 33 166 45 237l40 233h-106c-8 0 -15 9 -15 17c0 13 5 28 19 31h110l11 65c17 98 44 209 169 209c48 0 117 -18 117 -78c0 -36 -28 -69 -65 -69
c-25 0 -46 17 -46 42s16 49 38 59c-14 7 -30 9 -46 9c-26 0 -46 -22 -52 -46c-8 -32 -17 -88 -24 -124l-11 -67h127c8 0 15 -9 15 -16c0 -14 -5 -29 -19 -32h-131l-40 -231c-13 -78 -31 -199 -72 -266c-27 -44 -74 -91 -131 -91c-48 0 -115 19 -115 78z" />
    <glyph glyph-name="g" unicode="g" horiz-adv-x="700" 
d="M98 -137c0 36 27 69 65 69c24 0 46 -17 46 -42c0 -21 -11 -41 -28 -52c27 -6 62 -6 95 -6c67 0 143 40 160 109l27 110c-39 -30 -87 -51 -137 -51c-100 0 -178 69 -178 171c0 143 142 271 282 271c45 0 90 -19 117 -56c8 21 29 36 51 36c21 0 38 -15 38 -36
c0 -4 0 -7 -1 -10l-111 -446c-26 -102 -158 -135 -249 -135c-51 0 -177 0 -177 68zM329 37c62 0 118 44 154 91l48 192c-13 49 -52 85 -103 85c-125 0 -187 -169 -187 -272c0 -53 31 -96 88 -96z" />
    <glyph glyph-name="g" unicode="&#xf067;" horiz-adv-x="700" 
d="M98 -137c0 36 27 69 65 69c24 0 46 -17 46 -42c0 -21 -11 -41 -28 -52c27 -6 62 -6 95 -6c67 0 143 40 160 109l27 110c-39 -30 -87 -51 -137 -51c-100 0 -178 69 -178 171c0 143 142 271 282 271c45 0 90 -19 117 -56c8 21 29 36 51 36c21 0 38 -15 38 -36
c0 -4 0 -7 -1 -10l-111 -446c-26 -102 -158 -135 -249 -135c-51 0 -177 0 -177 68zM329 37c62 0 118 44 154 91l48 192c-13 49 -52 85 -103 85c-125 0 -187 -169 -187 -272c0 -53 31 -96 88 -96z" />
    <glyph glyph-name="h" unicode="h" horiz-adv-x="827" 
d="M122 26c0 3 1 7 2 10l140 564c2 7 4 15 4 22c0 13 -57 13 -69 13c-9 0 -15 9 -15 17c0 13 4 28 18 31l154 11h4c9 -3 14 -8 14 -16v-4l-81 -323c47 52 110 91 182 91c78 0 154 -30 154 -120c0 -61 -44 -161 -68 -220c-6 -12 -7 -26 -7 -40c0 -18 5 -36 26 -36
c60 0 101 72 114 123c1 5 7 8 11 9h21c7 -2 13 -6 13 -14c0 -3 0 -1 -1 -6c-18 -72 -81 -149 -161 -149c-52 0 -112 29 -112 88c0 13 3 25 8 36c24 59 67 159 67 222c0 43 -23 70 -67 70c-100 0 -167 -88 -208 -169l-52 -206c-7 -23 -27 -41 -52 -41c-21 0 -39 15 -39 37z
" />
    <glyph glyph-name="h" unicode="&#xf068;" horiz-adv-x="827" 
d="M122 26c0 3 1 7 2 10l140 564c2 7 4 15 4 22c0 13 -57 13 -69 13c-9 0 -15 9 -15 17c0 13 4 28 18 31l154 11h4c9 -3 14 -8 14 -16v-4l-81 -323c47 52 110 91 182 91c78 0 154 -30 154 -120c0 -61 -44 -161 -68 -220c-6 -12 -7 -26 -7 -40c0 -18 5 -36 26 -36
c60 0 101 72 114 123c1 5 7 8 11 9h21c7 -2 13 -6 13 -14c0 -3 0 -1 -1 -6c-18 -72 -81 -149 -161 -149c-52 0 -112 29 -112 88c0 13 3 25 8 36c24 59 67 159 67 222c0 43 -23 70 -67 70c-100 0 -167 -88 -208 -169l-52 -206c-7 -23 -27 -41 -52 -41c-21 0 -39 15 -39 37z
" />
    <glyph glyph-name="i" unicode="i" horiz-adv-x="533" 
d="M171 77c0 13 3 25 8 36l88 216c5 12 9 26 9 40c0 18 -7 36 -28 36c-60 0 -101 -72 -114 -123c-1 -5 -7 -8 -12 -9h-21c-7 2 -12 6 -12 14c0 3 0 1 1 6c18 72 81 149 161 149c52 0 114 -29 114 -88c0 -13 -5 -25 -10 -36l-88 -216c-6 -12 -7 -26 -7 -40
c0 -18 5 -36 25 -36c61 0 102 72 115 123c1 5 7 8 11 9h21c7 -2 13 -6 13 -14c0 -3 0 -1 -1 -6c-18 -72 -81 -149 -161 -149c-52 0 -112 29 -112 88zM288 604c0 33 32 63 65 63c25 0 46 -19 46 -44c0 -33 -33 -63 -66 -63c-25 0 -45 19 -45 44z" />
    <glyph glyph-name="i" unicode="&#xf069;" horiz-adv-x="533" 
d="M171 77c0 13 3 25 8 36l88 216c5 12 9 26 9 40c0 18 -7 36 -28 36c-60 0 -101 -72 -114 -123c-1 -5 -7 -8 -12 -9h-21c-7 2 -12 6 -12 14c0 3 0 1 1 6c18 72 81 149 161 149c52 0 114 -29 114 -88c0 -13 -5 -25 -10 -36l-88 -216c-6 -12 -7 -26 -7 -40
c0 -18 5 -36 25 -36c61 0 102 72 115 123c1 5 7 8 11 9h21c7 -2 13 -6 13 -14c0 -3 0 -1 -1 -6c-18 -72 -81 -149 -161 -149c-52 0 -112 29 -112 88zM288 604c0 33 32 63 65 63c25 0 46 -19 46 -44c0 -33 -33 -63 -66 -63c-25 0 -45 19 -45 44z" />
    <glyph glyph-name="j" unicode="j" horiz-adv-x="588" 
d="M38 -135c0 36 29 67 65 67c24 0 46 -17 46 -42c0 -22 -13 -43 -30 -54c10 -4 22 -4 33 -4c67 0 123 61 138 123l93 370c2 10 4 20 4 29c0 25 -11 51 -39 51c-68 0 -125 -65 -149 -123c-3 -5 -6 -7 -12 -9h-21c-7 2 -12 6 -12 14c0 3 0 1 1 6c32 77 108 149 195 149
c58 0 126 -30 126 -97c0 -8 -1 -16 -3 -23l-95 -378c-24 -96 -137 -149 -228 -149c-44 0 -112 14 -112 70zM402 604c0 33 31 63 65 63c24 0 46 -19 46 -44c0 -33 -33 -63 -66 -63c-25 0 -45 19 -45 44z" />
    <glyph glyph-name="j" unicode="&#xf06a;" horiz-adv-x="588" 
d="M38 -135c0 36 29 67 65 67c24 0 46 -17 46 -42c0 -22 -13 -43 -30 -54c10 -4 22 -4 33 -4c67 0 123 61 138 123l93 370c2 10 4 20 4 29c0 25 -11 51 -39 51c-68 0 -125 -65 -149 -123c-3 -5 -6 -7 -12 -9h-21c-7 2 -12 6 -12 14c0 3 0 1 1 6c32 77 108 149 195 149
c58 0 126 -30 126 -97c0 -8 -1 -16 -3 -23l-95 -378c-24 -96 -137 -149 -228 -149c-44 0 -112 14 -112 70zM402 604c0 33 31 63 65 63c24 0 46 -19 46 -44c0 -33 -33 -63 -66 -63c-25 0 -45 19 -45 44z" />
    <glyph glyph-name="k" unicode="k" horiz-adv-x="758" 
d="M122 26c0 3 1 7 2 10l140 564c2 7 4 15 4 22c0 13 -57 13 -69 13c-9 0 -15 9 -15 17c0 13 4 28 18 31l154 11h4c9 -3 14 -8 14 -16v-4l-101 -403c106 40 186 171 306 171c47 0 84 -34 84 -82c0 -38 -24 -75 -66 -75c-24 0 -45 17 -45 42c0 32 25 59 56 64
c-8 10 -19 14 -31 14c-90 0 -178 -103 -252 -148c66 0 176 -26 176 -109c0 -9 -3 -19 -6 -29c-3 -12 -4 -25 -4 -37c0 -26 9 -56 40 -56c54 0 83 80 94 123c1 5 7 8 11 9h21c7 -2 13 -6 13 -14c0 -3 0 -1 -1 -6c-16 -64 -65 -149 -140 -149c-63 0 -127 37 -127 106
c0 9 1 18 3 27c2 8 3 16 3 23c0 61 -100 77 -147 77l-48 -192c-7 -23 -27 -41 -52 -41c-21 0 -39 15 -39 37z" />
    <glyph glyph-name="k" unicode="&#xf06b;" horiz-adv-x="758" 
d="M122 26c0 3 1 7 2 10l140 564c2 7 4 15 4 22c0 13 -57 13 -69 13c-9 0 -15 9 -15 17c0 13 4 28 18 31l154 11h4c9 -3 14 -8 14 -16v-4l-101 -403c106 40 186 171 306 171c47 0 84 -34 84 -82c0 -38 -24 -75 -66 -75c-24 0 -45 17 -45 42c0 32 25 59 56 64
c-8 10 -19 14 -31 14c-90 0 -178 -103 -252 -148c66 0 176 -26 176 -109c0 -9 -3 -19 -6 -29c-3 -12 -4 -25 -4 -37c0 -26 9 -56 40 -56c54 0 83 80 94 123c1 5 7 8 11 9h21c7 -2 13 -6 13 -14c0 -3 0 -1 -1 -6c-16 -64 -65 -149 -140 -149c-63 0 -127 37 -127 106
c0 9 1 18 3 27c2 8 3 16 3 23c0 61 -100 77 -147 77l-48 -192c-7 -23 -27 -41 -52 -41c-21 0 -39 15 -39 37z" />
    <glyph glyph-name="l" unicode="l" horiz-adv-x="480" 
d="M104 86c0 9 1 17 3 26l122 488c2 7 4 15 4 22c0 13 -57 13 -69 13c-9 0 -15 9 -15 17c0 13 4 28 18 31l154 11c10 0 18 -6 18 -16v-4l-143 -570c-2 -9 -3 -18 -3 -27c0 -25 11 -51 39 -51c50 0 70 85 80 123c1 5 7 8 11 9h21c7 -2 13 -6 13 -14c0 -3 0 -1 -1 -6
c-15 -60 -53 -149 -126 -149c-58 0 -126 30 -126 97z" />
    <glyph glyph-name="l" unicode="&#xf06c;" horiz-adv-x="480" 
d="M104 86c0 9 1 17 3 26l122 488c2 7 4 15 4 22c0 13 -57 13 -69 13c-9 0 -15 9 -15 17c0 13 4 28 18 31l154 11c10 0 18 -6 18 -16v-4l-143 -570c-2 -9 -3 -18 -3 -27c0 -25 11 -51 39 -51c50 0 70 85 80 123c1 5 7 8 11 9h21c7 -2 13 -6 13 -14c0 -3 0 -1 -1 -6
c-15 -60 -53 -149 -126 -149c-58 0 -126 30 -126 97z" />
    <glyph glyph-name="m" unicode="m" horiz-adv-x="1228" 
d="M176 25c0 4 1 7 2 11l72 289c2 10 4 20 4 29c0 25 -11 51 -39 51c-51 0 -71 -85 -81 -123c-1 -5 -7 -8 -12 -9h-21c-7 2 -12 6 -12 14c0 3 0 1 1 6c15 60 53 149 127 149c57 0 126 -29 126 -96c46 54 111 96 185 96c67 0 155 -26 155 -106c46 60 113 106 193 106
c77 0 153 -30 153 -120c0 -61 -44 -161 -68 -220c-6 -12 -7 -26 -7 -40c0 -18 5 -36 26 -36c60 0 102 72 115 123c1 5 7 8 11 9h21c7 -2 13 -6 13 -14c0 -3 0 -1 -1 -6c-18 -72 -82 -149 -162 -149c-52 0 -112 29 -112 88c0 13 3 25 8 36c24 60 67 159 67 222
c0 43 -23 70 -67 70c-100 0 -167 -88 -208 -169l-51 -207c-6 -23 -29 -40 -52 -40c-21 0 -39 15 -39 36c0 4 1 7 2 11l61 246c5 18 8 36 8 53c0 43 -23 70 -67 70c-100 0 -168 -88 -209 -169l-51 -207c-6 -23 -29 -40 -52 -40c-21 0 -39 15 -39 36z" />
    <glyph glyph-name="m" unicode="&#xf06d;" horiz-adv-x="1228" 
d="M176 25c0 4 1 7 2 11l72 289c2 10 4 20 4 29c0 25 -11 51 -39 51c-51 0 -71 -85 -81 -123c-1 -5 -7 -8 -12 -9h-21c-7 2 -12 6 -12 14c0 3 0 1 1 6c15 60 53 149 127 149c57 0 126 -29 126 -96c46 54 111 96 185 96c67 0 155 -26 155 -106c46 60 113 106 193 106
c77 0 153 -30 153 -120c0 -61 -44 -161 -68 -220c-6 -12 -7 -26 -7 -40c0 -18 5 -36 26 -36c60 0 102 72 115 123c1 5 7 8 11 9h21c7 -2 13 -6 13 -14c0 -3 0 -1 -1 -6c-18 -72 -82 -149 -162 -149c-52 0 -112 29 -112 88c0 13 3 25 8 36c24 60 67 159 67 222
c0 43 -23 70 -67 70c-100 0 -167 -88 -208 -169l-51 -207c-6 -23 -29 -40 -52 -40c-21 0 -39 15 -39 36c0 4 1 7 2 11l61 246c5 18 8 36 8 53c0 43 -23 70 -67 70c-100 0 -168 -88 -209 -169l-51 -207c-6 -23 -29 -40 -52 -40c-21 0 -39 15 -39 36z" />
    <glyph glyph-name="n" unicode="n" horiz-adv-x="880" 
d="M176 25c0 4 1 7 2 11l72 289c2 10 4 20 4 29c0 25 -11 51 -39 51c-51 0 -71 -85 -81 -123c-1 -5 -7 -8 -12 -9h-21c-7 2 -12 6 -12 14c0 3 0 1 1 6c15 60 53 149 127 149c57 0 126 -29 126 -96c46 54 111 96 185 96c78 0 154 -30 154 -120c0 -61 -44 -161 -68 -220
c-6 -12 -7 -26 -7 -40c0 -18 5 -36 26 -36c60 0 102 72 115 123c1 5 7 8 11 9h21c7 -2 13 -6 13 -14c0 -3 0 -1 -1 -6c-18 -72 -82 -149 -162 -149c-52 0 -112 29 -112 88c0 13 3 25 8 36c24 60 67 159 67 222c0 43 -23 70 -67 70c-100 0 -167 -88 -208 -169l-51 -207
c-6 -23 -29 -40 -52 -40c-21 0 -39 15 -39 36z" />
    <glyph glyph-name="n" unicode="&#xf06e;" horiz-adv-x="880" 
d="M176 25c0 4 1 7 2 11l72 289c2 10 4 20 4 29c0 25 -11 51 -39 51c-51 0 -71 -85 -81 -123c-1 -5 -7 -8 -12 -9h-21c-7 2 -12 6 -12 14c0 3 0 1 1 6c15 60 53 149 127 149c57 0 126 -29 126 -96c46 54 111 96 185 96c78 0 154 -30 154 -120c0 -61 -44 -161 -68 -220
c-6 -12 -7 -26 -7 -40c0 -18 5 -36 26 -36c60 0 102 72 115 123c1 5 7 8 11 9h21c7 -2 13 -6 13 -14c0 -3 0 -1 -1 -6c-18 -72 -82 -149 -162 -149c-52 0 -112 29 -112 88c0 13 3 25 8 36c24 60 67 159 67 222c0 43 -23 70 -67 70c-100 0 -167 -88 -208 -169l-51 -207
c-6 -23 -29 -40 -52 -40c-21 0 -39 15 -39 36z" />
    <glyph glyph-name="o" unicode="o" horiz-adv-x="702" 
d="M104 171c0 155 173 271 318 271c108 0 212 -64 212 -182c0 -155 -173 -271 -318 -271c-108 0 -212 64 -212 182zM200 139c0 -72 48 -113 118 -113c139 0 220 141 220 266c0 72 -48 113 -118 113c-139 0 -220 -141 -220 -266z" />
    <glyph glyph-name="o" unicode="&#xf06f;" horiz-adv-x="702" 
d="M104 171c0 155 173 271 318 271c108 0 212 -64 212 -182c0 -155 -173 -271 -318 -271c-108 0 -212 64 -212 182zM200 139c0 -72 48 -113 118 -113c139 0 220 141 220 266c0 72 -48 113 -118 113c-139 0 -220 -141 -220 -266z" />
    <glyph glyph-name="p" unicode="p" horiz-adv-x="739" 
d="M67 -194c-8 0 -14 9 -14 16c0 14 4 29 19 32c31 0 57 0 66 28l112 446c2 9 3 18 3 26c0 25 -11 51 -39 51c-50 0 -70 -84 -80 -122c-1 -6 -7 -8 -12 -10h-21c-7 2 -10 6 -12 13c0 2 0 5 1 7c15 60 52 149 126 149c47 0 104 -19 121 -68c44 39 99 68 157 68
c101 0 177 -72 177 -174c0 -145 -140 -279 -283 -279c-46 0 -91 20 -118 57l-44 -175c0 -3 0 -5 -1 -8c0 -9 61 -9 72 -9c8 0 15 -9 15 -17c0 -13 -5 -28 -19 -31c-43 0 -85 4 -128 4c-32 0 -65 -4 -98 -4zM287 113c10 -49 52 -87 103 -87c126 0 188 178 188 281
c0 53 -29 98 -87 98c-63 0 -119 -45 -155 -94z" />
    <glyph glyph-name="p" unicode="&#xf070;" horiz-adv-x="739" 
d="M67 -194c-8 0 -14 9 -14 16c0 14 4 29 19 32c31 0 57 0 66 28l112 446c2 9 3 18 3 26c0 25 -11 51 -39 51c-50 0 -70 -84 -80 -122c-1 -6 -7 -8 -12 -10h-21c-7 2 -10 6 -12 13c0 2 0 5 1 7c15 60 52 149 126 149c47 0 104 -19 121 -68c44 39 99 68 157 68
c101 0 177 -72 177 -174c0 -145 -140 -279 -283 -279c-46 0 -91 20 -118 57l-44 -175c0 -3 0 -5 -1 -8c0 -9 61 -9 72 -9c8 0 15 -9 15 -17c0 -13 -5 -28 -19 -31c-43 0 -85 4 -128 4c-32 0 -65 -4 -98 -4zM287 113c10 -49 52 -87 103 -87c126 0 188 178 188 281
c0 53 -29 98 -87 98c-63 0 -119 -45 -155 -94z" />
    <glyph glyph-name="q" unicode="q" horiz-adv-x="658" 
d="M270 -178c0 14 5 29 19 32c20 0 60 0 78 6c7 6 10 14 12 22l40 159c-39 -30 -87 -52 -137 -52c-102 0 -178 72 -178 174c0 145 141 279 284 279c48 0 94 -23 121 -63c11 16 61 63 80 63c9 0 16 -7 16 -16v-4l-137 -548c-1 -4 -2 -7 -2 -11c0 -9 61 -9 72 -9
c8 0 15 -9 15 -17c0 -13 -5 -28 -19 -31c-43 0 -85 4 -128 4c-40 0 -81 -4 -121 -4c-9 0 -15 9 -15 16zM284 26c63 0 119 45 154 94l50 198c-11 49 -51 87 -102 87c-126 0 -189 -178 -189 -281c0 -53 30 -98 87 -98z" />
    <glyph glyph-name="q" unicode="&#xf071;" horiz-adv-x="658" 
d="M270 -178c0 14 5 29 19 32c20 0 60 0 78 6c7 6 10 14 12 22l40 159c-39 -30 -87 -52 -137 -52c-102 0 -178 72 -178 174c0 145 141 279 284 279c48 0 94 -23 121 -63c11 16 61 63 80 63c9 0 16 -7 16 -16v-4l-137 -548c-1 -4 -2 -7 -2 -11c0 -9 61 -9 72 -9
c8 0 15 -9 15 -17c0 -13 -5 -28 -19 -31c-43 0 -85 4 -128 4c-40 0 -81 -4 -121 -4c-9 0 -15 9 -15 16zM284 26c63 0 119 45 154 94l50 198c-11 49 -51 87 -102 87c-126 0 -189 -178 -189 -281c0 -53 30 -98 87 -98z" />
    <glyph glyph-name="r" unicode="r" horiz-adv-x="671" 
d="M175 25c0 4 1 7 2 11l72 289c2 10 4 20 4 29c0 25 -11 51 -39 51c-50 0 -70 -84 -80 -122c-1 -6 -7 -8 -12 -10h-21c-7 2 -12 6 -12 14c0 3 0 1 1 6c15 60 52 149 126 149c51 0 109 -22 123 -76c40 45 94 76 155 76c56 0 157 -11 157 -86c0 -37 -27 -71 -66 -71
c-24 0 -45 17 -45 42c0 27 18 52 42 61c-27 14 -60 17 -90 17c-79 0 -130 -59 -163 -124l-63 -252c-6 -23 -29 -40 -52 -40c-21 0 -39 15 -39 36z" />
    <glyph glyph-name="r" unicode="&#xf072;" horiz-adv-x="671" 
d="M175 25c0 4 1 7 2 11l72 289c2 10 4 20 4 29c0 25 -11 51 -39 51c-50 0 -70 -84 -80 -122c-1 -6 -7 -8 -12 -10h-21c-7 2 -12 6 -12 14c0 3 0 1 1 6c15 60 52 149 126 149c51 0 109 -22 123 -76c40 45 94 76 155 76c56 0 157 -11 157 -86c0 -37 -27 -71 -66 -71
c-24 0 -45 17 -45 42c0 27 18 52 42 61c-27 14 -60 17 -90 17c-79 0 -130 -59 -163 -124l-63 -252c-6 -23 -29 -40 -52 -40c-21 0 -39 15 -39 36z" />
    <glyph glyph-name="s" unicode="s" horiz-adv-x="670" 
d="M176 56c29 -27 88 -30 126 -30c61 0 182 19 182 101c0 42 -59 58 -92 64l-77 12c-52 8 -111 38 -111 99c0 47 33 88 71 111c39 22 85 29 130 29c57 0 154 -14 154 -88c0 -32 -22 -64 -57 -64c-21 0 -39 15 -39 37c0 23 16 45 37 52c-22 22 -67 26 -97 26
c-50 0 -143 -17 -143 -82c0 -34 45 -46 71 -50l76 -13c59 -9 133 -41 133 -112c0 -54 -40 -100 -84 -126c-48 -26 -102 -33 -156 -33c-65 0 -185 11 -185 98c0 38 25 74 66 74c25 0 45 -17 45 -42c0 -30 -21 -56 -50 -63z" />
    <glyph glyph-name="s" unicode="&#xf073;" horiz-adv-x="670" 
d="M176 56c29 -27 88 -30 126 -30c61 0 182 19 182 101c0 42 -59 58 -92 64l-77 12c-52 8 -111 38 -111 99c0 47 33 88 71 111c39 22 85 29 130 29c57 0 154 -14 154 -88c0 -32 -22 -64 -57 -64c-21 0 -39 15 -39 37c0 23 16 45 37 52c-22 22 -67 26 -97 26
c-50 0 -143 -17 -143 -82c0 -34 45 -46 71 -50l76 -13c59 -9 133 -41 133 -112c0 -54 -40 -100 -84 -126c-48 -26 -102 -33 -156 -33c-65 0 -185 11 -185 98c0 38 25 74 66 74c25 0 45 -17 45 -42c0 -30 -21 -56 -50 -63z" />
    <glyph glyph-name="t" unicode="t" horiz-adv-x="563" 
d="M153 86c0 8 1 16 3 23l68 274h-126c-9 0 -15 9 -15 17c0 13 4 28 19 31h134l39 156c6 22 29 39 52 39c21 0 38 -15 38 -36c0 -4 0 -7 -1 -10l-37 -149h126c8 0 15 -9 15 -16c0 -14 -5 -29 -19 -32h-134l-69 -277c-3 -10 -4 -20 -4 -29c0 -25 11 -51 39 -51
c68 0 125 65 149 123c2 5 6 7 11 9h21c7 -2 13 -6 13 -14c0 -3 0 -1 -1 -6c-32 -77 -108 -149 -195 -149c-58 0 -126 30 -126 97z" />
    <glyph glyph-name="t" unicode="&#xf074;" horiz-adv-x="563" 
d="M153 86c0 8 1 16 3 23l68 274h-126c-9 0 -15 9 -15 17c0 13 4 28 19 31h134l39 156c6 22 29 39 52 39c21 0 38 -15 38 -36c0 -4 0 -7 -1 -10l-37 -149h126c8 0 15 -9 15 -16c0 -14 -5 -29 -19 -32h-134l-69 -277c-3 -10 -4 -20 -4 -29c0 -25 11 -51 39 -51
c68 0 125 65 149 123c2 5 6 7 11 9h21c7 -2 13 -6 13 -14c0 -3 0 -1 -1 -6c-32 -77 -108 -149 -195 -149c-58 0 -126 30 -126 97z" />
    <glyph glyph-name="u" unicode="u" horiz-adv-x="846" 
d="M205 123c0 66 37 145 62 206c5 12 9 26 9 40c0 18 -7 36 -28 36c-60 0 -101 -72 -114 -123c-3 -5 -6 -7 -12 -9h-21c-7 2 -12 6 -12 14c0 3 0 1 1 6c18 72 81 149 161 149c52 0 114 -29 114 -88c0 -13 -5 -25 -10 -36c-25 -62 -61 -141 -61 -208c0 -51 26 -84 78 -84
c61 0 108 47 139 95l68 271c5 22 28 39 51 39c21 0 39 -15 39 -36c0 -4 -1 -7 -1 -10l-70 -279c-3 -10 -4 -20 -4 -29c0 -25 11 -51 39 -51c50 0 70 84 80 122c1 6 6 8 11 10h21c8 -2 11 -6 13 -13c0 -2 -1 -5 -1 -7c-15 -60 -53 -149 -126 -149c-47 0 -103 19 -120 66
c-38 -37 -86 -66 -141 -66c-87 0 -165 35 -165 134z" />
    <glyph glyph-name="u" unicode="&#xf075;" horiz-adv-x="846" 
d="M205 123c0 66 37 145 62 206c5 12 9 26 9 40c0 18 -7 36 -28 36c-60 0 -101 -72 -114 -123c-3 -5 -6 -7 -12 -9h-21c-7 2 -12 6 -12 14c0 3 0 1 1 6c18 72 81 149 161 149c52 0 114 -29 114 -88c0 -13 -5 -25 -10 -36c-25 -62 -61 -141 -61 -208c0 -51 26 -84 78 -84
c61 0 108 47 139 95l68 271c5 22 28 39 51 39c21 0 39 -15 39 -36c0 -4 -1 -7 -1 -10l-70 -279c-3 -10 -4 -20 -4 -29c0 -25 11 -51 39 -51c50 0 70 84 80 122c1 6 6 8 11 10h21c8 -2 11 -6 13 -13c0 -2 -1 -5 -1 -7c-15 -60 -53 -149 -126 -149c-47 0 -103 19 -120 66
c-38 -37 -86 -66 -141 -66c-87 0 -165 35 -165 134z" />
    <glyph glyph-name="v" unicode="v" horiz-adv-x="722" 
d="M205 127c0 64 38 143 62 202c5 12 9 26 9 40c0 18 -7 36 -28 36c-60 0 -101 -72 -114 -123c-1 -5 -7 -8 -12 -9h-21c-7 2 -12 6 -12 14c0 3 0 1 1 6c18 72 81 149 161 149c52 0 114 -29 114 -88c0 -13 -5 -25 -10 -36c-24 -59 -61 -138 -61 -202c0 -61 38 -90 96 -90
c55 0 99 46 127 89c25 37 62 114 62 159c0 34 -14 51 -29 65c-14 13 -29 24 -29 43c0 31 30 61 60 61c44 0 60 -51 60 -86c0 -130 -100 -368 -253 -368c-91 0 -183 31 -183 138z" />
    <glyph glyph-name="v" unicode="&#xf076;" horiz-adv-x="722" 
d="M205 127c0 64 38 143 62 202c5 12 9 26 9 40c0 18 -7 36 -28 36c-60 0 -101 -72 -114 -123c-1 -5 -7 -8 -12 -9h-21c-7 2 -12 6 -12 14c0 3 0 1 1 6c18 72 81 149 161 149c52 0 114 -29 114 -88c0 -13 -5 -25 -10 -36c-24 -59 -61 -138 -61 -202c0 -61 38 -90 96 -90
c55 0 99 46 127 89c25 37 62 114 62 159c0 34 -14 51 -29 65c-14 13 -29 24 -29 43c0 31 30 61 60 61c44 0 60 -51 60 -86c0 -130 -100 -368 -253 -368c-91 0 -183 31 -183 138z" />
    <glyph glyph-name="w" unicode="w" horiz-adv-x="1009" 
d="M206 130c0 61 38 142 61 199c5 12 9 26 9 40c0 18 -7 36 -28 36c-60 0 -101 -72 -114 -123c-3 -5 -6 -7 -12 -9h-21c-7 2 -12 6 -12 14c0 3 0 1 1 6c18 72 81 149 161 149c52 0 114 -29 114 -88c0 -13 -5 -25 -10 -36c-24 -58 -60 -136 -60 -199c0 -66 43 -93 105 -93
c50 0 82 43 101 84c0 6 -1 12 -1 17c0 17 3 33 7 49l54 216c5 22 28 39 51 39c21 0 39 -15 39 -36c0 -4 -1 -7 -1 -10l-53 -212c-5 -20 -8 -39 -9 -57c0 -60 38 -90 96 -90c51 0 88 39 113 80c22 37 59 125 59 168c0 34 -14 51 -29 65c-14 13 -29 24 -29 43
c0 31 30 61 60 61c44 0 60 -51 60 -87c0 -71 -40 -194 -76 -255c-34 -56 -87 -112 -159 -112c-62 0 -132 13 -166 70c-28 -39 -69 -70 -119 -70c-92 0 -192 30 -192 141z" />
    <glyph glyph-name="w" unicode="&#xf077;" horiz-adv-x="1009" 
d="M206 130c0 61 38 142 61 199c5 12 9 26 9 40c0 18 -7 36 -28 36c-60 0 -101 -72 -114 -123c-3 -5 -6 -7 -12 -9h-21c-7 2 -12 6 -12 14c0 3 0 1 1 6c18 72 81 149 161 149c52 0 114 -29 114 -88c0 -13 -5 -25 -10 -36c-24 -58 -60 -136 -60 -199c0 -66 43 -93 105 -93
c50 0 82 43 101 84c0 6 -1 12 -1 17c0 17 3 33 7 49l54 216c5 22 28 39 51 39c21 0 39 -15 39 -36c0 -4 -1 -7 -1 -10l-53 -212c-5 -20 -8 -39 -9 -57c0 -60 38 -90 96 -90c51 0 88 39 113 80c22 37 59 125 59 168c0 34 -14 51 -29 65c-14 13 -29 24 -29 43
c0 31 30 61 60 61c44 0 60 -51 60 -87c0 -71 -40 -194 -76 -255c-34 -56 -87 -112 -159 -112c-62 0 -132 13 -166 70c-28 -39 -69 -70 -119 -70c-92 0 -192 30 -192 141z" />
    <glyph glyph-name="x" unicode="x" horiz-adv-x="791" 
d="M159 42c16 -12 38 -16 58 -16c48 0 88 44 99 87l44 176c4 18 8 36 8 53c0 41 -30 63 -69 63c-69 0 -133 -58 -149 -123c-3 -5 -6 -7 -12 -9h-21c-7 2 -12 6 -12 14c0 3 0 1 1 6c21 84 109 149 196 149c52 0 106 -20 135 -66c27 39 74 66 122 66c52 0 122 -22 122 -86
c0 -37 -27 -71 -66 -71c-24 0 -45 17 -45 42c0 28 19 54 46 62c-17 12 -39 16 -59 16c-48 0 -88 -43 -99 -87l-44 -176c-5 -18 -8 -36 -8 -53c0 -41 30 -63 69 -63c70 0 133 57 150 123c3 5 6 7 11 9h21c7 -2 13 -6 13 -14c0 -3 0 -1 -1 -6c-21 -85 -110 -149 -196 -149
c-53 0 -107 20 -136 66c-27 -39 -74 -66 -122 -66c-52 0 -121 22 -121 86c0 37 26 71 66 71c24 0 45 -17 45 -42c0 -28 -20 -54 -46 -62z" />
    <glyph glyph-name="x" unicode="&#xf078;" horiz-adv-x="791" 
d="M159 42c16 -12 38 -16 58 -16c48 0 88 44 99 87l44 176c4 18 8 36 8 53c0 41 -30 63 -69 63c-69 0 -133 -58 -149 -123c-3 -5 -6 -7 -12 -9h-21c-7 2 -12 6 -12 14c0 3 0 1 1 6c21 84 109 149 196 149c52 0 106 -20 135 -66c27 39 74 66 122 66c52 0 122 -22 122 -86
c0 -37 -27 -71 -66 -71c-24 0 -45 17 -45 42c0 28 19 54 46 62c-17 12 -39 16 -59 16c-48 0 -88 -43 -99 -87l-44 -176c-5 -18 -8 -36 -8 -53c0 -41 30 -63 69 -63c70 0 133 57 150 123c3 5 6 7 11 9h21c7 -2 13 -6 13 -14c0 -3 0 -1 -1 -6c-21 -85 -110 -149 -196 -149
c-53 0 -107 20 -136 66c-27 -39 -74 -66 -122 -66c-52 0 -121 22 -121 86c0 37 26 71 66 71c24 0 45 -17 45 -42c0 -28 -20 -54 -46 -62z" />
    <glyph glyph-name="y" unicode="y" horiz-adv-x="730" 
d="M150 -116c0 38 27 72 66 72c25 0 45 -17 45 -42c0 -28 -20 -55 -47 -62c21 -16 50 -20 75 -20c48 0 93 25 126 58c44 44 59 87 74 146c-34 -28 -75 -47 -119 -47c-88 0 -165 35 -165 134c0 66 37 145 62 206c5 12 9 26 9 40c0 18 -7 36 -28 36c-60 0 -101 -72 -114 -123
c-1 -5 -7 -8 -12 -9h-21c-7 2 -12 6 -12 14c0 3 0 1 1 6c18 72 81 149 161 149c52 0 114 -29 114 -88c0 -13 -5 -25 -10 -36c-25 -62 -61 -141 -61 -208c0 -51 26 -84 78 -84c60 0 107 47 138 94l68 272c5 22 28 39 51 39c21 0 39 -15 39 -36c0 -4 -1 -7 -1 -10l-98 -391
c-30 -120 -163 -199 -282 -199c-55 0 -137 20 -137 89z" />
    <glyph glyph-name="y" unicode="&#xf079;" horiz-adv-x="730" 
d="M150 -116c0 38 27 72 66 72c25 0 45 -17 45 -42c0 -28 -20 -55 -47 -62c21 -16 50 -20 75 -20c48 0 93 25 126 58c44 44 59 87 74 146c-34 -28 -75 -47 -119 -47c-88 0 -165 35 -165 134c0 66 37 145 62 206c5 12 9 26 9 40c0 18 -7 36 -28 36c-60 0 -101 -72 -114 -123
c-1 -5 -7 -8 -12 -9h-21c-7 2 -12 6 -12 14c0 3 0 1 1 6c18 72 81 149 161 149c52 0 114 -29 114 -88c0 -13 -5 -25 -10 -36c-25 -62 -61 -141 -61 -208c0 -51 26 -84 78 -84c60 0 107 47 138 94l68 272c5 22 28 39 51 39c21 0 39 -15 39 -36c0 -4 -1 -7 -1 -10l-98 -391
c-30 -120 -163 -199 -282 -199c-55 0 -137 20 -137 89z" />
    <glyph glyph-name="z" unicode="z" horiz-adv-x="688" 
d="M115 -11c-7 2 -12 6 -12 14c0 4 1 6 3 10c94 140 254 213 376 324c-55 1 -106 15 -161 15c-30 0 -85 0 -93 -35c-2 -5 -8 -8 -12 -9h-21c-7 2 -12 6 -12 14c0 3 0 1 1 6c16 66 86 114 152 114c67 0 99 -68 156 -68c34 0 62 39 79 64c1 2 6 3 9 4h21c7 -2 12 -6 12 -14
c0 -4 -1 -6 -3 -9c-95 -141 -255 -214 -377 -326c5 1 11 1 16 1c29 0 57 -4 85 -7c28 -4 57 -8 85 -8c50 0 123 18 137 74c1 5 7 8 11 9h21c7 -2 13 -6 13 -14c0 -3 0 -1 -1 -6c-21 -85 -109 -153 -197 -153c-33 0 -58 17 -81 34c-24 17 -46 34 -75 34
c-42 0 -79 -30 -102 -64c-2 -2 -6 -3 -9 -4h-21z" />
    <glyph glyph-name="z" unicode="&#xf07a;" horiz-adv-x="688" 
d="M115 -11c-7 2 -12 6 -12 14c0 4 1 6 3 10c94 140 254 213 376 324c-55 1 -106 15 -161 15c-30 0 -85 0 -93 -35c-2 -5 -8 -8 -12 -9h-21c-7 2 -12 6 -12 14c0 3 0 1 1 6c16 66 86 114 152 114c67 0 99 -68 156 -68c34 0 62 39 79 64c1 2 6 3 9 4h21c7 -2 12 -6 12 -14
c0 -4 -1 -6 -3 -9c-95 -141 -255 -214 -377 -326c5 1 11 1 16 1c29 0 57 -4 85 -7c28 -4 57 -8 85 -8c50 0 123 18 137 74c1 5 7 8 11 9h21c7 -2 13 -6 13 -14c0 -3 0 -1 -1 -6c-21 -85 -109 -153 -197 -153c-33 0 -58 17 -81 34c-24 17 -46 34 -75 34
c-42 0 -79 -30 -102 -64c-2 -2 -6 -3 -9 -4h-21z" />
    <glyph glyph-name="Pi" unicode="&#xf0a6;" horiz-adv-x="1110" 
d="M130 0c-9 0 -15 9 -15 17c0 13 5 28 19 31c26 0 62 0 84 4c13 3 19 12 23 24l134 539c1 3 1 6 1 9c0 2 0 5 -3 6c-26 5 -57 5 -84 5c-9 0 -15 9 -15 17c0 13 4 28 19 31h784c8 0 15 -9 15 -16c0 -14 -5 -29 -19 -32c-27 0 -62 0 -84 -4c-13 -3 -19 -12 -23 -24l-134 -539
c-1 -3 -2 -6 -2 -9c0 -2 0 -5 3 -6c27 -5 58 -5 85 -5c8 0 15 -9 15 -16c0 -14 -5 -29 -19 -32c-51 0 -102 4 -153 4c-48 0 -97 -4 -146 -4c-9 0 -15 9 -15 17c0 13 5 28 19 31c26 0 62 0 84 4c13 3 19 12 23 24l139 559h-377l-141 -567c-1 -3 -2 -6 -2 -9c0 -2 0 -5 3 -6
c27 -5 58 -5 85 -5c8 0 15 -9 15 -16c0 -14 -5 -29 -19 -32c-51 0 -102 4 -153 4c-48 0 -97 -4 -146 -4z" />
    <glyph glyph-name="Xi" unicode="&#xf0a5;" horiz-adv-x="1017" 
d="M137 0c-8 0 -15 10 -15 18l28 153c1 6 8 12 15 12h16c8 0 15 -10 15 -18c-4 -21 -9 -46 -9 -66c0 -3 0 -6 1 -9c26 -4 92 -4 136 -4h3h325c46 0 121 0 146 5c18 18 28 60 35 83c2 5 8 9 14 9h16c8 0 15 -9 15 -16c0 -2 0 -3 -1 -4l-48 -153c-2 -5 -9 -10 -14 -10h-678z
M312 257c-8 0 -15 8 -15 16c0 2 0 2 1 4l41 164c1 6 7 12 14 12h16c9 0 15 -8 15 -16v-4l-9 -35h393l11 43c1 6 7 12 14 12h16c9 0 15 -8 15 -16v-4l-41 -164c-2 -6 -8 -12 -15 -12h-16c-8 0 -15 8 -15 16c0 2 0 2 1 4l9 35h-393l-11 -43c-2 -6 -8 -12 -15 -12h-16zM262 511
c-9 0 -15 9 -15 17v4l45 139c2 6 7 12 15 12h664c8 0 15 -10 15 -18l-25 -139c-1 -7 -7 -15 -15 -15h-16c-9 0 -15 10 -15 18c3 17 7 38 7 55c0 3 0 7 -1 10c-26 3 -91 3 -133 3h-3h-319c-45 0 -118 0 -143 -4c-16 -18 -23 -47 -31 -69c-2 -7 -7 -13 -14 -13h-16z" />
    <glyph glyph-name="mu" unicode="&#xf0b9;" horiz-adv-x="849" 
d="M93 -180c0 4 0 7 1 10l143 573c6 22 29 39 52 39c21 0 38 -15 38 -36c0 -4 0 -7 -1 -10l-55 -223c-5 -20 -8 -39 -9 -57c0 -61 38 -90 96 -90c68 0 123 51 158 105l66 261c5 22 28 39 51 39c21 0 39 -15 39 -36c0 -4 -1 -7 -1 -10l-70 -279c-3 -10 -4 -20 -4 -29
c0 -25 11 -51 39 -51c50 0 70 84 80 123c1 5 6 7 11 9h21c8 -2 11 -6 13 -13c0 -2 -1 -5 -1 -7c-15 -60 -53 -149 -126 -149c-48 0 -108 20 -122 72c-42 -41 -96 -72 -156 -72c-43 0 -87 6 -124 29l-49 -195c-6 -22 -28 -39 -51 -39c-21 0 -39 15 -39 36z" />
    <glyph glyph-name="nu" unicode="&#xf0ba;" horiz-adv-x="712" 
d="M119 17c0 2 0 1 1 4l81 327c2 7 4 15 4 22c0 13 -57 13 -69 13c-9 0 -15 9 -15 17c0 13 4 28 18 31l154 11c10 0 18 -6 18 -16v-4l-93 -373c170 47 334 176 378 354c6 22 29 39 52 39c21 0 38 -15 38 -37c0 -34 -39 -109 -58 -137c-29 -44 -67 -82 -108 -115
c-101 -82 -227 -132 -355 -153c-3 0 -8 2 -9 2l-19 -2c-9 0 -18 7 -18 17z" />
    <glyph glyph-name="pi" unicode="&#xf0bc;" horiz-adv-x="831" 
d="M206 26c0 8 2 16 6 23c55 98 100 200 131 303h-75c-54 0 -108 -23 -139 -68c-2 -2 -6 -3 -9 -4h-21c-7 2 -13 6 -13 14c0 4 2 6 4 9c42 60 109 128 188 128h454c18 0 32 -14 32 -33c0 -24 -21 -46 -45 -46h-154c-7 -35 -10 -70 -10 -103c0 -34 3 -66 11 -96
c7 -28 17 -55 32 -80c6 -9 13 -19 13 -31c0 -29 -27 -54 -54 -54c-55 0 -71 123 -71 165c0 67 15 134 31 199h-127c-14 -57 -73 -313 -107 -347c-11 -10 -23 -16 -37 -16c-21 0 -40 15 -40 37z" />
    <glyph glyph-name="xi" unicode="&#xf0bb;" horiz-adv-x="666" 
d="M276 -158c0 11 9 19 20 19c2 0 5 0 8 -1c38 -19 80 -28 122 -28c20 0 35 21 35 40c0 14 -12 23 -25 27l-218 66c-63 19 -133 62 -133 136c0 85 76 163 145 202c-39 23 -68 59 -68 106c0 110 109 172 203 194c-3 12 -5 25 -5 38c0 20 2 62 29 62c13 0 22 -8 22 -22v-2
c-3 -14 -5 -28 -5 -40c0 -21 3 -28 3 -28c19 2 38 3 58 3c27 0 115 0 115 -36c0 -43 -96 -43 -128 -43c-25 0 -49 9 -66 27c-63 -24 -125 -82 -125 -154c0 -30 14 -58 38 -76c32 10 65 15 99 15c27 0 115 0 115 -36c0 -43 -96 -43 -128 -43c-37 0 -73 4 -109 15
c-52 -25 -121 -87 -121 -150c0 -46 59 -68 96 -80l226 -68c34 -11 58 -40 58 -75c0 -59 -53 -115 -112 -115c-27 0 -149 16 -149 47zM361 307c9 -1 19 -2 30 -2c21 0 45 0 63 3c-16 2 -37 2 -55 2c-13 0 -26 -1 -38 -3zM438 575c3 -1 6 -2 10 -2c3 -1 7 -1 10 -1h33
c11 1 21 2 30 3c-16 2 -37 2 -55 2c-10 0 -19 -1 -28 -2z" />
    <glyph glyph-name="space" unicode=" " horiz-adv-x="0" 
 />
    <glyph glyph-name="space" unicode="&#xf020;" horiz-adv-x="0" 
 />
    <glyph glyph-name="comma" unicode="," horiz-adv-x="458" 
d="M177 -174c0 4 2 7 4 10c54 43 88 107 88 177c-11 -9 -26 -13 -40 -13c-35 0 -63 27 -63 63s28 63 63 63c58 0 77 -66 77 -113c0 -80 -38 -155 -100 -205c-3 -1 -6 -2 -8 -2c-10 0 -21 11 -21 20z" />
    <glyph glyph-name="comma" unicode="&#xf03b;" horiz-adv-x="458" 
d="M177 -174c0 4 2 7 4 10c54 43 88 107 88 177c-11 -9 -26 -13 -40 -13c-35 0 -63 27 -63 63s28 63 63 63c58 0 77 -66 77 -113c0 -80 -38 -155 -100 -205c-3 -1 -6 -2 -8 -2c-10 0 -21 11 -21 20z" />
    <glyph glyph-name="period" unicode="." horiz-adv-x="458" 
d="M166 63c0 34 29 63 63 63s63 -29 63 -63s-29 -63 -63 -63s-63 29 -63 63z" />
    <glyph glyph-name="period" unicode="&#xf03a;" horiz-adv-x="458" 
d="M166 63c0 34 29 63 63 63s63 -29 63 -63s-29 -63 -63 -63s-63 29 -63 63z" />
    <glyph glyph-name="slash" unicode="/" 
d="M125 -225v6c0 2 1 5 2 7l430 945c5 10 14 17 26 17c15 0 25 -11 28 -25v-6c0 -2 -1 -5 -2 -7l-430 -945c-5 -10 -14 -17 -26 -17c-15 0 -25 11 -28 25z" />
    <glyph glyph-name="slash" unicode="&#xf03d;" 
d="M125 -225v6c0 2 1 5 2 7l430 945c5 10 14 17 26 17c15 0 25 -11 28 -25v-6c0 -2 -1 -5 -2 -7l-430 -945c-5 -10 -14 -17 -26 -17c-15 0 -25 11 -28 25z" />
    <glyph glyph-name="less" unicode="&#x3c;" horiz-adv-x="1083" 
d="M178 224c-11 5 -16 12 -18 23v6c2 11 7 18 18 23l707 323c3 1 7 2 10 2c15 0 25 -11 28 -25v-6c-2 -11 -7 -18 -17 -23l-651 -297l651 -297c10 -5 15 -12 17 -23v-6c-3 -14 -13 -25 -28 -25c-3 0 -7 1 -10 2z" />
    <glyph glyph-name="less" unicode="&#xf03c;" horiz-adv-x="1083" 
d="M178 224c-11 5 -16 12 -18 23v6c2 11 7 18 18 23l707 323c3 1 7 2 10 2c15 0 25 -11 28 -25v-6c-2 -11 -7 -18 -17 -23l-651 -297l651 -297c10 -5 15 -12 17 -23v-6c-3 -14 -13 -25 -28 -25c-3 0 -7 1 -10 2z" />
    <glyph glyph-name="greater" unicode="&#x3e;" horiz-adv-x="1083" 
d="M160 -76v6c2 11 7 18 18 23l650 297l-650 297c-11 5 -16 12 -18 23v6c3 14 13 25 28 25c3 0 7 -1 11 -2l707 -323c10 -5 15 -12 17 -23v-6c-2 -11 -7 -18 -17 -23l-707 -323c-4 -1 -8 -2 -11 -2c-15 0 -25 11 -28 25z" />
    <glyph glyph-name="greater" unicode="&#xf03e;" horiz-adv-x="1083" 
d="M160 -76v6c2 11 7 18 18 23l650 297l-650 297c-11 5 -16 12 -18 23v6c3 14 13 25 28 25c3 0 7 -1 11 -2l707 -323c10 -5 15 -12 17 -23v-6c-2 -11 -7 -18 -17 -23l-707 -323c-4 -1 -8 -2 -11 -2c-15 0 -25 11 -28 25z" />
    <glyph glyph-name="dotlessi" unicode="&#x131;" horiz-adv-x="533" 
d="M171 77c0 13 3 25 8 36l88 216c5 12 9 26 9 40c0 18 -7 36 -28 36c-60 0 -101 -72 -114 -123c-1 -5 -7 -8 -12 -9h-21c-7 2 -12 6 -12 14c0 3 0 1 1 6c18 72 81 149 161 149c52 0 114 -29 114 -88c0 -13 -5 -25 -10 -36l-88 -216c-6 -12 -7 -26 -7 -40
c0 -18 5 -36 25 -36c61 0 102 72 115 123c1 5 7 8 11 9h21c7 -2 13 -6 13 -14c0 -3 0 -1 -1 -6c-18 -72 -81 -149 -161 -149c-52 0 -112 29 -112 88z" />
    <glyph glyph-name="dotlessi" unicode="&#xf07b;" horiz-adv-x="533" 
d="M171 77c0 13 3 25 8 36l88 216c5 12 9 26 9 40c0 18 -7 36 -28 36c-60 0 -101 -72 -114 -123c-1 -5 -7 -8 -12 -9h-21c-7 2 -12 6 -12 14c0 3 0 1 1 6c18 72 81 149 161 149c52 0 114 -29 114 -88c0 -13 -5 -25 -10 -36l-88 -216c-6 -12 -7 -26 -7 -40
c0 -18 5 -36 25 -36c61 0 102 72 115 123c1 5 7 8 11 9h21c7 -2 13 -6 13 -14c0 -3 0 -1 -1 -6c-18 -72 -81 -149 -161 -149c-52 0 -112 29 -112 88z" />
    <glyph glyph-name="hardspace" unicode="&#xf0a0;" horiz-adv-x="0" 
 />
    <glyph glyph-name="Gamma" unicode="&#xf0a1;" horiz-adv-x="832" 
d="M130 0c-9 0 -15 9 -15 17c0 13 5 28 19 31c27 0 62 0 84 4c13 3 19 12 23 24l135 541v7c0 2 0 5 -3 6c-25 5 -58 5 -84 5c-9 0 -15 9 -15 17c0 13 4 28 19 31h604c9 0 15 -10 15 -18l-19 -209c0 -7 -8 -15 -16 -15h-16c-9 0 -15 10 -15 18c2 20 4 41 4 60
c0 116 -92 116 -189 116h-129c-31 0 -43 0 -51 -28l-135 -540v-5c0 -6 3 -8 9 -9c25 -5 71 -5 106 -5c8 0 15 -9 15 -16c0 -14 -5 -29 -19 -32c-60 0 -120 4 -181 4c-48 0 -97 -4 -146 -4z" />
    <glyph glyph-name="Delta" unicode="&#xf0a2;" horiz-adv-x="1152" 
d="M119 8c0 3 1 6 3 9l591 683c9 9 20 16 34 16h17c11 0 22 -6 26 -16l249 -683v-4c0 -7 -7 -13 -13 -13h-899c-4 0 -8 3 -8 8zM245 93h640l-190 521z" />
    <glyph glyph-name="Theta" unicode="&#xf0a3;" horiz-adv-x="1047" 
d="M114 263c0 251 284 442 518 442c172 0 335 -101 335 -288c0 -252 -283 -439 -517 -439c-170 0 -336 98 -336 285zM221 243c0 -143 99 -228 239 -228c223 0 400 205 400 423c0 142 -97 230 -237 230c-224 0 -402 -209 -402 -425zM304 262c-9 0 -15 8 -15 16v4l32 128
c2 6 8 13 15 13h16c8 0 15 -9 15 -17c0 -5 -3 -14 -4 -17h380c3 14 3 30 20 34h16c8 0 15 -9 15 -17c0 -2 0 -2 -1 -4l-32 -128c-2 -6 -8 -12 -14 -12h-16c-9 0 -15 8 -15 16c0 5 2 14 3 18h-380c-3 -15 -3 -31 -19 -34h-16z" />
    <glyph glyph-name="Lambda" unicode="&#xf0a4;" horiz-adv-x="966" 
d="M117 0c-8 0 -14 9 -14 17c0 13 4 28 19 31c48 0 89 21 116 61c1 2 4 3 5 5l383 586c6 9 17 16 28 16h17c10 0 18 -6 20 -16l98 -638c7 -14 55 -14 72 -14c9 0 15 -9 15 -16c0 -14 -4 -29 -19 -32c-40 0 -81 4 -122 4c-50 0 -100 -4 -150 -4c-8 0 -14 9 -14 17
c0 13 4 28 19 31c22 0 69 0 83 19l-78 506l-311 -475c-2 -4 -8 -18 -8 -23c0 -24 37 -27 54 -27c8 0 15 -9 15 -16c0 -14 -5 -29 -19 -32c-41 0 -83 4 -124 4c-28 0 -57 -4 -85 -4z" />
    <glyph glyph-name="Sigma" unicode="&#xf0a7;" horiz-adv-x="1065" 
d="M144 0c-8 0 -15 9 -15 17c0 5 3 10 7 13l371 277l-216 335c-2 3 -3 6 -3 10c0 13 4 28 19 31h701c9 0 15 -10 15 -18l-19 -209c0 -7 -8 -15 -16 -15h-16c-9 0 -15 10 -15 18c1 10 1 21 1 31c0 69 -18 119 -90 134c-55 11 -131 11 -194 11h-240l183 -284c2 -3 3 -6 3 -9
c0 -6 -2 -11 -7 -14l-361 -269h261c184 0 312 0 391 185c2 4 8 9 13 9h16c9 0 15 -9 15 -16c0 -3 0 -5 -1 -7l-88 -220c-2 -5 -8 -10 -14 -10h-701z" />
    <glyph glyph-name="Upsilon" unicode="&#xf0a8;" horiz-adv-x="840" 
d="M182 17c0 13 5 28 19 31c35 0 82 0 109 5c12 3 20 9 25 21l68 272c10 29 12 63 12 93c0 88 -38 179 -139 179c-49 0 -123 -15 -137 -72c-3 -9 -12 -16 -21 -16h-15c-7 0 -13 5 -13 12c0 28 35 77 54 96c41 41 98 66 155 66c135 0 184 -117 184 -234v-21
c55 122 166 255 312 255c72 0 132 -45 132 -121c0 -17 1 -53 -24 -53h-15c-7 0 -13 5 -13 12c0 2 0 3 1 4c1 5 1 10 1 14c0 49 -69 58 -104 58c-139 0 -234 -157 -264 -276v-4l-67 -270c-1 -2 -1 -4 -1 -6s0 -6 3 -7c17 -7 89 -7 112 -7c8 0 15 -9 15 -16
c0 -14 -5 -29 -19 -32c-60 0 -120 4 -181 4c-58 0 -116 -4 -174 -4c-8 0 -15 9 -15 17z" />
    <glyph glyph-name="Phi" unicode="&#xf0a9;" horiz-adv-x="944" 
d="M203 17c0 13 5 28 19 31c35 0 82 0 109 5c12 3 20 9 25 21l19 77c-89 0 -288 52 -288 165c0 142 271 216 383 216l21 83c1 2 1 4 1 6s-1 6 -3 7c-18 7 -90 7 -112 7c-8 0 -15 9 -15 17c0 13 5 28 19 31c59 0 117 -4 176 -4c57 0 114 4 171 4c8 0 14 -9 14 -16
c0 -14 -4 -29 -18 -32c-35 0 -83 0 -110 -5c-11 -3 -20 -9 -24 -21l-20 -77c89 0 289 -52 289 -165c0 -142 -271 -216 -384 -216l-20 -83c-1 -2 -1 -4 -1 -6s0 -6 3 -7c17 -7 89 -7 112 -7c8 0 15 -9 15 -16c0 -14 -5 -29 -19 -32c-59 0 -118 4 -177 4
c-56 0 -113 -4 -170 -4c-8 0 -15 9 -15 17zM198 309c0 -92 112 -121 187 -121l76 307c-107 0 -263 -58 -263 -186zM485 188c107 0 259 58 259 186c0 92 -109 121 -183 121z" />
    <glyph glyph-name="Psi" unicode="&#xf0aa;" horiz-adv-x="893" 
d="M186 17c0 13 5 28 19 31c35 0 82 0 109 5c12 3 20 9 25 21l20 78c-48 0 -119 24 -156 54c-43 34 -65 85 -65 141c0 18 3 35 7 51c3 16 6 32 6 47c0 33 -15 62 -51 62c-9 0 -15 9 -15 17s6 20 16 20h69c54 0 79 -48 79 -96c0 -19 -4 -37 -7 -56c-4 -18 -8 -37 -8 -58
c0 -87 51 -133 134 -144l106 425c1 2 1 4 1 6s-1 6 -3 7c-18 7 -90 7 -112 7c-8 0 -15 9 -15 17c0 13 5 28 19 31c59 0 117 -4 176 -4c57 0 114 4 171 4c8 0 14 -9 14 -16c0 -14 -4 -29 -18 -32c-35 0 -83 0 -110 -5c-11 -3 -20 -9 -24 -21l-105 -418
c122 19 204 105 233 223c15 60 65 130 134 130h69c8 0 15 -9 15 -16c0 -9 -6 -21 -16 -21c-53 0 -92 -54 -104 -101c-19 -76 -67 -146 -133 -189c-57 -36 -140 -66 -208 -66l-20 -83c-1 -2 -1 -4 -1 -6s0 -6 3 -7c17 -7 89 -7 112 -7c8 0 15 -9 15 -16c0 -14 -5 -29 -19 -32
c-59 0 -118 4 -177 4c-56 0 -113 -4 -170 -4c-8 0 -15 9 -15 17z" />
    <glyph glyph-name="Omega" unicode="&#xf0ad;" horiz-adv-x="1060" 
d="M156 15l-3 149c0 7 7 15 15 15h16c7 0 15 -8 15 -15c0 -24 0 -55 6 -77c17 -5 58 -5 77 -5h81c0 95 -130 197 -130 325c0 205 276 298 446 298c128 0 327 -54 327 -213c0 -167 -228 -280 -312 -410h67c16 0 79 0 89 7c19 20 35 56 48 81c3 4 8 9 14 9h16
c8 0 15 -9 15 -16c0 -3 -1 -5 -2 -7l-76 -146c-3 -5 -8 -10 -14 -10h-209c-8 0 -15 9 -15 17c0 2 0 1 1 4c42 171 263 321 263 485c0 116 -113 162 -213 162c-160 0 -330 -106 -330 -281c0 -104 55 -198 55 -302c0 -20 -1 -81 -23 -85h-209c-7 0 -15 8 -15 15z" />
    <glyph glyph-name="dotlessj" unicode="&#xf07c;" horiz-adv-x="553" 
d="M38 -135c0 35 28 67 65 67c24 0 46 -17 46 -42c0 -21 -12 -42 -29 -53c13 -3 28 -5 43 -5c65 0 113 66 127 123l93 370c2 10 4 20 4 29c0 25 -11 51 -39 51c-68 0 -125 -65 -149 -123c-3 -5 -6 -7 -12 -9h-21c-7 2 -12 6 -12 14c0 3 0 1 1 6c31 77 107 149 195 149
c58 0 126 -30 126 -97c0 -8 -1 -16 -3 -23l-95 -378c-23 -93 -127 -149 -217 -149c-45 0 -123 10 -123 70z" />
    <glyph glyph-name="triangleright" unicode="&#xf02e;" 
d="M89 -43v586c3 14 13 25 28 25c5 0 10 -2 15 -4l502 -290c8 -5 11 -12 13 -21v-6c-2 -9 -5 -16 -13 -21l-502 -290c-5 -2 -10 -4 -15 -4c-15 0 -25 11 -28 25zM145 9l418 241l-418 241v-482z" />
    <glyph glyph-name="triangleleft" unicode="&#xf02f;" 
d="M103 226c-8 5 -12 12 -14 21v6c2 9 6 16 14 21l502 290c4 2 9 4 14 4c15 0 25 -11 28 -25v-586c-3 -14 -13 -25 -28 -25c-5 0 -10 2 -14 4zM173 250l418 -241v482z" />
    <glyph glyph-name="star" unicode="&#xf03f;" 
d="M205 25c0 2 0 5 1 7l93 173l-176 85c-5 2 -9 8 -9 15c0 8 8 16 18 16l194 -35l26 193c1 8 8 15 17 15c8 0 15 -7 16 -15l26 -193l194 35c10 0 18 -8 18 -16c0 -7 -4 -13 -9 -15l-176 -85l93 -173c1 -2 1 -5 1 -7c0 -9 -7 -17 -16 -17c-5 0 -9 2 -12 5l-135 141l-136 -141
c-3 -3 -7 -5 -12 -5c-9 0 -16 8 -16 17z" />
    <glyph glyph-name="omega" unicode="&#xf021;" horiz-adv-x="886" 
d="M228 -11c-100 0 -146 85 -146 175c0 98 46 186 109 258c5 6 12 9 19 9c12 0 21 -9 21 -21c0 -3 0 -5 -1 -7c-1 -6 -38 -51 -45 -62c-4 -4 -7 -10 -10 -15c-23 -39 -43 -84 -43 -130c0 -67 43 -117 111 -117c54 0 103 29 139 67v8c0 43 7 144 67 144c24 0 36 -20 36 -42
c0 -33 -26 -89 -43 -119c14 -36 46 -58 86 -58c97 0 214 93 214 193c0 34 -14 52 -28 66c-15 15 -29 25 -29 44c0 31 30 61 61 61c43 0 57 -51 57 -87c0 -72 -31 -173 -70 -232c-49 -72 -129 -135 -220 -135c-57 0 -99 31 -118 83c-43 -47 -102 -83 -167 -83z" />
    <glyph glyph-name="epsilon" unicode="&#xf022;" horiz-adv-x="674" 
d="M91 114c0 55 43 99 87 125c-22 16 -40 39 -40 67c0 109 191 146 275 146c35 0 161 -19 161 -62c0 -20 -18 -38 -37 -38c-5 0 -10 1 -14 3c-37 21 -78 33 -120 33c-49 0 -219 -11 -219 -81c0 -21 21 -37 38 -46c36 13 75 20 113 20c27 0 99 0 99 -35
c0 -44 -79 -44 -111 -44c-35 0 -70 4 -103 16c-35 -18 -83 -55 -83 -98c0 -72 125 -78 175 -78c62 0 152 1 189 57c3 5 10 7 15 7c9 -2 16 -7 16 -17c0 -3 -1 -5 -1 -8c-11 -43 -86 -81 -127 -91c-33 -9 -67 -12 -102 -12c-83 0 -211 34 -211 136zM292 241
c11 -1 23 -2 34 -2c18 0 37 0 52 3c-13 2 -29 2 -44 2c-14 0 -28 -1 -42 -3z" />
    <glyph glyph-name="theta1" unicode="&#xf023;" horiz-adv-x="855" 
d="M204 117c0 19 2 38 7 57l38 151c2 10 4 20 4 29c0 25 -11 51 -39 51c-50 0 -70 -84 -80 -122c-1 -6 -7 -8 -12 -10h-21c-7 2 -12 6 -12 14c0 3 0 1 1 6c15 60 52 149 126 149c58 0 126 -30 126 -97c0 -8 -1 -16 -3 -23l-38 -151c-5 -22 -8 -44 -8 -65
c0 -63 41 -80 96 -80c57 0 103 63 130 107c40 67 60 139 78 210c-93 21 -220 60 -220 176c0 97 84 186 182 186c116 0 155 -131 155 -226c0 -39 -7 -78 -15 -116c17 -3 34 -6 51 -8c7 -2 13 -7 13 -16l-4 -13c-1 -5 -9 -8 -14 -8c-18 3 -37 5 -55 8
c-35 -127 -151 -337 -303 -337c-88 0 -183 19 -183 128zM423 521c0 -92 110 -125 183 -141c13 52 23 104 23 154c0 47 -10 134 -72 134c-75 0 -134 -76 -134 -147z" />
    <glyph glyph-name="pi1" unicode="&#xf024;" horiz-adv-x="1144" 
d="M216 135c0 82 40 156 93 217h-41c-54 0 -108 -23 -139 -68c-2 -2 -6 -3 -9 -4h-21c-7 2 -13 6 -13 14c0 4 2 6 4 9c42 60 109 128 188 128h766c18 0 32 -14 32 -33c0 -24 -21 -46 -45 -46h-38c7 -21 11 -44 11 -66c0 -133 -133 -297 -273 -297c-89 0 -141 75 -141 158
c-56 -84 -147 -158 -252 -158c-84 0 -122 71 -122 146zM350 68c122 0 227 110 255 222c3 5 6 7 12 9h21c7 -2 12 -6 12 -14c0 -3 0 -1 -1 -6c-6 -24 -9 -50 -9 -75c0 -67 27 -136 103 -136c109 0 215 111 215 218c0 23 -5 45 -13 66h-579c-48 -49 -100 -121 -100 -192
c0 -51 31 -92 84 -92z" />
    <glyph glyph-name="rho1" unicode="&#xf025;" horiz-adv-x="726" 
d="M140 -57c0 75 44 286 81 348c51 85 147 151 250 151s185 -70 185 -176c0 -148 -148 -277 -291 -277c-65 0 -128 30 -160 89c-8 -41 -15 -80 -15 -109c0 -35 11 -49 45 -58c30 -7 69 -7 103 -7c38 0 147 0 177 -15c17 -10 24 -27 24 -47c0 -13 -1 -32 -15 -36h-21
c-9 2 -13 7 -13 15c0 2 0 3 1 4c0 6 -37 6 -42 6c-42 0 -83 -6 -125 -6c-89 0 -184 0 -184 118zM367 26c130 0 196 168 196 277c0 58 -34 102 -94 102c-108 0 -167 -104 -189 -196c-7 -25 -11 -52 -11 -76c0 -60 35 -107 98 -107z" />
    <glyph glyph-name="sigma1" unicode="&#xf026;" horiz-adv-x="578" 
d="M275 -77c3 10 10 17 21 17s41 -11 65 -11c21 0 36 24 36 43c0 16 -11 28 -26 34l-170 73c-57 25 -107 73 -107 138c0 155 198 225 327 225c26 0 133 -3 133 -38c0 -14 -13 -27 -26 -27c-17 0 -66 28 -110 28c-88 0 -252 -40 -252 -152c0 -42 37 -70 72 -85l181 -78
c33 -14 54 -44 54 -79c0 -60 -52 -119 -113 -119c-20 0 -85 6 -85 31z" />
    <glyph glyph-name="phi1" unicode="&#xf027;" horiz-adv-x="918" 
d="M281 -182c0 6 2 11 3 16l52 164c-103 18 -223 74 -223 196c0 77 48 182 106 233c3 2 5 3 9 4h21c7 -2 12 -6 12 -14c0 -4 -1 -6 -3 -9c-49 -44 -99 -139 -99 -204c0 -97 127 -123 202 -131l24 76c39 122 132 293 279 293c89 0 153 -64 153 -154
c0 -183 -212 -299 -376 -299c-13 0 -26 1 -38 1l-30 -165c-7 -25 -27 -43 -53 -43c-21 0 -39 14 -39 36zM417 69c12 -1 24 -1 36 -1c75 0 152 17 216 55c51 31 102 85 102 148s-64 92 -120 92c-113 0 -203 -118 -221 -221z" />
    <glyph glyph-name="arrowlefttophalf" unicode="&#xf028;" horiz-adv-x="1361" 
d="M125 237v15c0 5 5 11 10 13c109 49 201 135 258 242c2 5 7 9 13 9h26c9 0 15 -8 15 -16c0 -3 0 -5 -1 -7c-41 -85 -103 -159 -180 -215h944c15 0 26 -14 26 -28s-11 -28 -26 -28h-1070c-7 0 -15 8 -15 15z" />
    <glyph glyph-name="arrowleftbothalf" unicode="&#xf029;" horiz-adv-x="1361" 
d="M135 235c-5 2 -10 8 -10 14v14c0 7 8 15 15 15h1070c15 0 26 -14 26 -28s-11 -28 -26 -28h-944c77 -56 139 -130 180 -215c1 -2 1 -4 1 -7c0 -8 -6 -16 -15 -16h-26c-6 0 -11 4 -13 9c-57 107 -149 193 -258 242z" />
    <glyph glyph-name="arrowrighttophalf" unicode="&#xf02a;" horiz-adv-x="1361" 
d="M152 222c-16 0 -27 14 -27 28s11 28 27 28h943c-77 56 -139 130 -180 215c-1 2 -1 4 -1 7c0 8 6 16 15 16h26c6 0 11 -4 13 -9c57 -107 149 -193 259 -242c4 -2 9 -8 9 -13v-15c0 -7 -8 -15 -15 -15h-1069z" />
    <glyph glyph-name="arrowrightbothalf" unicode="&#xf02b;" horiz-adv-x="1361" 
d="M152 222c-16 0 -27 14 -27 28s11 28 27 28h1069c7 0 15 -8 15 -15v-14c0 -6 -5 -12 -9 -14c-110 -49 -202 -135 -259 -242c-2 -5 -7 -9 -13 -9h-26c-9 0 -15 8 -15 16c0 3 0 5 1 7c41 85 103 159 180 215h-943z" />
    <glyph glyph-name="arrowhookleft" unicode="&#xf02c;" horiz-adv-x="458" 
d="M125 366v6c0 91 97 144 179 144c15 0 26 -10 29 -25v-6c-3 -14 -12 -23 -26 -25c-54 0 -126 -28 -126 -91s72 -91 126 -91c14 -2 23 -11 26 -25v-6c-3 -15 -14 -25 -29 -25c-82 0 -179 53 -179 144z" />
    <glyph glyph-name="arrowhookright" unicode="&#xf02d;" horiz-adv-x="458" 
d="M125 247v6c3 14 12 23 27 25c53 0 125 28 125 91s-72 91 -125 91c-15 2 -24 11 -27 25v6c3 15 14 25 30 25c81 0 178 -53 178 -144v-6c0 -91 -97 -144 -178 -144c-16 0 -27 10 -30 25z" />
    <glyph glyph-name="zerooldstyle" unicode="&#xf030;" 
d="M106 213c0 169 102 240 262 240s262 -71 262 -240c0 -168 -105 -235 -262 -235s-262 67 -262 235zM368 15c153 0 161 80 161 209s-15 192 -161 192s-161 -63 -161 -192s8 -209 161 -209z" />
    <glyph glyph-name="oneoldstyle" unicode="&#xf031;" 
d="M178 15v18c0 7 8 15 15 15c40 0 94 0 123 5c11 3 18 9 18 21v301c-47 -11 -96 -13 -145 -13c-8 0 -18 5 -18 15v18c0 8 8 13 15 15c74 0 150 4 214 42c1 0 5 1 6 1h6c7 0 15 -8 15 -15v-364c0 -12 7 -18 18 -21c29 -5 83 -5 123 -5c7 0 15 -8 15 -15v-18
c0 -8 -9 -15 -16 -15c-62 0 -124 4 -186 4s-124 -4 -186 -4c-8 0 -17 7 -17 15z" />
    <glyph glyph-name="twooldstyle" unicode="&#xf032;" 
d="M111 15v21c1 5 3 8 9 11l238 120c55 28 152 63 152 138c0 92 -129 100 -196 100c-39 0 -87 -3 -119 -28c16 -8 26 -24 26 -42c0 -27 -22 -48 -48 -48c-27 0 -48 21 -48 48c0 109 146 118 226 118c99 0 266 -14 266 -148c0 -110 -143 -129 -220 -164l-115 -51h66
c64 0 174 0 203 2c16 19 18 59 36 63h16c8 0 15 -9 15 -16v-4l-33 -122c-2 -7 -8 -13 -15 -13h-444c-7 0 -15 8 -15 15z" />
    <glyph glyph-name="threeoldstyle" unicode="&#xf033;" 
d="M185 -129c42 -36 126 -42 179 -42c89 0 146 59 146 148c0 88 -58 148 -147 148h-86c-8 2 -11 5 -13 13v12c2 7 5 10 13 12l73 3c76 0 136 75 136 148c0 69 -61 98 -122 98c-49 0 -113 -9 -150 -44c27 -7 44 -28 44 -56c0 -33 -25 -58 -57 -58c-33 0 -58 25 -58 58
c0 111 133 142 222 142c81 0 228 -37 228 -140c0 -88 -73 -144 -150 -167c82 -17 183 -73 183 -169c0 -130 -150 -193 -261 -193c-96 0 -257 22 -257 147c0 35 27 62 62 62s62 -27 62 -62c0 -29 -19 -53 -47 -60z" />
    <glyph glyph-name="fouroldstyle" unicode="&#xf034;" 
d="M106 0c-7 0 -15 8 -15 15v26c0 5 2 9 5 12l364 404c4 4 11 7 17 7h28c8 0 16 -8 16 -16v-400h109c7 0 15 -8 15 -15v-18c0 -7 -8 -15 -15 -15h-110v-120c0 -7 2 -15 8 -19c17 -7 78 -7 99 -7c8 0 15 -8 15 -15v-18c0 -8 -8 -15 -16 -15c-50 0 -102 4 -153 4
c-52 0 -104 -4 -154 -4c-8 0 -16 7 -16 15v18c0 7 7 15 15 15c21 0 82 0 99 7c6 3 7 12 7 19v120h-318zM146 48h286v317z" />
    <glyph glyph-name="fiveoldstyle" unicode="&#xf035;" 
d="M180 -95c34 -54 104 -76 165 -76c110 0 166 65 166 172c0 85 -25 176 -128 176c-65 0 -127 -19 -167 -72c-2 -3 -8 -5 -11 -5h-12c-8 0 -14 8 -14 15v326c0 7 5 12 13 12c2 0 1 0 5 -1c57 -20 116 -30 176 -30s120 10 177 30c4 1 2 1 5 1c8 0 12 -5 14 -12v-12
c-1 -6 0 -3 -3 -8c-62 -61 -146 -96 -233 -96c-36 0 -72 4 -108 11v-170c45 35 102 48 158 48c119 0 235 -87 235 -213c0 -140 -149 -217 -273 -217c-103 0 -227 59 -227 177c0 32 25 57 56 57c32 0 55 -25 55 -57c0 -27 -20 -56 -49 -56z" />
    <glyph glyph-name="sixoldstyle" unicode="&#xf036;" 
d="M368 -22c-198 0 -260 177 -260 345c0 182 142 343 329 343c76 0 160 -28 160 -118c0 -30 -23 -53 -53 -53c-31 0 -54 23 -54 53c0 24 15 46 39 52c-24 20 -62 24 -92 24c-70 0 -137 -36 -176 -94c-37 -59 -46 -129 -46 -197c35 59 99 97 168 97c128 0 245 -89 245 -224
c0 -141 -128 -228 -260 -228zM368 23c49 0 89 12 122 50c31 37 31 85 31 131v3c0 46 0 95 -29 133c-31 38 -68 53 -117 53c-89 0 -156 -79 -156 -166v-27c0 -93 47 -177 149 -177z" />
    <glyph glyph-name="sevenoldstyle" unicode="&#xf037;" 
d="M280 -163c0 150 71 290 172 397l95 100h-135c-69 0 -185 0 -216 -4c-16 -22 -20 -54 -25 -80c-2 -7 -8 -13 -15 -13h-16c-8 0 -15 10 -15 18l40 196c1 6 8 12 15 12h16c7 0 15 -8 15 -15c0 -2 -1 -3 -1 -5c11 -10 181 -12 209 -12h229c7 0 15 -8 15 -15v-18
c0 -3 -2 -8 -4 -10l-168 -177c-93 -99 -104 -245 -104 -375c0 -30 -25 -52 -53 -52c-30 0 -54 23 -54 53z" />
    <glyph glyph-name="eightoldstyle" unicode="&#xf038;" 
d="M108 155c0 96 84 151 164 182l-30 15c-53 28 -99 79 -99 143c0 116 124 171 225 171c93 0 225 -39 225 -153c0 -80 -67 -124 -134 -152l56 -29c61 -31 113 -88 113 -160c0 -134 -145 -194 -260 -194c-107 0 -260 45 -260 177zM180 155c0 -94 110 -132 188 -132
c70 0 188 25 188 115c0 39 -33 70 -66 87l-171 88c-67 -27 -139 -78 -139 -158zM260 464l154 -80c54 24 115 63 115 129c0 80 -95 111 -161 111c-57 0 -161 -17 -161 -92c0 -32 27 -55 53 -68z" />
    <glyph glyph-name="nineoldstyle" unicode="&#xf039;" 
d="M139 -100c0 30 23 53 54 53c30 0 53 -23 53 -53c0 -22 -13 -44 -35 -51c30 -19 70 -20 105 -20c65 0 125 33 162 87c36 57 43 126 43 192c-37 -58 -98 -94 -168 -94c-126 0 -245 84 -245 218c0 142 138 221 267 221c192 0 254 -170 254 -334c0 -174 -132 -335 -313 -335
c-77 0 -177 18 -177 116zM244 102c31 -38 69 -51 117 -51c87 0 157 75 157 161c0 6 0 12 -1 19c0 6 1 0 1 6c0 90 -44 174 -143 174c-53 0 -90 -11 -127 -50c-32 -36 -33 -81 -33 -128v-2c0 -45 0 -93 29 -129z" />
    <glyph glyph-name="partialdiff" unicode="&#xf040;" horiz-adv-x="749" 
d="M181 27c-44 35 -78 83 -78 141c0 173 184 293 343 293c77 0 153 -41 178 -116c0 2 1 4 1 6c11 45 19 89 20 131c0 118 -76 192 -192 192c-57 0 -118 -17 -155 -63c21 -5 37 -20 37 -42c0 -35 -31 -64 -66 -64c-24 0 -45 17 -45 43c0 49 49 108 89 132c43 25 92 36 142 36
c166 0 288 -114 288 -282c0 -94 -44 -210 -95 -288c-67 -100 -176 -168 -298 -168h-3c-60 0 -119 11 -166 49zM204 137c0 -87 75 -114 148 -114c66 0 132 30 175 81c36 43 74 126 74 182c0 85 -68 138 -149 138c-79 0 -150 -33 -195 -100c-27 -43 -53 -137 -53 -187z" />
    <glyph glyph-name="flat" unicode="&#xf05b;" horiz-adv-x="597" 
d="M125 -7v742c0 7 8 15 15 15h16c7 0 15 -8 15 -15v-303c39 25 88 32 134 32c81 0 167 -52 167 -141c0 -174 -176 -272 -310 -344c-1 0 -5 -1 -6 -1h-16c-7 0 -15 8 -15 15zM171 35c95 69 200 161 200 288c0 44 -34 85 -80 85c-39 0 -120 -6 -120 -59v-314z" />
    <glyph glyph-name="natural" unicode="&#xf05c;" horiz-adv-x="597" 
d="M157 -101c-8 0 -17 7 -17 15v804c3 13 17 19 30 19c7 0 16 -6 16 -15v-280l248 89c2 0 4 1 7 1c7 0 16 -7 16 -15v-718c-3 -13 -17 -20 -29 -20c-8 0 -17 7 -17 15v195l-247 -89c-3 0 -5 -1 -7 -1zM186 11l225 81v328l-225 -80v-329z" />
    <glyph glyph-name="sharp" unicode="&#xf05d;" horiz-adv-x="597" 
d="M172 -205v113l-26 -9h-4c-8 0 -17 7 -17 15v71c0 7 6 12 13 14l34 12v328l-26 -8c-2 -1 -3 -1 -4 -1c-8 0 -17 7 -17 15v71c0 7 6 13 13 15l34 11v192c3 13 17 20 30 20c7 0 16 -7 16 -15v-183l161 52v193c3 13 17 19 30 19c7 0 16 -6 16 -15v-182l27 9h4
c7 0 16 -7 16 -15v-71c0 -7 -6 -12 -12 -14l-35 -12v-328l27 9h4c7 0 16 -7 16 -15v-71c0 -7 -6 -12 -12 -14l-35 -12v-123c-3 -13 -17 -20 -29 -20c-8 0 -17 7 -17 15v114l-161 -52v-124c-3 -13 -17 -19 -29 -19c-8 0 -17 6 -17 15zM218 25l161 52v329l-161 -52v-329z" />
    <glyph glyph-name="slurbelow" unicode="&#xf05e;" horiz-adv-x="1361" 
d="M267 231c-27 16 -134 94 -141 120c-1 2 -1 4 -1 7c0 13 11 23 23 23c7 0 13 -3 17 -7c129 -144 331 -182 516 -182c184 0 386 38 515 182c5 4 10 7 17 7c12 0 23 -10 23 -23c0 -6 -2 -11 -6 -16c-138 -153 -348 -214 -550 -214c-77 0 -152 9 -225 27
c-67 17 -130 42 -188 76z" />
    <glyph glyph-name="slurabove" unicode="&#xf05f;" horiz-adv-x="1361" 
d="M125 142c0 6 2 11 6 15c133 162 345 233 550 233c138 0 277 -31 395 -102c32 -18 151 -107 159 -139c1 -2 1 -4 1 -7c0 -13 -11 -23 -23 -23c-7 0 -13 3 -17 8c-125 151 -328 199 -515 199c-188 0 -391 -48 -516 -199c-4 -5 -10 -8 -17 -8c-12 0 -23 10 -23 23z" />
    <glyph glyph-name="lscript" unicode="&#xf060;" horiz-adv-x="597" 
d="M83 66c-4 0 -8 2 -11 5c-4 5 -13 14 -13 22c0 3 1 8 4 10c32 25 65 52 98 79v32c0 112 42 247 100 342c35 59 97 149 175 149c56 0 79 -49 79 -97c0 -157 -165 -321 -276 -417c0 -9 -2 -18 -2 -27c0 -51 14 -143 81 -143c75 0 160 86 172 86c4 0 9 -1 11 -4
c4 -6 13 -14 13 -23c0 -5 -3 -8 -6 -11c-55 -44 -121 -85 -192 -85c-85 0 -131 73 -148 147c-11 -9 -77 -65 -85 -65zM248 258c93 86 221 223 221 357c0 24 -6 53 -34 53c-97 0 -173 -332 -187 -410z" />
    <glyph glyph-name="weierstrass" unicode="&#xf07d;" horiz-adv-x="889" 
d="M248 -216c-71 0 -94 63 -94 124c0 59 15 118 38 171c-33 32 -46 67 -46 112c0 100 79 262 192 262c7 0 15 -6 15 -15l-3 -13c-3 -6 -6 -8 -12 -9c-75 0 -128 -127 -128 -193c0 -23 7 -47 23 -64c87 138 239 251 408 251c96 0 176 -65 176 -165
c0 -138 -141 -256 -275 -256c-56 0 -115 32 -115 95c0 25 9 54 39 54c16 0 29 -11 29 -27c0 -14 -9 -27 -22 -33c5 -35 40 -52 72 -52c121 0 186 146 186 250c0 56 -35 97 -93 97c-157 0 -297 -114 -373 -245l110 -106c20 -19 27 -47 27 -74c0 -80 -71 -164 -154 -164z
M250 -179c47 0 88 50 88 94c0 14 -4 27 -14 37l-97 94c-17 -47 -30 -98 -30 -147c0 -37 9 -78 53 -78z" />
    <glyph glyph-name="vector" unicode="&#xf07e;" 
d="M271 587c-14 2 -23 11 -26 25v6c3 14 12 23 26 25h419c-11 14 -21 31 -25 48v6c4 14 13 25 28 25c12 0 21 -7 26 -18c11 -29 34 -50 62 -63c10 -5 15 -12 18 -23v-6c-3 -11 -8 -18 -18 -23c-40 -15 -77 -38 -105 -71c-6 -6 -13 -10 -22 -10c-15 0 -25 11 -28 25v6
c4 20 25 36 40 48h-395z" />
    <glyph glyph-name="kappa1" unicode="&#xf080;" horiz-adv-x="944" 
d="M121 30c0 18 10 30 26 38l141 73c17 18 31 38 44 60c15 24 53 104 53 130c0 6 -4 8 -10 8c-35 0 -106 -3 -136 -19c-7 -4 -6 -13 -17 -13h-16c-8 0 -15 8 -15 16c0 4 2 8 3 12c23 68 133 94 197 94c34 0 44 -39 44 -67c0 -59 -34 -131 -66 -180l450 232
c21 10 46 17 69 17c21 0 38 -9 43 -30c0 -18 -10 -30 -26 -38l-142 -73c-16 -18 -31 -38 -43 -60c-15 -24 -54 -104 -54 -130c0 -6 5 -7 10 -7c35 0 107 2 137 18c6 4 6 13 16 13h16c9 0 15 -8 15 -16c0 -4 -1 -8 -2 -12c-23 -68 -134 -93 -197 -93c-34 0 -45 38 -45 66
c0 59 35 131 67 180l-451 -232c-21 -10 -45 -17 -68 -17c-21 0 -39 9 -43 30z" />
    <glyph glyph-name="alpha" unicode="&#xf0ae;" horiz-adv-x="913" 
d="M105 171c0 155 172 271 318 271c54 0 108 -15 150 -49c39 -31 75 -88 75 -139l4 -55c44 54 78 117 95 186c1 5 7 7 11 8h21c7 -2 13 -6 13 -14c0 -3 0 -1 -1 -5c-22 -88 -71 -168 -134 -232c0 -25 9 -116 43 -116c54 0 55 45 71 48h21c7 -1 12 -6 12 -14
c0 -44 -68 -71 -107 -71c-55 0 -101 35 -121 86c-76 -52 -167 -86 -260 -86c-107 0 -211 64 -211 182zM201 139c0 -72 48 -113 117 -113c90 0 177 36 248 90c-1 4 -1 8 -2 12l-9 103c0 77 -46 174 -135 174c-138 0 -219 -142 -219 -266z" />
    <glyph glyph-name="beta" unicode="&#xf0af;" horiz-adv-x="790" 
d="M87 -194c-7 2 -13 7 -13 15l154 616c38 150 193 268 348 268c85 0 172 -49 172 -144c0 -70 -51 -131 -108 -166c49 -32 79 -86 79 -144c0 -154 -174 -267 -317 -267c-81 0 -171 28 -215 101l-68 -271c-1 -5 -7 -7 -11 -8h-21zM212 166c0 -102 106 -145 193 -145
c137 0 218 138 218 262c0 33 -11 63 -37 85c-29 -10 -60 -16 -92 -16c-27 0 -110 0 -110 36c0 43 91 43 123 43c27 0 54 -4 80 -12c47 35 75 110 75 168c0 53 -39 81 -89 81c-138 0 -268 -111 -301 -242l-55 -220c-4 -14 -5 -27 -5 -40zM444 391c15 -2 34 -2 51 -2
c11 0 22 1 32 3c-7 1 -15 2 -24 2c-20 0 -42 0 -59 -3z" />
    <glyph glyph-name="gamma" unicode="&#xf0b0;" horiz-adv-x="746" 
d="M447 -186c0 48 38 170 54 220c1 14 2 27 2 40c0 140 -45 278 -209 278c-65 0 -159 -22 -177 -95c-4 -5 -6 -7 -12 -8h-21c-7 2 -12 6 -12 14c0 3 0 1 1 5c25 102 134 174 236 174c146 0 220 -167 235 -291c38 92 83 183 134 272c3 5 6 7 12 8h21c7 -2 12 -6 12 -14
c0 -3 0 -1 -1 -5c-72 -124 -132 -252 -176 -382c0 -42 -33 -211 -60 -238c-5 -5 -11 -8 -18 -8c-17 0 -21 16 -21 30z" />
    <glyph glyph-name="delta" unicode="&#xf0b1;" horiz-adv-x="654" 
d="M103 168c0 134 129 239 250 266c-34 51 -77 115 -77 179c0 67 56 106 118 106c26 0 158 -21 174 -30c11 -6 17 -16 17 -29c0 -26 -23 -50 -49 -50c-43 0 -102 61 -167 61c-22 0 -50 -12 -50 -38c0 -49 103 -143 139 -177c53 -51 90 -111 90 -187
c0 -130 -92 -285 -233 -285c-109 0 -212 66 -212 184zM189 143c0 -78 53 -122 128 -122c89 0 138 126 138 200c0 69 -39 125 -78 179c-117 -25 -188 -143 -188 -257z" />
    <glyph glyph-name="epsilon1" unicode="&#xf0b2;" horiz-adv-x="613" 
d="M207 162c0 -87 61 -136 146 -136c49 0 96 24 137 49c4 1 3 1 5 1c6 0 12 -4 13 -9c2 -3 7 -15 7 -21c0 -32 -135 -57 -164 -57c-121 0 -240 70 -240 203c0 155 171 239 307 239h72c13 0 21 -11 21 -23c0 -13 -13 -25 -26 -25h-69c-84 0 -158 -36 -189 -117h222
c13 0 20 -11 20 -23c0 -13 -12 -25 -25 -25h-231c-3 -19 -5 -38 -6 -56z" />
    <glyph glyph-name="zeta" unicode="&#xf0b3;" horiz-adv-x="666" 
d="M293 -156c2 10 9 17 20 17c3 0 6 0 8 -1c32 -18 68 -28 105 -28c25 0 40 29 40 50c0 31 -27 48 -54 56l-132 35c-102 27 -170 94 -170 204c0 171 146 341 295 412c-7 16 -10 34 -10 52c0 20 2 62 29 62c13 0 22 -8 22 -22c0 -1 -1 -2 -1 -2c-2 -14 -4 -28 -4 -41
c0 -11 1 -23 4 -33c19 5 37 9 56 9c28 0 115 0 115 -36c0 -43 -95 -43 -128 -43c-22 0 -43 7 -60 22c-119 -58 -242 -208 -242 -345c0 -84 54 -132 131 -152l136 -36c48 -13 85 -50 85 -102c0 -61 -49 -127 -113 -127c-27 0 -132 16 -132 49zM475 574c0 -1 13 -2 17 -2
c21 0 45 0 63 3c-16 2 -36 2 -55 2c-8 0 -16 -1 -25 -3z" />
    <glyph glyph-name="eta" unicode="&#xf0b4;" horiz-adv-x="743" 
d="M214 -11c-21 0 -39 15 -39 36c0 4 1 7 2 11l72 289c2 10 4 20 4 29c0 25 -11 51 -39 51c-50 0 -70 -84 -80 -122c-1 -6 -7 -8 -12 -10h-21c-7 2 -12 6 -12 14c0 3 0 1 1 6c15 60 52 149 126 149c57 0 126 -30 126 -96c46 54 111 96 185 96c79 0 155 -30 155 -120
c0 -14 -3 -29 -7 -43l-114 -456c-6 -22 -28 -39 -51 -39c-21 0 -39 15 -39 36c0 4 0 7 1 10l113 452c5 18 8 36 8 53c0 43 -23 70 -67 70c-100 0 -168 -88 -209 -169l-51 -207c-6 -23 -29 -40 -52 -40z" />
    <glyph glyph-name="theta" unicode="&#xf0b5;" horiz-adv-x="677" 
d="M270 -11c-121 0 -164 131 -164 232v1c0 103 34 209 86 297c50 83 144 186 248 186h2c121 0 165 -131 165 -232c0 -104 -35 -210 -88 -298c-50 -83 -143 -186 -248 -186h-1zM272 26c114 0 186 207 209 297h-263c-13 -54 -23 -108 -23 -159c0 -50 11 -138 77 -138zM230 371
h263c13 54 25 108 25 159c0 50 -13 138 -78 138c-115 0 -186 -207 -210 -297z" />
    <glyph glyph-name="iota" unicode="&#xf0b6;" horiz-adv-x="549" 
d="M118 77c0 13 3 25 8 36c39 96 65 193 89 290c6 22 29 39 52 39c21 0 38 -15 38 -36c0 -44 -71 -255 -91 -304c-6 -12 -7 -26 -7 -40c0 -18 5 -36 26 -36c76 0 163 45 183 123c1 5 7 8 11 9h21c7 -2 13 -6 13 -14c0 -3 0 -1 -1 -6c-24 -96 -138 -149 -230 -149
c-52 0 -112 29 -112 88z" />
    <glyph glyph-name="kappa" unicode="&#xf0b7;" horiz-adv-x="827" 
d="M122 25c0 4 1 7 2 11l91 367c6 22 29 39 52 39c21 0 38 -15 38 -36c0 -4 0 -7 -1 -10l-32 -128c123 36 222 163 355 163c25 0 45 -17 45 -43c0 -35 -31 -64 -65 -64c-25 0 -45 17 -45 44c0 6 3 16 3 16c-81 -28 -147 -86 -222 -126c72 0 224 -14 224 -112
c0 -9 -1 -18 -3 -27c-3 -12 -4 -25 -4 -37c0 -26 9 -56 40 -56c54 0 83 80 94 123c1 5 7 8 11 9h21c7 -2 13 -6 13 -14c0 -3 0 -1 -1 -6c-16 -64 -65 -149 -140 -149c-63 0 -127 37 -127 106c0 9 1 18 3 27s4 17 4 25c0 76 -163 76 -217 76l-48 -194c-6 -23 -29 -40 -52 -40
c-21 0 -39 15 -39 36z" />
    <glyph glyph-name="lambda" unicode="&#xf0b8;" horiz-adv-x="840" 
d="M120 26c0 15 9 29 20 38l322 261l-135 266c-17 34 -43 66 -84 66c-9 0 -16 9 -16 17c0 12 10 20 22 20c56 0 131 0 163 -55l288 -566c10 -19 19 -41 34 -56c4 -4 9 -7 9 -14c0 -8 -5 -12 -13 -14h-65c-20 5 -37 15 -49 33l-131 259l-288 -277c-11 -9 -22 -17 -37 -17
c-22 0 -40 17 -40 39z" />
    <glyph glyph-name="rho" unicode="&#xf0bd;" horiz-adv-x="726" 
d="M93 -180c0 4 0 7 1 10l98 391c30 122 153 221 279 221c103 0 185 -70 185 -176c0 -148 -148 -277 -291 -277c-48 0 -96 21 -125 60l-57 -226c-6 -22 -28 -39 -51 -39c-21 0 -39 15 -39 36zM255 112c15 -54 57 -86 112 -86c130 0 196 168 196 277c0 58 -34 102 -94 102
c-108 0 -166 -103 -189 -195z" />
    <glyph glyph-name="sigma" unicode="&#xf0be;" horiz-adv-x="815" 
d="M102 158c0 145 160 273 300 273h314c18 0 32 -14 32 -33c0 -24 -21 -46 -45 -46h-136c20 -30 31 -66 31 -102c0 -152 -157 -261 -298 -261c-100 0 -198 60 -198 169zM188 133c0 -69 47 -107 114 -107c123 0 207 118 207 233c0 72 -55 93 -118 93
c-129 0 -203 -96 -203 -219z" />
    <glyph glyph-name="tau" unicode="&#xf0bf;" horiz-adv-x="681" 
d="M275 23c0 5 1 9 2 14l98 315h-107c-54 0 -108 -23 -139 -68c-2 -2 -6 -3 -9 -4h-21c-7 2 -13 6 -13 14c0 4 2 6 4 9c42 60 109 128 187 128h385c18 0 32 -14 32 -33c0 -24 -21 -46 -45 -46h-222l-60 -319c-7 -26 -26 -46 -54 -46c-20 0 -38 14 -38 36z" />
    <glyph glyph-name="upsilon" unicode="&#xf0c0;" horiz-adv-x="791" 
d="M206 134c0 59 39 140 61 195c5 12 9 26 9 40c0 18 -7 36 -28 36c-60 0 -101 -72 -114 -123c-1 -5 -7 -8 -12 -9h-21c-7 2 -12 6 -12 14c0 3 0 1 1 6c18 72 81 149 161 149c52 0 114 -29 114 -88c0 -13 -5 -25 -10 -36c-22 -54 -60 -134 -60 -192c0 -78 62 -100 129 -100
c50 0 95 29 129 63c41 41 95 126 95 185c0 34 -14 51 -29 65c-14 13 -29 24 -29 43c0 31 30 61 60 61c44 0 60 -51 60 -86c0 -151 -120 -368 -288 -368c-96 0 -216 26 -216 145z" />
    <glyph glyph-name="phi" unicode="&#xf0c1;" horiz-adv-x="841" 
d="M314 -190l43 175c-107 0 -245 71 -245 193c0 162 220 268 361 268l60 240c1 5 7 7 11 8h21c7 -2 13 -7 13 -15l-59 -233c108 0 248 -71 248 -193c0 -162 -222 -268 -363 -268l-45 -182c-2 -5 -7 -7 -12 -8h-21c-6 2 -12 7 -12 15zM198 164c0 -93 85 -142 169 -142l96 387
c-56 0 -131 -32 -174 -66c-53 -43 -91 -110 -91 -179zM414 22c56 0 131 32 174 66c53 43 90 110 90 179c0 93 -84 142 -168 142z" />
    <glyph glyph-name="chi" unicode="&#xf0c2;" horiz-adv-x="864" 
d="M115 -194c-12 0 -21 9 -21 21c0 6 2 13 7 17l284 262c-23 55 -127 299 -191 299c-27 0 -53 -19 -60 -45c-1 -5 -7 -8 -11 -9h-21c-7 2 -13 6 -13 14c0 45 69 77 110 77c88 0 131 -16 176 -91c34 -56 61 -116 86 -176l270 248c6 5 11 8 18 8c12 0 22 -9 22 -21
c0 -6 -3 -13 -7 -17l-285 -262c23 -55 127 -299 191 -299c27 0 53 19 60 45c1 5 7 8 11 9h21c7 -2 13 -6 13 -14c0 -45 -69 -77 -110 -77c-87 0 -131 16 -176 91c-34 56 -60 116 -86 176l-270 -248c-6 -5 -11 -8 -18 -8z" />
    <glyph glyph-name="psi" unicode="&#xf0c3;" horiz-adv-x="930" 
d="M385 -190l45 180c-90 0 -222 43 -222 153c0 51 39 137 59 186c5 12 9 26 9 40c0 18 -7 36 -28 36c-60 0 -101 -72 -114 -123c-3 -5 -6 -7 -12 -9h-21c-7 2 -12 6 -12 14c0 3 0 1 1 6c18 72 81 149 161 149c52 0 114 -29 114 -88c0 -13 -5 -25 -10 -36
c-19 -46 -58 -131 -58 -178c0 -74 79 -113 143 -113l164 659c3 5 6 7 12 8h21c6 -2 12 -7 12 -15l-163 -653l7 1c68 0 135 30 187 72c48 38 107 111 107 175c0 34 -14 51 -29 65c-14 13 -29 24 -29 43c0 31 30 61 60 61c44 0 60 -51 60 -87c0 -40 -11 -78 -21 -116
c-13 -52 -44 -99 -82 -137c-65 -65 -159 -113 -254 -113l-15 -1l-47 -186c-3 -5 -5 -7 -11 -8h-21c-7 2 -13 7 -13 15z" />
    <glyph glyph-name="tie" unicode="&#xf0c4;" horiz-adv-x="458" 
d="M355 534c-7 2 -12 6 -12 14c0 3 0 1 1 5c23 92 250 112 329 112c64 0 279 -15 279 -105c0 -11 -1 -23 -14 -26h-21c-6 2 -12 7 -12 15c1 3 1 6 1 8c0 48 -202 60 -238 60c-57 0 -265 -13 -280 -75c-1 -5 -7 -7 -12 -8h-21z" />
  </font>
</defs>
</svg>
