<?xml version="1.0" encoding="UTF-8"?>
<!DOCTYPE svg PUBLIC "-//W3C//DTD SVG 1.1//EN"
    "http://www.w3.org/Graphics/SVG/1.1/DTD/svg11.dtd"><svg xmlns="http://www.w3.org/2000/svg" height="400.0000" stroke-opacity="1" viewBox="0.0 0.0 400.0 400.0" font-size="1" width="400.0000" xmlns:xlink="http://www.w3.org/1999/xlink" stroke="rgb(0,0,0)" version="1.1"><defs></defs><g stroke-linejoin="miter" stroke-opacity="1.0" fill-opacity="1.0" stroke="rgb(0,0,0)" stroke-width="1.6" fill="rgb(0,0,0)" stroke-linecap="butt" stroke-miterlimit="10.0"><path d="M 7.8431,396.0784 c 0.0000,-2.1658 -1.7557,-3.9216 -3.9216 -3.9216c -2.1658,-0.0000 -3.9216,1.7557 -3.9216 3.9216c -0.0000,2.1658 1.7557,3.9216 3.9216 3.9216c 2.1658,0.0000 3.9216,-1.7557 3.9216 -3.9216Z"/></g><g stroke-linejoin="miter" stroke-opacity="1.0" fill-opacity="1.0" stroke="rgb(0,0,0)" stroke-width="1.6" fill="rgb(0,0,0)" stroke-linecap="butt" stroke-miterlimit="10.0"><path d="M 7.8431,3.9216 c 0.0000,-2.1658 -1.7557,-3.9216 -3.9216 -3.9216c -2.1658,-0.0000 -3.9216,1.7557 -3.9216 3.9216c -0.0000,2.1658 1.7557,3.9216 3.9216 3.9216c 2.1658,0.0000 3.9216,-1.7557 3.9216 -3.9216Z"/></g><g stroke-linejoin="miter" stroke-opacity="1.0" fill-opacity="1.0" stroke="rgb(0,0,0)" stroke-width="1.6" fill="rgb(0,0,0)" stroke-linecap="butt" stroke-miterlimit="10.0"><path d="M 400.0000,3.9216 c 0.0000,-2.1658 -1.7557,-3.9216 -3.9216 -3.9216c -2.1658,-0.0000 -3.9216,1.7557 -3.9216 3.9216c -0.0000,2.1658 1.7557,3.9216 3.9216 3.9216c 2.1658,0.0000 3.9216,-1.7557 3.9216 -3.9216Z"/></g><g stroke-linejoin="miter" stroke-opacity="1.0" fill-opacity="1.0" stroke="rgb(0,0,0)" stroke-width="1.6" fill="rgb(0,0,0)" stroke-linecap="butt" stroke-miterlimit="10.0"><path d="M 400.0000,396.0784 c 0.0000,-2.1658 -1.7557,-3.9216 -3.9216 -3.9216c -2.1658,-0.0000 -3.9216,1.7557 -3.9216 3.9216c -0.0000,2.1658 1.7557,3.9216 3.9216 3.9216c 2.1658,0.0000 3.9216,-1.7557 3.9216 -3.9216Z"/></g></svg>