<?xml version="1.0" standalone="no"?>
<!DOCTYPE svg PUBLIC "-//W3C//DTD SVG 1.1//EN" "http://www.w3.org/Graphics/SVG/1.1/DTD/svg11.dtd" >
<svg xmlns="http://www.w3.org/2000/svg" xmlns:xlink="http://www.w3.org/1999/xlink" version="1.1">
<metadata>
Created by FontForge 20200314 at Sat Aug 16 14:06:46 2003
 By 藤本　誠
Removed
</metadata>
<defs>
<font id="cmmi10" horiz-adv-x="500" >
  <font-face 
    font-family="BKM-cmmi10"
    font-weight="400"
    font-stretch="normal"
    units-per-em="1000"
    panose-1="2 11 5 1 1 1 1 1 1 1"
    ascent="800"
    descent="-200"
    x-height="442"
    cap-height="683"
    bbox="-34 -250 1048 750"
    underline-thickness="10"
    underline-position="-30"
    stemh="35"
    stemv="29"
    unicode-range="U+0020-F0C4"
  />
<missing-glyph horiz-adv-x="1000" 
 />
    <glyph glyph-name=".notdef" horiz-adv-x="1000" 
 />
    <glyph glyph-name="A" unicode="A" horiz-adv-x="750" 
d="M44 0c-6 0 -9 8 -9 13c1 6 3 22 13 22c54 0 92 21 121 66c0 1 2 1 2 2l357 602c4 6 11 11 19 11h13c6 0 13 -4 13 -11l61 -646c1 -5 2 -9 4 -13c10 -11 59 -11 75 -11c7 0 10 -7 10 -13c-2 -6 -3 -22 -13 -22c-40 0 -79 3 -118 3c-45 0 -90 -3 -135 -3c-7 0 -10 7 -10 13
c2 6 3 22 13 22c22 0 79 0 84 27l-15 165h-247l-80 -134c-4 -6 -7 -16 -7 -25c0 -27 32 -33 54 -33c7 0 10 -7 10 -13c-3 -12 -4 -22 -17 -22c-37 0 -73 3 -109 3c-30 0 -59 -3 -89 -3zM302 262h224l-31 324z" />
    <glyph glyph-name="A" unicode="&#xf041;" horiz-adv-x="750" 
d="M44 0c-6 0 -9 8 -9 13c1 6 3 22 13 22c54 0 92 21 121 66c0 1 2 1 2 2l357 602c4 6 11 11 19 11h13c6 0 13 -4 13 -11l61 -646c1 -5 2 -9 4 -13c10 -11 59 -11 75 -11c7 0 10 -7 10 -13c-2 -6 -3 -22 -13 -22c-40 0 -79 3 -118 3c-45 0 -90 -3 -135 -3c-7 0 -10 7 -10 13
c2 6 3 22 13 22c22 0 79 0 84 27l-15 165h-247l-80 -134c-4 -6 -7 -16 -7 -25c0 -27 32 -33 54 -33c7 0 10 -7 10 -13c-3 -12 -4 -22 -17 -22c-37 0 -73 3 -109 3c-30 0 -59 -3 -89 -3zM302 262h224l-31 324z" />
    <glyph glyph-name="B" unicode="B" horiz-adv-x="758" 
d="M50 0c-7 0 -10 7 -10 13c2 6 3 22 13 22c26 0 61 0 85 7c11 4 16 16 19 27l137 549c1 5 2 9 2 14c0 9 -4 11 -12 12c-19 4 -49 4 -72 4c-7 0 -10 7 -10 13c2 6 3 22 13 22h358c83 0 183 -42 183 -138c0 -105 -119 -172 -209 -188c74 0 155 -60 155 -140
c0 -127 -156 -217 -272 -217h-380zM234 43c0 -8 26 -8 34 -8h143c101 0 194 92 194 193c0 61 -38 114 -103 114h-195l-69 -277c-2 -7 -4 -15 -4 -22zM314 368h152c95 0 195 81 195 180c0 57 -39 100 -97 100h-137c-33 0 -43 0 -52 -34z" />
    <glyph glyph-name="B" unicode="&#xf042;" horiz-adv-x="758" 
d="M50 0c-7 0 -10 7 -10 13c2 6 3 22 13 22c26 0 61 0 85 7c11 4 16 16 19 27l137 549c1 5 2 9 2 14c0 9 -4 11 -12 12c-19 4 -49 4 -72 4c-7 0 -10 7 -10 13c2 6 3 22 13 22h358c83 0 183 -42 183 -138c0 -105 -119 -172 -209 -188c74 0 155 -60 155 -140
c0 -127 -156 -217 -272 -217h-380zM234 43c0 -8 26 -8 34 -8h143c101 0 194 92 194 193c0 61 -38 114 -103 114h-195l-69 -277c-2 -7 -4 -15 -4 -22zM314 368h152c95 0 195 81 195 180c0 57 -39 100 -97 100h-137c-33 0 -43 0 -52 -34z" />
    <glyph glyph-name="C" unicode="C" horiz-adv-x="714" 
d="M145 217c0 -121 73 -204 196 -204c130 0 248 110 278 233c1 3 5 6 8 6h12c5 0 9 -5 9 -9c0 -2 0 -1 -1 -3c-35 -143 -177 -262 -325 -262c-160 0 -272 115 -272 274c0 229 219 453 449 453c66 0 128 -31 163 -88l79 86c0 1 3 2 5 2h6c5 0 9 -6 9 -10l-68 -270
c0 -4 -4 -7 -8 -7h-18c-5 0 -8 6 -8 11c3 17 4 35 4 52c0 96 -47 189 -154 189c-227 0 -364 -251 -364 -453z" />
    <glyph glyph-name="C" unicode="&#xf043;" horiz-adv-x="714" 
d="M145 217c0 -121 73 -204 196 -204c130 0 248 110 278 233c1 3 5 6 8 6h12c5 0 9 -5 9 -9c0 -2 0 -1 -1 -3c-35 -143 -177 -262 -325 -262c-160 0 -272 115 -272 274c0 229 219 453 449 453c66 0 128 -31 163 -88l79 86c0 1 3 2 5 2h6c5 0 9 -6 9 -10l-68 -270
c0 -4 -4 -7 -8 -7h-18c-5 0 -8 6 -8 11c3 17 4 35 4 52c0 96 -47 189 -154 189c-227 0 -364 -251 -364 -453z" />
    <glyph glyph-name="D" unicode="D" horiz-adv-x="827" 
d="M48 0c-7 0 -10 7 -10 13c2 6 3 22 13 22c26 0 61 0 85 7c11 4 16 16 19 27l137 549c1 5 2 9 2 14c0 9 -4 11 -12 12c-19 4 -49 4 -72 4c-7 0 -10 7 -10 13c2 6 3 22 13 22h360c145 0 230 -114 230 -252c0 -208 -187 -431 -401 -431h-354zM235 43c0 -8 26 -8 34 -8h117
c75 0 148 34 201 86c77 78 127 240 127 347s-65 180 -175 180h-111c-33 0 -43 0 -52 -34l-137 -549c-2 -7 -4 -15 -4 -22z" />
    <glyph glyph-name="D" unicode="&#xf044;" horiz-adv-x="827" 
d="M48 0c-7 0 -10 7 -10 13c2 6 3 22 13 22c26 0 61 0 85 7c11 4 16 16 19 27l137 549c1 5 2 9 2 14c0 9 -4 11 -12 12c-19 4 -49 4 -72 4c-7 0 -10 7 -10 13c2 6 3 22 13 22h360c145 0 230 -114 230 -252c0 -208 -187 -431 -401 -431h-354zM235 43c0 -8 26 -8 34 -8h117
c75 0 148 34 201 86c77 78 127 240 127 347s-65 180 -175 180h-111c-33 0 -43 0 -52 -34l-137 -549c-2 -7 -4 -15 -4 -22z" />
    <glyph glyph-name="E" unicode="E" horiz-adv-x="738" 
d="M47 0c-7 0 -10 7 -10 13c2 6 3 22 13 22c26 0 61 0 85 7c11 4 16 16 19 27l137 549c1 5 2 9 2 14c0 9 -4 11 -12 12c-19 4 -49 4 -72 4c-7 0 -10 7 -10 13c2 6 3 22 13 22h543c7 0 10 -7 10 -13l-24 -207c0 -4 -5 -9 -10 -9h-9c-7 0 -10 7 -10 13c3 24 6 49 6 72
c0 109 -83 109 -174 109h-114c-33 0 -43 0 -52 -34l-60 -242h78c96 0 121 12 145 108c1 4 5 9 10 9h9c7 0 10 -7 10 -13l-62 -247c-1 -4 -5 -9 -10 -9h-9c-7 0 -10 7 -10 13c5 20 10 41 10 59c0 45 -58 45 -97 45h-83l-68 -272c-2 -7 -4 -15 -4 -22c0 -8 26 -8 34 -8h121
c191 0 224 54 295 221c1 3 5 6 9 6h9c5 0 10 -6 10 -11c0 -3 0 -2 -1 -4l-103 -241c-1 -3 -5 -6 -8 -6h-556z" />
    <glyph glyph-name="E" unicode="&#xf045;" horiz-adv-x="738" 
d="M47 0c-7 0 -10 7 -10 13c2 6 3 22 13 22c26 0 61 0 85 7c11 4 16 16 19 27l137 549c1 5 2 9 2 14c0 9 -4 11 -12 12c-19 4 -49 4 -72 4c-7 0 -10 7 -10 13c2 6 3 22 13 22h543c7 0 10 -7 10 -13l-24 -207c0 -4 -5 -9 -10 -9h-9c-7 0 -10 7 -10 13c3 24 6 49 6 72
c0 109 -83 109 -174 109h-114c-33 0 -43 0 -52 -34l-60 -242h78c96 0 121 12 145 108c1 4 5 9 10 9h9c7 0 10 -7 10 -13l-62 -247c-1 -4 -5 -9 -10 -9h-9c-7 0 -10 7 -10 13c5 20 10 41 10 59c0 45 -58 45 -97 45h-83l-68 -272c-2 -7 -4 -15 -4 -22c0 -8 26 -8 34 -8h121
c191 0 224 54 295 221c1 3 5 6 9 6h9c5 0 10 -6 10 -11c0 -3 0 -2 -1 -4l-103 -241c-1 -3 -5 -6 -8 -6h-556z" />
    <glyph glyph-name="F" unicode="F" horiz-adv-x="643" 
d="M47 0c-7 0 -10 7 -10 13c2 6 3 22 13 22c26 0 61 0 85 7c11 4 16 16 19 27l137 549c1 5 2 9 2 14c0 9 -4 11 -12 12c-19 4 -49 4 -72 4c-7 0 -10 7 -10 13c2 6 3 22 13 22h528c7 0 10 -7 10 -13l-24 -207c0 -4 -5 -9 -10 -9h-9c-7 0 -10 7 -10 13c3 24 6 50 6 74
c0 107 -77 107 -166 107h-107c-33 0 -43 0 -52 -34l-64 -255h76c96 0 119 14 142 108c1 4 5 9 10 9h9c7 0 10 -7 10 -13l-61 -247c-2 -4 -6 -9 -10 -9h-9c-8 0 -10 7 -10 13c4 20 10 41 10 60c0 44 -56 44 -94 44h-81l-65 -259c-1 -4 -2 -7 -2 -10c0 -5 1 -11 7 -13
c26 -7 74 -7 102 -7c7 0 10 -7 10 -13c-3 -12 -3 -22 -17 -22c-53 0 -106 3 -160 3c-45 0 -89 -3 -134 -3z" />
    <glyph glyph-name="F" unicode="&#xf046;" horiz-adv-x="643" 
d="M47 0c-7 0 -10 7 -10 13c2 6 3 22 13 22c26 0 61 0 85 7c11 4 16 16 19 27l137 549c1 5 2 9 2 14c0 9 -4 11 -12 12c-19 4 -49 4 -72 4c-7 0 -10 7 -10 13c2 6 3 22 13 22h528c7 0 10 -7 10 -13l-24 -207c0 -4 -5 -9 -10 -9h-9c-7 0 -10 7 -10 13c3 24 6 50 6 74
c0 107 -77 107 -166 107h-107c-33 0 -43 0 -52 -34l-64 -255h76c96 0 119 14 142 108c1 4 5 9 10 9h9c7 0 10 -7 10 -13l-61 -247c-2 -4 -6 -9 -10 -9h-9c-8 0 -10 7 -10 13c4 20 10 41 10 60c0 44 -56 44 -94 44h-81l-65 -259c-1 -4 -2 -7 -2 -10c0 -5 1 -11 7 -13
c26 -7 74 -7 102 -7c7 0 10 -7 10 -13c-3 -12 -3 -22 -17 -22c-53 0 -106 3 -160 3c-45 0 -89 -3 -134 -3z" />
    <glyph glyph-name="G" unicode="G" horiz-adv-x="786" 
d="M145 219c0 -124 78 -206 203 -206c70 0 162 34 182 109l22 86c0 4 1 7 1 11s-1 11 -6 12c-25 7 -72 7 -100 7c-7 0 -10 7 -10 13c3 12 4 22 17 22c53 0 105 -3 157 -3c34 0 68 3 101 3c7 0 10 -8 10 -13c-2 -6 -3 -22 -13 -22c-36 0 -61 0 -70 -34l-22 -86l-28 -111
c-1 -5 -5 -7 -9 -7c-14 0 -41 48 -46 60c-50 -59 -137 -82 -212 -82c-160 0 -272 115 -272 274c0 229 219 453 449 453c66 0 128 -31 163 -88l79 86c0 1 3 2 5 2h6c5 0 9 -6 9 -10l-68 -270c0 -4 -4 -7 -8 -7h-18c-5 0 -8 6 -8 11c3 17 4 35 4 52c0 96 -47 189 -154 189
c-226 0 -364 -249 -364 -451z" />
    <glyph glyph-name="G" unicode="&#xf047;" horiz-adv-x="786" 
d="M145 219c0 -124 78 -206 203 -206c70 0 162 34 182 109l22 86c0 4 1 7 1 11s-1 11 -6 12c-25 7 -72 7 -100 7c-7 0 -10 7 -10 13c3 12 4 22 17 22c53 0 105 -3 157 -3c34 0 68 3 101 3c7 0 10 -8 10 -13c-2 -6 -3 -22 -13 -22c-36 0 -61 0 -70 -34l-22 -86l-28 -111
c-1 -5 -5 -7 -9 -7c-14 0 -41 48 -46 60c-50 -59 -137 -82 -212 -82c-160 0 -272 115 -272 274c0 229 219 453 449 453c66 0 128 -31 163 -88l79 86c0 1 3 2 5 2h6c5 0 9 -6 9 -10l-68 -270c0 -4 -4 -7 -8 -7h-18c-5 0 -8 6 -8 11c3 17 4 35 4 52c0 96 -47 189 -154 189
c-226 0 -364 -249 -364 -451z" />
    <glyph glyph-name="H" unicode="H" horiz-adv-x="831" 
d="M47 0c-7 0 -10 7 -10 13c2 6 3 22 13 22c26 0 61 0 85 7c11 4 16 16 19 27l137 549c1 5 2 9 2 14c0 9 -4 11 -12 12c-19 4 -49 4 -72 4c-7 0 -10 7 -10 13c3 12 4 22 17 22c45 0 90 -3 135 -3c44 0 89 3 134 3c7 0 10 -7 10 -13c-2 -6 -3 -22 -14 -22c-26 0 -60 0 -84 -7
c-11 -4 -16 -16 -19 -27l-60 -241h300l61 245c1 5 2 9 2 14c0 9 -4 11 -12 12c-19 4 -49 4 -72 4c-7 0 -10 7 -10 13c3 12 4 22 17 22c45 0 90 -3 135 -3c44 0 89 3 134 3c7 0 10 -7 10 -13c-2 -6 -3 -22 -14 -22c-26 0 -60 0 -84 -7c-11 -4 -16 -16 -19 -27l-137 -549
c-1 -5 -2 -9 -2 -14c0 -9 4 -11 12 -12c19 -4 49 -4 72 -4c7 0 10 -7 10 -13c-3 -12 -4 -22 -17 -22c-45 0 -90 3 -135 3s-89 -3 -134 -3c-7 0 -10 7 -10 13c2 6 3 22 13 22c26 0 61 0 85 7c11 4 16 16 19 27l67 269h-300l-68 -273c-1 -5 -2 -9 -2 -14c0 -9 4 -11 12 -12
c19 -4 49 -4 72 -4c7 0 10 -7 10 -13c-3 -12 -4 -22 -17 -22c-45 0 -90 3 -135 3s-89 -3 -134 -3z" />
    <glyph glyph-name="H" unicode="&#xf048;" horiz-adv-x="831" 
d="M47 0c-7 0 -10 7 -10 13c2 6 3 22 13 22c26 0 61 0 85 7c11 4 16 16 19 27l137 549c1 5 2 9 2 14c0 9 -4 11 -12 12c-19 4 -49 4 -72 4c-7 0 -10 7 -10 13c3 12 4 22 17 22c45 0 90 -3 135 -3c44 0 89 3 134 3c7 0 10 -7 10 -13c-2 -6 -3 -22 -14 -22c-26 0 -60 0 -84 -7
c-11 -4 -16 -16 -19 -27l-60 -241h300l61 245c1 5 2 9 2 14c0 9 -4 11 -12 12c-19 4 -49 4 -72 4c-7 0 -10 7 -10 13c3 12 4 22 17 22c45 0 90 -3 135 -3c44 0 89 3 134 3c7 0 10 -7 10 -13c-2 -6 -3 -22 -14 -22c-26 0 -60 0 -84 -7c-11 -4 -16 -16 -19 -27l-137 -549
c-1 -5 -2 -9 -2 -14c0 -9 4 -11 12 -12c19 -4 49 -4 72 -4c7 0 10 -7 10 -13c-3 -12 -4 -22 -17 -22c-45 0 -90 3 -135 3s-89 -3 -134 -3c-7 0 -10 7 -10 13c2 6 3 22 13 22c26 0 61 0 85 7c11 4 16 16 19 27l67 269h-300l-68 -273c-1 -5 -2 -9 -2 -14c0 -9 4 -11 12 -12
c19 -4 49 -4 72 -4c7 0 10 -7 10 -13c-3 -12 -4 -22 -17 -22c-45 0 -90 3 -135 3s-89 -3 -134 -3z" />
    <glyph glyph-name="I" unicode="I" horiz-adv-x="439" 
d="M42 0c-7 0 -10 7 -10 13c2 6 3 22 14 22c25 0 58 0 79 4c16 4 25 14 29 30l137 549c1 5 2 9 2 13c0 9 -5 11 -13 13c-20 4 -51 4 -76 4c-7 0 -10 7 -10 13c3 12 4 22 17 22c47 0 93 -3 140 -3c46 0 92 3 139 3c7 0 9 -7 9 -13c-1 -6 -2 -22 -13 -22c-25 0 -58 0 -80 -4
c-16 -4 -24 -14 -28 -30l-137 -549c-1 -5 -2 -9 -2 -13c0 -9 4 -11 13 -13c19 -4 51 -4 75 -4c8 0 10 -7 10 -13c-2 -12 -3 -22 -17 -22c-46 0 -92 3 -139 3c-46 0 -93 -3 -139 -3z" />
    <glyph glyph-name="I" unicode="&#xf049;" horiz-adv-x="439" 
d="M42 0c-7 0 -10 7 -10 13c2 6 3 22 14 22c25 0 58 0 79 4c16 4 25 14 29 30l137 549c1 5 2 9 2 13c0 9 -5 11 -13 13c-20 4 -51 4 -76 4c-7 0 -10 7 -10 13c3 12 4 22 17 22c47 0 93 -3 140 -3c46 0 92 3 139 3c7 0 9 -7 9 -13c-1 -6 -2 -22 -13 -22c-25 0 -58 0 -80 -4
c-16 -4 -24 -14 -28 -30l-137 -549c-1 -5 -2 -9 -2 -13c0 -9 4 -11 13 -13c19 -4 51 -4 75 -4c8 0 10 -7 10 -13c-2 -12 -3 -22 -17 -22c-46 0 -92 3 -139 3c-46 0 -93 -3 -139 -3z" />
    <glyph glyph-name="J" unicode="J" horiz-adv-x="554" 
d="M108 60c13 -39 55 -56 93 -56c70 0 124 81 139 141l118 473c1 4 1 7 2 10c0 5 -2 11 -8 13c-26 7 -78 7 -107 7c-7 0 -10 7 -10 13c3 12 4 22 17 22c55 0 110 -3 164 -3c36 0 72 3 107 3c7 0 10 -8 10 -13c-2 -6 -3 -22 -13 -22c-36 0 -68 0 -78 -34l-118 -473
c-24 -96 -127 -163 -223 -163c-65 0 -133 37 -133 109c0 41 23 81 69 81c24 0 45 -16 45 -42c0 -36 -31 -67 -67 -67c-2 0 -5 0 -7 1z" />
    <glyph glyph-name="J" unicode="&#xf04a;" horiz-adv-x="554" 
d="M108 60c13 -39 55 -56 93 -56c70 0 124 81 139 141l118 473c1 4 1 7 2 10c0 5 -2 11 -8 13c-26 7 -78 7 -107 7c-7 0 -10 7 -10 13c3 12 4 22 17 22c55 0 110 -3 164 -3c36 0 72 3 107 3c7 0 10 -8 10 -13c-2 -6 -3 -22 -13 -22c-36 0 -68 0 -78 -34l-118 -473
c-24 -96 -127 -163 -223 -163c-65 0 -133 37 -133 109c0 41 23 81 69 81c24 0 45 -16 45 -42c0 -36 -31 -67 -67 -67c-2 0 -5 0 -7 1z" />
    <glyph glyph-name="K" unicode="K" horiz-adv-x="849" 
d="M47 0c-7 0 -10 8 -10 13c2 6 3 22 13 22c26 0 61 0 85 7c11 4 16 16 19 27l137 549c1 5 2 9 2 14c0 9 -4 11 -12 12c-19 4 -49 4 -72 4c-7 0 -10 7 -10 13c3 12 3 22 17 22c45 0 90 -3 135 -3c44 0 89 3 134 3c7 0 10 -8 10 -13c-2 -6 -3 -22 -14 -22c-26 0 -60 0 -84 -7
c-11 -4 -16 -16 -19 -27l-81 -324l392 303c6 11 24 17 24 36c0 16 -21 19 -34 19c-7 0 -10 7 -10 13c3 12 4 22 17 22c43 0 85 -3 128 -3c22 0 44 3 66 3c7 0 10 -8 10 -13c-2 -6 -3 -22 -14 -22c-59 0 -114 -33 -160 -68c-1 -1 -4 -1 -5 -2l-206 -160l150 -351
c19 -32 42 -32 77 -32c7 0 10 -7 10 -13c-3 -12 -4 -22 -17 -22c-32 0 -64 3 -96 3c-45 0 -90 -3 -136 -3c-7 0 -9 8 -9 13c1 6 3 22 13 22c20 0 61 0 61 29c0 4 0 7 -1 10l-124 289l-146 -113l-46 -185c-1 -5 -2 -9 -2 -14c0 -9 4 -11 12 -12c19 -4 49 -4 72 -4
c7 0 10 -7 10 -13c-3 -12 -4 -22 -17 -22c-45 0 -90 3 -135 3s-89 -3 -134 -3z" />
    <glyph glyph-name="K" unicode="&#xf04b;" horiz-adv-x="849" 
d="M47 0c-7 0 -10 8 -10 13c2 6 3 22 13 22c26 0 61 0 85 7c11 4 16 16 19 27l137 549c1 5 2 9 2 14c0 9 -4 11 -12 12c-19 4 -49 4 -72 4c-7 0 -10 7 -10 13c3 12 3 22 17 22c45 0 90 -3 135 -3c44 0 89 3 134 3c7 0 10 -8 10 -13c-2 -6 -3 -22 -14 -22c-26 0 -60 0 -84 -7
c-11 -4 -16 -16 -19 -27l-81 -324l392 303c6 11 24 17 24 36c0 16 -21 19 -34 19c-7 0 -10 7 -10 13c3 12 4 22 17 22c43 0 85 -3 128 -3c22 0 44 3 66 3c7 0 10 -8 10 -13c-2 -6 -3 -22 -14 -22c-59 0 -114 -33 -160 -68c-1 -1 -4 -1 -5 -2l-206 -160l150 -351
c19 -32 42 -32 77 -32c7 0 10 -7 10 -13c-3 -12 -4 -22 -17 -22c-32 0 -64 3 -96 3c-45 0 -90 -3 -136 -3c-7 0 -9 8 -9 13c1 6 3 22 13 22c20 0 61 0 61 29c0 4 0 7 -1 10l-124 289l-146 -113l-46 -185c-1 -5 -2 -9 -2 -14c0 -9 4 -11 12 -12c19 -4 49 -4 72 -4
c7 0 10 -7 10 -13c-3 -12 -4 -22 -17 -22c-45 0 -90 3 -135 3s-89 -3 -134 -3z" />
    <glyph glyph-name="L" unicode="L" horiz-adv-x="680" 
d="M47 0c-7 0 -10 7 -10 13c2 6 3 22 13 22c26 0 61 0 85 7c11 4 16 16 19 27l137 549c1 5 2 9 2 14c0 9 -4 11 -12 12c-19 4 -49 4 -72 4c-7 0 -10 7 -10 13c3 12 4 22 17 22c45 0 90 -3 135 -3c53 0 106 3 160 3c6 0 9 -7 9 -13c-1 -6 -3 -22 -13 -22c-32 0 -74 0 -99 -5
c-16 -3 -26 -13 -30 -29l-137 -549c-2 -7 -4 -15 -4 -22c0 -8 26 -8 34 -8h93c228 0 232 221 262 227h9c7 0 10 -7 10 -13l-89 -242c-1 -4 -6 -7 -9 -7h-500z" />
    <glyph glyph-name="L" unicode="&#xf04c;" horiz-adv-x="680" 
d="M47 0c-7 0 -10 7 -10 13c2 6 3 22 13 22c26 0 61 0 85 7c11 4 16 16 19 27l137 549c1 5 2 9 2 14c0 9 -4 11 -12 12c-19 4 -49 4 -72 4c-7 0 -10 7 -10 13c3 12 4 22 17 22c45 0 90 -3 135 -3c53 0 106 3 160 3c6 0 9 -7 9 -13c-1 -6 -3 -22 -13 -22c-32 0 -74 0 -99 -5
c-16 -3 -26 -13 -30 -29l-137 -549c-2 -7 -4 -15 -4 -22c0 -8 26 -8 34 -8h93c228 0 232 221 262 227h9c7 0 10 -7 10 -13l-89 -242c-1 -4 -6 -7 -9 -7h-500z" />
    <glyph glyph-name="M" unicode="M" horiz-adv-x="970" 
d="M51 0c-7 0 -10 8 -10 13c2 6 3 22 13 22c46 0 98 10 111 61l130 522c1 5 2 9 2 14c0 9 -4 11 -12 12c-19 4 -49 4 -72 4c-7 0 -10 7 -10 13c2 6 3 22 13 22h176c7 0 12 -4 13 -11l78 -573l364 573c4 6 11 11 19 11h170c7 0 10 -7 10 -13c-2 -6 -3 -22 -14 -22
c-26 0 -60 0 -84 -7c-11 -4 -16 -16 -19 -27l-137 -549c-1 -5 -2 -9 -2 -14c0 -9 4 -11 12 -12c19 -4 49 -4 72 -4c7 0 10 -7 10 -13c-3 -12 -4 -22 -17 -22c-44 0 -87 3 -131 3c-43 0 -87 -3 -130 -3c-7 0 -10 8 -10 13c2 6 3 22 13 22c26 0 61 0 85 7c11 4 16 16 19 27
l144 579l-404 -637c-4 -7 -12 -11 -20 -11c-7 0 -13 3 -14 11l-85 629l-137 -548c-2 -5 -2 -10 -3 -15c0 -40 48 -42 78 -42c7 0 10 -7 10 -13c-3 -12 -4 -22 -17 -22c-36 0 -72 3 -107 3c-36 0 -72 -3 -107 -3z" />
    <glyph glyph-name="M" unicode="&#xf04d;" horiz-adv-x="970" 
d="M51 0c-7 0 -10 8 -10 13c2 6 3 22 13 22c46 0 98 10 111 61l130 522c1 5 2 9 2 14c0 9 -4 11 -12 12c-19 4 -49 4 -72 4c-7 0 -10 7 -10 13c2 6 3 22 13 22h176c7 0 12 -4 13 -11l78 -573l364 573c4 6 11 11 19 11h170c7 0 10 -7 10 -13c-2 -6 -3 -22 -14 -22
c-26 0 -60 0 -84 -7c-11 -4 -16 -16 -19 -27l-137 -549c-1 -5 -2 -9 -2 -14c0 -9 4 -11 12 -12c19 -4 49 -4 72 -4c7 0 10 -7 10 -13c-3 -12 -4 -22 -17 -22c-44 0 -87 3 -131 3c-43 0 -87 -3 -130 -3c-7 0 -10 8 -10 13c2 6 3 22 13 22c26 0 61 0 85 7c11 4 16 16 19 27
l144 579l-404 -637c-4 -7 -12 -11 -20 -11c-7 0 -13 3 -14 11l-85 629l-137 -548c-2 -5 -2 -10 -3 -15c0 -40 48 -42 78 -42c7 0 10 -7 10 -13c-3 -12 -4 -22 -17 -22c-36 0 -72 3 -107 3c-36 0 -72 -3 -107 -3z" />
    <glyph glyph-name="N" unicode="N" horiz-adv-x="803" 
d="M47 0c-7 0 -10 8 -10 13c2 6 3 22 13 22c46 0 98 10 111 61l136 547c-28 5 -59 5 -88 5c-7 0 -10 7 -10 13c2 6 3 22 13 22h173c4 0 8 -3 9 -6l222 -529l111 443c1 5 2 10 2 15c0 40 -48 42 -77 42c-7 0 -10 7 -10 13c3 12 4 22 17 22c36 0 71 -3 107 -3s71 3 107 3
c7 0 10 -8 10 -13c-2 -6 -3 -22 -14 -22c-45 0 -97 -10 -110 -61l-144 -578c-1 -4 -5 -9 -10 -9h-12c-4 0 -8 3 -9 7l-255 605l-2 6c-1 1 -2 2 -2 3l-132 -529c-2 -5 -2 -10 -3 -15c0 -40 48 -42 78 -42c7 0 10 -7 10 -13c-3 -12 -4 -22 -17 -22c-36 0 -72 3 -107 3
c-36 0 -72 -3 -107 -3z" />
    <glyph glyph-name="N" unicode="&#xf04e;" horiz-adv-x="803" 
d="M47 0c-7 0 -10 8 -10 13c2 6 3 22 13 22c46 0 98 10 111 61l136 547c-28 5 -59 5 -88 5c-7 0 -10 7 -10 13c2 6 3 22 13 22h173c4 0 8 -3 9 -6l222 -529l111 443c1 5 2 10 2 15c0 40 -48 42 -77 42c-7 0 -10 7 -10 13c3 12 4 22 17 22c36 0 71 -3 107 -3s71 3 107 3
c7 0 10 -8 10 -13c-2 -6 -3 -22 -14 -22c-45 0 -97 -10 -110 -61l-144 -578c-1 -4 -5 -9 -10 -9h-12c-4 0 -8 3 -9 7l-255 605l-2 6c-1 1 -2 2 -2 3l-132 -529c-2 -5 -2 -10 -3 -15c0 -40 48 -42 78 -42c7 0 10 -7 10 -13c-3 -12 -4 -22 -17 -22c-36 0 -72 3 -107 3
c-36 0 -72 -3 -107 -3z" />
    <glyph glyph-name="O" unicode="O" horiz-adv-x="762" 
d="M304 -22c-155 0 -255 115 -255 266c0 222 209 461 437 461c155 0 254 -118 254 -269c0 -223 -207 -458 -436 -458zM312 7c206 0 335 292 335 469c0 104 -54 200 -168 200c-75 0 -143 -41 -194 -93c-88 -90 -139 -242 -139 -367c0 -102 49 -209 166 -209z" />
    <glyph glyph-name="O" unicode="&#xf04f;" horiz-adv-x="762" 
d="M304 -22c-155 0 -255 115 -255 266c0 222 209 461 437 461c155 0 254 -118 254 -269c0 -223 -207 -458 -436 -458zM312 7c206 0 335 292 335 469c0 104 -54 200 -168 200c-75 0 -143 -41 -194 -93c-88 -90 -139 -242 -139 -367c0 -102 49 -209 166 -209z" />
    <glyph glyph-name="P" unicode="P" horiz-adv-x="642" 
d="M48 0c-7 0 -10 8 -10 13c2 6 3 22 13 22c26 0 61 0 85 7c11 4 16 16 19 27l137 549c1 5 2 9 2 14c0 9 -4 11 -12 12c-19 4 -49 4 -72 4c-7 0 -10 7 -10 13c2 6 3 22 13 22h346c91 0 193 -48 193 -152c0 -135 -166 -219 -285 -219h-164l-61 -247c-1 -5 -2 -9 -2 -14
c0 -9 4 -11 12 -12c19 -4 49 -4 72 -4c7 0 10 -7 10 -13c-3 -12 -4 -22 -17 -22c-45 0 -90 3 -135 3s-89 -3 -134 -3zM308 341h141c53 0 111 14 149 53c37 36 59 112 59 163c0 73 -71 91 -132 91h-97c-33 0 -43 0 -52 -34z" />
    <glyph glyph-name="P" unicode="&#xf050;" horiz-adv-x="642" 
d="M48 0c-7 0 -10 8 -10 13c2 6 3 22 13 22c26 0 61 0 85 7c11 4 16 16 19 27l137 549c1 5 2 9 2 14c0 9 -4 11 -12 12c-19 4 -49 4 -72 4c-7 0 -10 7 -10 13c2 6 3 22 13 22h346c91 0 193 -48 193 -152c0 -135 -166 -219 -285 -219h-164l-61 -247c-1 -5 -2 -9 -2 -14
c0 -9 4 -11 12 -12c19 -4 49 -4 72 -4c7 0 10 -7 10 -13c-3 -12 -4 -22 -17 -22c-45 0 -90 3 -135 3s-89 -3 -134 -3zM308 341h141c53 0 111 14 149 53c37 36 59 112 59 163c0 73 -71 91 -132 91h-97c-33 0 -43 0 -52 -34z" />
    <glyph glyph-name="Q" unicode="Q" horiz-adv-x="790" 
d="M304 -22c-155 0 -255 115 -255 266c0 222 209 461 437 461c155 0 254 -118 254 -269c0 -184 -132 -361 -300 -430c6 -44 13 -99 69 -99c54 0 105 44 118 95c1 5 6 9 11 9c8 0 11 -6 11 -13c-19 -78 -72 -192 -166 -192c-67 0 -84 51 -84 108c0 27 4 53 4 79
c-33 -10 -66 -15 -99 -15zM269 47c0 -30 15 -40 42 -40c32 0 64 8 94 22v9c0 44 -7 86 -62 86c-39 0 -74 -38 -74 -77zM240 45c0 54 51 105 104 105c64 0 82 -53 90 -106c136 80 214 272 214 425c0 104 -52 207 -169 207c-77 0 -146 -44 -197 -97
c-85 -90 -141 -243 -141 -367c0 -77 29 -159 105 -192c-4 8 -6 16 -6 25z" />
    <glyph glyph-name="Q" unicode="&#xf051;" horiz-adv-x="790" 
d="M304 -22c-155 0 -255 115 -255 266c0 222 209 461 437 461c155 0 254 -118 254 -269c0 -184 -132 -361 -300 -430c6 -44 13 -99 69 -99c54 0 105 44 118 95c1 5 6 9 11 9c8 0 11 -6 11 -13c-19 -78 -72 -192 -166 -192c-67 0 -84 51 -84 108c0 27 4 53 4 79
c-33 -10 -66 -15 -99 -15zM269 47c0 -30 15 -40 42 -40c32 0 64 8 94 22v9c0 44 -7 86 -62 86c-39 0 -74 -38 -74 -77zM240 45c0 54 51 105 104 105c64 0 82 -53 90 -106c136 80 214 272 214 425c0 104 -52 207 -169 207c-77 0 -146 -44 -197 -97
c-85 -90 -141 -243 -141 -367c0 -77 29 -159 105 -192c-4 8 -6 16 -6 25z" />
    <glyph glyph-name="R" unicode="R" horiz-adv-x="759" 
d="M48 0c-7 0 -10 8 -10 13c2 6 3 22 13 22c26 0 61 0 85 7c11 4 16 16 19 27l137 549c1 5 2 9 2 14c0 9 -4 11 -12 12c-19 4 -49 4 -72 4c-7 0 -10 7 -10 13c2 6 3 22 13 22h305c90 0 221 -40 221 -151c0 -106 -126 -172 -216 -193c51 -19 90 -61 90 -117
c0 -5 -2 -10 -2 -14l-8 -89c-1 -19 -4 -38 -4 -55c0 -29 5 -60 41 -60c46 0 77 52 86 92c2 4 6 9 10 9h9c7 0 10 -8 10 -13c-13 -53 -56 -114 -116 -114c-69 0 -141 27 -141 108c0 12 1 25 4 37l22 89c3 9 4 19 4 28c0 56 -44 89 -99 89h-124l-66 -264c-1 -5 -2 -9 -2 -14
c0 -9 4 -11 12 -12c19 -4 49 -4 72 -4c7 0 10 -7 10 -13c-3 -12 -4 -22 -17 -22c-45 0 -89 3 -133 3c-45 0 -89 -3 -133 -3zM311 355h112c57 0 122 13 164 55c35 35 55 94 55 143c0 80 -82 95 -146 95h-68c-33 0 -43 0 -52 -34z" />
    <glyph glyph-name="R" unicode="&#xf052;" horiz-adv-x="759" 
d="M48 0c-7 0 -10 8 -10 13c2 6 3 22 13 22c26 0 61 0 85 7c11 4 16 16 19 27l137 549c1 5 2 9 2 14c0 9 -4 11 -12 12c-19 4 -49 4 -72 4c-7 0 -10 7 -10 13c2 6 3 22 13 22h305c90 0 221 -40 221 -151c0 -106 -126 -172 -216 -193c51 -19 90 -61 90 -117
c0 -5 -2 -10 -2 -14l-8 -89c-1 -19 -4 -38 -4 -55c0 -29 5 -60 41 -60c46 0 77 52 86 92c2 4 6 9 10 9h9c7 0 10 -8 10 -13c-13 -53 -56 -114 -116 -114c-69 0 -141 27 -141 108c0 12 1 25 4 37l22 89c3 9 4 19 4 28c0 56 -44 89 -99 89h-124l-66 -264c-1 -5 -2 -9 -2 -14
c0 -9 4 -11 12 -12c19 -4 49 -4 72 -4c7 0 10 -7 10 -13c-3 -12 -4 -22 -17 -22c-45 0 -89 3 -133 3c-45 0 -89 -3 -133 -3zM311 355h112c57 0 122 13 164 55c35 35 55 94 55 143c0 80 -82 95 -146 95h-68c-33 0 -43 0 -52 -34z" />
    <glyph glyph-name="S" unicode="S" horiz-adv-x="613" 
d="M60 -22c-4 0 -8 6 -8 10l58 233c1 3 4 6 8 6h12c5 0 8 -6 8 -10c-5 -22 -8 -42 -8 -61c0 -104 84 -143 176 -143c90 0 173 93 173 181c0 45 -25 86 -71 98l-122 32c-66 18 -109 76 -109 144c0 124 124 237 247 237c56 0 113 -19 143 -70l57 67c2 1 4 3 7 3h6
c5 0 9 -6 9 -10l-58 -232c-1 -4 -5 -7 -8 -7h-12c-5 0 -9 6 -9 11c3 19 5 37 5 55c0 93 -47 151 -143 151c-84 0 -170 -77 -170 -162c0 -44 28 -81 71 -92l122 -32c70 -19 109 -81 109 -151c0 -128 -120 -258 -251 -258c-63 0 -133 17 -171 70l-57 -67c-2 -1 -4 -3 -7 -3h-7
z" />
    <glyph glyph-name="S" unicode="&#xf053;" horiz-adv-x="613" 
d="M60 -22c-4 0 -8 6 -8 10l58 233c1 3 4 6 8 6h12c5 0 8 -6 8 -10c-5 -22 -8 -42 -8 -61c0 -104 84 -143 176 -143c90 0 173 93 173 181c0 45 -25 86 -71 98l-122 32c-66 18 -109 76 -109 144c0 124 124 237 247 237c56 0 113 -19 143 -70l57 67c2 1 4 3 7 3h6
c5 0 9 -6 9 -10l-58 -232c-1 -4 -5 -7 -8 -7h-12c-5 0 -9 6 -9 11c3 19 5 37 5 55c0 93 -47 151 -143 151c-84 0 -170 -77 -170 -162c0 -44 28 -81 71 -92l122 -32c70 -19 109 -81 109 -151c0 -128 -120 -258 -251 -258c-63 0 -133 17 -171 70l-57 -67c-2 -1 -4 -3 -7 -3h-7
z" />
    <glyph glyph-name="T" unicode="T" horiz-adv-x="584" 
d="M47 13c1 6 3 22 13 22c37 0 86 0 114 5c15 4 28 13 32 29l137 549c2 7 4 15 4 22c0 8 -26 8 -35 8h-58c-141 0 -160 -67 -201 -185c-1 -4 -5 -9 -10 -9h-9c-7 0 -10 7 -10 13l71 207c1 4 5 9 10 9h591c7 0 10 -7 10 -13l-33 -207c0 -4 -5 -9 -10 -9h-9c-7 0 -10 7 -10 13
c5 32 11 69 11 100c0 76 -52 81 -114 81h-59c-33 0 -43 0 -52 -34l-137 -549c-1 -3 -1 -6 -2 -9c0 -10 6 -14 15 -16c26 -5 75 -5 111 -5c7 0 10 -7 10 -13c-3 -12 -3 -22 -17 -22c-59 0 -118 3 -177 3s-118 -3 -177 -3c-7 0 -9 7 -9 13z" />
    <glyph glyph-name="T" unicode="&#xf054;" horiz-adv-x="584" 
d="M47 13c1 6 3 22 13 22c37 0 86 0 114 5c15 4 28 13 32 29l137 549c2 7 4 15 4 22c0 8 -26 8 -35 8h-58c-141 0 -160 -67 -201 -185c-1 -4 -5 -9 -10 -9h-9c-7 0 -10 7 -10 13l71 207c1 4 5 9 10 9h591c7 0 10 -7 10 -13l-33 -207c0 -4 -5 -9 -10 -9h-9c-7 0 -10 7 -10 13
c5 32 11 69 11 100c0 76 -52 81 -114 81h-59c-33 0 -43 0 -52 -34l-137 -549c-1 -3 -1 -6 -2 -9c0 -10 6 -14 15 -16c26 -5 75 -5 111 -5c7 0 10 -7 10 -13c-3 -12 -3 -22 -17 -22c-59 0 -118 3 -177 3s-118 -3 -177 -3c-7 0 -9 7 -9 13z" />
    <glyph glyph-name="U" unicode="U" horiz-adv-x="682" 
d="M147 139c0 -73 44 -126 120 -126c121 0 218 106 246 217l90 361c1 5 2 10 2 15c0 40 -48 42 -77 42c-7 0 -10 7 -10 13c3 12 3 22 17 22c36 0 72 -3 109 -3c36 0 72 3 108 3c7 0 10 -8 10 -13c-2 -6 -3 -22 -14 -22c-45 0 -97 -10 -110 -61l-90 -361
c-31 -125 -149 -248 -284 -248c-112 0 -198 78 -198 192c0 20 2 40 7 60l97 388c1 5 2 9 2 14c0 9 -4 11 -12 12c-19 4 -49 4 -72 4c-7 0 -10 7 -10 13c3 12 3 22 17 22c45 0 90 -3 135 -3c44 0 89 3 134 3c7 0 10 -8 10 -13c-2 -6 -3 -22 -14 -22c-26 0 -60 0 -84 -7
c-11 -4 -16 -16 -19 -27l-97 -388c-7 -29 -13 -59 -13 -87z" />
    <glyph glyph-name="U" unicode="&#xf055;" horiz-adv-x="682" 
d="M147 139c0 -73 44 -126 120 -126c121 0 218 106 246 217l90 361c1 5 2 10 2 15c0 40 -48 42 -77 42c-7 0 -10 7 -10 13c3 12 3 22 17 22c36 0 72 -3 109 -3c36 0 72 3 108 3c7 0 10 -8 10 -13c-2 -6 -3 -22 -14 -22c-45 0 -97 -10 -110 -61l-90 -361
c-31 -125 -149 -248 -284 -248c-112 0 -198 78 -198 192c0 20 2 40 7 60l97 388c1 5 2 9 2 14c0 9 -4 11 -12 12c-19 4 -49 4 -72 4c-7 0 -10 7 -10 13c3 12 3 22 17 22c45 0 90 -3 135 -3c44 0 89 3 134 3c7 0 10 -8 10 -13c-2 -6 -3 -22 -14 -22c-26 0 -60 0 -84 -7
c-11 -4 -16 -16 -19 -27l-97 -388c-7 -29 -13 -59 -13 -87z" />
    <glyph glyph-name="V" unicode="V" horiz-adv-x="583" 
d="M220 -11l-80 637c-7 22 -52 22 -75 22c-8 0 -10 7 -10 13c2 12 3 22 17 22c36 0 72 -3 109 -3c45 0 90 3 135 3c7 0 10 -8 10 -13c-2 -6 -3 -22 -13 -22c-22 0 -78 0 -83 -27l66 -523l308 492c5 7 9 17 9 26c0 26 -32 32 -52 32c-7 0 -10 7 -10 13c3 12 3 22 17 22
c36 0 72 -3 108 -3c28 0 56 3 84 3c6 0 9 -8 9 -13c-1 -6 -3 -22 -13 -22c-52 0 -90 -23 -118 -66c-1 -1 -2 -2 -3 -2l-369 -591c-4 -6 -12 -11 -19 -11h-14c-7 0 -12 4 -13 11z" />
    <glyph glyph-name="V" unicode="&#xf056;" horiz-adv-x="583" 
d="M220 -11l-80 637c-7 22 -52 22 -75 22c-8 0 -10 7 -10 13c2 12 3 22 17 22c36 0 72 -3 109 -3c45 0 90 3 135 3c7 0 10 -8 10 -13c-2 -6 -3 -22 -13 -22c-22 0 -78 0 -83 -27l66 -523l308 492c5 7 9 17 9 26c0 26 -32 32 -52 32c-7 0 -10 7 -10 13c3 12 3 22 17 22
c36 0 72 -3 108 -3c28 0 56 3 84 3c6 0 9 -8 9 -13c-1 -6 -3 -22 -13 -22c-52 0 -90 -23 -118 -66c-1 -1 -2 -2 -3 -2l-369 -591c-4 -6 -12 -11 -19 -11h-14c-7 0 -12 4 -13 11z" />
    <glyph glyph-name="W" unicode="W" horiz-adv-x="944" 
d="M178 -11l-46 637c-5 22 -45 22 -68 22c-7 0 -10 7 -10 13c3 12 3 22 17 22c34 0 69 -3 104 -3c44 0 89 3 134 3c7 0 10 -7 10 -13c-2 -6 -3 -22 -13 -22c-22 0 -80 0 -85 -28l36 -505l250 436l-5 75c-5 22 -45 22 -68 22c-7 0 -10 7 -10 13c3 12 3 22 17 22
c34 0 69 -3 104 -3c45 0 89 3 134 3c7 0 10 -7 10 -13c-2 -6 -3 -22 -13 -22c-22 0 -81 0 -85 -28v-7l36 -498l272 475c3 5 6 14 6 21c0 31 -41 37 -64 37c-7 0 -10 7 -10 13c3 12 3 22 17 22c38 0 77 -3 116 -3c25 0 49 3 74 3c7 0 10 -8 10 -13c-2 -6 -3 -22 -13 -22
c-47 0 -85 -25 -108 -65l-3 -3l-338 -591c-4 -6 -11 -11 -18 -11h-8c-6 0 -12 4 -12 11l-37 515l-295 -515c-4 -6 -11 -11 -18 -11h-8c-6 0 -12 4 -12 11z" />
    <glyph glyph-name="W" unicode="&#xf057;" horiz-adv-x="944" 
d="M178 -11l-46 637c-5 22 -45 22 -68 22c-7 0 -10 7 -10 13c3 12 3 22 17 22c34 0 69 -3 104 -3c44 0 89 3 134 3c7 0 10 -7 10 -13c-2 -6 -3 -22 -13 -22c-22 0 -80 0 -85 -28l36 -505l250 436l-5 75c-5 22 -45 22 -68 22c-7 0 -10 7 -10 13c3 12 3 22 17 22
c34 0 69 -3 104 -3c45 0 89 3 134 3c7 0 10 -7 10 -13c-2 -6 -3 -22 -13 -22c-22 0 -81 0 -85 -28v-7l36 -498l272 475c3 5 6 14 6 21c0 31 -41 37 -64 37c-7 0 -10 7 -10 13c3 12 3 22 17 22c38 0 77 -3 116 -3c25 0 49 3 74 3c7 0 10 -8 10 -13c-2 -6 -3 -22 -13 -22
c-47 0 -85 -25 -108 -65l-3 -3l-338 -591c-4 -6 -11 -11 -18 -11h-8c-6 0 -12 4 -12 11l-37 515l-295 -515c-4 -6 -11 -11 -18 -11h-8c-6 0 -12 4 -12 11z" />
    <glyph glyph-name="X" unicode="X" horiz-adv-x="828" 
d="M36 0c-7 0 -10 8 -10 13c2 6 3 22 14 22c62 0 113 23 156 68c1 1 2 1 3 2l219 236l-120 287c-14 20 -61 20 -86 20c-7 0 -10 7 -10 13c3 12 3 22 17 22c37 0 75 -3 112 -3c46 0 92 3 138 3c7 0 9 -7 9 -13c-1 -6 -3 -22 -13 -22c-16 0 -62 -8 -66 -26l86 -208l164 177
c4 10 12 16 12 28c0 22 -25 29 -43 29c-7 0 -10 7 -10 13c3 12 4 22 17 22c41 0 81 -3 122 -3c31 0 63 3 95 3c7 0 10 -8 10 -13c-2 -6 -3 -22 -13 -22c-63 0 -113 -23 -157 -68c-1 -1 -2 -1 -3 -2l-181 -195l137 -328c16 -20 61 -20 87 -20c7 0 10 -7 10 -13
c-2 -6 -3 -22 -14 -22c-38 0 -77 3 -115 3c-46 0 -92 -3 -138 -3c-7 0 -10 7 -10 13c2 6 3 22 14 22c15 0 62 8 66 26l-104 249l-202 -218c-4 -10 -12 -16 -12 -28c0 -22 25 -29 43 -29c7 0 10 -7 10 -13c-3 -12 -3 -22 -17 -22c-40 0 -81 3 -121 3c-32 0 -64 -3 -96 -3z
" />
    <glyph glyph-name="X" unicode="&#xf058;" horiz-adv-x="828" 
d="M36 0c-7 0 -10 8 -10 13c2 6 3 22 14 22c62 0 113 23 156 68c1 1 2 1 3 2l219 236l-120 287c-14 20 -61 20 -86 20c-7 0 -10 7 -10 13c3 12 3 22 17 22c37 0 75 -3 112 -3c46 0 92 3 138 3c7 0 9 -7 9 -13c-1 -6 -3 -22 -13 -22c-16 0 -62 -8 -66 -26l86 -208l164 177
c4 10 12 16 12 28c0 22 -25 29 -43 29c-7 0 -10 7 -10 13c3 12 4 22 17 22c41 0 81 -3 122 -3c31 0 63 3 95 3c7 0 10 -8 10 -13c-2 -6 -3 -22 -13 -22c-63 0 -113 -23 -157 -68c-1 -1 -2 -1 -3 -2l-181 -195l137 -328c16 -20 61 -20 87 -20c7 0 10 -7 10 -13
c-2 -6 -3 -22 -14 -22c-38 0 -77 3 -115 3c-46 0 -92 -3 -138 -3c-7 0 -10 7 -10 13c2 6 3 22 14 22c15 0 62 8 66 26l-104 249l-202 -218c-4 -10 -12 -16 -12 -28c0 -22 25 -29 43 -29c7 0 10 -7 10 -13c-3 -12 -3 -22 -17 -22c-40 0 -81 3 -121 3c-32 0 -64 -3 -96 -3z
" />
    <glyph glyph-name="Y" unicode="Y" horiz-adv-x="580" 
d="M89 13c2 6 3 22 13 22c26 0 61 0 85 7c13 5 15 18 20 30l50 201l-129 355c-14 20 -60 20 -85 20c-7 0 -10 7 -10 13c3 12 4 22 17 22c38 0 75 -3 113 -3c46 0 92 3 138 3c7 0 10 -7 10 -13c-1 -6 -3 -22 -13 -22c-16 0 -71 0 -71 -22l113 -308l236 273c5 12 17 20 17 35
c0 20 -26 22 -41 22c-7 0 -10 7 -10 13c3 12 4 22 17 22c37 0 73 -3 110 -3c28 0 56 3 84 3c7 0 10 -8 10 -13c-2 -6 -3 -22 -14 -22c-55 0 -103 -25 -138 -66c-1 -2 -4 -2 -5 -4l-264 -305l-52 -207c0 -5 -2 -10 -2 -15c0 -9 4 -11 12 -12c19 -4 49 -4 72 -4
c7 0 10 -7 10 -13c-3 -12 -4 -22 -17 -22c-44 0 -89 3 -133 3c-45 0 -89 -3 -133 -3c-7 0 -10 7 -10 13z" />
    <glyph glyph-name="Y" unicode="&#xf059;" horiz-adv-x="580" 
d="M89 13c2 6 3 22 13 22c26 0 61 0 85 7c13 5 15 18 20 30l50 201l-129 355c-14 20 -60 20 -85 20c-7 0 -10 7 -10 13c3 12 4 22 17 22c38 0 75 -3 113 -3c46 0 92 3 138 3c7 0 10 -7 10 -13c-1 -6 -3 -22 -13 -22c-16 0 -71 0 -71 -22l113 -308l236 273c5 12 17 20 17 35
c0 20 -26 22 -41 22c-7 0 -10 7 -10 13c3 12 4 22 17 22c37 0 73 -3 110 -3c28 0 56 3 84 3c7 0 10 -8 10 -13c-2 -6 -3 -22 -14 -22c-55 0 -103 -25 -138 -66c-1 -2 -4 -2 -5 -4l-264 -305l-52 -207c0 -5 -2 -10 -2 -15c0 -9 4 -11 12 -12c19 -4 49 -4 72 -4
c7 0 10 -7 10 -13c-3 -12 -4 -22 -17 -22c-44 0 -89 3 -133 3c-45 0 -89 -3 -133 -3c-7 0 -10 7 -10 13z" />
    <glyph glyph-name="Z" unicode="Z" horiz-adv-x="682" 
d="M57 8c0 7 2 17 7 23l551 617h-146c-144 0 -212 -45 -255 -185c-1 -4 -5 -9 -10 -9h-9c-7 0 -10 7 -10 13l63 207c1 4 5 9 10 9h457c5 0 8 -3 8 -8c0 -7 -1 -16 -6 -21l-550 -615h152c180 0 225 61 277 223c1 4 5 9 10 9h9c7 0 10 -7 10 -13l-79 -249
c-2 -4 -5 -10 -10 -10h-470c-5 0 -9 4 -9 9z" />
    <glyph glyph-name="Z" unicode="&#xf05a;" horiz-adv-x="682" 
d="M57 8c0 7 2 17 7 23l551 617h-146c-144 0 -212 -45 -255 -185c-1 -4 -5 -9 -10 -9h-9c-7 0 -10 7 -10 13l63 207c1 4 5 9 10 9h457c5 0 8 -3 8 -8c0 -7 -1 -16 -6 -21l-550 -615h152c180 0 225 61 277 223c1 4 5 9 10 9h9c7 0 10 -7 10 -13l-79 -249
c-2 -4 -5 -10 -10 -10h-470c-5 0 -9 4 -9 9z" />
    <glyph glyph-name="a" unicode="a" horiz-adv-x="528" 
d="M174 -11c-90 0 -136 79 -136 160c0 127 108 293 244 293c41 0 73 -25 90 -60c6 21 19 40 44 40c16 0 30 -11 30 -28c0 -3 -1 -6 -1 -8l-70 -279c-4 -17 -7 -34 -7 -49c0 -19 5 -43 29 -43c48 0 66 96 75 132c1 3 5 6 8 6h12c5 0 9 -6 9 -10c-14 -54 -34 -154 -106 -154
c-44 0 -83 27 -92 72c-33 -37 -78 -72 -129 -72zM175 15c54 0 101 50 128 91c1 1 1 2 1 3l54 217l1 3c-7 41 -31 87 -79 87c-50 0 -91 -53 -112 -93c-25 -50 -56 -163 -56 -218c0 -39 16 -90 63 -90z" />
    <glyph glyph-name="a" unicode="&#xf061;" horiz-adv-x="528" 
d="M174 -11c-90 0 -136 79 -136 160c0 127 108 293 244 293c41 0 73 -25 90 -60c6 21 19 40 44 40c16 0 30 -11 30 -28c0 -3 -1 -6 -1 -8l-70 -279c-4 -17 -7 -34 -7 -49c0 -19 5 -43 29 -43c48 0 66 96 75 132c1 3 5 6 8 6h12c5 0 9 -6 9 -10c-14 -54 -34 -154 -106 -154
c-44 0 -83 27 -92 72c-33 -37 -78 -72 -129 -72zM175 15c54 0 101 50 128 91c1 1 1 2 1 3l54 217l1 3c-7 41 -31 87 -79 87c-50 0 -91 -53 -112 -93c-25 -50 -56 -163 -56 -218c0 -39 16 -90 63 -90z" />
    <glyph glyph-name="b" unicode="b" horiz-adv-x="429" 
d="M173 -11c-87 0 -128 81 -128 158c0 24 9 54 9 70l97 388c2 9 4 18 5 27c0 16 -49 16 -64 16c-7 0 -10 7 -10 13c1 6 3 22 13 22l135 10c8 0 12 -4 12 -12l-74 -295c30 30 70 56 114 56c89 0 134 -79 134 -160c0 -127 -106 -293 -243 -293zM175 15c50 0 91 53 112 93
c25 50 55 163 55 218c0 39 -15 90 -62 90c-53 0 -100 -50 -127 -90l-28 -113c-9 -35 -15 -69 -15 -101c0 -42 14 -97 65 -97z" />
    <glyph glyph-name="b" unicode="&#xf062;" horiz-adv-x="429" 
d="M173 -11c-87 0 -128 81 -128 158c0 24 9 54 9 70l97 388c2 9 4 18 5 27c0 16 -49 16 -64 16c-7 0 -10 7 -10 13c1 6 3 22 13 22l135 10c8 0 12 -4 12 -12l-74 -295c30 30 70 56 114 56c89 0 134 -79 134 -160c0 -127 -106 -293 -243 -293zM175 15c50 0 91 53 112 93
c25 50 55 163 55 218c0 39 -15 90 -62 90c-53 0 -100 -50 -127 -90l-28 -113c-9 -35 -15 -69 -15 -101c0 -42 14 -97 65 -97z" />
    <glyph glyph-name="c" unicode="c" horiz-adv-x="432" 
d="M117 119c0 -53 27 -104 86 -104c79 0 158 38 204 103c2 2 5 3 8 3c7 0 15 -9 15 -16c0 -2 0 -4 -2 -6c-51 -71 -140 -110 -227 -110c-97 0 -161 75 -161 169c0 138 127 284 269 284c52 0 118 -25 118 -86c0 -34 -22 -66 -59 -66c-21 0 -38 14 -38 36c0 31 26 57 57 57h2
c-18 25 -52 33 -81 33c-128 0 -191 -194 -191 -297z" />
    <glyph glyph-name="c" unicode="&#xf063;" horiz-adv-x="432" 
d="M117 119c0 -53 27 -104 86 -104c79 0 158 38 204 103c2 2 5 3 8 3c7 0 15 -9 15 -16c0 -2 0 -4 -2 -6c-51 -71 -140 -110 -227 -110c-97 0 -161 75 -161 169c0 138 127 284 269 284c52 0 118 -25 118 -86c0 -34 -22 -66 -59 -66c-21 0 -38 14 -38 36c0 31 26 57 57 57h2
c-18 25 -52 33 -81 33c-128 0 -191 -194 -191 -297z" />
    <glyph glyph-name="d" unicode="d" horiz-adv-x="520" 
d="M174 -11c-90 0 -136 79 -136 160c0 127 108 293 244 293c40 0 73 -25 90 -60l56 223c2 9 4 18 5 27c0 16 -49 16 -64 16c-8 0 -10 7 -10 13c1 6 2 22 13 22l135 10c8 0 12 -4 12 -12l-144 -575c-6 -14 -7 -33 -7 -48c0 -19 5 -43 29 -43c48 0 66 96 75 132c1 3 5 6 8 6
h12c5 0 9 -6 9 -10c-14 -54 -34 -154 -106 -154c-44 0 -83 27 -92 72c-33 -37 -78 -72 -129 -72zM175 15c54 0 101 50 128 91c1 1 1 3 1 4l55 220c-7 41 -32 86 -79 86c-50 0 -91 -53 -112 -93c-25 -50 -56 -163 -56 -218c0 -39 16 -90 63 -90z" />
    <glyph glyph-name="d" unicode="&#xf064;" horiz-adv-x="520" 
d="M174 -11c-90 0 -136 79 -136 160c0 127 108 293 244 293c40 0 73 -25 90 -60l56 223c2 9 4 18 5 27c0 16 -49 16 -64 16c-8 0 -10 7 -10 13c1 6 2 22 13 22l135 10c8 0 12 -4 12 -12l-144 -575c-6 -14 -7 -33 -7 -48c0 -19 5 -43 29 -43c48 0 66 96 75 132c1 3 5 6 8 6
h12c5 0 9 -6 9 -10c-14 -54 -34 -154 -106 -154c-44 0 -83 27 -92 72c-33 -37 -78 -72 -129 -72zM175 15c54 0 101 50 128 91c1 1 1 3 1 4l55 220c-7 41 -32 86 -79 86c-50 0 -91 -53 -112 -93c-25 -50 -56 -163 -56 -218c0 -39 16 -90 63 -90z" />
    <glyph glyph-name="e" unicode="e" horiz-adv-x="465" 
d="M201 -11c-101 0 -157 87 -157 181c0 145 119 272 265 272c52 0 107 -28 107 -86c0 -127 -188 -127 -277 -127h-3c-9 -34 -15 -69 -15 -102c0 -51 21 -112 82 -112c79 0 158 38 204 103c2 2 5 3 8 3c7 0 15 -9 15 -16c0 -2 0 -4 -2 -6c-51 -71 -140 -110 -227 -110z
M142 255c72 0 237 0 237 100c0 39 -36 61 -71 61c-91 0 -144 -83 -166 -161z" />
    <glyph glyph-name="e" unicode="&#xf065;" horiz-adv-x="465" 
d="M201 -11c-101 0 -157 87 -157 181c0 145 119 272 265 272c52 0 107 -28 107 -86c0 -127 -188 -127 -277 -127h-3c-9 -34 -15 -69 -15 -102c0 -51 21 -112 82 -112c79 0 158 38 204 103c2 2 5 3 8 3c7 0 15 -9 15 -16c0 -2 0 -4 -2 -6c-51 -71 -140 -110 -227 -110z
M142 255c72 0 237 0 237 100c0 39 -36 61 -71 61c-91 0 -144 -83 -166 -161z" />
    <glyph glyph-name="f" unicode="f" horiz-adv-x="489" 
d="M97 -165c13 -10 29 -14 45 -14c34 0 51 53 58 79c14 56 36 173 51 251l46 245h-86c-7 0 -10 7 -10 13c2 6 3 22 13 22h89l12 65c9 46 17 92 38 134c20 39 62 75 109 75c42 0 90 -23 90 -70c0 -33 -24 -63 -58 -63c-21 0 -39 14 -39 36c0 29 23 54 52 57
c-13 10 -30 14 -46 14c-22 0 -41 -25 -46 -44c-8 -31 -20 -97 -28 -138l-12 -66h103c7 0 10 -7 10 -13c-2 -6 -3 -22 -14 -22h-106l-46 -244c-17 -92 -56 -357 -182 -357c-41 0 -87 24 -87 70c0 33 24 62 58 62c21 0 39 -13 39 -35c0 -27 -24 -57 -53 -57z" />
    <glyph glyph-name="f" unicode="&#xf066;" horiz-adv-x="489" 
d="M97 -165c13 -10 29 -14 45 -14c34 0 51 53 58 79c14 56 36 173 51 251l46 245h-86c-7 0 -10 7 -10 13c2 6 3 22 13 22h89l12 65c9 46 17 92 38 134c20 39 62 75 109 75c42 0 90 -23 90 -70c0 -33 -24 -63 -58 -63c-21 0 -39 14 -39 36c0 29 23 54 52 57
c-13 10 -30 14 -46 14c-22 0 -41 -25 -46 -44c-8 -31 -20 -97 -28 -138l-12 -66h103c7 0 10 -7 10 -13c-2 -6 -3 -22 -14 -22h-106l-46 -244c-17 -92 -56 -357 -182 -357c-41 0 -87 24 -87 70c0 33 24 62 58 62c21 0 39 -13 39 -35c0 -27 -24 -57 -53 -57z" />
    <glyph glyph-name="g" unicode="g" horiz-adv-x="477" 
d="M13 -143c0 32 25 61 58 61c21 0 37 -14 37 -36c0 -24 -14 -45 -36 -53c27 -8 57 -8 85 -8c64 0 119 58 134 117l29 117c-30 -30 -70 -55 -113 -55c-88 0 -136 77 -136 158c0 125 108 284 242 284c39 0 72 -24 90 -59c5 22 19 39 43 39c16 0 30 -11 30 -28
c0 -3 -1 -6 -1 -8l-114 -454c-22 -87 -121 -137 -205 -137c-44 0 -143 0 -143 62zM209 26c53 0 98 48 126 88l55 218c-8 41 -33 84 -79 84c-50 0 -91 -51 -112 -92c-24 -48 -54 -157 -54 -210c0 -39 17 -88 64 -88z" />
    <glyph glyph-name="g" unicode="&#xf067;" horiz-adv-x="477" 
d="M13 -143c0 32 25 61 58 61c21 0 37 -14 37 -36c0 -24 -14 -45 -36 -53c27 -8 57 -8 85 -8c64 0 119 58 134 117l29 117c-30 -30 -70 -55 -113 -55c-88 0 -136 77 -136 158c0 125 108 284 242 284c39 0 72 -24 90 -59c5 22 19 39 43 39c16 0 30 -11 30 -28
c0 -3 -1 -6 -1 -8l-114 -454c-22 -87 -121 -137 -205 -137c-44 0 -143 0 -143 62zM209 26c53 0 98 48 126 88l55 218c-8 41 -33 84 -79 84c-50 0 -91 -51 -112 -92c-24 -48 -54 -157 -54 -210c0 -39 17 -88 64 -88z" />
    <glyph glyph-name="h" unicode="h" horiz-adv-x="576" 
d="M53 18c0 3 0 6 1 9l145 578c2 9 4 18 5 27c0 16 -49 16 -64 16c-7 0 -10 7 -10 13c1 6 2 22 13 22l135 10l3 1c0 -3 6 -3 7 -5c2 -5 2 -3 2 -8l-78 -312c37 44 88 73 146 73c68 0 116 -37 116 -108c0 -64 -42 -168 -65 -229c-8 -19 -12 -40 -12 -60c0 -15 3 -30 20 -30
c60 0 92 84 103 132c1 3 5 6 8 6h12c5 0 9 -5 9 -9c0 -2 0 -1 -1 -3c-15 -62 -57 -152 -132 -152c-48 0 -85 35 -85 83c0 13 3 26 8 39c24 64 66 171 66 238c0 32 -11 67 -49 67c-78 0 -128 -56 -163 -120l-68 -273c-5 -20 -22 -34 -41 -34c-17 0 -31 12 -31 29z" />
    <glyph glyph-name="h" unicode="&#xf068;" horiz-adv-x="576" 
d="M53 18c0 3 0 6 1 9l145 578c2 9 4 18 5 27c0 16 -49 16 -64 16c-7 0 -10 7 -10 13c1 6 2 22 13 22l135 10l3 1c0 -3 6 -3 7 -5c2 -5 2 -3 2 -8l-78 -312c37 44 88 73 146 73c68 0 116 -37 116 -108c0 -64 -42 -168 -65 -229c-8 -19 -12 -40 -12 -60c0 -15 3 -30 20 -30
c60 0 92 84 103 132c1 3 5 6 8 6h12c5 0 9 -5 9 -9c0 -2 0 -1 -1 -3c-15 -62 -57 -152 -132 -152c-48 0 -85 35 -85 83c0 13 3 26 8 39c24 64 66 171 66 238c0 32 -11 67 -49 67c-78 0 -128 -56 -163 -120l-68 -273c-5 -20 -22 -34 -41 -34c-17 0 -31 12 -31 29z" />
    <glyph glyph-name="i" unicode="i" horiz-adv-x="344" 
d="M78 72c0 13 3 26 8 39l81 215c7 19 13 40 13 60c0 15 -4 30 -22 30c-59 0 -91 -84 -103 -132c-1 -3 -4 -6 -8 -6h-12c-5 0 -8 5 -8 9v3c16 62 58 152 133 152c47 0 86 -35 86 -83c0 -13 -4 -26 -9 -39l-81 -215c-8 -19 -12 -40 -12 -60c0 -15 3 -30 20 -30
c60 0 92 84 103 132c1 3 5 6 8 6h12c5 0 9 -5 9 -9c0 -2 0 -1 -1 -3c-15 -62 -57 -152 -132 -152c-48 0 -85 35 -85 83zM191 606c0 29 28 55 56 55c22 0 39 -16 39 -37c0 -30 -28 -56 -57 -56c-21 0 -38 16 -38 38z" />
    <glyph glyph-name="i" unicode="&#xf069;" horiz-adv-x="344" 
d="M78 72c0 13 3 26 8 39l81 215c7 19 13 40 13 60c0 15 -4 30 -22 30c-59 0 -91 -84 -103 -132c-1 -3 -4 -6 -8 -6h-12c-5 0 -8 5 -8 9v3c16 62 58 152 133 152c47 0 86 -35 86 -83c0 -13 -4 -26 -9 -39l-81 -215c-8 -19 -12 -40 -12 -60c0 -15 3 -30 20 -30
c60 0 92 84 103 132c1 3 5 6 8 6h12c5 0 9 -5 9 -9c0 -2 0 -1 -1 -3c-15 -62 -57 -152 -132 -152c-48 0 -85 35 -85 83zM191 606c0 29 28 55 56 55c22 0 39 -16 39 -37c0 -30 -28 -56 -57 -56c-21 0 -38 16 -38 38z" />
    <glyph glyph-name="j" unicode="j" horiz-adv-x="411" 
d="M-13 -142c0 32 25 60 58 60c21 0 37 -14 37 -36c0 -25 -17 -48 -41 -55c11 -4 23 -6 35 -6c62 0 104 74 118 127l94 376c4 17 7 34 7 49c0 19 -5 43 -29 43c-65 0 -111 -79 -131 -132c-1 -3 -4 -6 -8 -6h-12c-5 0 -8 5 -8 9v3c25 67 81 152 161 152c53 0 95 -38 95 -92
c0 -9 -2 -19 -4 -28l-95 -380c-21 -83 -105 -147 -190 -147c-38 0 -87 18 -87 63zM303 606c0 29 28 55 57 55c21 0 38 -16 38 -37c0 -30 -27 -56 -56 -56c-22 0 -39 16 -39 38z" />
    <glyph glyph-name="j" unicode="&#xf06a;" horiz-adv-x="411" 
d="M-13 -142c0 32 25 60 58 60c21 0 37 -14 37 -36c0 -25 -17 -48 -41 -55c11 -4 23 -6 35 -6c62 0 104 74 118 127l94 376c4 17 7 34 7 49c0 19 -5 43 -29 43c-65 0 -111 -79 -131 -132c-1 -3 -4 -6 -8 -6h-12c-5 0 -8 5 -8 9v3c25 67 81 152 161 152c53 0 95 -38 95 -92
c0 -9 -2 -19 -4 -28l-95 -380c-21 -83 -105 -147 -190 -147c-38 0 -87 18 -87 63zM303 606c0 29 28 55 57 55c21 0 38 -16 38 -37c0 -30 -27 -56 -56 -56c-22 0 -39 16 -39 38z" />
    <glyph glyph-name="k" unicode="k" horiz-adv-x="520" 
d="M53 18c0 3 0 6 1 9l145 578c2 9 4 18 5 27c0 16 -49 16 -64 16c-7 0 -10 7 -10 13c1 6 3 22 13 22l135 10l3 1c0 -3 6 -3 7 -5c2 -5 2 -3 2 -8l-105 -418c93 39 146 179 255 179c38 0 67 -29 67 -66c0 -34 -23 -66 -59 -66c-21 0 -38 14 -38 36c0 31 26 57 58 57
c-7 9 -18 13 -30 13c-85 0 -154 -122 -224 -165c60 -7 145 -30 145 -105c0 -9 -1 -18 -3 -26c-5 -21 -8 -42 -9 -60c0 -21 6 -45 31 -45c55 0 76 90 86 132c1 3 5 6 8 6h12c5 0 9 -5 9 -9c0 -2 0 -1 -1 -3c-14 -57 -44 -152 -116 -152c-57 0 -95 44 -95 100c0 11 1 22 4 33
c2 8 3 15 3 22c0 57 -66 78 -112 83l-51 -204c-5 -20 -22 -34 -41 -34c-17 0 -31 12 -31 29z" />
    <glyph glyph-name="k" unicode="&#xf06b;" horiz-adv-x="520" 
d="M53 18c0 3 0 6 1 9l145 578c2 9 4 18 5 27c0 16 -49 16 -64 16c-7 0 -10 7 -10 13c1 6 3 22 13 22l135 10l3 1c0 -3 6 -3 7 -5c2 -5 2 -3 2 -8l-105 -418c93 39 146 179 255 179c38 0 67 -29 67 -66c0 -34 -23 -66 -59 -66c-21 0 -38 14 -38 36c0 31 26 57 58 57
c-7 9 -18 13 -30 13c-85 0 -154 -122 -224 -165c60 -7 145 -30 145 -105c0 -9 -1 -18 -3 -26c-5 -21 -8 -42 -9 -60c0 -21 6 -45 31 -45c55 0 76 90 86 132c1 3 5 6 8 6h12c5 0 9 -5 9 -9c0 -2 0 -1 -1 -3c-14 -57 -44 -152 -116 -152c-57 0 -95 44 -95 100c0 11 1 22 4 33
c2 8 3 15 3 22c0 57 -66 78 -112 83l-51 -204c-5 -20 -22 -34 -41 -34c-17 0 -31 12 -31 29z" />
    <glyph glyph-name="l" unicode="l" horiz-adv-x="298" 
d="M43 81c0 10 3 19 3 29l124 495c2 9 4 18 5 27c0 16 -49 16 -64 16c-7 0 -10 7 -10 13c1 6 3 22 13 22l135 10c8 0 12 -4 12 -12l-144 -575c-6 -14 -5 -33 -5 -48c0 -19 3 -43 27 -43c48 0 66 92 75 128c1 5 3 10 8 10h12c5 0 9 -5 9 -9c0 -2 0 -1 -1 -4
c-13 -54 -34 -151 -105 -151c-54 0 -94 38 -94 92z" />
    <glyph glyph-name="l" unicode="&#xf06c;" horiz-adv-x="298" 
d="M43 81c0 10 3 19 3 29l124 495c2 9 4 18 5 27c0 16 -49 16 -64 16c-7 0 -10 7 -10 13c1 6 3 22 13 22l135 10c8 0 12 -4 12 -12l-144 -575c-6 -14 -5 -33 -5 -48c0 -19 3 -43 27 -43c48 0 66 92 75 128c1 5 3 10 8 10h12c5 0 9 -5 9 -9c0 -2 0 -1 -1 -4
c-13 -54 -34 -151 -105 -151c-54 0 -94 38 -94 92z" />
    <glyph glyph-name="m" unicode="m" horiz-adv-x="878" 
d="M77 17c0 3 0 6 1 9l75 298c4 17 7 34 7 49c0 19 -5 43 -29 43c-49 0 -67 -96 -76 -132c0 -3 -4 -6 -8 -6h-12c-4 0 -8 6 -8 10c13 54 34 154 105 154c48 0 97 -34 97 -84c36 49 90 84 153 84c57 0 117 -30 117 -93c37 54 93 93 161 93s116 -37 116 -108
c0 -64 -42 -168 -65 -229c-8 -19 -12 -40 -12 -60c0 -15 3 -30 20 -30c60 0 92 84 103 132c1 3 5 6 8 6h12c5 0 9 -5 9 -9c0 -2 0 -1 -1 -3c-15 -62 -57 -152 -132 -152c-48 0 -85 35 -85 83c0 13 3 26 8 39c24 64 66 171 66 238c0 32 -11 67 -49 67
c-79 0 -130 -58 -164 -122l-3 -15l-64 -257c-5 -19 -23 -33 -42 -33c-16 0 -30 11 -30 28c0 3 0 6 1 9l64 255c6 23 10 46 10 68c0 32 -11 67 -50 67c-78 0 -129 -57 -163 -122l-68 -272c-5 -19 -23 -33 -42 -33c-16 0 -30 11 -30 28z" />
    <glyph glyph-name="m" unicode="&#xf06d;" horiz-adv-x="878" 
d="M77 17c0 3 0 6 1 9l75 298c4 17 7 34 7 49c0 19 -5 43 -29 43c-49 0 -67 -96 -76 -132c0 -3 -4 -6 -8 -6h-12c-4 0 -8 6 -8 10c13 54 34 154 105 154c48 0 97 -34 97 -84c36 49 90 84 153 84c57 0 117 -30 117 -93c37 54 93 93 161 93s116 -37 116 -108
c0 -64 -42 -168 -65 -229c-8 -19 -12 -40 -12 -60c0 -15 3 -30 20 -30c60 0 92 84 103 132c1 3 5 6 8 6h12c5 0 9 -5 9 -9c0 -2 0 -1 -1 -3c-15 -62 -57 -152 -132 -152c-48 0 -85 35 -85 83c0 13 3 26 8 39c24 64 66 171 66 238c0 32 -11 67 -49 67
c-79 0 -130 -58 -164 -122l-3 -15l-64 -257c-5 -19 -23 -33 -42 -33c-16 0 -30 11 -30 28c0 3 0 6 1 9l64 255c6 23 10 46 10 68c0 32 -11 67 -50 67c-78 0 -129 -57 -163 -122l-68 -272c-5 -19 -23 -33 -42 -33c-16 0 -30 11 -30 28z" />
    <glyph glyph-name="n" unicode="n" horiz-adv-x="600" 
d="M77 17c0 3 0 6 1 9l75 298c4 17 7 34 7 49c0 19 -5 43 -29 43c-49 0 -67 -96 -76 -132c0 -3 -4 -6 -8 -6h-12c-4 0 -8 6 -8 10c13 54 34 154 105 154c48 0 97 -34 97 -84c36 49 90 84 153 84c69 0 117 -37 117 -108c0 -64 -42 -168 -65 -229c-8 -19 -12 -40 -12 -60
c0 -15 3 -30 20 -30c60 0 92 84 103 132c1 3 5 6 8 6h12c5 0 9 -5 9 -9c0 -2 0 -1 -1 -3c-15 -62 -57 -152 -132 -152c-48 0 -85 35 -85 83c0 13 3 26 8 39c24 64 66 171 66 238c0 32 -11 67 -50 67c-78 0 -129 -57 -163 -122l-68 -272c-5 -19 -23 -33 -42 -33
c-16 0 -30 11 -30 28z" />
    <glyph glyph-name="n" unicode="&#xf06e;" horiz-adv-x="600" 
d="M77 17c0 3 0 6 1 9l75 298c4 17 7 34 7 49c0 19 -5 43 -29 43c-49 0 -67 -96 -76 -132c0 -3 -4 -6 -8 -6h-12c-4 0 -8 6 -8 10c13 54 34 154 105 154c48 0 97 -34 97 -84c36 49 90 84 153 84c69 0 117 -37 117 -108c0 -64 -42 -168 -65 -229c-8 -19 -12 -40 -12 -60
c0 -15 3 -30 20 -30c60 0 92 84 103 132c1 3 5 6 8 6h12c5 0 9 -5 9 -9c0 -2 0 -1 -1 -3c-15 -62 -57 -152 -132 -152c-48 0 -85 35 -85 83c0 13 3 26 8 39c24 64 66 171 66 238c0 32 -11 67 -50 67c-78 0 -129 -57 -163 -122l-68 -272c-5 -19 -23 -33 -42 -33
c-16 0 -30 11 -30 28z" />
    <glyph glyph-name="o" unicode="o" horiz-adv-x="484" 
d="M201 -11c-97 0 -161 74 -161 169c0 139 127 284 270 284c97 0 161 -74 161 -169c0 -139 -128 -284 -270 -284zM203 15c127 0 191 194 191 297c0 53 -27 104 -86 104c-128 0 -191 -194 -191 -297c0 -53 27 -104 86 -104z" />
    <glyph glyph-name="o" unicode="&#xf06f;" horiz-adv-x="484" 
d="M201 -11c-97 0 -161 74 -161 169c0 139 127 284 270 284c97 0 161 -74 161 -169c0 -139 -128 -284 -270 -284zM203 15c127 0 191 194 191 297c0 53 -27 104 -86 104c-128 0 -191 -194 -191 -297c0 -53 27 -104 86 -104z" />
    <glyph glyph-name="p" unicode="p" horiz-adv-x="503" 
d="M-25 -194c-6 0 -9 8 -9 13c1 6 3 22 13 22c36 0 53 0 63 34l113 450c5 14 7 33 7 48c0 19 -5 43 -29 43c-49 0 -67 -96 -76 -132c0 -3 -4 -6 -8 -6h-12c-4 0 -8 6 -8 10c13 54 34 154 105 154c45 0 83 -27 93 -72c32 37 78 72 129 72c89 0 135 -79 135 -160
c0 -127 -107 -293 -243 -293c-41 0 -73 25 -90 60l-45 -178c-1 -6 -2 -12 -3 -17c0 -13 53 -13 66 -13c7 0 10 -7 10 -13c-3 -12 -4 -22 -17 -22c-36 0 -72 3 -107 3c-29 0 -58 -3 -87 -3zM249 15c51 0 92 53 113 93c25 50 55 163 55 218c0 39 -15 90 -63 90
c-53 0 -100 -50 -128 -91v-3l-55 -221c7 -41 31 -86 78 -86z" />
    <glyph glyph-name="p" unicode="&#xf070;" horiz-adv-x="503" 
d="M-25 -194c-6 0 -9 8 -9 13c1 6 3 22 13 22c36 0 53 0 63 34l113 450c5 14 7 33 7 48c0 19 -5 43 -29 43c-49 0 -67 -96 -76 -132c0 -3 -4 -6 -8 -6h-12c-4 0 -8 6 -8 10c13 54 34 154 105 154c45 0 83 -27 93 -72c32 37 78 72 129 72c89 0 135 -79 135 -160
c0 -127 -107 -293 -243 -293c-41 0 -73 25 -90 60l-45 -178c-1 -6 -2 -12 -3 -17c0 -13 53 -13 66 -13c7 0 10 -7 10 -13c-3 -12 -4 -22 -17 -22c-36 0 -72 3 -107 3c-29 0 -58 -3 -87 -3zM249 15c51 0 92 53 113 93c25 50 55 163 55 218c0 39 -15 90 -63 90
c-53 0 -100 -50 -128 -91v-3l-55 -221c7 -41 31 -86 78 -86z" />
    <glyph glyph-name="q" unicode="q" horiz-adv-x="446" 
d="M147 -181c2 6 3 22 13 22c37 0 74 0 84 34l43 170c-30 -30 -70 -56 -114 -56c-89 0 -135 79 -135 160c0 127 107 293 244 293c42 0 75 -28 92 -66c8 15 54 66 70 66c7 0 11 -6 11 -13l-140 -558c-1 -6 -2 -12 -3 -17c0 -13 53 -13 66 -13c7 0 10 -7 10 -13
c-3 -12 -4 -22 -17 -22c-36 0 -72 3 -107 3c-36 0 -72 -3 -107 -3c-7 0 -10 8 -10 13zM175 15c53 0 99 50 127 90l56 225c-7 41 -31 86 -78 86c-50 0 -91 -53 -112 -93c-25 -50 -56 -163 -56 -218c0 -39 16 -90 63 -90z" />
    <glyph glyph-name="q" unicode="&#xf071;" horiz-adv-x="446" 
d="M147 -181c2 6 3 22 13 22c37 0 74 0 84 34l43 170c-30 -30 -70 -56 -114 -56c-89 0 -135 79 -135 160c0 127 107 293 244 293c42 0 75 -28 92 -66c8 15 54 66 70 66c7 0 11 -6 11 -13l-140 -558c-1 -6 -2 -12 -3 -17c0 -13 53 -13 66 -13c7 0 10 -7 10 -13
c-3 -12 -4 -22 -17 -22c-36 0 -72 3 -107 3c-36 0 -72 -3 -107 -3c-7 0 -10 8 -10 13zM175 15c53 0 99 50 127 90l56 225c-7 41 -31 86 -78 86c-50 0 -91 -53 -112 -93c-25 -50 -56 -163 -56 -218c0 -39 16 -90 63 -90z" />
    <glyph glyph-name="r" unicode="r" horiz-adv-x="451" 
d="M77 17c0 3 0 6 1 9l75 298c4 17 7 34 7 49c0 19 -5 43 -29 43c-49 0 -67 -96 -76 -132c-1 -3 -4 -6 -8 -6h-12c-4 0 -8 6 -8 10c13 54 34 154 105 154c46 0 84 -28 93 -73c32 41 76 73 129 73c40 0 79 -25 79 -69c0 -33 -22 -63 -57 -63c-21 0 -38 14 -38 36
c0 28 24 57 53 57c-11 9 -24 13 -38 13c-64 0 -106 -57 -133 -108l-71 -286c-5 -19 -23 -33 -42 -33c-16 0 -30 11 -30 28z" />
    <glyph glyph-name="r" unicode="&#xf072;" horiz-adv-x="451" 
d="M77 17c0 3 0 6 1 9l75 298c4 17 7 34 7 49c0 19 -5 43 -29 43c-49 0 -67 -96 -76 -132c-1 -3 -4 -6 -8 -6h-12c-4 0 -8 6 -8 10c13 54 34 154 105 154c46 0 84 -28 93 -73c32 41 76 73 129 73c40 0 79 -25 79 -69c0 -33 -22 -63 -57 -63c-21 0 -38 14 -38 36
c0 28 24 57 53 57c-11 9 -24 13 -38 13c-64 0 -106 -57 -133 -108l-71 -286c-5 -19 -23 -33 -42 -33c-16 0 -30 11 -30 28z" />
    <glyph glyph-name="s" unicode="s" horiz-adv-x="468" 
d="M87 61c21 -36 70 -46 108 -46c64 0 140 33 140 106c0 36 -32 58 -64 65l-54 11c-48 12 -86 44 -86 97c0 92 85 148 171 148c52 0 118 -25 118 -86c0 -29 -17 -58 -49 -58c-17 0 -32 12 -32 30c0 25 22 47 47 47c-13 31 -55 41 -86 41c-51 0 -108 -30 -108 -87
c0 -28 23 -46 48 -52l55 -11c54 -13 101 -49 101 -110c0 -51 -32 -103 -72 -131c-38 -26 -84 -36 -130 -36c-59 0 -142 25 -142 97c0 34 21 68 59 68c21 0 38 -14 38 -36c0 -30 -26 -57 -57 -57h-5z" />
    <glyph glyph-name="s" unicode="&#xf073;" horiz-adv-x="468" 
d="M87 61c21 -36 70 -46 108 -46c64 0 140 33 140 106c0 36 -32 58 -64 65l-54 11c-48 12 -86 44 -86 97c0 92 85 148 171 148c52 0 118 -25 118 -86c0 -29 -17 -58 -49 -58c-17 0 -32 12 -32 30c0 25 22 47 47 47c-13 31 -55 41 -86 41c-51 0 -108 -30 -108 -87
c0 -28 23 -46 48 -52l55 -11c54 -13 101 -49 101 -110c0 -51 -32 -103 -72 -131c-38 -26 -84 -36 -130 -36c-59 0 -142 25 -142 97c0 34 21 68 59 68c21 0 38 -14 38 -36c0 -30 -26 -57 -57 -57h-5z" />
    <glyph glyph-name="t" unicode="t" horiz-adv-x="361" 
d="M61 81c0 9 1 19 3 28l72 287h-104c-7 0 -10 7 -10 13c1 6 3 22 13 22h110l40 163c5 18 22 32 42 32c16 0 30 -11 30 -28c0 -3 -1 -6 -1 -8l-40 -159h104c7 0 10 -7 10 -13c-2 -6 -3 -22 -13 -22h-110l-72 -289c-4 -17 -5 -34 -5 -49c0 -19 3 -43 27 -43
c66 0 111 78 131 132c2 3 5 6 8 6h12c5 0 9 -5 9 -9c0 -2 0 -2 -1 -3c-25 -67 -81 -152 -161 -152c-53 0 -94 38 -94 92z" />
    <glyph glyph-name="t" unicode="&#xf074;" horiz-adv-x="361" 
d="M61 81c0 9 1 19 3 28l72 287h-104c-7 0 -10 7 -10 13c1 6 3 22 13 22h110l40 163c5 18 22 32 42 32c16 0 30 -11 30 -28c0 -3 -1 -6 -1 -8l-40 -159h104c7 0 10 -7 10 -13c-2 -6 -3 -22 -13 -22h-110l-72 -289c-4 -17 -5 -34 -5 -49c0 -19 3 -43 27 -43
c66 0 111 78 131 132c2 3 5 6 8 6h12c5 0 9 -5 9 -9c0 -2 0 -2 -1 -3c-25 -67 -81 -152 -161 -152c-53 0 -94 38 -94 92z" />
    <glyph glyph-name="u" unicode="u" horiz-adv-x="572" 
d="M106 109c0 70 37 152 61 217c7 19 13 40 13 60c0 15 -4 30 -22 30c-59 0 -91 -84 -103 -132c0 -3 -4 -6 -8 -6h-12c-5 0 -8 5 -8 9v3c16 62 58 152 133 152c47 0 86 -35 86 -83c0 -13 -4 -26 -9 -39c-25 -67 -62 -153 -62 -226c0 -38 13 -79 59 -79c51 0 88 39 112 79
l3 15l72 290c5 18 23 32 42 32c16 0 30 -11 30 -28c0 -3 0 -6 -1 -8l-72 -288c-4 -17 -7 -34 -7 -49c0 -19 5 -43 29 -43c48 0 66 96 75 132c1 3 5 6 8 6h12c5 0 9 -6 9 -10c-14 -54 -34 -154 -106 -154c-41 0 -79 24 -91 64c-29 -36 -69 -64 -117 -64
c-76 0 -126 42 -126 120z" />
    <glyph glyph-name="u" unicode="&#xf075;" horiz-adv-x="572" 
d="M106 109c0 70 37 152 61 217c7 19 13 40 13 60c0 15 -4 30 -22 30c-59 0 -91 -84 -103 -132c0 -3 -4 -6 -8 -6h-12c-5 0 -8 5 -8 9v3c16 62 58 152 133 152c47 0 86 -35 86 -83c0 -13 -4 -26 -9 -39c-25 -67 -62 -153 -62 -226c0 -38 13 -79 59 -79c51 0 88 39 112 79
l3 15l72 290c5 18 23 32 42 32c16 0 30 -11 30 -28c0 -3 0 -6 -1 -8l-72 -288c-4 -17 -7 -34 -7 -49c0 -19 5 -43 29 -43c48 0 66 96 75 132c1 3 5 6 8 6h12c5 0 9 -6 9 -10c-14 -54 -34 -154 -106 -154c-41 0 -79 24 -91 64c-29 -36 -69 -64 -117 -64
c-76 0 -126 42 -126 120z" />
    <glyph glyph-name="v" unicode="v" horiz-adv-x="484" 
d="M107 113c0 68 36 150 60 213c7 19 13 40 13 60c0 15 -4 30 -22 30c-59 0 -91 -84 -103 -132c-1 -3 -4 -6 -8 -6h-12c-5 0 -8 5 -8 9v3c16 62 58 152 133 152c47 0 86 -35 86 -83c0 -13 -4 -26 -9 -39c-25 -65 -61 -150 -61 -220c0 -46 20 -85 71 -85c61 0 100 59 125 107
c19 40 49 115 49 159c0 34 -13 54 -25 70c-13 15 -26 26 -26 40c0 26 26 52 52 52c36 0 45 -43 45 -72c0 -69 -36 -190 -67 -252c-29 -59 -79 -130 -154 -130c-81 0 -139 39 -139 124z" />
    <glyph glyph-name="v" unicode="&#xf076;" horiz-adv-x="484" 
d="M107 113c0 68 36 150 60 213c7 19 13 40 13 60c0 15 -4 30 -22 30c-59 0 -91 -84 -103 -132c-1 -3 -4 -6 -8 -6h-12c-5 0 -8 5 -8 9v3c16 62 58 152 133 152c47 0 86 -35 86 -83c0 -13 -4 -26 -9 -39c-25 -65 -61 -150 -61 -220c0 -46 20 -85 71 -85c61 0 100 59 125 107
c19 40 49 115 49 159c0 34 -13 54 -25 70c-13 15 -26 26 -26 40c0 26 26 52 52 52c36 0 45 -43 45 -72c0 -69 -36 -190 -67 -252c-29 -59 -79 -130 -154 -130c-81 0 -139 39 -139 124z" />
    <glyph glyph-name="w" unicode="w" horiz-adv-x="715" 
d="M108 116c0 65 36 149 59 210c7 19 13 40 13 60c0 15 -4 30 -22 30c-60 0 -91 -84 -103 -132c-1 -3 -4 -6 -8 -6h-12c-5 0 -8 5 -8 9v3c16 62 58 152 133 152c47 0 86 -35 86 -83c0 -13 -4 -26 -9 -39c-24 -64 -60 -148 -60 -217c0 -51 25 -88 79 -88c45 0 72 44 88 81
c-1 6 -1 12 -1 17c0 21 3 41 8 61l56 225c5 18 23 32 42 32c16 0 30 -11 30 -28c0 -3 0 -6 -1 -8l-56 -223c-6 -24 -10 -49 -10 -72c0 -46 21 -85 72 -85s85 42 106 84c20 40 54 138 54 182c0 34 -13 54 -25 70c-13 15 -26 26 -26 40c0 26 26 52 52 52c36 0 45 -43 45 -72
c0 -68 -42 -213 -72 -275c-27 -53 -70 -107 -135 -107c-52 0 -106 17 -129 67c-21 -37 -55 -67 -100 -67c-82 0 -146 37 -146 127z" />
    <glyph glyph-name="w" unicode="&#xf077;" horiz-adv-x="715" 
d="M108 116c0 65 36 149 59 210c7 19 13 40 13 60c0 15 -4 30 -22 30c-60 0 -91 -84 -103 -132c-1 -3 -4 -6 -8 -6h-12c-5 0 -8 5 -8 9v3c16 62 58 152 133 152c47 0 86 -35 86 -83c0 -13 -4 -26 -9 -39c-24 -64 -60 -148 -60 -217c0 -51 25 -88 79 -88c45 0 72 44 88 81
c-1 6 -1 12 -1 17c0 21 3 41 8 61l56 225c5 18 23 32 42 32c16 0 30 -11 30 -28c0 -3 0 -6 -1 -8l-56 -223c-6 -24 -10 -49 -10 -72c0 -46 21 -85 72 -85s85 42 106 84c20 40 54 138 54 182c0 34 -13 54 -25 70c-13 15 -26 26 -26 40c0 26 26 52 52 52c36 0 45 -43 45 -72
c0 -68 -42 -213 -72 -275c-27 -53 -70 -107 -135 -107c-52 0 -106 17 -129 67c-21 -37 -55 -67 -100 -67c-82 0 -146 37 -146 127z" />
    <glyph glyph-name="x" unicode="x" horiz-adv-x="571" 
d="M78 29c14 -11 32 -14 50 -14c47 0 78 56 88 96l45 177c5 22 11 45 11 66c0 31 -18 62 -53 62c-68 0 -118 -73 -133 -132c-1 -3 -4 -6 -8 -6h-12c-5 0 -8 5 -8 9v3c19 73 81 152 163 152c48 0 91 -27 108 -73c20 37 57 73 102 73c42 0 94 -20 94 -70
c0 -32 -23 -62 -57 -62c-21 0 -38 14 -38 36c0 28 22 52 49 56c-14 11 -33 14 -50 14c-47 0 -79 -56 -89 -96l-44 -177c-6 -22 -11 -45 -11 -66c0 -31 18 -62 53 -62c67 0 118 73 132 132c1 3 5 6 8 6h12c5 0 9 -5 9 -9c0 -2 0 -1 -1 -3c-18 -73 -81 -152 -162 -152
c-48 0 -92 27 -108 73c-20 -37 -57 -73 -102 -73c-42 0 -95 20 -95 70c0 32 24 62 57 62c21 0 38 -14 38 -36c0 -28 -21 -52 -48 -56z" />
    <glyph glyph-name="x" unicode="&#xf078;" horiz-adv-x="571" 
d="M78 29c14 -11 32 -14 50 -14c47 0 78 56 88 96l45 177c5 22 11 45 11 66c0 31 -18 62 -53 62c-68 0 -118 -73 -133 -132c-1 -3 -4 -6 -8 -6h-12c-5 0 -8 5 -8 9v3c19 73 81 152 163 152c48 0 91 -27 108 -73c20 37 57 73 102 73c42 0 94 -20 94 -70
c0 -32 -23 -62 -57 -62c-21 0 -38 14 -38 36c0 28 22 52 49 56c-14 11 -33 14 -50 14c-47 0 -79 -56 -89 -96l-44 -177c-6 -22 -11 -45 -11 -66c0 -31 18 -62 53 -62c67 0 118 73 132 132c1 3 5 6 8 6h12c5 0 9 -5 9 -9c0 -2 0 -1 -1 -3c-18 -73 -81 -152 -162 -152
c-48 0 -92 27 -108 73c-20 -37 -57 -73 -102 -73c-42 0 -95 20 -95 70c0 32 24 62 57 62c21 0 38 -14 38 -36c0 -28 -21 -52 -48 -56z" />
    <glyph glyph-name="y" unicode="y" horiz-adv-x="490" 
d="M84 -143c15 -26 45 -36 73 -36c102 0 152 129 171 210c-26 -25 -60 -42 -96 -42c-77 0 -126 42 -126 120c0 70 37 152 61 217c7 19 13 40 13 60c0 15 -4 30 -22 30c-59 0 -91 -84 -103 -132c-1 -3 -4 -6 -8 -6h-12c-5 0 -8 5 -8 9v3c16 62 58 152 133 152
c47 0 86 -35 86 -83c0 -13 -4 -26 -9 -39c-25 -67 -62 -154 -62 -226c0 -38 13 -79 58 -79c50 0 86 37 111 76l76 308c5 18 23 32 42 32c16 0 30 -11 30 -28c0 -3 0 -6 -1 -8l-99 -398c-27 -104 -125 -202 -236 -202c-52 0 -108 29 -108 87c0 34 21 68 59 68
c21 0 38 -15 38 -37c0 -30 -26 -57 -57 -57c-1 0 -4 1 -4 1z" />
    <glyph glyph-name="y" unicode="&#xf079;" horiz-adv-x="490" 
d="M84 -143c15 -26 45 -36 73 -36c102 0 152 129 171 210c-26 -25 -60 -42 -96 -42c-77 0 -126 42 -126 120c0 70 37 152 61 217c7 19 13 40 13 60c0 15 -4 30 -22 30c-59 0 -91 -84 -103 -132c-1 -3 -4 -6 -8 -6h-12c-5 0 -8 5 -8 9v3c16 62 58 152 133 152
c47 0 86 -35 86 -83c0 -13 -4 -26 -9 -39c-25 -67 -62 -154 -62 -226c0 -38 13 -79 58 -79c50 0 86 37 111 76l76 308c5 18 23 32 42 32c16 0 30 -11 30 -28c0 -3 0 -6 -1 -8l-99 -398c-27 -104 -125 -202 -236 -202c-52 0 -108 29 -108 87c0 34 21 68 59 68
c21 0 38 -15 38 -37c0 -30 -26 -57 -57 -57c-1 0 -4 1 -4 1z" />
    <glyph glyph-name="z" unicode="z" horiz-adv-x="465" 
d="M49 -11c-5 0 -8 5 -8 9c0 3 0 5 2 7c80 137 221 222 326 338h-4c-23 0 -44 7 -66 14c-21 6 -42 13 -65 13c-31 0 -74 -12 -83 -46c-1 -4 -4 -7 -8 -7h-12c-5 0 -8 5 -8 10v3c14 55 63 113 124 113c29 0 47 -18 63 -37c17 -18 33 -37 57 -37c34 0 59 44 74 70c1 1 4 3 7 3
h12c5 0 8 -5 8 -9c0 -3 -1 -5 -2 -6c-81 -139 -223 -224 -329 -341c8 2 14 2 21 2c23 0 45 -7 66 -13c22 -7 43 -14 66 -14c51 0 106 34 119 85c1 3 5 7 8 7h12c5 0 9 -5 9 -10c0 -2 0 -1 -1 -3c-18 -72 -79 -152 -160 -152c-29 0 -47 19 -64 37c-16 19 -31 37 -56 37
c-40 0 -71 -38 -89 -70c-1 -1 -5 -3 -7 -3h-12z" />
    <glyph glyph-name="z" unicode="&#xf07a;" horiz-adv-x="465" 
d="M49 -11c-5 0 -8 5 -8 9c0 3 0 5 2 7c80 137 221 222 326 338h-4c-23 0 -44 7 -66 14c-21 6 -42 13 -65 13c-31 0 -74 -12 -83 -46c-1 -4 -4 -7 -8 -7h-12c-5 0 -8 5 -8 10v3c14 55 63 113 124 113c29 0 47 -18 63 -37c17 -18 33 -37 57 -37c34 0 59 44 74 70c1 1 4 3 7 3
h12c5 0 8 -5 8 -9c0 -3 -1 -5 -2 -6c-81 -139 -223 -224 -329 -341c8 2 14 2 21 2c23 0 45 -7 66 -13c22 -7 43 -14 66 -14c51 0 106 34 119 85c1 3 5 7 8 7h12c5 0 9 -5 9 -10c0 -2 0 -1 -1 -3c-18 -72 -79 -152 -160 -152c-29 0 -47 19 -64 37c-16 19 -31 37 -56 37
c-40 0 -71 -38 -89 -70c-1 -1 -5 -3 -7 -3h-12z" />
    <glyph glyph-name="Pi" unicode="&#xf0a6;" horiz-adv-x="831" 
d="M47 0c-7 0 -10 7 -10 13c2 6 3 22 13 22c26 0 61 0 85 7c11 4 16 16 19 27l137 549c1 5 2 9 2 14c0 9 -4 11 -12 12c-19 4 -49 4 -72 4c-7 0 -10 7 -10 13c2 6 3 22 13 22h661c7 0 10 -7 10 -13c-2 -6 -3 -22 -14 -22c-26 0 -60 0 -84 -7c-11 -4 -16 -16 -19 -27
l-137 -549c-1 -5 -2 -9 -2 -14c0 -9 4 -11 12 -12c19 -4 49 -4 72 -4c7 0 10 -7 10 -13c-3 -12 -4 -22 -17 -22c-45 0 -90 3 -135 3s-89 -3 -134 -3c-7 0 -10 7 -10 13c2 6 3 22 13 22c26 0 61 0 85 7c11 4 16 16 19 27l145 579h-300l-146 -583c-1 -5 -2 -9 -2 -14
c0 -9 4 -11 12 -12c19 -4 49 -4 72 -4c7 0 10 -7 10 -13c-3 -12 -4 -22 -17 -22c-45 0 -90 3 -135 3s-89 -3 -134 -3z" />
    <glyph glyph-name="Xi" unicode="&#xf0a5;" horiz-adv-x="742" 
d="M63 0c-7 0 -10 7 -10 13l28 144c1 4 5 9 10 9h9c7 0 10 -7 10 -13c-5 -22 -10 -52 -11 -72c0 -1 0 -8 2 -8c81 0 163 -4 245 -4c84 0 168 4 251 4c14 3 32 69 37 84c1 4 5 9 10 9h9c7 0 10 -7 10 -13l-44 -144c-2 -4 -5 -9 -10 -9h-546zM219 270c-7 0 -10 7 -10 13
l38 149c1 5 5 9 10 9h9c7 0 10 -7 10 -13l-10 -38h329l11 42c1 5 5 9 10 9h9c7 0 10 -7 10 -13l-38 -149c-1 -5 -5 -9 -10 -9h-9c-7 0 -10 7 -10 13l10 38h-329l-11 -42c-1 -5 -5 -9 -10 -9h-9zM192 528c-7 0 -10 7 -10 13l41 133c1 4 5 9 10 9h536c7 0 10 -7 10 -13
l-25 -133c-1 -4 -6 -9 -10 -9h-9c-7 0 -10 7 -10 13c3 19 8 43 8 61v8c-81 0 -161 4 -242 4c-83 0 -165 -4 -248 -4c-12 -3 -28 -60 -32 -73c-2 -4 -5 -9 -10 -9h-9z" />
    <glyph glyph-name="mu" unicode="&#xf0b9;" horiz-adv-x="602" 
d="M28 -188c0 3 0 6 1 8l147 590c5 18 22 32 42 32c16 0 30 -11 30 -28c0 -3 -1 -6 -1 -8l-59 -234c-6 -25 -10 -49 -10 -72c0 -46 20 -85 71 -85c58 0 100 45 128 91c0 1 1 2 1 3l72 290c5 18 23 32 42 32c16 0 30 -11 30 -28c0 -3 0 -6 -1 -8l-72 -288
c-4 -17 -7 -34 -7 -49c0 -19 5 -43 29 -43c48 0 66 96 75 132c1 3 5 6 8 6h12c5 0 9 -6 9 -10c-14 -54 -34 -154 -106 -154c-44 0 -82 27 -92 70c-32 -39 -77 -70 -129 -70c-34 0 -71 7 -98 29l-51 -202c-4 -18 -22 -32 -41 -32c-16 0 -30 11 -30 28z" />
    <glyph glyph-name="nu" unicode="&#xf0ba;" horiz-adv-x="494" 
d="M63 0c-8 0 -12 7 -12 13l85 340c2 9 4 18 5 27c0 16 -49 16 -64 16c-7 0 -10 7 -10 13c1 6 3 22 13 22l135 10c8 0 12 -4 12 -12l-98 -392c163 54 284 209 325 373c5 18 22 32 42 32c16 0 30 -11 30 -29c0 -24 -28 -85 -39 -108c-27 -53 -63 -102 -105 -144
c-80 -80 -184 -138 -295 -161c-3 0 -6 3 -8 3z" />
    <glyph glyph-name="pi" unicode="&#xf0bc;" horiz-adv-x="570" 
d="M101 17c0 6 1 11 4 16c53 111 100 223 131 336h-64c-52 0 -96 -39 -121 -81c-1 -2 -4 -4 -6 -4h-12c-5 0 -9 5 -9 10c0 2 1 4 2 6c32 54 84 131 154 131h363c14 0 25 -11 25 -25c0 -19 -16 -37 -36 -37h-126c-12 -52 -19 -103 -19 -153c0 -59 10 -119 34 -174
c2 -4 3 -8 3 -12c0 -22 -22 -41 -44 -41c-41 0 -46 96 -46 126c0 86 21 171 42 254h-110c-32 -130 -81 -324 -96 -353c-7 -15 -20 -27 -38 -27c-17 0 -31 11 -31 28z" />
    <glyph glyph-name="xi" unicode="&#xf0bb;" horiz-adv-x="437" 
d="M163 -156c1 7 6 12 14 12c5 0 53 -35 102 -35c24 0 43 27 43 50c0 18 -12 31 -28 37l-171 67c-54 20 -101 66 -101 127c0 83 73 172 143 211c-38 22 -63 62 -63 106c0 96 89 165 173 189c-3 12 -5 24 -5 37c0 15 1 54 21 54c7 0 13 -6 13 -13c0 -11 -5 -27 -5 -42
c0 -10 1 -20 4 -30c17 3 34 4 50 4c22 0 92 1 92 -27c0 -34 -77 -34 -102 -34c-20 0 -38 7 -51 21c-61 -31 -105 -98 -105 -167c0 -28 7 -56 27 -76c23 8 47 12 71 12c22 0 92 0 92 -28c0 -34 -77 -34 -102 -34c-27 0 -53 4 -78 13c-55 -30 -119 -103 -119 -167
c0 -43 37 -73 74 -87l177 -69c31 -12 52 -38 52 -72c0 -54 -48 -108 -104 -108c-25 0 -114 21 -114 49zM244 316c11 -3 22 -5 33 -5c22 0 48 0 69 6c-19 4 -42 4 -62 4c-13 0 -27 -2 -40 -5zM325 587c2 -1 4 -2 7 -3c4 0 9 -1 13 -1c22 0 48 0 69 6c-19 4 -42 4 -62 4
c-10 0 -20 -1 -31 -4c1 -1 3 -1 4 -2z" />
    <glyph glyph-name="space" unicode=" " horiz-adv-x="0" 
 />
    <glyph glyph-name="space" unicode="&#xf020;" horiz-adv-x="0" 
 />
    <glyph glyph-name="comma" unicode="," horiz-adv-x="277" 
d="M99 -180c0 3 2 6 4 8c48 46 75 109 75 176l1 12c-11 -11 -25 -16 -40 -16c-31 0 -55 24 -55 55s24 55 55 55c53 0 68 -64 68 -106c0 -75 -34 -144 -87 -196c-2 -1 -4 -2 -6 -2c-7 0 -15 8 -15 14z" />
    <glyph glyph-name="comma" unicode="&#xf03b;" horiz-adv-x="277" 
d="M99 -180c0 3 2 6 4 8c48 46 75 109 75 176l1 12c-11 -11 -25 -16 -40 -16c-31 0 -55 24 -55 55s24 55 55 55c53 0 68 -64 68 -106c0 -75 -34 -144 -87 -196c-2 -1 -4 -2 -6 -2c-7 0 -15 8 -15 14z" />
    <glyph glyph-name="period" unicode="." horiz-adv-x="277" 
d="M84 55c0 30 25 55 55 55s54 -25 54 -55s-24 -55 -54 -55s-55 25 -55 55z" />
    <glyph glyph-name="period" unicode="&#xf03a;" horiz-adv-x="277" 
d="M84 55c0 30 25 55 55 55s54 -25 54 -55s-24 -55 -54 -55s-55 25 -55 55z" />
    <glyph glyph-name="slash" unicode="/" 
d="M55 -230c0 2 0 3 1 4l350 964c2 7 10 12 18 12c11 0 20 -9 20 -20v-4l-350 -964c-3 -7 -11 -12 -19 -12c-11 0 -20 9 -20 20z" />
    <glyph glyph-name="slash" unicode="&#xf03d;" 
d="M55 -230c0 2 0 3 1 4l350 964c2 7 10 12 18 12c11 0 20 -9 20 -20v-4l-350 -964c-3 -7 -11 -12 -19 -12c-11 0 -20 9 -20 20z" />
    <glyph glyph-name="less" unicode="&#x3c;" horiz-adv-x="777" 
d="M93 233c-7 3 -10 11 -10 17c0 8 5 15 13 19l571 270c2 1 4 1 7 1c11 0 20 -9 20 -20c0 -8 -5 -15 -12 -18l-532 -252l535 -253c6 -3 9 -11 9 -17c0 -11 -9 -20 -20 -20c-3 0 -5 0 -7 1z" />
    <glyph glyph-name="less" unicode="&#xf03c;" horiz-adv-x="777" 
d="M93 233c-7 3 -10 11 -10 17c0 8 5 15 13 19l571 270c2 1 4 1 7 1c11 0 20 -9 20 -20c0 -8 -5 -15 -12 -18l-532 -252l535 -253c6 -3 9 -11 9 -17c0 -11 -9 -20 -20 -20c-3 0 -5 0 -7 1z" />
    <glyph glyph-name="greater" unicode="&#x3e;" horiz-adv-x="777" 
d="M83 -20c0 8 5 15 13 18l531 252l-534 253c-7 3 -10 11 -10 17c0 11 9 20 20 20c3 0 5 0 8 -1l574 -272c6 -3 9 -11 9 -17c0 -8 -5 -15 -12 -18l-571 -271c-3 -1 -5 -1 -8 -1c-11 0 -20 9 -20 20z" />
    <glyph glyph-name="greater" unicode="&#xf03e;" horiz-adv-x="777" 
d="M83 -20c0 8 5 15 13 18l531 252l-534 253c-7 3 -10 11 -10 17c0 11 9 20 20 20c3 0 5 0 8 -1l574 -272c6 -3 9 -11 9 -17c0 -8 -5 -15 -12 -18l-571 -271c-3 -1 -5 -1 -8 -1c-11 0 -20 9 -20 20z" />
    <glyph glyph-name="dotlessi" unicode="&#x131;" horiz-adv-x="322" 
d="M78 72c0 13 3 26 8 39l81 215c7 19 13 40 13 60c0 15 -4 30 -22 30c-59 0 -91 -84 -103 -132c-1 -3 -4 -6 -8 -6h-12c-5 0 -8 5 -8 9v3c16 62 58 152 133 152c47 0 86 -35 86 -83c0 -13 -4 -26 -9 -39l-81 -215c-8 -19 -12 -40 -12 -60c0 -15 3 -30 20 -30
c60 0 92 84 103 132c1 3 5 6 8 6h12c5 0 9 -5 9 -9c0 -2 0 -1 -1 -3c-15 -62 -57 -152 -132 -152c-48 0 -85 35 -85 83z" />
    <glyph glyph-name="dotlessi" unicode="&#xf07b;" horiz-adv-x="322" 
d="M78 72c0 13 3 26 8 39l81 215c7 19 13 40 13 60c0 15 -4 30 -22 30c-59 0 -91 -84 -103 -132c-1 -3 -4 -6 -8 -6h-12c-5 0 -8 5 -8 9v3c16 62 58 152 133 152c47 0 86 -35 86 -83c0 -13 -4 -26 -9 -39l-81 -215c-8 -19 -12 -40 -12 -60c0 -15 3 -30 20 -30
c60 0 92 84 103 132c1 3 5 6 8 6h12c5 0 9 -5 9 -9c0 -2 0 -1 -1 -3c-15 -62 -57 -152 -132 -152c-48 0 -85 35 -85 83z" />
    <glyph glyph-name="hardspace" unicode="&#xf0a0;" horiz-adv-x="0" 
 />
    <glyph glyph-name="Gamma" unicode="&#xf0a1;" horiz-adv-x="615" 
d="M47 0c-7 0 -10 7 -10 13c2 6 3 22 13 22c26 0 61 0 85 7c11 4 16 16 19 27l137 549c1 5 2 9 2 14c0 9 -4 11 -12 12c-19 4 -49 4 -72 4c-7 0 -10 7 -10 13c2 6 3 22 13 22h500c7 0 10 -7 10 -13l-24 -207c0 -4 -5 -9 -10 -9h-9c-7 0 -10 7 -10 13c3 25 6 52 6 78
c0 103 -67 103 -152 103h-93c-33 0 -43 0 -52 -34l-137 -549c-1 -4 -2 -7 -2 -10c0 -5 1 -12 7 -13c26 -7 74 -7 102 -7c7 0 10 -7 10 -13c-3 -12 -3 -22 -17 -22c-53 0 -106 3 -160 3c-45 0 -89 -3 -134 -3z" />
    <glyph glyph-name="Delta" unicode="&#xf0a2;" horiz-adv-x="833" 
d="M48 6c0 1 1 3 2 5l517 694c6 6 12 11 21 11h14c7 0 14 -4 15 -11l171 -695c0 -6 -5 -10 -10 -10h-724c-3 0 -6 2 -6 6zM137 75h538l-134 543z" />
    <glyph glyph-name="Theta" unicode="&#xf0a3;" horiz-adv-x="762" 
d="M304 -22c-155 0 -255 115 -255 266c0 222 209 461 437 461c155 0 254 -118 254 -269c0 -223 -207 -458 -436 -458zM311 4c76 0 146 44 198 97c88 91 142 242 142 368c0 105 -53 210 -172 210c-77 0 -147 -45 -199 -98c-86 -91 -142 -243 -142 -368
c0 -106 54 -209 173 -209zM207 271c-7 0 -10 7 -10 13l31 121c1 4 5 9 10 9h9c7 0 10 -8 10 -13l-6 -21h306l7 25c1 4 5 9 10 9h9c7 0 10 -8 10 -13l-31 -121c-1 -5 -5 -9 -10 -9h-9c-7 0 -10 7 -10 13l6 21h-306l-7 -25c-1 -5 -5 -9 -10 -9h-9z" />
    <glyph glyph-name="Lambda" unicode="&#xf0a4;" horiz-adv-x="694" 
d="M44 0c-7 0 -9 8 -9 13c1 6 2 22 13 22c47 0 84 25 107 65c1 1 3 2 3 3l343 602c3 6 10 11 18 11h13c6 0 13 -4 13 -11l45 -648c4 -22 44 -22 67 -22c7 0 10 -7 10 -13c-1 -6 -3 -22 -13 -22c-36 0 -73 3 -109 3c-45 0 -91 -3 -136 -3c-7 0 -10 7 -10 13c2 6 3 22 14 22
c22 0 80 0 85 28l-36 510l-273 -480c-3 -6 -7 -16 -7 -24c0 -27 34 -34 56 -34c7 0 10 -7 10 -13c-3 -12 -4 -22 -17 -22c-37 0 -73 3 -109 3c-26 0 -52 -3 -78 -3z" />
    <glyph glyph-name="Sigma" unicode="&#xf0a7;" horiz-adv-x="779" 
d="M68 0c-6 0 -10 6 -10 11c0 3 1 6 4 9l316 284l-157 351c-1 3 -1 2 -1 6c1 6 3 22 13 22h563c7 0 10 -7 10 -13l-24 -207c0 -4 -5 -9 -10 -9h-9c-7 0 -10 7 -10 13c2 18 4 36 4 54c0 66 -17 104 -85 118c-42 9 -96 9 -145 9h-200l136 -302c1 -3 1 -2 1 -4
c0 -4 -2 -7 -4 -9l-320 -288h225c180 0 258 2 329 185c2 4 5 9 10 9h9c7 0 10 -7 10 -13l-82 -217c-2 -4 -5 -9 -10 -9h-563z" />
    <glyph glyph-name="Upsilon" unicode="&#xf0a8;" horiz-adv-x="583" 
d="M55 13c2 6 3 22 14 22c31 0 74 0 99 5c15 3 26 13 30 29l68 275c13 30 21 106 21 140c0 71 -22 145 -106 145c-50 0 -106 -32 -118 -83c-2 -6 -8 -11 -14 -11h-13c-5 0 -9 4 -9 9c0 29 41 89 61 109c32 32 71 51 112 51c112 0 143 -99 143 -194c0 -16 -2 -33 -4 -51
c45 109 129 245 263 245c64 0 99 -51 99 -111c0 -14 -1 -58 -20 -58h-13c-5 0 -9 4 -9 9c0 1 0 1 1 2c1 7 1 13 1 18c0 43 -40 65 -78 65c-134 0 -203 -180 -230 -288l-68 -276c-1 -4 -2 -7 -2 -10c0 -10 6 -14 15 -16c23 -4 64 -4 94 -4c7 0 10 -7 10 -13
c-3 -12 -3 -22 -17 -22c-53 0 -106 3 -160 3c-53 0 -106 -3 -160 -3c-7 0 -10 7 -10 13z" />
    <glyph glyph-name="Phi" unicode="&#xf0a9;" horiz-adv-x="666" 
d="M82 13c1 6 2 22 13 22c31 0 74 0 99 5c15 3 26 13 30 29l17 70c-90 0 -218 65 -218 169c0 136 202 236 320 236l18 74c1 4 1 7 2 10c0 10 -6 14 -15 16c-23 4 -64 4 -94 4c-8 0 -10 7 -10 13c2 12 3 22 17 22c52 0 104 -3 157 -3c52 0 104 3 157 3c6 0 9 -7 9 -13
c-1 -6 -3 -22 -13 -22c-32 0 -74 0 -99 -5c-16 -3 -26 -13 -30 -29l-17 -70c90 0 218 -65 218 -169c0 -136 -203 -236 -320 -236l-18 -74c-1 -4 -2 -7 -2 -10c0 -10 5 -14 15 -16c23 -4 64 -4 94 -4c7 0 10 -7 10 -13c-3 -12 -3 -22 -17 -22c-52 0 -104 3 -157 3
c-52 0 -104 -3 -157 -3c-7 0 -9 7 -9 13zM118 286c0 -79 59 -112 130 -121l88 353c-127 -14 -218 -101 -218 -232zM330 165c127 14 218 101 218 232c0 79 -60 112 -130 121z" />
    <glyph glyph-name="Psi" unicode="&#xf0aa;" horiz-adv-x="612" 
d="M58 13c2 6 3 22 14 22c31 0 74 0 99 5c15 3 26 13 30 29l17 71c-103 13 -165 75 -165 182c0 30 4 60 11 90c6 20 9 41 9 59c0 26 -6 55 -38 55c-5 0 -10 6 -10 11c0 6 4 15 11 15h61c44 0 57 -39 57 -76c0 -23 -3 -46 -9 -68c-8 -35 -15 -70 -15 -103
c0 -66 26 -122 95 -138l113 451c1 4 1 7 2 10c0 10 -6 14 -15 16c-23 4 -64 4 -95 4c-7 0 -10 7 -10 13c3 12 4 22 17 22c53 0 105 -3 158 -3c52 0 104 3 157 3c6 0 9 -7 9 -13c-1 -6 -3 -22 -13 -22c-32 0 -74 0 -99 -5c-16 -3 -26 -13 -30 -29l-111 -446
c116 28 174 137 200 244c14 54 47 140 114 140h61c6 0 10 -6 10 -11c0 -6 -3 -15 -11 -15c-54 0 -82 -75 -93 -118c-36 -146 -134 -253 -289 -269l-18 -74c-1 -4 -2 -7 -2 -10c0 -10 6 -14 15 -16c23 -4 64 -4 94 -4c7 0 10 -7 10 -13c-3 -12 -3 -22 -17 -22
c-52 0 -104 3 -157 3c-52 0 -104 -3 -157 -3c-7 0 -10 7 -10 13z" />
    <glyph glyph-name="Omega" unicode="&#xf0ad;" horiz-adv-x="772" 
d="M90 0c-7 0 -10 7 -10 13l2 140c0 4 6 9 10 9h9c7 0 10 -7 10 -13v-27c0 -21 0 -41 3 -52c19 -5 45 -5 67 -5h67v4c-1 49 -16 94 -34 138l-18 46c-19 46 -34 94 -34 145c0 186 204 307 372 307c121 0 251 -66 251 -203c0 -170 -205 -294 -278 -437h60c22 0 67 0 80 15
c16 24 28 51 40 77c2 2 5 5 9 5h9c5 0 10 -6 10 -11c0 -2 0 -2 -1 -4l-69 -141c-1 -3 -5 -6 -8 -6h-167c-7 0 -10 7 -10 13c43 175 228 335 228 513c0 93 -62 153 -155 153c-88 0 -170 -53 -219 -124c-39 -59 -57 -129 -57 -199c0 -41 5 -82 11 -123c5 -40 10 -81 10 -123
c0 -34 -3 -68 -11 -101c-1 -4 -5 -9 -10 -9h-167z" />
    <glyph glyph-name="dotlessj" unicode="&#xf07c;" horiz-adv-x="384" 
d="M-13 -142c0 32 25 60 58 60c21 0 37 -14 37 -36c0 -24 -16 -47 -39 -54c14 -5 28 -7 42 -7c60 0 97 77 110 127l94 376c4 17 7 34 7 49c0 19 -5 43 -29 43c-66 0 -111 -78 -132 -132c-1 -3 -4 -6 -8 -6h-12c-5 0 -8 5 -8 9v3c26 67 81 152 161 152c54 0 97 -38 97 -92
c0 -9 -3 -19 -5 -28l-95 -380c-20 -80 -99 -147 -182 -147c-39 0 -96 15 -96 63z" />
    <glyph glyph-name="triangleright" unicode="&#xf02e;" 
d="M26 14v473c0 10 10 18 20 18c4 0 7 -1 11 -3l407 -235c5 -3 9 -10 9 -17s-4 -14 -9 -17l-407 -235c-4 -2 -7 -3 -11 -3c-10 0 -20 8 -20 19zM66 50l347 200l-347 200v-400z" />
    <glyph glyph-name="triangleleft" unicode="&#xf02f;" 
d="M36 233c-6 3 -10 10 -10 17s4 14 10 17l407 235c3 2 6 3 10 3c10 0 20 -8 20 -18v-473c0 -11 -10 -19 -20 -19c-4 0 -7 1 -10 3zM86 250l347 -200v400z" />
    <glyph glyph-name="star" unicode="&#xf03f;" 
d="M93 27c0 2 0 2 1 4l97 177l-180 85c-5 2 -8 6 -8 11c0 6 6 11 12 11l199 -38l25 200c1 5 6 9 11 9s10 -4 11 -9l25 -200l199 38c6 0 12 -5 12 -11c0 -4 -2 -8 -6 -10l-182 -86l96 -176c2 -3 2 -2 2 -5c0 -6 -5 -11 -11 -11c-3 0 -6 0 -7 2l-139 148l-137 -146
c-2 -3 -5 -4 -9 -4c-6 0 -11 5 -11 11z" />
    <glyph glyph-name="omega" unicode="&#xf021;" horiz-adv-x="622" 
d="M121 -11c-82 0 -107 73 -107 143c0 106 41 208 103 293c3 4 8 6 12 6c8 0 14 -6 14 -13c0 -4 -1 -7 -3 -10c-48 -66 -91 -148 -91 -231c0 -55 23 -113 86 -113c53 0 96 38 125 79c0 31 16 150 56 150c16 0 23 -13 23 -27c0 -34 -26 -98 -41 -130c6 -39 28 -72 71 -72
c98 0 189 123 189 215c0 34 -12 55 -25 71c-12 17 -25 28 -25 41c0 27 26 52 52 52c36 0 45 -43 45 -72c0 -66 -31 -174 -60 -233c-36 -72 -101 -149 -189 -149c-55 0 -85 35 -94 86c-33 -47 -82 -86 -141 -86z" />
    <glyph glyph-name="epsilon" unicode="&#xf022;" horiz-adv-x="466" 
d="M26 104c0 57 41 107 88 136c-22 16 -38 40 -38 68c0 98 145 144 226 144c30 0 126 -22 126 -57c0 -15 -14 -30 -29 -30c-12 0 -53 38 -105 38c-56 0 -189 -19 -189 -93c0 -25 18 -44 38 -56c27 12 57 19 86 19c21 0 79 0 79 -28c0 -34 -64 -34 -89 -34
c-27 0 -54 3 -78 14c-41 -22 -86 -64 -86 -114c0 -71 88 -84 141 -84c57 0 130 6 159 63c2 4 7 6 11 6c6 -2 11 -6 11 -13c0 -3 -2 -7 -3 -10c-34 -67 -115 -95 -186 -95c-75 0 -162 40 -162 126zM181 240c13 -2 26 -3 40 -3s45 0 56 6c-14 4 -33 4 -49 4s-32 -2 -47 -7z
" />
    <glyph glyph-name="theta1" unicode="&#xf023;" horiz-adv-x="591" 
d="M105 103c0 24 4 47 10 70l38 151c4 17 7 34 7 49c0 19 -5 43 -29 43c-49 0 -67 -96 -76 -132c0 -3 -4 -6 -8 -6h-12c-4 0 -8 6 -8 10c13 54 34 154 105 154c54 0 97 -38 97 -92c0 -9 -3 -19 -5 -28l-38 -151c-7 -26 -12 -54 -12 -79c0 -50 23 -77 73 -77
c100 0 168 261 187 338c-78 26 -164 75 -164 168c0 79 63 184 150 184c95 0 115 -128 115 -200c0 -49 -10 -99 -21 -147c12 -3 48 -6 48 -19c-1 -6 -3 -16 -12 -16c-14 3 -29 6 -43 9c-28 -107 -129 -343 -261 -343c-77 0 -141 26 -141 114zM440 378c16 63 29 125 29 185
c0 36 -1 116 -51 116c-70 0 -119 -95 -119 -156c0 -80 76 -121 141 -145z" />
    <glyph glyph-name="pi1" unicode="&#xf024;" horiz-adv-x="828" 
d="M113 106c0 97 41 188 101 263h-42c-52 0 -96 -39 -121 -81c-1 -2 -4 -4 -6 -4h-12c-5 0 -9 5 -9 10c0 2 1 4 2 6c32 54 84 131 154 131h613c14 0 25 -11 25 -25c0 -19 -16 -37 -36 -37h-37c6 -23 10 -46 10 -70c0 -118 -100 -310 -235 -310c-82 0 -105 69 -105 139v22
c-43 -80 -116 -161 -214 -161c-67 0 -88 60 -88 117zM212 51c118 0 200 134 226 235c1 4 4 8 9 8h12c5 0 8 -5 8 -9v-3c-10 -40 -17 -81 -17 -118c0 -54 15 -113 81 -113c112 0 195 149 195 248c0 24 -4 48 -11 70h-466c-53 -64 -101 -144 -101 -230c0 -42 14 -88 64 -88z
" />
    <glyph glyph-name="rho1" unicode="&#xf025;" horiz-adv-x="517" 
d="M73 -76c0 86 34 210 55 295c26 101 120 223 234 223c92 0 141 -78 141 -163c0 -129 -111 -290 -249 -290c-62 0 -110 43 -127 102c-11 -54 -22 -106 -22 -141c0 -63 67 -63 119 -63c36 0 105 0 138 -10c16 -8 23 -22 23 -40c0 -9 0 -28 -12 -31h-12c-4 0 -8 6 -8 10v5
c-2 9 -31 9 -39 9c-34 0 -67 -5 -101 -5c-72 0 -140 11 -140 99zM256 15c115 0 173 219 173 307c0 43 -18 94 -68 94c-117 0 -178 -208 -178 -301c0 -45 19 -100 73 -100z" />
    <glyph glyph-name="sigma1" unicode="&#xf026;" horiz-adv-x="362" 
d="M161 -83c1 7 6 13 14 13c7 0 31 -12 52 -12c25 0 41 28 41 51c0 20 -12 36 -30 45l-131 73c-46 25 -76 74 -76 127c0 134 150 228 272 228c21 0 105 -5 105 -33c0 -10 -9 -20 -19 -20c-8 0 -53 27 -88 27c-92 0 -214 -68 -214 -171c0 -39 24 -73 58 -91l140 -78
c27 -15 42 -43 42 -74c0 -54 -45 -110 -101 -110c-15 0 -65 7 -65 25z" />
    <glyph glyph-name="phi1" unicode="&#xf027;" horiz-adv-x="654" 
d="M163 -190c0 5 1 8 2 12l56 176c-94 23 -171 90 -171 192c0 73 45 184 95 238c2 1 4 3 6 3h12c5 0 9 -5 9 -9c0 -2 -1 -5 -2 -6c-44 -47 -91 -150 -91 -215c0 -86 86 -130 160 -144l28 90c34 108 99 295 237 295c79 0 114 -67 114 -138c0 -162 -156 -315 -318 -315
c-11 0 -21 1 -32 1l-33 -174c-4 -19 -21 -34 -42 -34c-16 0 -30 11 -30 28zM279 52c11 -1 21 -1 32 -1c122 0 275 98 275 230c0 55 -35 99 -92 99c-114 0 -181 -143 -198 -237z" />
    <glyph glyph-name="arrowlefttophalf" unicode="&#xf028;" horiz-adv-x="1000" 
d="M55 239v13c0 3 3 6 6 8c96 54 168 141 208 244c1 4 5 7 9 7h20c7 0 10 -7 10 -13c-31 -89 -86 -169 -161 -228h778c11 0 19 -10 19 -20s-8 -20 -19 -20h-860c-4 0 -10 5 -10 9z" />
    <glyph glyph-name="arrowleftbothalf" unicode="&#xf029;" horiz-adv-x="1000" 
d="M268 -2c-39 102 -112 189 -207 243c-3 1 -6 4 -6 7v13c0 4 6 9 10 9h860c11 0 19 -10 19 -20s-8 -20 -19 -20h-778c75 -59 130 -138 161 -228c0 -6 -3 -13 -10 -13h-20c-5 0 -8 5 -10 9z" />
    <glyph glyph-name="arrowrighttophalf" unicode="&#xf02a;" horiz-adv-x="1000" 
d="M74 230c-11 0 -19 10 -19 20s8 20 19 20h778c-75 59 -130 139 -161 228c0 6 3 13 10 13h20c5 0 8 -5 10 -9c39 -102 112 -189 208 -242c2 -2 5 -5 5 -8v-13c0 -4 -6 -9 -10 -9h-860z" />
    <glyph glyph-name="arrowrightbothalf" unicode="&#xf02b;" horiz-adv-x="1000" 
d="M74 230c-11 0 -19 10 -19 20s8 20 19 20h860c4 0 10 -5 10 -9v-13c0 -3 -3 -6 -5 -7c-97 -55 -169 -142 -209 -245c-1 -4 -5 -7 -9 -7h-20c-7 0 -10 7 -10 13c31 90 86 169 161 228h-778z" />
    <glyph glyph-name="arrowhookleft" unicode="&#xf02c;" horiz-adv-x="277" 
d="M55 347c0 76 78 117 146 117c11 0 21 -8 21 -20c0 -10 -8 -20 -18 -20c-46 0 -109 -23 -109 -77s63 -77 109 -77c10 0 18 -10 18 -20c0 -12 -10 -20 -21 -20c-68 0 -146 41 -146 117z" />
    <glyph glyph-name="arrowhookright" unicode="&#xf02d;" horiz-adv-x="277" 
d="M55 250c0 10 8 20 19 20c45 0 108 23 108 77s-63 77 -108 77c-11 0 -19 10 -19 20c0 12 10 20 22 20c67 0 145 -41 145 -117s-78 -117 -145 -117c-12 0 -22 8 -22 20z" />
    <glyph glyph-name="zerooldstyle" unicode="&#xf030;" 
d="M250 -22c-150 0 -211 95 -211 235s58 240 211 240c152 0 210 -100 210 -240s-61 -235 -210 -235zM250 4c125 0 125 122 125 220s0 203 -125 203c-126 0 -126 -105 -126 -203s0 -220 126 -220z" />
    <glyph glyph-name="oneoldstyle" unicode="&#xf031;" 
d="M96 9v17c0 4 6 9 10 9c29 0 75 0 102 7c10 4 13 16 13 27v319c-38 -11 -79 -13 -118 -13c-5 0 -12 3 -12 9v17c0 5 6 8 10 9c62 0 124 6 176 42c2 1 4 1 6 1c5 0 12 -3 12 -9v-375c0 -11 3 -23 13 -27c27 -7 73 -7 102 -7c4 0 10 -5 10 -9v-17c0 -5 -7 -9 -11 -9
c-50 0 -101 3 -151 3s-100 -3 -151 -3c-4 0 -11 4 -11 9z" />
    <glyph glyph-name="twooldstyle" unicode="&#xf032;" 
d="M44 9v18c0 2 2 5 4 6l172 118c54 38 138 83 138 159c0 77 -78 108 -144 108c-41 0 -89 -14 -113 -51c20 -4 35 -19 35 -40c0 -22 -18 -40 -41 -40s-40 18 -40 40c0 92 105 126 181 126c90 0 214 -31 214 -143c0 -72 -64 -107 -120 -135l-38 -18c-13 -7 -25 -14 -38 -21
l-106 -63h86c53 0 144 -1 166 1c13 17 17 60 30 63h9c7 0 10 -7 10 -13l-28 -115c-1 -4 -5 -9 -10 -9h-357c-4 0 -10 5 -10 9z" />
    <glyph glyph-name="threeoldstyle" unicode="&#xf033;" 
d="M93 -115c32 -49 96 -69 152 -69c85 0 111 87 111 157s-27 157 -112 157h-69c-5 0 -9 4 -9 9v9c0 4 4 8 9 8l57 3c74 0 106 98 106 159c0 59 -30 106 -93 106c-48 0 -102 -16 -131 -56c2 0 4 1 6 1c28 0 50 -22 50 -51s-22 -50 -50 -50c-29 0 -51 21 -51 50
c0 91 97 135 176 135c77 0 185 -43 185 -134c0 -84 -64 -150 -140 -174c84 -15 167 -80 167 -172c0 -113 -106 -189 -212 -189c-91 0 -203 50 -203 155c0 31 24 54 55 54c30 0 54 -23 54 -54s-24 -55 -54 -55c-2 0 -4 1 -4 1z" />
    <glyph glyph-name="fouroldstyle" unicode="&#xf034;" 
d="M197 -185v17c0 4 6 9 10 9c16 0 73 0 82 10c5 6 5 16 5 24v125h-256c-4 0 -10 5 -10 9v22c0 3 1 5 3 7l302 421c3 3 7 5 11 5h16c6 0 11 -5 11 -11v-418h90c4 0 10 -5 10 -9v-17c0 -4 -6 -9 -10 -9h-90v-125c0 -8 1 -17 5 -24c9 -10 66 -10 82 -10c4 0 10 -5 10 -9v-17
c0 -5 -7 -9 -11 -9c-41 0 -83 3 -124 3c-42 0 -84 -3 -125 -3c-4 0 -11 4 -11 9zM62 35h238v331z" />
    <glyph glyph-name="fiveoldstyle" unicode="&#xf035;" 
d="M87 -84c21 -60 80 -100 143 -100c106 0 132 99 132 186c0 66 -9 186 -101 186c-102 0 -128 -74 -142 -77h-10c-4 0 -10 5 -10 9v325c0 4 5 8 9 8h3c45 -20 94 -31 143 -31c50 0 99 11 144 31h3c4 0 9 -4 9 -8v-9c0 -2 -1 -5 -2 -5c-46 -57 -117 -91 -190 -91
c-28 0 -57 4 -84 12v-188c34 34 80 50 127 50c114 0 188 -108 188 -213c0 -120 -99 -217 -219 -217c-98 0 -180 82 -180 180c0 28 21 49 49 49s48 -21 48 -49s-20 -49 -48 -49c-4 0 -8 0 -12 1z" />
    <glyph glyph-name="sixoldstyle" unicode="&#xf036;" 
d="M250 -22c-175 0 -208 211 -208 345c0 151 90 343 263 343c69 0 126 -37 126 -111c0 -26 -19 -46 -45 -46c-27 0 -47 20 -47 46s20 47 47 47c1 0 4 -1 4 -1c-19 27 -54 36 -85 36c-62 0 -112 -46 -139 -98c-31 -63 -35 -136 -35 -205c24 53 68 95 128 95
c122 0 197 -110 197 -224c0 -119 -82 -227 -206 -227zM250 10c111 0 117 111 117 195c0 79 -3 198 -112 198c-89 0 -121 -103 -121 -176c0 -7 0 -14 1 -21c0 -2 -1 -3 -1 -5c0 -73 20 -191 116 -191z" />
    <glyph glyph-name="sevenoldstyle" unicode="&#xf037;" 
d="M175 -170c0 145 56 284 141 400l92 124h-125c-57 0 -152 0 -176 -4c-14 -25 -18 -56 -23 -84c-1 -4 -5 -9 -10 -9h-9c-7 0 -10 7 -10 13l34 184c1 4 5 9 10 9h9c6 0 10 -6 10 -11v-3c3 -18 147 -20 169 -20h188c4 0 10 -3 10 -7v-17c0 -1 -1 -2 -1 -3l-138 -186
c-78 -110 -79 -256 -79 -386c0 -26 -19 -46 -45 -46c-27 0 -47 20 -47 46z" />
    <glyph glyph-name="eightoldstyle" unicode="&#xf038;" 
d="M42 152c0 89 70 149 145 185l-42 26c-46 30 -76 81 -76 136c0 98 87 167 181 167c85 0 180 -54 180 -149c0 -74 -60 -125 -121 -156l61 -39c52 -34 87 -92 87 -155c0 -111 -101 -189 -207 -189c-100 0 -208 64 -208 174zM95 152c0 -83 76 -142 155 -142
c72 0 154 45 154 126c0 41 -26 77 -59 99l-132 84c-64 -30 -118 -94 -118 -167zM165 454l118 -76c52 29 100 76 100 139c0 71 -66 120 -134 120c-59 0 -133 -35 -133 -103c0 -34 22 -62 49 -80z" />
    <glyph glyph-name="nineoldstyle" unicode="&#xf039;" 
d="M113 -154c22 -25 62 -30 95 -30c58 0 102 43 127 92c30 62 32 132 32 200c-23 -52 -68 -93 -128 -93c-119 0 -197 104 -197 218c0 121 90 220 213 220c170 0 202 -204 202 -334c0 -143 -83 -335 -249 -335c-69 0 -141 29 -141 109c0 26 20 46 47 46c26 0 45 -20 45 -46
s-19 -47 -46 -47zM244 41c88 0 121 100 121 172c0 7 0 13 -1 19c0 2 1 3 1 4c0 71 -17 188 -110 188c-113 0 -124 -104 -124 -191c0 -80 5 -192 113 -192z" />
    <glyph glyph-name="partialdiff" unicode="&#xf040;" horiz-adv-x="530" 
d="M40 156c0 152 137 304 291 304c72 0 117 -49 130 -116c0 2 1 4 1 7c14 54 26 109 26 161c0 87 -41 175 -140 175c-57 0 -109 -27 -139 -76c2 0 5 1 7 1c21 0 38 -15 38 -37c0 -30 -26 -56 -56 -56c-21 0 -39 14 -39 36c0 34 31 84 54 107c36 36 86 54 137 54
c144 0 215 -129 215 -258c0 -181 -124 -480 -339 -480c-104 0 -186 72 -186 178zM121 118c0 -69 41 -108 108 -108c131 0 212 185 212 294c0 67 -32 130 -106 130c-72 0 -131 -49 -162 -111c-22 -44 -52 -157 -52 -205z" />
    <glyph glyph-name="flat" unicode="&#xf05b;" horiz-adv-x="388" 
d="M55 -13v754c0 4 6 9 10 9h9c4 0 10 -5 10 -9v-319c30 29 75 40 115 40c75 0 134 -65 134 -139c0 -157 -135 -264 -254 -344c-2 0 -4 -1 -5 -1h-9c-4 0 -10 5 -10 9zM84 20c85 80 164 181 164 303c0 37 -13 99 -60 99c-42 0 -104 -16 -104 -68v-334z" />
    <glyph glyph-name="natural" unicode="&#xf05c;" horiz-adv-x="388" 
d="M86 -85c-4 0 -11 4 -11 9v794c0 7 13 12 18 12c4 0 11 -4 11 -9v-282l195 77h3c4 0 11 -4 11 -9v-714c0 -7 -13 -12 -18 -12c-4 0 -11 4 -11 9v202l-194 -77h-4zM104 8l180 71v344l-180 -71v-344z" />
    <glyph glyph-name="sharp" unicode="&#xf05d;" horiz-adv-x="388" 
d="M96 -209v133l-26 -9h-4c-4 0 -11 4 -11 9v67c0 4 4 7 8 8l33 12v344l-26 -8c-2 -1 -3 -1 -4 -1c-4 0 -11 4 -11 9v67c0 4 4 7 8 9l33 11v210c0 7 13 11 18 11c4 0 11 -4 11 -9v-203l138 46v210c0 8 13 11 18 11c4 0 11 -4 11 -9v-202l27 9h3c4 0 11 -4 11 -9v-67
c0 -4 -4 -7 -7 -8l-34 -12v-344l27 9h3c4 0 12 -4 12 -9v-67c0 -4 -5 -7 -8 -8l-34 -12v-141c0 -7 -13 -11 -18 -11c-4 0 -11 4 -11 9v134l-138 -46v-141c0 -8 -13 -11 -18 -11c-4 0 -11 4 -11 9zM125 20l138 46v345l-138 -46v-345z" />
    <glyph glyph-name="slurbelow" unicode="&#xf05e;" horiz-adv-x="1000" 
d="M58 350c-2 3 -3 5 -3 9c0 8 7 14 15 14c4 0 9 -2 11 -6c95 -132 261 -185 419 -185c157 0 323 53 418 185c2 4 7 6 11 6c8 0 15 -6 15 -14c0 -4 -1 -7 -3 -9c-100 -141 -271 -217 -441 -217c-171 0 -342 76 -442 217z" />
    <glyph glyph-name="slurabove" unicode="&#xf05f;" horiz-adv-x="1000" 
d="M55 142c0 4 1 7 3 9c97 146 267 232 442 232c174 0 344 -86 441 -232c2 -3 3 -5 3 -9c0 -8 -7 -14 -15 -14c-4 0 -9 2 -11 6c-92 138 -258 200 -418 200c-161 0 -327 -62 -419 -200c-2 -4 -7 -6 -11 -6c-8 0 -15 6 -15 14z" />
    <glyph glyph-name="lscript" unicode="&#xf060;" horiz-adv-x="416" 
d="M24 74c-7 0 -14 9 -14 16s72 74 83 84c0 5 -1 9 -1 13c0 113 41 253 92 354c27 55 84 164 155 164c46 0 60 -38 60 -76c0 -159 -139 -324 -244 -431c-2 -21 -4 -41 -4 -61c0 -39 3 -126 57 -126c53 0 102 53 138 87c1 1 4 2 6 2c7 0 15 -10 15 -17c0 -3 -2 -5 -4 -7
c-42 -41 -94 -91 -157 -91c-79 0 -104 89 -111 153c-21 -21 -43 -42 -65 -62c-1 -2 -4 -2 -6 -2zM163 246c91 98 207 246 207 386c0 23 -4 47 -32 47c-80 0 -162 -363 -175 -433z" />
    <glyph glyph-name="weierstrass" unicode="&#xf07d;" horiz-adv-x="636" 
d="M142 -216c-51 0 -69 40 -69 85c0 62 25 151 47 209c-27 34 -38 60 -38 103c0 85 65 272 167 272c5 0 10 -4 10 -10c-1 -6 -2 -16 -10 -16c-70 0 -117 -159 -117 -217c0 -22 5 -43 19 -61c64 128 183 261 337 261c85 0 133 -73 133 -151c0 -120 -105 -270 -233 -270
c-49 0 -89 35 -89 85c0 21 5 48 30 48c12 0 20 -8 20 -20c0 -6 -2 -12 -6 -17c-3 -5 -8 -8 -15 -10c0 -35 27 -60 62 -60c109 0 165 190 165 277c0 43 -18 92 -69 92c-147 0 -259 -137 -316 -259l85 -109c14 -18 19 -41 19 -64c0 -68 -54 -168 -132 -168zM144 -190
c47 0 80 72 80 112c0 13 -3 27 -11 37l-72 93c-17 -50 -39 -133 -39 -185c0 -30 7 -57 42 -57z" />
    <glyph glyph-name="vector" unicode="&#xf07e;" 
d="M200 595c-10 0 -18 10 -18 20s8 20 18 20h354c-10 15 -25 41 -25 59c0 11 10 20 20 20s18 -7 20 -16c6 -25 20 -48 42 -63c8 -5 14 -10 14 -20c0 -6 -4 -14 -10 -17c-36 -18 -66 -43 -90 -75c-3 -5 -10 -7 -15 -7c-11 0 -20 9 -20 20c0 17 34 48 47 59h-337z" />
    <glyph glyph-name="kappa1" unicode="&#xf080;" horiz-adv-x="666" 
d="M55 22c1 11 7 18 16 24l125 84c32 43 90 161 90 214c0 4 0 15 -6 15c-31 0 -99 -6 -118 -33c-4 -5 -4 -14 -13 -14h-9c-7 0 -10 8 -10 13c17 68 97 107 162 107c27 0 29 -32 29 -52c0 -67 -38 -158 -72 -215l380 253c16 11 36 18 56 18c17 0 34 -8 34 -27
c-2 -11 -7 -18 -16 -24l-125 -84c-32 -43 -90 -161 -90 -214c0 -4 0 -15 6 -15c30 0 99 6 118 33c4 5 4 14 12 14h9c7 0 10 -8 10 -13c-17 -68 -96 -107 -162 -107c-26 0 -28 32 -28 52c0 67 38 158 72 215l-380 -253c-16 -11 -36 -18 -56 -18c-17 0 -34 8 -34 27z" />
    <glyph glyph-name="alpha" unicode="&#xf0ae;" horiz-adv-x="639" 
d="M201 -11c-97 0 -161 74 -161 169c0 139 127 284 270 284c107 0 170 -92 170 -192v-68c44 61 76 131 94 205c1 3 5 6 8 6h12c5 0 9 -5 9 -9c0 -2 0 -1 -1 -3c-22 -89 -64 -173 -123 -243c0 -21 0 -123 29 -123c43 0 53 52 63 55h12c5 0 8 -5 8 -10c0 -34 -50 -71 -85 -71
c-51 0 -81 37 -93 83c-59 -49 -133 -83 -212 -83zM203 15c77 0 149 37 205 88c-1 8 -1 16 -1 24l-1 108c0 67 -8 181 -98 181c-128 0 -191 -194 -191 -297c0 -53 27 -104 86 -104z" />
    <glyph glyph-name="beta" unicode="&#xf0af;" horiz-adv-x="565" 
d="M27 -194c-4 0 -8 6 -8 10l154 618c32 127 142 271 284 271c75 0 132 -53 132 -129c0 -71 -46 -137 -104 -174c45 -31 66 -85 66 -138c0 -138 -129 -279 -269 -279c-73 0 -140 42 -163 114l-72 -287c0 -3 -4 -6 -8 -6h-12zM284 11c126 0 190 188 190 291
c0 29 -8 59 -29 80c-21 -8 -44 -13 -67 -13c-21 0 -79 0 -79 27c0 35 65 35 90 35c20 0 40 -3 59 -10c47 37 75 124 75 182c0 42 -23 76 -68 76c-129 0 -225 -138 -254 -251l-55 -221c-4 -17 -6 -34 -7 -51c0 -84 60 -145 145 -145zM329 399c15 -4 34 -4 50 -4
c12 0 23 2 34 6c-1 1 -2 1 -4 1c-7 2 -15 3 -23 3c-14 0 -45 0 -57 -6z" />
    <glyph glyph-name="gamma" unicode="&#xf0b0;" horiz-adv-x="517" 
d="M295 -196c0 48 42 185 59 236c2 26 4 51 4 76c0 107 -23 250 -160 250c-66 0 -137 -44 -154 -111c-1 -3 -4 -6 -8 -6h-12c-5 0 -8 5 -8 9v3c22 88 100 180 197 180c131 0 174 -204 174 -304c37 99 80 196 129 291c1 1 5 3 7 3h12c5 0 8 -5 8 -9c0 -3 -1 -4 -2 -6
c-63 -122 -116 -248 -158 -378c-5 -38 -39 -250 -73 -254c-12 0 -15 12 -15 20z" />
    <glyph glyph-name="delta" unicode="&#xf0b1;" horiz-adv-x="444" 
d="M200 -15c-97 0 -160 76 -160 170c0 129 99 248 221 281c-28 53 -59 113 -59 174c0 62 47 102 109 102c32 0 77 -10 117 -19c13 -3 24 -12 24 -27c0 -22 -20 -44 -42 -44c-37 0 -70 55 -125 55c-25 0 -54 -17 -54 -45c0 -51 76 -139 109 -179c38 -49 61 -106 61 -167
c0 -111 -67 -301 -201 -301zM202 11c86 0 125 163 125 231c0 61 -24 116 -53 169c-111 -31 -168 -180 -168 -285c0 -59 30 -115 96 -115z" />
    <glyph glyph-name="epsilon1" unicode="&#xf0b2;" horiz-adv-x="405" 
d="M122 141c0 -66 36 -126 108 -126c51 0 113 43 117 43c8 0 12 -11 12 -18c0 -2 -1 -6 -3 -7c-37 -26 -82 -44 -127 -44c-110 0 -184 82 -184 189c0 141 123 253 261 253h57c8 0 15 -7 15 -15c0 -10 -9 -20 -19 -20h-55c-85 0 -138 -61 -161 -137h177c8 0 15 -7 15 -15
c0 -10 -9 -20 -19 -20h-182c-6 -28 -12 -56 -12 -83z" />
    <glyph glyph-name="zeta" unicode="&#xf0b3;" horiz-adv-x="437" 
d="M177 -156c1 7 6 12 14 12c7 0 42 -35 88 -35c31 0 50 35 50 63c0 31 -24 53 -52 63l-103 34c-85 29 -129 94 -129 183c0 159 122 361 263 433c-8 15 -10 32 -10 48c0 15 1 54 21 54c7 0 13 -6 13 -13c0 -11 -5 -27 -5 -42c0 -12 2 -24 6 -35c16 6 32 10 48 10
c22 0 92 0 92 -28c0 -34 -77 -34 -102 -34c-18 0 -36 6 -48 18c-118 -67 -219 -247 -219 -382c0 -69 32 -120 99 -142l107 -37c44 -14 75 -49 75 -97c0 -58 -46 -122 -108 -122c-24 0 -100 22 -100 49zM351 588c0 0 4 -2 9 -4c4 0 9 -1 13 -1c22 0 48 0 69 6
c-19 4 -42 4 -61 4c-10 0 -20 -2 -30 -5z" />
    <glyph glyph-name="eta" unicode="&#xf0b4;" horiz-adv-x="496" 
d="M107 -11c-16 0 -30 11 -30 28c0 3 0 6 1 9l75 298c4 17 7 34 7 49c0 19 -5 43 -29 43c-49 0 -67 -96 -76 -132c0 -3 -4 -6 -8 -6h-12c-4 0 -8 6 -8 10c13 54 34 154 105 154c48 0 97 -34 97 -84c36 50 89 84 153 84c68 0 116 -37 116 -108c0 -18 -3 -37 -8 -55l-116 -463
c-4 -18 -22 -32 -41 -32c-16 0 -30 11 -30 28c0 3 0 6 1 8l115 461c6 23 10 46 10 68c0 32 -11 67 -49 67c-78 0 -129 -57 -163 -121l-68 -273c-5 -19 -23 -33 -42 -33z" />
    <glyph glyph-name="theta" unicode="&#xf0b5;" horiz-adv-x="469" 
d="M161 -11c-99 0 -121 129 -121 206v1c0 102 31 215 76 306c39 77 122 203 218 203h1c100 0 123 -129 123 -206c0 -103 -33 -216 -78 -307c-38 -77 -121 -203 -218 -203h-1zM163 15c97 0 164 239 183 315h-204c-17 -67 -33 -135 -33 -198c0 -37 3 -117 54 -117zM150 365
h205c16 66 32 134 32 197c0 37 -2 117 -53 117c-98 0 -165 -239 -184 -314z" />
    <glyph glyph-name="iota" unicode="&#xf0b6;" horiz-adv-x="353" 
d="M54 72c0 13 3 26 8 39c37 99 63 199 88 299c5 18 22 32 42 32c16 0 30 -11 30 -29c0 -3 -1 -6 -2 -9c-25 -100 -51 -200 -88 -299c-8 -19 -12 -40 -12 -60c0 -15 3 -30 21 -30c73 0 140 63 157 132c1 3 5 6 8 6h12c5 0 9 -5 9 -9c0 -2 0 -1 -1 -3
c-20 -83 -101 -152 -187 -152c-48 0 -85 35 -85 83z" />
    <glyph glyph-name="kappa" unicode="&#xf0b7;" horiz-adv-x="576" 
d="M53 17c0 3 0 6 1 9l96 384c5 18 22 32 42 32c16 0 30 -11 30 -28c0 -3 -1 -6 -1 -8l-36 -145c103 34 175 170 290 170c21 0 38 -14 38 -37c0 -30 -26 -56 -57 -56c-21 0 -38 14 -38 37c0 6 1 13 4 19c-74 -30 -127 -102 -196 -140c66 0 189 -18 189 -106
c0 -9 0 -19 -3 -28c-5 -21 -8 -42 -9 -60c0 -21 6 -45 31 -45c55 0 76 90 86 132c1 3 5 6 8 6h12c5 0 9 -5 9 -9c0 -2 0 -1 -1 -3c-14 -57 -44 -152 -116 -152c-57 0 -95 44 -95 100c0 11 1 22 4 33c2 8 3 16 3 23c0 71 -115 83 -168 83l-51 -206c-5 -19 -23 -33 -42 -33
c-16 0 -30 11 -30 28z" />
    <glyph glyph-name="lambda" unicode="&#xf0b8;" horiz-adv-x="583" 
d="M51 17c0 11 5 21 13 28l281 276l-99 278c-11 29 -25 69 -62 69c-7 0 -11 7 -11 13c1 8 7 13 15 13c48 0 108 -11 127 -62l203 -567c7 -19 13 -42 27 -57c3 -3 6 -5 6 -10c0 -4 -4 -9 -9 -9h-54c-19 5 -33 26 -39 43l-92 256l-242 -284c-9 -9 -20 -17 -33 -17
c-16 0 -31 13 -31 30z" />
    <glyph glyph-name="rho" unicode="&#xf0bd;" horiz-adv-x="517" 
d="M28 -188c0 3 0 6 1 8l99 399c26 102 120 223 235 223c91 0 140 -78 140 -163c0 -129 -111 -290 -249 -290c-42 0 -77 26 -96 63l-59 -236c-4 -18 -22 -32 -41 -32c-16 0 -30 11 -30 28zM256 15c115 0 173 218 173 307c0 43 -18 94 -68 94c-94 0 -144 -129 -163 -203
l-27 -112c7 -44 36 -86 85 -86z" />
    <glyph glyph-name="sigma" unicode="&#xf0be;" horiz-adv-x="571" 
d="M187 -11c-91 0 -151 70 -151 158c0 128 121 284 255 284h252c15 0 26 -11 26 -25c0 -19 -17 -37 -36 -37h-123c21 -31 31 -68 31 -104c0 -133 -116 -276 -254 -276zM188 15c118 0 184 163 184 262c0 57 -33 92 -90 92c-124 0 -180 -148 -180 -251c0 -53 28 -103 86 -103z
" />
    <glyph glyph-name="tau" unicode="&#xf0bf;" horiz-adv-x="437" 
d="M156 15c0 4 0 7 1 11l105 343h-90c-52 0 -96 -39 -121 -81c-1 -2 -4 -4 -6 -4h-12c-5 0 -9 5 -9 10c0 2 1 4 2 6c32 54 83 131 154 131h307c15 0 26 -11 26 -25c0 -19 -17 -37 -37 -37h-181l-67 -345c-5 -21 -20 -37 -42 -37c-16 0 -30 12 -30 28z" />
    <glyph glyph-name="upsilon" unicode="&#xf0c0;" horiz-adv-x="540" 
d="M108 121c0 63 37 146 59 205c7 19 13 40 13 60c0 15 -4 30 -22 30c-59 0 -91 -84 -103 -132c-1 -3 -4 -6 -8 -6h-12c-5 0 -8 5 -8 9v3c16 62 58 152 133 152c47 0 86 -35 86 -83c0 -13 -4 -26 -9 -39c-23 -61 -60 -145 -60 -210c0 -61 38 -95 98 -95
c105 0 202 176 202 266c0 34 -13 54 -25 70c-13 15 -26 26 -26 40c0 26 26 52 52 52c36 0 45 -43 45 -72c0 -128 -94 -382 -249 -382c-87 0 -166 33 -166 132z" />
    <glyph glyph-name="phi" unicode="&#xf0c1;" horiz-adv-x="595" 
d="M194 -195l45 181c-101 0 -192 77 -192 182c0 148 166 277 307 277l60 243c1 3 5 6 8 6h12c5 0 9 -6 9 -10l-60 -239c101 0 192 -77 192 -182c0 -148 -167 -277 -307 -277l-46 -185c-1 -3 -4 -6 -8 -6h-12c-5 0 -8 6 -8 10zM245 12l102 407c-51 0 -115 -36 -150 -72
c-51 -51 -81 -128 -81 -200c0 -76 52 -135 129 -135zM275 12c51 0 115 36 150 72c51 51 81 128 81 200c0 76 -52 135 -129 135z" />
    <glyph glyph-name="chi" unicode="&#xf0c2;" horiz-adv-x="625" 
d="M43 -194c-7 0 -14 6 -14 13c0 4 2 8 4 10l245 272c-14 51 -87 315 -139 315c-43 0 -52 -51 -62 -54h-12c-4 0 -8 5 -8 10c0 34 51 70 86 70c47 0 97 -15 119 -60c33 -68 55 -141 76 -215l233 259c3 3 7 5 11 5c8 0 14 -6 14 -13c0 -4 -1 -8 -4 -10l-245 -272
c14 -51 87 -315 139 -315c43 0 52 51 62 54h12c5 0 8 -5 8 -10c0 -34 -51 -70 -85 -70c-48 0 -98 15 -120 60c-32 68 -55 141 -76 215l-232 -259c-3 -3 -8 -5 -12 -5z" />
    <glyph glyph-name="psi" unicode="&#xf0c3;" horiz-adv-x="651" 
d="M238 -195l47 184c-85 0 -175 49 -175 144c0 55 37 141 57 193c7 19 13 40 13 60c0 15 -4 30 -22 30c-59 0 -91 -84 -103 -132c-1 -3 -4 -6 -8 -6h-12c-5 0 -8 5 -8 9v3c16 62 58 152 133 152c47 0 86 -35 86 -83c0 -13 -4 -26 -9 -39c-20 -53 -56 -138 -56 -194
c0 -69 47 -101 110 -109l168 671c1 3 4 6 8 6h12c5 0 8 -6 8 -10l-167 -669h11c118 0 257 152 257 266c0 34 -13 54 -25 70c-13 15 -26 26 -26 40c0 26 26 52 52 52c36 0 45 -43 45 -72c0 -44 -12 -87 -22 -128c-16 -62 -51 -119 -96 -164c-49 -49 -115 -90 -186 -90h-16
l-47 -188c-1 -3 -5 -6 -8 -6h-12c-5 0 -9 6 -9 10z" />
    <glyph glyph-name="tie" unicode="&#xf0c4;" horiz-adv-x="277" 
d="M269 538c-4 0 -8 5 -8 10v3c21 82 148 114 221 114c61 0 170 -23 170 -101c0 -8 0 -26 -11 -26h-12c-4 0 -8 6 -8 11c1 4 1 8 2 11c0 56 -104 70 -145 70c-55 0 -173 -22 -189 -85c0 -3 -4 -7 -8 -7h-12z" />
  </font>
</defs>
</svg>
