<?xml version="1.0" standalone="no"?>
<!DOCTYPE svg PUBLIC "-//W3C//DTD SVG 1.1//EN" "http://www.w3.org/Graphics/SVG/1.1/DTD/svg11.dtd" >
<svg xmlns="http://www.w3.org/2000/svg" xmlns:xlink="http://www.w3.org/1999/xlink" version="1.1">
<metadata>
Created by FontForge 20200314 at Sat Aug 16 14:06:46 2003
 By 藤本　誠
Removed
</metadata>
<defs>
<font id="msbm10" horiz-adv-x="777" >
  <font-face 
    font-family="BKM-msbm10"
    font-weight="400"
    font-stretch="normal"
    units-per-em="1000"
    panose-1="2 11 5 1 1 1 1 1 1 1"
    ascent="800"
    descent="-200"
    cap-height="685"
    bbox="-55 -420 2344 920"
    underline-thickness="10"
    underline-position="-30"
    stemh="40"
    stemv="35"
    unicode-range="U+0041-F0C4"
  />
<missing-glyph horiz-adv-x="750" 
 />
    <glyph glyph-name=".notdef" horiz-adv-x="750" 
 />
    <glyph glyph-name="A" unicode="A" horiz-adv-x="722" 
d="M33 0c-9 2 -16 8 -16 18c0 8 7 17 16 17c28 0 52 18 62 44l236 615c2 6 9 10 16 10c6 0 13 -4 16 -10l259 -594c12 -27 30 -65 65 -65c9 -2 16 -8 16 -17s-7 -18 -16 -18h-296c-9 2 -16 8 -16 18c0 8 7 17 16 17c15 0 64 14 64 31c0 34 -25 98 -37 131h-220
c-7 -32 -14 -65 -14 -98c0 -32 6 -64 45 -64c8 -2 16 -8 16 -17s-8 -18 -16 -18h-196zM109 35h54c-11 20 -14 42 -14 64c0 9 2 17 2 26l-22 -55c-5 -13 -11 -25 -20 -35zM477 35h143c-13 15 -22 33 -30 51l-242 554l-37 -96c39 -79 179 -408 179 -478c0 -13 -4 -22 -13 -31z
M207 232h198c-34 86 -71 172 -109 258c-33 -88 -67 -180 -89 -258z" />
    <glyph glyph-name="A" unicode="&#xf041;" horiz-adv-x="722" 
d="M33 0c-9 2 -16 8 -16 18c0 8 7 17 16 17c28 0 52 18 62 44l236 615c2 6 9 10 16 10c6 0 13 -4 16 -10l259 -594c12 -27 30 -65 65 -65c9 -2 16 -8 16 -17s-7 -18 -16 -18h-296c-9 2 -16 8 -16 18c0 8 7 17 16 17c15 0 64 14 64 31c0 34 -25 98 -37 131h-220
c-7 -32 -14 -65 -14 -98c0 -32 6 -64 45 -64c8 -2 16 -8 16 -17s-8 -18 -16 -18h-196zM109 35h54c-11 20 -14 42 -14 64c0 9 2 17 2 26l-22 -55c-5 -13 -11 -25 -20 -35zM477 35h143c-13 15 -22 33 -30 51l-242 554l-37 -96c39 -79 179 -408 179 -478c0 -13 -4 -22 -13 -31z
M207 232h198c-34 86 -71 172 -109 258c-33 -88 -67 -180 -89 -258z" />
    <glyph glyph-name="B" unicode="B" horiz-adv-x="666" 
d="M25 0c-9 0 -16 9 -16 18s7 15 16 17h3c58 0 77 0 77 59v497c0 59 -21 59 -80 59c-9 0 -16 9 -16 18s7 15 16 17h313c121 0 245 -25 245 -174c0 -66 -57 -117 -112 -144c87 -24 150 -88 150 -181c0 -143 -169 -186 -283 -186h-313zM131 35h109c-8 11 -13 24 -13 38v539
c0 14 5 27 13 38h-109c8 -18 9 -37 9 -57v-501c0 -19 0 -39 -9 -57zM262 75c0 -28 32 -40 56 -40c96 0 131 64 131 151c0 97 -27 151 -132 151h-55v-262zM439 46c71 17 147 57 147 140c0 92 -74 142 -157 155c46 -36 55 -100 55 -155c0 -49 -10 -103 -45 -140zM262 372
c102 0 156 31 156 139c0 62 -25 139 -100 139c-24 0 -56 -12 -56 -40v-238zM412 384c57 13 136 60 136 127c0 92 -56 125 -140 135c34 -35 45 -88 45 -135c0 -45 -8 -94 -41 -127z" />
    <glyph glyph-name="B" unicode="&#xf042;" horiz-adv-x="666" 
d="M25 0c-9 0 -16 9 -16 18s7 15 16 17h3c58 0 77 0 77 59v497c0 59 -21 59 -80 59c-9 0 -16 9 -16 18s7 15 16 17h313c121 0 245 -25 245 -174c0 -66 -57 -117 -112 -144c87 -24 150 -88 150 -181c0 -143 -169 -186 -283 -186h-313zM131 35h109c-8 11 -13 24 -13 38v539
c0 14 5 27 13 38h-109c8 -18 9 -37 9 -57v-501c0 -19 0 -39 -9 -57zM262 75c0 -28 32 -40 56 -40c96 0 131 64 131 151c0 97 -27 151 -132 151h-55v-262zM439 46c71 17 147 57 147 140c0 92 -74 142 -157 155c46 -36 55 -100 55 -155c0 -49 -10 -103 -45 -140zM262 372
c102 0 156 31 156 139c0 62 -25 139 -100 139c-24 0 -56 -12 -56 -40v-238zM412 384c57 13 136 60 136 127c0 92 -56 125 -140 135c34 -35 45 -88 45 -135c0 -45 -8 -94 -41 -127z" />
    <glyph glyph-name="C" unicode="C" horiz-adv-x="722" 
d="M392 -19c-216 0 -355 148 -355 362c0 213 139 361 355 361c38 0 77 -8 112 -24c28 -13 58 -22 89 -22c16 0 29 13 29 30c0 9 9 16 18 16c8 0 17 -7 17 -16v-200c0 -10 -9 -17 -17 -17s-16 5 -17 13c-21 90 -139 185 -231 185c-146 0 -179 -216 -179 -327
c0 -127 27 -313 192 -313c94 0 185 42 245 114c5 4 8 7 14 7c11 0 21 -10 21 -20c0 -4 -1 -8 -3 -11c-71 -87 -178 -138 -290 -138zM285 31c-92 68 -107 206 -107 312c0 101 18 229 91 306c-135 -49 -197 -168 -197 -306c0 -147 68 -268 213 -312zM622 567v63
c-5 -3 -8 -4 -11 -5c-6 -1 -11 -2 -17 -2c-8 0 -15 0 -23 1c19 -17 37 -36 51 -57z" />
    <glyph glyph-name="C" unicode="&#xf043;" horiz-adv-x="722" 
d="M392 -19c-216 0 -355 148 -355 362c0 213 139 361 355 361c38 0 77 -8 112 -24c28 -13 58 -22 89 -22c16 0 29 13 29 30c0 9 9 16 18 16c8 0 17 -7 17 -16v-200c0 -10 -9 -17 -17 -17s-16 5 -17 13c-21 90 -139 185 -231 185c-146 0 -179 -216 -179 -327
c0 -127 27 -313 192 -313c94 0 185 42 245 114c5 4 8 7 14 7c11 0 21 -10 21 -20c0 -4 -1 -8 -3 -11c-71 -87 -178 -138 -290 -138zM285 31c-92 68 -107 206 -107 312c0 101 18 229 91 306c-135 -49 -197 -168 -197 -306c0 -147 68 -268 213 -312zM622 567v63
c-5 -3 -8 -4 -11 -5c-6 -1 -11 -2 -17 -2c-8 0 -15 0 -23 1c19 -17 37 -36 51 -57z" />
    <glyph glyph-name="D" unicode="D" horiz-adv-x="722" 
d="M32 0c-9 0 -16 9 -16 18s7 15 16 17h3c56 0 64 1 64 59v499c0 57 -12 57 -67 57c-9 0 -16 9 -16 18s7 15 16 17h306c198 0 353 -122 353 -329c0 -211 -140 -356 -353 -356h-306zM126 35h114c-8 11 -13 24 -13 38v539c0 14 5 27 13 38h-114c8 -18 8 -38 8 -57v-501
c0 -19 0 -39 -8 -57zM262 75c0 -28 33 -40 56 -40c171 0 197 189 197 321c0 117 -40 294 -188 294c-24 0 -65 -9 -65 -40v-535zM463 57c131 48 193 164 193 299s-70 235 -199 276c73 -71 93 -178 93 -276c0 -100 -12 -225 -87 -299z" />
    <glyph glyph-name="D" unicode="&#xf044;" horiz-adv-x="722" 
d="M32 0c-9 0 -16 9 -16 18s7 15 16 17h3c56 0 64 1 64 59v499c0 57 -12 57 -67 57c-9 0 -16 9 -16 18s7 15 16 17h306c198 0 353 -122 353 -329c0 -211 -140 -356 -353 -356h-306zM126 35h114c-8 11 -13 24 -13 38v539c0 14 5 27 13 38h-114c8 -18 8 -38 8 -57v-501
c0 -19 0 -39 -8 -57zM262 75c0 -28 33 -40 56 -40c171 0 197 189 197 321c0 117 -40 294 -188 294c-24 0 -65 -9 -65 -40v-535zM463 57c131 48 193 164 193 299s-70 235 -199 276c73 -71 93 -178 93 -276c0 -100 -12 -225 -87 -299z" />
    <glyph glyph-name="E" unicode="E" horiz-adv-x="666" 
d="M30 0c-9 2 -16 8 -16 18c0 9 7 15 16 17h3c57 0 69 0 69 59v499c0 57 -16 57 -72 57c-9 2 -16 8 -16 18c0 8 7 17 16 17h547c8 -2 16 -7 16 -16v-163c0 -10 -9 -17 -17 -17c-9 0 -18 7 -18 17c0 104 -121 144 -207 144h-62c-26 0 -30 -40 -30 -59v-220
c96 0 160 44 160 145c0 9 9 17 18 17c8 0 17 -8 17 -17v-303c0 -9 -9 -16 -17 -16c-9 0 -18 7 -18 16c0 98 -76 123 -160 123v-242c0 -19 4 -59 30 -59h71c90 0 228 57 245 157c1 8 9 13 17 13c9 0 17 -8 17 -17v-5l-28 -170c-2 -7 -9 -13 -16 -13h-565zM128 35h108
c-8 18 -12 37 -12 57v501c0 20 4 39 12 57h-108c8 -18 9 -37 9 -57v-501c0 -19 -1 -39 -9 -57zM506 35h73l9 57c-24 -24 -52 -40 -82 -57zM362 356c22 -9 42 -23 57 -41v86c-15 -19 -35 -35 -57 -45zM500 650c22 -13 42 -29 58 -49v49h-58z" />
    <glyph glyph-name="E" unicode="&#xf045;" horiz-adv-x="666" 
d="M30 0c-9 2 -16 8 -16 18c0 9 7 15 16 17h3c57 0 69 0 69 59v499c0 57 -16 57 -72 57c-9 2 -16 8 -16 18c0 8 7 17 16 17h547c8 -2 16 -7 16 -16v-163c0 -10 -9 -17 -17 -17c-9 0 -18 7 -18 17c0 104 -121 144 -207 144h-62c-26 0 -30 -40 -30 -59v-220
c96 0 160 44 160 145c0 9 9 17 18 17c8 0 17 -8 17 -17v-303c0 -9 -9 -16 -17 -16c-9 0 -18 7 -18 16c0 98 -76 123 -160 123v-242c0 -19 4 -59 30 -59h71c90 0 228 57 245 157c1 8 9 13 17 13c9 0 17 -8 17 -17v-5l-28 -170c-2 -7 -9 -13 -16 -13h-565zM128 35h108
c-8 18 -12 37 -12 57v501c0 20 4 39 12 57h-108c8 -18 9 -37 9 -57v-501c0 -19 -1 -39 -9 -57zM506 35h73l9 57c-24 -24 -52 -40 -82 -57zM362 356c22 -9 42 -23 57 -41v86c-15 -19 -35 -35 -57 -45zM500 650c22 -13 42 -29 58 -49v49h-58z" />
    <glyph glyph-name="F" unicode="F" horiz-adv-x="611" 
d="M30 0c-9 2 -16 8 -16 18c0 9 7 15 16 17h3c57 0 69 0 69 59v499c0 57 -16 57 -72 57c-9 2 -16 8 -16 18c0 8 7 17 16 17h537c8 -2 16 -7 16 -16v-163c0 -10 -9 -17 -17 -17c-9 0 -18 7 -18 17c0 100 -111 144 -197 144h-62c-26 0 -30 -40 -30 -59v-220
c94 0 149 50 149 145c0 9 9 17 18 17c8 0 17 -8 17 -17v-303c0 -9 -9 -16 -17 -16c-9 0 -18 7 -18 16c0 92 -66 123 -149 123v-242c0 -25 0 -49 27 -55c20 -4 47 -4 68 -4c9 -2 16 -8 16 -17s-7 -18 -16 -18h-324zM128 35h106c-9 18 -10 37 -10 57v501c0 20 4 39 12 57h-108
c8 -18 9 -37 9 -57v-501c0 -19 -1 -39 -9 -57zM354 356c21 -9 39 -22 54 -39v82c-14 -19 -33 -33 -54 -43zM493 650c21 -12 40 -28 55 -48v48h-55z" />
    <glyph glyph-name="F" unicode="&#xf046;" horiz-adv-x="611" 
d="M30 0c-9 2 -16 8 -16 18c0 9 7 15 16 17h3c57 0 69 0 69 59v499c0 57 -16 57 -72 57c-9 2 -16 8 -16 18c0 8 7 17 16 17h537c8 -2 16 -7 16 -16v-163c0 -10 -9 -17 -17 -17c-9 0 -18 7 -18 17c0 100 -111 144 -197 144h-62c-26 0 -30 -40 -30 -59v-220
c94 0 149 50 149 145c0 9 9 17 18 17c8 0 17 -8 17 -17v-303c0 -9 -9 -16 -17 -16c-9 0 -18 7 -18 16c0 92 -66 123 -149 123v-242c0 -25 0 -49 27 -55c20 -4 47 -4 68 -4c9 -2 16 -8 16 -17s-7 -18 -16 -18h-324zM128 35h106c-9 18 -10 37 -10 57v501c0 20 4 39 12 57h-108
c8 -18 9 -37 9 -57v-501c0 -19 -1 -39 -9 -57zM354 356c21 -9 39 -22 54 -39v82c-14 -19 -33 -33 -54 -43zM493 650c21 -12 40 -28 55 -48v48h-55z" />
    <glyph glyph-name="G" unicode="G" 
d="M392 -19c-216 0 -355 148 -355 362c0 213 139 361 355 361c38 0 77 -8 111 -24c28 -13 58 -22 89 -22c16 0 29 13 29 30c0 9 9 16 18 16c8 0 17 -7 17 -16v-200c0 -10 -9 -17 -17 -17s-16 5 -17 13c-20 90 -138 185 -230 185c-146 0 -179 -217 -179 -327
c0 -119 19 -326 179 -326c34 0 120 0 120 47v115c0 46 -43 77 -86 77c-9 0 -16 9 -16 17c0 10 7 16 16 18h307c8 0 16 -10 16 -18c0 -10 -8 -16 -16 -17c-42 0 -67 -39 -67 -77v-117c0 -6 -4 -12 -9 -14c-82 -42 -172 -66 -265 -66zM543 38c30 9 59 20 88 34v108
c0 27 9 54 26 75h-143c20 -20 33 -47 33 -75v-119c0 -8 -2 -16 -4 -23zM256 41c-67 76 -78 204 -78 302c0 101 18 229 91 306c-135 -49 -197 -168 -197 -306c0 -132 57 -250 184 -302zM621 568v62c-5 -3 -8 -4 -11 -5c-6 -1 -11 -2 -17 -2c-8 0 -15 0 -22 1
c18 -17 36 -36 50 -56z" />
    <glyph glyph-name="G" unicode="&#xf047;" 
d="M392 -19c-216 0 -355 148 -355 362c0 213 139 361 355 361c38 0 77 -8 111 -24c28 -13 58 -22 89 -22c16 0 29 13 29 30c0 9 9 16 18 16c8 0 17 -7 17 -16v-200c0 -10 -9 -17 -17 -17s-16 5 -17 13c-20 90 -138 185 -230 185c-146 0 -179 -217 -179 -327
c0 -119 19 -326 179 -326c34 0 120 0 120 47v115c0 46 -43 77 -86 77c-9 0 -16 9 -16 17c0 10 7 16 16 18h307c8 0 16 -10 16 -18c0 -10 -8 -16 -16 -17c-42 0 -67 -39 -67 -77v-117c0 -6 -4 -12 -9 -14c-82 -42 -172 -66 -265 -66zM543 38c30 9 59 20 88 34v108
c0 27 9 54 26 75h-143c20 -20 33 -47 33 -75v-119c0 -8 -2 -16 -4 -23zM256 41c-67 76 -78 204 -78 302c0 101 18 229 91 306c-135 -49 -197 -168 -197 -306c0 -132 57 -250 184 -302zM621 568v62c-5 -3 -8 -4 -11 -5c-6 -1 -11 -2 -17 -2c-8 0 -15 0 -22 1
c18 -17 36 -36 50 -56z" />
    <glyph glyph-name="H" unicode="H" 
d="M33 0c-9 2 -16 8 -16 18c0 9 7 15 16 17h3c57 0 69 0 69 59v499c0 57 -16 57 -72 57c-9 2 -16 8 -16 18c0 8 7 17 16 17h307c9 -2 16 -8 16 -17c0 -10 -7 -16 -16 -18h-3c-57 0 -69 0 -69 -59v-221h242v223c0 57 -16 57 -72 57c-9 2 -16 8 -16 18c0 8 7 17 16 17h307
c9 -2 16 -8 16 -17c0 -10 -7 -16 -16 -18h-3c-57 0 -69 0 -69 -59v-499c0 -57 16 -57 72 -57c9 -2 16 -8 16 -17s-7 -18 -16 -18h-307c-9 2 -16 8 -16 18c0 9 7 15 16 17h3c57 0 69 0 69 59v230h-242v-232c0 -57 16 -57 72 -57c9 -2 16 -8 16 -17s-7 -18 -16 -18h-307z
M131 35h111c-8 18 -9 38 -9 57v501c0 20 1 39 9 57h-111c8 -18 9 -37 9 -57v-501c0 -19 -1 -39 -9 -57zM536 35h111c-8 18 -9 38 -9 57v501c0 20 1 39 9 57h-111c8 -18 9 -37 9 -57v-501c0 -19 -1 -39 -9 -57z" />
    <glyph glyph-name="H" unicode="&#xf048;" 
d="M33 0c-9 2 -16 8 -16 18c0 9 7 15 16 17h3c57 0 69 0 69 59v499c0 57 -16 57 -72 57c-9 2 -16 8 -16 18c0 8 7 17 16 17h307c9 -2 16 -8 16 -17c0 -10 -7 -16 -16 -18h-3c-57 0 -69 0 -69 -59v-221h242v223c0 57 -16 57 -72 57c-9 2 -16 8 -16 18c0 8 7 17 16 17h307
c9 -2 16 -8 16 -17c0 -10 -7 -16 -16 -18h-3c-57 0 -69 0 -69 -59v-499c0 -57 16 -57 72 -57c9 -2 16 -8 16 -17s-7 -18 -16 -18h-307c-9 2 -16 8 -16 18c0 9 7 15 16 17h3c57 0 69 0 69 59v230h-242v-232c0 -57 16 -57 72 -57c9 -2 16 -8 16 -17s-7 -18 -16 -18h-307z
M131 35h111c-8 18 -9 38 -9 57v501c0 20 1 39 9 57h-111c8 -18 9 -37 9 -57v-501c0 -19 -1 -39 -9 -57zM536 35h111c-8 18 -9 38 -9 57v501c0 20 1 39 9 57h-111c8 -18 9 -37 9 -57v-501c0 -19 -1 -39 -9 -57z" />
    <glyph glyph-name="I" unicode="I" horiz-adv-x="388" 
d="M36 0c-9 2 -16 8 -16 18c0 8 7 17 16 17c59 0 77 0 77 59v499c0 57 -20 57 -77 57c-9 2 -16 8 -16 18c0 8 7 17 16 17h317c9 -2 16 -8 16 -17s-7 -18 -16 -18c-59 0 -77 0 -77 -59v-497c0 -59 18 -59 77 -59c9 -2 16 -8 16 -17s-7 -18 -16 -18h-317zM139 35h111
c-9 18 -9 38 -9 57v501c0 20 1 39 9 57h-111c9 -18 9 -38 9 -57v-501c0 -20 -1 -39 -9 -57z" />
    <glyph glyph-name="I" unicode="&#xf049;" horiz-adv-x="388" 
d="M36 0c-9 2 -16 8 -16 18c0 8 7 17 16 17c59 0 77 0 77 59v499c0 57 -20 57 -77 57c-9 2 -16 8 -16 18c0 8 7 17 16 17h317c9 -2 16 -8 16 -17s-7 -18 -16 -18c-59 0 -77 0 -77 -59v-497c0 -59 18 -59 77 -59c9 -2 16 -8 16 -17s-7 -18 -16 -18h-317zM139 35h111
c-9 18 -9 38 -9 57v501c0 20 1 39 9 57h-111c9 -18 9 -38 9 -57v-501c0 -20 -1 -39 -9 -57z" />
    <glyph glyph-name="J" unicode="J" horiz-adv-x="500" 
d="M6 37c0 39 34 69 72 69s72 -30 72 -69c0 -40 -28 -53 -28 -67c0 -9 33 -10 41 -10c33 0 62 27 62 60v573c0 57 -29 57 -86 57c-9 2 -16 8 -16 18c0 8 7 17 16 17h321c9 -2 16 -8 16 -17c0 -10 -7 -16 -16 -18h-3c-57 0 -69 0 -69 -59v-480c0 -134 -100 -186 -221 -186
c-68 0 -161 30 -161 112zM245 -31c72 19 108 70 108 144v480c0 20 1 39 9 57h-112c9 -18 10 -37 10 -57v-575c0 -18 -6 -35 -15 -49zM87 -24c4 29 28 34 28 61c0 20 -18 34 -37 34s-37 -14 -37 -34c0 -29 21 -50 46 -61z" />
    <glyph glyph-name="J" unicode="&#xf04a;" horiz-adv-x="500" 
d="M6 37c0 39 34 69 72 69s72 -30 72 -69c0 -40 -28 -53 -28 -67c0 -9 33 -10 41 -10c33 0 62 27 62 60v573c0 57 -29 57 -86 57c-9 2 -16 8 -16 18c0 8 7 17 16 17h321c9 -2 16 -8 16 -17c0 -10 -7 -16 -16 -18h-3c-57 0 -69 0 -69 -59v-480c0 -134 -100 -186 -221 -186
c-68 0 -161 30 -161 112zM245 -31c72 19 108 70 108 144v480c0 20 1 39 9 57h-112c9 -18 10 -37 10 -57v-575c0 -18 -6 -35 -15 -49zM87 -24c4 29 28 34 28 61c0 20 -18 34 -37 34s-37 -14 -37 -34c0 -29 21 -50 46 -61z" />
    <glyph glyph-name="K" unicode="K" 
d="M40 0c-9 0 -16 9 -16 18s7 15 16 17h3c57 0 69 0 69 59v499c0 57 -16 57 -72 57c-9 0 -16 9 -16 18s7 15 16 17h307c9 0 16 -9 16 -17c0 -10 -7 -16 -16 -18h-3c-57 0 -69 0 -69 -59v-249l217 209c13 13 22 31 22 50c0 25 -17 49 -44 49c-9 0 -16 9 -16 18s7 15 16 17
h245c9 0 16 -9 16 -17c0 -10 -7 -16 -16 -18c-66 0 -146 -83 -192 -127l-110 -106l261 -313c18 -22 51 -69 79 -69c9 0 16 -9 16 -17c0 -10 -7 -16 -16 -18h-257c-9 0 -16 9 -16 18s7 15 16 17c4 0 26 1 26 6c0 11 -20 33 -28 42l-191 228l-28 -27v-192c0 -57 16 -57 72 -57
c9 0 16 -9 16 -17c0 -10 -7 -16 -16 -18h-307zM138 35h111c-8 18 -9 38 -9 57v501c0 20 1 39 9 57h-111c8 -18 9 -37 9 -57v-501c0 -19 -1 -39 -9 -57zM522 104c15 -18 35 -39 35 -63v-6h131c-14 15 -30 33 -42 48l-258 310l-59 -57zM548 594c22 20 45 39 70 56h-84
c10 -15 15 -32 15 -49c0 -2 -1 -5 -1 -7z" />
    <glyph glyph-name="K" unicode="&#xf04b;" 
d="M40 0c-9 0 -16 9 -16 18s7 15 16 17h3c57 0 69 0 69 59v499c0 57 -16 57 -72 57c-9 0 -16 9 -16 18s7 15 16 17h307c9 0 16 -9 16 -17c0 -10 -7 -16 -16 -18h-3c-57 0 -69 0 -69 -59v-249l217 209c13 13 22 31 22 50c0 25 -17 49 -44 49c-9 0 -16 9 -16 18s7 15 16 17
h245c9 0 16 -9 16 -17c0 -10 -7 -16 -16 -18c-66 0 -146 -83 -192 -127l-110 -106l261 -313c18 -22 51 -69 79 -69c9 0 16 -9 16 -17c0 -10 -7 -16 -16 -18h-257c-9 0 -16 9 -16 18s7 15 16 17c4 0 26 1 26 6c0 11 -20 33 -28 42l-191 228l-28 -27v-192c0 -57 16 -57 72 -57
c9 0 16 -9 16 -17c0 -10 -7 -16 -16 -18h-307zM138 35h111c-8 18 -9 38 -9 57v501c0 20 1 39 9 57h-111c8 -18 9 -37 9 -57v-501c0 -19 -1 -39 -9 -57zM522 104c15 -18 35 -39 35 -63v-6h131c-14 15 -30 33 -42 48l-258 310l-59 -57zM548 594c22 20 45 39 70 56h-84
c10 -15 15 -32 15 -49c0 -2 -1 -5 -1 -7z" />
    <glyph glyph-name="L" unicode="L" horiz-adv-x="666" 
d="M30 0c-9 0 -16 9 -16 18s7 15 16 17h3c57 0 69 0 69 59v499c0 57 -16 57 -72 57c-9 0 -16 9 -16 18s7 15 16 17h298c9 0 16 -9 16 -17c0 -10 -7 -16 -16 -18h-3c-56 0 -64 -1 -64 -59v-497c0 -19 4 -59 30 -59h69c97 0 229 72 245 176c1 8 9 13 17 13c9 0 17 -9 17 -18
l-28 -193c-2 -8 -9 -12 -16 -13h-565zM128 35h110c-8 18 -12 37 -12 57v501c0 19 0 39 8 57h-106c8 -18 9 -37 9 -57v-501c0 -19 -1 -39 -9 -57zM497 35h81l11 69c-26 -28 -58 -51 -92 -69z" />
    <glyph glyph-name="L" unicode="&#xf04c;" horiz-adv-x="666" 
d="M30 0c-9 0 -16 9 -16 18s7 15 16 17h3c57 0 69 0 69 59v499c0 57 -16 57 -72 57c-9 0 -16 9 -16 18s7 15 16 17h298c9 0 16 -9 16 -17c0 -10 -7 -16 -16 -18h-3c-56 0 -64 -1 -64 -59v-497c0 -19 4 -59 30 -59h69c97 0 229 72 245 176c1 8 9 13 17 13c9 0 17 -9 17 -18
l-28 -193c-2 -8 -9 -12 -16 -13h-565zM128 35h110c-8 18 -12 37 -12 57v501c0 19 0 39 8 57h-106c8 -18 9 -37 9 -57v-501c0 -19 -1 -39 -9 -57zM497 35h81l11 69c-26 -28 -58 -51 -92 -69z" />
    <glyph glyph-name="M" unicode="M" horiz-adv-x="944" 
d="M33 0c-9 0 -16 9 -16 18s7 15 16 17c34 0 71 21 71 59v546c-22 8 -45 10 -68 10c-9 0 -16 9 -16 18s7 15 16 17h221c6 0 12 -5 14 -10l195 -465l195 465c2 6 8 9 14 10h228c9 0 16 -9 16 -17c0 -10 -7 -16 -16 -18c-34 0 -71 -21 -71 -59v-497c0 -40 42 -59 77 -59
c9 0 16 -9 16 -17c0 -10 -7 -16 -16 -18h-302c-9 0 -16 9 -16 18s7 15 16 17c34 0 71 21 71 59v513l-250 -596c-3 -7 -9 -11 -16 -11s-13 4 -16 11l-248 592l-2 3v-512c0 -40 42 -59 77 -59c9 0 16 -9 16 -17c0 -10 -7 -16 -16 -18h-190zM690 35h131c-15 15 -24 36 -24 57
v501c0 21 8 42 23 57h-107v-558c0 -21 -8 -42 -23 -57zM412 63l45 107h-2l-5 1l-3 2c-3 2 -5 4 -7 8l-197 469h-87c10 -10 18 -20 24 -33z" />
    <glyph glyph-name="M" unicode="&#xf04d;" horiz-adv-x="944" 
d="M33 0c-9 0 -16 9 -16 18s7 15 16 17c34 0 71 21 71 59v546c-22 8 -45 10 -68 10c-9 0 -16 9 -16 18s7 15 16 17h221c6 0 12 -5 14 -10l195 -465l195 465c2 6 8 9 14 10h228c9 0 16 -9 16 -17c0 -10 -7 -16 -16 -18c-34 0 -71 -21 -71 -59v-497c0 -40 42 -59 77 -59
c9 0 16 -9 16 -17c0 -10 -7 -16 -16 -18h-302c-9 0 -16 9 -16 18s7 15 16 17c34 0 71 21 71 59v513l-250 -596c-3 -7 -9 -11 -16 -11s-13 4 -16 11l-248 592l-2 3v-512c0 -40 42 -59 77 -59c9 0 16 -9 16 -17c0 -10 -7 -16 -16 -18h-190zM690 35h131c-15 15 -24 36 -24 57
v501c0 21 8 42 23 57h-107v-558c0 -21 -8 -42 -23 -57zM412 63l45 107h-2l-5 1l-3 2c-3 2 -5 4 -7 8l-197 469h-87c10 -10 18 -20 24 -33z" />
    <glyph glyph-name="N" unicode="N" horiz-adv-x="722" 
d="M41 0c-9 0 -16 9 -16 18s7 15 16 17c64 0 71 17 71 77v493c-19 22 -43 45 -74 45c-9 0 -16 9 -16 18s7 15 16 17h211c5 0 9 -4 13 -7l320 -420v315c0 64 -13 77 -77 77c-9 0 -16 9 -16 18s7 15 16 17h181c9 0 16 -9 16 -17c0 -10 -7 -16 -16 -18c-62 0 -62 -24 -62 -77
v-576c0 -9 -9 -16 -17 -16c-7 0 -10 3 -14 7l-439 563v-441c0 -63 15 -75 77 -75c9 0 16 -9 16 -17c0 -10 -7 -16 -16 -18h-190zM589 49v142l-350 459h-122c12 -12 23 -24 34 -37z" />
    <glyph glyph-name="N" unicode="&#xf04e;" horiz-adv-x="722" 
d="M41 0c-9 0 -16 9 -16 18s7 15 16 17c64 0 71 17 71 77v493c-19 22 -43 45 -74 45c-9 0 -16 9 -16 18s7 15 16 17h211c5 0 9 -4 13 -7l320 -420v315c0 64 -13 77 -77 77c-9 0 -16 9 -16 18s7 15 16 17h181c9 0 16 -9 16 -17c0 -10 -7 -16 -16 -18c-62 0 -62 -24 -62 -77
v-576c0 -9 -9 -16 -17 -16c-7 0 -10 3 -14 7l-439 563v-441c0 -63 15 -75 77 -75c9 0 16 -9 16 -17c0 -10 -7 -16 -16 -18h-190zM589 49v142l-350 459h-122c12 -12 23 -24 34 -37z" />
    <glyph glyph-name="O" unicode="O" 
d="M389 -19c-216 0 -356 147 -356 362c0 214 140 361 356 361s356 -147 356 -361c0 -215 -140 -362 -356 -362zM389 16c160 0 180 206 180 326s-20 327 -180 327s-180 -206 -180 -325v-1c0 -120 20 -327 180 -327zM253 42c-68 75 -79 203 -79 301c0 97 11 225 79 300
c-127 -51 -185 -169 -185 -300c0 -132 58 -250 185 -301zM525 42c127 51 185 169 185 301c0 131 -58 249 -185 300c68 -75 79 -203 79 -300c0 -98 -11 -226 -79 -301z" />
    <glyph glyph-name="O" unicode="&#xf04f;" 
d="M389 -19c-216 0 -356 147 -356 362c0 214 140 361 356 361s356 -147 356 -361c0 -215 -140 -362 -356 -362zM389 16c160 0 180 206 180 326s-20 327 -180 327s-180 -206 -180 -325v-1c0 -120 20 -327 180 -327zM253 42c-68 75 -79 203 -79 301c0 97 11 225 79 300
c-127 -51 -185 -169 -185 -300c0 -132 58 -250 185 -301zM525 42c127 51 185 169 185 301c0 131 -58 249 -185 300c68 -75 79 -203 79 -300c0 -98 -11 -226 -79 -301z" />
    <glyph glyph-name="P" unicode="P" horiz-adv-x="611" 
d="M32 0c-9 0 -16 9 -16 18s7 15 16 17h3c56 0 64 1 64 59v499c0 57 -12 57 -67 57c-9 0 -16 9 -16 18s7 15 16 17h306c123 0 261 -40 261 -189c0 -139 -146 -189 -263 -189h-74v-215c0 -57 17 -57 73 -57c9 0 16 -9 16 -17c0 -10 -7 -16 -16 -18h-303zM126 35h110
c-8 18 -9 37 -9 57v520c0 14 5 27 13 38h-114c8 -18 8 -38 8 -57v-501c0 -19 0 -39 -8 -57zM262 342h55c98 0 110 72 110 154c0 86 -5 154 -109 154c-23 0 -56 -12 -56 -40v-268zM426 352c73 18 138 63 138 144c0 84 -56 128 -133 145c29 -40 31 -97 31 -145
s-4 -104 -36 -144z" />
    <glyph glyph-name="P" unicode="&#xf050;" horiz-adv-x="611" 
d="M32 0c-9 0 -16 9 -16 18s7 15 16 17h3c56 0 64 1 64 59v499c0 57 -12 57 -67 57c-9 0 -16 9 -16 18s7 15 16 17h306c123 0 261 -40 261 -189c0 -139 -146 -189 -263 -189h-74v-215c0 -57 17 -57 73 -57c9 0 16 -9 16 -17c0 -10 -7 -16 -16 -18h-303zM126 35h110
c-8 18 -9 37 -9 57v520c0 14 5 27 13 38h-114c8 -18 8 -38 8 -57v-501c0 -19 0 -39 -8 -57zM262 342h55c98 0 110 72 110 154c0 86 -5 154 -109 154c-23 0 -56 -12 -56 -40v-268zM426 352c73 18 138 63 138 144c0 84 -56 128 -133 145c29 -40 31 -97 31 -145
s-4 -104 -36 -144z" />
    <glyph glyph-name="Q" unicode="Q" 
d="M279 -4c-164 45 -246 182 -246 347c0 214 140 361 356 361s356 -147 356 -361c0 -174 -92 -314 -267 -352c31 -66 99 -109 172 -109c21 0 53 10 65 10c9 0 17 -8 17 -18c0 -35 -156 -53 -187 -53c-115 0 -221 70 -266 175zM323 -14c44 -80 130 -130 222 -130
c12 0 25 1 37 2c-62 19 -114 67 -139 126c-18 -2 -36 -3 -54 -3c-22 0 -44 2 -66 5zM389 16c160 0 180 206 180 326s-20 327 -180 327s-180 -206 -180 -325v-1c0 -120 20 -327 180 -327zM253 42c-68 75 -79 203 -79 301c0 97 11 225 79 300c-127 -51 -185 -169 -185 -300
c0 -132 58 -250 185 -301zM525 42c127 51 185 169 185 301c0 131 -58 249 -185 300c68 -75 79 -203 79 -300c0 -98 -11 -226 -79 -301z" />
    <glyph glyph-name="Q" unicode="&#xf051;" 
d="M279 -4c-164 45 -246 182 -246 347c0 214 140 361 356 361s356 -147 356 -361c0 -174 -92 -314 -267 -352c31 -66 99 -109 172 -109c21 0 53 10 65 10c9 0 17 -8 17 -18c0 -35 -156 -53 -187 -53c-115 0 -221 70 -266 175zM323 -14c44 -80 130 -130 222 -130
c12 0 25 1 37 2c-62 19 -114 67 -139 126c-18 -2 -36 -3 -54 -3c-22 0 -44 2 -66 5zM389 16c160 0 180 206 180 326s-20 327 -180 327s-180 -206 -180 -325v-1c0 -120 20 -327 180 -327zM253 42c-68 75 -79 203 -79 301c0 97 11 225 79 300c-127 -51 -185 -169 -185 -300
c0 -132 58 -250 185 -301zM525 42c127 51 185 169 185 301c0 131 -58 249 -185 300c68 -75 79 -203 79 -300c0 -98 -11 -226 -79 -301z" />
    <glyph glyph-name="R" unicode="R" horiz-adv-x="722" 
d="M32 0c-9 0 -16 9 -16 18s7 15 16 17h3c57 0 70 0 70 59v499c0 57 -17 57 -73 57c-9 0 -16 9 -16 18s7 15 16 17h331c114 0 266 -47 266 -186c0 -112 -76 -156 -176 -174c31 -48 181 -290 234 -290c9 0 16 -9 16 -17c0 -10 -7 -16 -16 -18h-173c-5 0 -9 4 -12 7l-198 307
h-36v-222c0 -57 17 -57 73 -57c9 0 16 -9 16 -17c0 -10 -7 -16 -16 -18h-309zM131 35h111c-8 18 -9 37 -9 57v520c0 14 5 27 13 38h-115c8 -18 9 -37 9 -57v-501c0 -20 -1 -39 -9 -57zM525 35h97c-76 74 -148 194 -207 285c-22 -2 -45 -4 -70 -5zM268 349
c133 0 189 2 189 150c0 98 -26 151 -132 151c-24 0 -57 -11 -57 -40v-261zM460 362c79 16 134 50 134 137c0 82 -70 124 -141 141c33 -38 39 -93 39 -141c0 -45 -1 -100 -32 -137z" />
    <glyph glyph-name="R" unicode="&#xf052;" horiz-adv-x="722" 
d="M32 0c-9 0 -16 9 -16 18s7 15 16 17h3c57 0 70 0 70 59v499c0 57 -17 57 -73 57c-9 0 -16 9 -16 18s7 15 16 17h331c114 0 266 -47 266 -186c0 -112 -76 -156 -176 -174c31 -48 181 -290 234 -290c9 0 16 -9 16 -17c0 -10 -7 -16 -16 -18h-173c-5 0 -9 4 -12 7l-198 307
h-36v-222c0 -57 17 -57 73 -57c9 0 16 -9 16 -17c0 -10 -7 -16 -16 -18h-309zM131 35h111c-8 18 -9 37 -9 57v520c0 14 5 27 13 38h-115c8 -18 9 -37 9 -57v-501c0 -20 -1 -39 -9 -57zM525 35h97c-76 74 -148 194 -207 285c-22 -2 -45 -4 -70 -5zM268 349
c133 0 189 2 189 150c0 98 -26 151 -132 151c-24 0 -57 -11 -57 -40v-261zM460 362c79 16 134 50 134 137c0 82 -70 124 -141 141c33 -38 39 -93 39 -141c0 -45 -1 -100 -32 -137z" />
    <glyph glyph-name="S" unicode="S" horiz-adv-x="555" 
d="M37 5v202v8c0 12 3 25 18 25c10 0 17 -9 17 -18v-8c0 -87 100 -191 188 -191c82 0 134 23 134 113c0 89 -103 136 -173 165c-86 35 -192 93 -192 199c0 142 97 204 230 204c28 0 55 -5 81 -15c20 -8 41 -13 63 -13c35 0 49 28 62 28c8 0 17 -7 17 -16v-185
c0 -10 -9 -17 -17 -17c-7 0 -16 5 -17 13c-12 81 -106 170 -189 170c-63 0 -111 -38 -111 -104c0 -77 138 -123 197 -146c96 -37 186 -118 186 -227c0 -147 -147 -204 -272 -204c-27 0 -55 5 -81 15c-19 8 -40 13 -62 13c-35 0 -49 -28 -61 -28c-9 0 -18 7 -18 17zM72 41
c14 6 29 10 44 10h3c-18 17 -34 36 -47 56v-66zM233 334c85 -35 196 -91 196 -198c0 -27 -4 -54 -16 -78c50 28 83 76 83 134c0 94 -81 162 -163 194c-77 30 -220 79 -220 179c0 27 7 53 21 76c-51 -29 -70 -85 -70 -141c0 -88 99 -137 169 -166zM447 591v60
c-14 -6 -29 -10 -44 -10c16 -15 31 -32 44 -50z" />
    <glyph glyph-name="S" unicode="&#xf053;" horiz-adv-x="555" 
d="M37 5v202v8c0 12 3 25 18 25c10 0 17 -9 17 -18v-8c0 -87 100 -191 188 -191c82 0 134 23 134 113c0 89 -103 136 -173 165c-86 35 -192 93 -192 199c0 142 97 204 230 204c28 0 55 -5 81 -15c20 -8 41 -13 63 -13c35 0 49 28 62 28c8 0 17 -7 17 -16v-185
c0 -10 -9 -17 -17 -17c-7 0 -16 5 -17 13c-12 81 -106 170 -189 170c-63 0 -111 -38 -111 -104c0 -77 138 -123 197 -146c96 -37 186 -118 186 -227c0 -147 -147 -204 -272 -204c-27 0 -55 5 -81 15c-19 8 -40 13 -62 13c-35 0 -49 -28 -61 -28c-9 0 -18 7 -18 17zM72 41
c14 6 29 10 44 10h3c-18 17 -34 36 -47 56v-66zM233 334c85 -35 196 -91 196 -198c0 -27 -4 -54 -16 -78c50 28 83 76 83 134c0 94 -81 162 -163 194c-77 30 -220 79 -220 179c0 27 7 53 21 76c-51 -29 -70 -85 -70 -141c0 -88 99 -137 169 -166zM447 591v60
c-14 -6 -29 -10 -44 -10c16 -15 31 -32 44 -50z" />
    <glyph glyph-name="T" unicode="T" horiz-adv-x="666" 
d="M155 18c0 9 7 15 16 17c59 0 81 0 81 59v556c-84 0 -184 -61 -184 -153l-4 -10c-4 -4 -8 -7 -14 -7c-9 0 -17 7 -17 17v172c0 9 7 14 16 16h570c8 0 16 -9 16 -16v-172c0 -10 -9 -17 -18 -17s-17 7 -17 17c0 92 -101 153 -185 153v-558c0 -57 24 -57 81 -57
c9 0 16 -9 16 -17c0 -10 -7 -16 -16 -18h-325c-9 0 -16 9 -16 18zM278 35h111c-8 18 -9 37 -9 57v558h-93v-558c0 -19 0 -39 -9 -57zM538 650c24 -14 45 -32 62 -53v53h-62zM68 597c16 21 37 39 61 53h-61v-53z" />
    <glyph glyph-name="T" unicode="&#xf054;" horiz-adv-x="666" 
d="M155 18c0 9 7 15 16 17c59 0 81 0 81 59v556c-84 0 -184 -61 -184 -153l-4 -10c-4 -4 -8 -7 -14 -7c-9 0 -17 7 -17 17v172c0 9 7 14 16 16h570c8 0 16 -9 16 -16v-172c0 -10 -9 -17 -18 -17s-17 7 -17 17c0 92 -101 153 -185 153v-558c0 -57 24 -57 81 -57
c9 0 16 -9 16 -17c0 -10 -7 -16 -16 -18h-325c-9 0 -16 9 -16 18zM278 35h111c-8 18 -9 37 -9 57v558h-93v-558c0 -19 0 -39 -9 -57zM538 650c24 -14 45 -32 62 -53v53h-62zM68 597c16 21 37 39 61 53h-61v-53z" />
    <glyph glyph-name="U" unicode="U" horiz-adv-x="722" 
d="M99 223v370c0 57 -12 57 -67 57c-9 0 -16 9 -16 18s7 15 16 17h303c9 0 16 -9 16 -17c0 -10 -7 -16 -16 -18c-59 0 -77 0 -77 -59v-366c0 -95 11 -203 131 -203c142 0 189 105 189 231v264c0 46 -11 133 -72 133c-9 0 -16 9 -16 18s7 15 16 17h186c9 0 16 -9 16 -17
c0 -10 -7 -16 -16 -18c-61 0 -72 -87 -72 -133v-266c0 -166 -89 -269 -259 -269c-156 0 -262 77 -262 241zM282 24c-53 50 -59 131 -59 199v370c0 19 0 39 9 57h-106c8 -18 8 -38 8 -57v-368c0 -102 44 -177 148 -201zM599 609c5 15 12 29 22 41h-44c10 -12 17 -26 22 -41z
" />
    <glyph glyph-name="U" unicode="&#xf055;" horiz-adv-x="722" 
d="M99 223v370c0 57 -12 57 -67 57c-9 0 -16 9 -16 18s7 15 16 17h303c9 0 16 -9 16 -17c0 -10 -7 -16 -16 -18c-59 0 -77 0 -77 -59v-366c0 -95 11 -203 131 -203c142 0 189 105 189 231v264c0 46 -11 133 -72 133c-9 0 -16 9 -16 18s7 15 16 17h186c9 0 16 -9 16 -17
c0 -10 -7 -16 -16 -18c-61 0 -72 -87 -72 -133v-266c0 -166 -89 -269 -259 -269c-156 0 -262 77 -262 241zM282 24c-53 50 -59 131 -59 199v370c0 19 0 39 9 57h-106c8 -18 8 -38 8 -57v-368c0 -102 44 -177 148 -201zM599 609c5 15 12 29 22 41h-44c10 -12 17 -26 22 -41z
" />
    <glyph glyph-name="V" unicode="V" horiz-adv-x="722" 
d="M352 -9l-270 594c-13 27 -31 65 -66 65c-8 2 -16 8 -16 18c0 8 8 17 16 17h297c9 -2 16 -8 16 -17s-7 -18 -16 -18c-24 0 -46 -11 -63 -27c0 -1 0 -2 -1 -3c0 -66 136 -358 171 -435c43 101 130 301 130 408c0 30 -6 57 -41 57c-9 2 -16 8 -16 18c0 8 7 17 16 17h195
c9 -2 16 -8 16 -17s-7 -18 -16 -18c-30 0 -53 -20 -65 -46l-255 -613c-2 -6 -9 -10 -16 -10s-13 4 -16 10zM368 42l37 91c-40 79 -191 418 -191 487c0 13 5 21 14 30h-144c13 -15 22 -33 30 -51zM583 559l24 59c6 12 12 23 20 32h-54c10 -17 12 -37 12 -57
c0 -11 -1 -23 -2 -34z" />
    <glyph glyph-name="V" unicode="&#xf056;" horiz-adv-x="722" 
d="M352 -9l-270 594c-13 27 -31 65 -66 65c-8 2 -16 8 -16 18c0 8 8 17 16 17h297c9 -2 16 -8 16 -17s-7 -18 -16 -18c-24 0 -46 -11 -63 -27c0 -1 0 -2 -1 -3c0 -66 136 -358 171 -435c43 101 130 301 130 408c0 30 -6 57 -41 57c-9 2 -16 8 -16 18c0 8 7 17 16 17h195
c9 -2 16 -8 16 -17s-7 -18 -16 -18c-30 0 -53 -20 -65 -46l-255 -613c-2 -6 -9 -10 -16 -10s-13 4 -16 10zM368 42l37 91c-40 79 -191 418 -191 487c0 13 5 21 14 30h-144c13 -15 22 -33 30 -51zM583 559l24 59c6 12 12 23 20 32h-54c10 -17 12 -37 12 -57
c0 -11 -1 -23 -2 -34z" />
    <glyph glyph-name="W" unicode="W" horiz-adv-x="1000" 
d="M283 -6l-211 594c-8 22 -19 62 -48 62c-9 2 -16 8 -16 18c0 8 7 17 16 17h247c9 -2 16 -8 16 -17s-7 -18 -16 -18c-16 0 -29 -9 -40 -21v-3c0 -73 104 -352 133 -434l130 300l-38 100c-10 25 -26 58 -57 58c-9 2 -16 8 -16 18c0 8 7 17 16 17h276c9 -2 16 -8 16 -17
s-7 -18 -16 -18c-13 0 -53 -12 -53 -28c0 -71 101 -330 130 -406c35 98 95 261 95 364c0 34 -6 70 -47 70c-9 2 -16 8 -16 18c0 8 7 17 16 17h176c9 -2 16 -8 16 -17s-7 -18 -16 -18c-23 0 -34 -25 -41 -43l-218 -613c-3 -7 -9 -13 -17 -13s-14 6 -17 13l-170 449l-197 -452
c-3 -6 -9 -10 -16 -10c-8 0 -14 6 -17 13zM302 46l42 97c-33 95 -148 397 -148 483c0 5 0 11 2 15s5 9 5 9h-121c11 -16 18 -35 24 -53zM699 49l39 108c0 1 -2 2 -2 4c-35 90 -149 376 -149 461c0 11 2 20 10 28h-133c11 -14 19 -30 25 -46zM882 563l19 53c4 12 9 23 16 34
h-50c13 -21 15 -46 15 -70v-17z" />
    <glyph glyph-name="W" unicode="&#xf057;" horiz-adv-x="1000" 
d="M283 -6l-211 594c-8 22 -19 62 -48 62c-9 2 -16 8 -16 18c0 8 7 17 16 17h247c9 -2 16 -8 16 -17s-7 -18 -16 -18c-16 0 -29 -9 -40 -21v-3c0 -73 104 -352 133 -434l130 300l-38 100c-10 25 -26 58 -57 58c-9 2 -16 8 -16 18c0 8 7 17 16 17h276c9 -2 16 -8 16 -17
s-7 -18 -16 -18c-13 0 -53 -12 -53 -28c0 -71 101 -330 130 -406c35 98 95 261 95 364c0 34 -6 70 -47 70c-9 2 -16 8 -16 18c0 8 7 17 16 17h176c9 -2 16 -8 16 -17s-7 -18 -16 -18c-23 0 -34 -25 -41 -43l-218 -613c-3 -7 -9 -13 -17 -13s-14 6 -17 13l-170 449l-197 -452
c-3 -6 -9 -10 -16 -10c-8 0 -14 6 -17 13zM302 46l42 97c-33 95 -148 397 -148 483c0 5 0 11 2 15s5 9 5 9h-121c11 -16 18 -35 24 -53zM699 49l39 108c0 1 -2 2 -2 4c-35 90 -149 376 -149 461c0 11 2 20 10 28h-133c11 -14 19 -30 25 -46zM882 563l19 53c4 12 9 23 16 34
h-50c13 -21 15 -46 15 -70v-17z" />
    <glyph glyph-name="X" unicode="X" horiz-adv-x="722" 
d="M34 0c-8 0 -16 9 -16 18s8 15 16 17c46 0 119 91 148 124l126 143c-4 6 -7 12 -11 18c-73 109 -187 279 -224 317c-8 8 -23 13 -35 13c-9 0 -16 9 -16 18s7 15 16 17h292c9 0 16 -9 16 -17c0 -10 -7 -16 -16 -18c-19 0 -41 -1 -57 -12c13 -44 84 -148 112 -189l75 99
c12 16 20 34 20 54c0 24 -12 48 -38 48c-9 0 -16 9 -16 18s7 15 16 17h235c8 0 16 -9 16 -17c0 -10 -8 -16 -16 -18c-79 0 -136 -66 -180 -123l-88 -115c9 -14 19 -28 28 -42c75 -113 194 -290 227 -326c6 -5 17 -9 25 -9c9 0 16 -9 16 -17c0 -10 -7 -16 -16 -18h-302
c-8 0 -16 9 -16 18s8 15 16 17c24 0 53 0 73 14c-12 48 -98 172 -128 217l-112 -128c-13 -15 -22 -33 -22 -53c0 -25 16 -50 43 -50c9 0 16 -9 16 -17c0 -10 -7 -16 -16 -18h-207zM111 35h66c-9 15 -14 32 -14 50c-16 -17 -34 -35 -52 -50zM494 35h132
c-56 70 -389 555 -389 608c0 2 1 7 1 7h-129c57 -68 387 -548 387 -604c0 -2 0 -5 -1 -7c0 -1 -1 -4 -1 -4zM515 603c16 17 34 33 54 47h-66c8 -14 12 -31 12 -47z" />
    <glyph glyph-name="X" unicode="&#xf058;" horiz-adv-x="722" 
d="M34 0c-8 0 -16 9 -16 18s8 15 16 17c46 0 119 91 148 124l126 143c-4 6 -7 12 -11 18c-73 109 -187 279 -224 317c-8 8 -23 13 -35 13c-9 0 -16 9 -16 18s7 15 16 17h292c9 0 16 -9 16 -17c0 -10 -7 -16 -16 -18c-19 0 -41 -1 -57 -12c13 -44 84 -148 112 -189l75 99
c12 16 20 34 20 54c0 24 -12 48 -38 48c-9 0 -16 9 -16 18s7 15 16 17h235c8 0 16 -9 16 -17c0 -10 -8 -16 -16 -18c-79 0 -136 -66 -180 -123l-88 -115c9 -14 19 -28 28 -42c75 -113 194 -290 227 -326c6 -5 17 -9 25 -9c9 0 16 -9 16 -17c0 -10 -7 -16 -16 -18h-302
c-8 0 -16 9 -16 18s8 15 16 17c24 0 53 0 73 14c-12 48 -98 172 -128 217l-112 -128c-13 -15 -22 -33 -22 -53c0 -25 16 -50 43 -50c9 0 16 -9 16 -17c0 -10 -7 -16 -16 -18h-207zM111 35h66c-9 15 -14 32 -14 50c-16 -17 -34 -35 -52 -50zM494 35h132
c-56 70 -389 555 -389 608c0 2 1 7 1 7h-129c57 -68 387 -548 387 -604c0 -2 0 -5 -1 -7c0 -1 -1 -4 -1 -4zM515 603c16 17 34 33 54 47h-66c8 -14 12 -31 12 -47z" />
    <glyph glyph-name="Y" unicode="Y" horiz-adv-x="722" 
d="M187 18c0 9 7 15 16 17h3c69 0 74 8 74 77v151l-179 320c-9 15 -20 35 -30 50c-11 16 -16 17 -36 17c-9 0 -16 9 -16 18s7 15 16 17h256c9 0 16 -9 16 -17c0 -10 -7 -16 -16 -18c-9 0 -19 0 -28 -2c-2 0 -4 -1 -6 -2c-1 0 -3 -1 -3 -1c0 -15 12 -32 19 -44l149 -266
l131 211c7 11 11 25 11 38c0 36 -29 66 -65 66c-9 0 -16 9 -16 18s7 15 16 17h188c9 0 16 -9 16 -17c0 -10 -7 -16 -16 -18c-32 0 -88 -96 -104 -122l-140 -225v-193c0 -71 9 -75 77 -75c9 0 16 -9 16 -17c0 -10 -7 -16 -16 -18h-317c-9 0 -16 9 -16 18zM303 35h117
c-12 22 -12 50 -12 75v179c0 1 -2 2 -2 3l-163 291c-10 18 -24 39 -24 60c0 2 1 7 1 7h-118c10 -15 21 -34 29 -49l182 -325c1 -2 2 -5 2 -8v-158c0 -25 0 -53 -12 -75zM595 611c10 15 20 28 31 39h-51c9 -11 16 -25 20 -39z" />
    <glyph glyph-name="Y" unicode="&#xf059;" horiz-adv-x="722" 
d="M187 18c0 9 7 15 16 17h3c69 0 74 8 74 77v151l-179 320c-9 15 -20 35 -30 50c-11 16 -16 17 -36 17c-9 0 -16 9 -16 18s7 15 16 17h256c9 0 16 -9 16 -17c0 -10 -7 -16 -16 -18c-9 0 -19 0 -28 -2c-2 0 -4 -1 -6 -2c-1 0 -3 -1 -3 -1c0 -15 12 -32 19 -44l149 -266
l131 211c7 11 11 25 11 38c0 36 -29 66 -65 66c-9 0 -16 9 -16 18s7 15 16 17h188c9 0 16 -9 16 -17c0 -10 -7 -16 -16 -18c-32 0 -88 -96 -104 -122l-140 -225v-193c0 -71 9 -75 77 -75c9 0 16 -9 16 -17c0 -10 -7 -16 -16 -18h-317c-9 0 -16 9 -16 18zM303 35h117
c-12 22 -12 50 -12 75v179c0 1 -2 2 -2 3l-163 291c-10 18 -24 39 -24 60c0 2 1 7 1 7h-118c10 -15 21 -34 29 -49l182 -325c1 -2 2 -5 2 -8v-158c0 -25 0 -53 -12 -75zM595 611c10 15 20 28 31 39h-51c9 -11 16 -25 20 -39z" />
    <glyph glyph-name="Z" unicode="Z" horiz-adv-x="666" 
d="M44 0c-9 0 -16 9 -16 18c0 3 1 6 3 9l382 623h-78c-97 0 -223 -34 -238 -148c-2 -8 -11 -13 -17 -13c-10 0 -18 9 -18 19l18 161c1 9 7 14 16 16h493c9 0 16 -9 16 -17c0 -4 -1 -7 -2 -9l-383 -624h145c114 0 218 75 236 192c1 9 8 16 18 16c9 0 17 -9 17 -18l-28 -208
c-1 -10 -7 -15 -16 -17h-548zM77 35h102l377 615h-102zM504 35h71l9 68c-21 -28 -49 -51 -80 -68zM108 604c18 19 38 34 61 46h-56z" />
    <glyph glyph-name="Z" unicode="&#xf05a;" horiz-adv-x="666" 
d="M44 0c-9 0 -16 9 -16 18c0 3 1 6 3 9l382 623h-78c-97 0 -223 -34 -238 -148c-2 -8 -11 -13 -17 -13c-10 0 -18 9 -18 19l18 161c1 9 7 14 16 16h493c9 0 16 -9 16 -17c0 -4 -1 -7 -2 -9l-383 -624h145c114 0 218 75 236 192c1 9 8 16 18 16c9 0 17 -9 17 -18l-28 -208
c-1 -10 -7 -15 -16 -17h-548zM77 35h102l377 615h-102zM504 35h71l9 68c-21 -28 -49 -51 -80 -68zM108 604c18 19 38 34 61 46h-56z" />
    <glyph glyph-name="k" unicode="k" horiz-adv-x="555" 
d="M36 0c-9 2 -16 8 -16 18c0 8 7 17 16 17c25 0 30 39 30 59v497c0 20 -5 59 -30 59c-9 2 -16 8 -16 18c0 8 7 17 16 17h151c8 -2 16 -7 16 -16v-424l113 102c15 14 26 32 26 53c0 14 -6 28 -22 28c-9 2 -16 8 -16 18c0 8 7 17 16 17h182c9 -2 16 -8 16 -17s-7 -18 -16 -18
c-46 0 -128 -78 -162 -109l-32 -29l148 -186c11 -15 50 -69 66 -69c9 -2 16 -8 16 -17s-7 -18 -16 -18h-212c-9 2 -16 8 -16 18c0 8 7 17 16 17c7 0 23 0 27 6c0 12 -18 32 -25 42l-98 122l-11 -10v-101c0 -20 4 -59 30 -59c8 -2 16 -8 16 -17s-8 -18 -16 -18h-197zM89 35
h90c-8 17 -11 38 -11 57v558h-79c8 -17 12 -38 12 -57v-501c0 -20 -4 -39 -12 -57zM340 104c13 -18 32 -39 32 -63v-6h94c-13 15 -27 34 -38 48l-146 183l-42 -37zM377 397c13 11 27 22 40 31h-45v-2c2 -4 3 -8 4 -13c0 -4 1 -8 1 -13v-3z" />
    <glyph glyph-name="k" unicode="&#xf07c;" horiz-adv-x="555" 
d="M36 0c-9 2 -16 8 -16 18c0 8 7 17 16 17c25 0 30 39 30 59v497c0 20 -5 59 -30 59c-9 2 -16 8 -16 18c0 8 7 17 16 17h151c8 -2 16 -7 16 -16v-424l113 102c15 14 26 32 26 53c0 14 -6 28 -22 28c-9 2 -16 8 -16 18c0 8 7 17 16 17h182c9 -2 16 -8 16 -17s-7 -18 -16 -18
c-46 0 -128 -78 -162 -109l-32 -29l148 -186c11 -15 50 -69 66 -69c9 -2 16 -8 16 -17s-7 -18 -16 -18h-212c-9 2 -16 8 -16 18c0 8 7 17 16 17c7 0 23 0 27 6c0 12 -18 32 -25 42l-98 122l-11 -10v-101c0 -20 4 -59 30 -59c8 -2 16 -8 16 -17s-8 -18 -16 -18h-197zM89 35
h90c-8 17 -11 38 -11 57v558h-79c8 -17 12 -38 12 -57v-501c0 -20 -4 -39 -12 -57zM340 104c13 -18 32 -39 32 -63v-6h94c-13 15 -27 34 -38 48l-146 183l-42 -37zM377 397c13 11 27 22 40 31h-45v-2c2 -4 3 -8 4 -13c0 -4 1 -8 1 -13v-3z" />
    <glyph glyph-name="eth" unicode="&#xf067;" horiz-adv-x="555" 
d="M278 -22c-136 0 -236 108 -236 241c0 130 95 239 228 239c74 0 132 -54 157 -121l-1 10c0 103 -31 202 -114 269l-204 -88c-7 -3 -13 -4 -20 -4h-6c-4 0 -25 2 -25 9v84c0 7 21 10 25 10h6c4 0 25 -3 25 -10v-56l171 74c-59 38 -130 56 -200 56c-4 0 -8 4 -8 9v8
c0 5 5 8 10 8c84 0 167 -21 239 -63l123 53c6 2 12 4 19 4h6c4 0 25 -3 25 -10v-84c0 -7 -21 -9 -25 -9h-6c-4 0 -25 2 -25 9v56l-87 -38c93 -65 157 -171 157 -287c0 -82 -7 -167 -44 -241c-37 -75 -104 -128 -190 -128zM161 66c29 -41 66 -60 116 -60
c107 0 149 120 149 209v31c0 88 -54 190 -154 190c-58 0 -98 -31 -124 -81c-20 -42 -20 -89 -20 -136c0 -54 1 -108 33 -153z" />
    <glyph glyph-name="emptyset" unicode="&#xf03f;" 
d="M56 18c0 4 1 10 5 13l94 82c-39 52 -60 114 -60 179c0 161 132 294 294 294c77 0 152 -32 207 -86l91 79c4 4 9 7 15 7c10 0 20 -10 20 -20c0 -5 -2 -11 -5 -14l-95 -82c39 -52 61 -114 61 -178c0 -162 -133 -295 -294 -295c-78 0 -153 32 -208 86l-90 -79
c-5 -4 -10 -7 -15 -7c-11 0 -20 10 -20 21zM211 110c47 -46 112 -73 178 -73c139 0 254 115 254 255c0 54 -18 108 -51 151zM185 140l381 333c-47 46 -112 73 -177 73c-140 0 -254 -115 -254 -254c0 -55 17 -109 50 -152z" />
    <glyph glyph-name="similar" unicode="&#xf073;" 
d="M71 133c-13 3 -17 23 -17 34v7c0 96 65 193 168 193c133 0 204 -159 333 -159c68 0 134 54 134 125c0 11 4 31 17 34c13 -3 18 -23 18 -34v-7c0 -96 -66 -193 -169 -193c-133 0 -204 159 -333 159c-68 0 -133 -54 -133 -125c0 -11 -5 -31 -18 -34z" />
    <glyph glyph-name="approxequal" unicode="&#xf074;" 
d="M71 55c-13 3 -17 23 -17 34v7c0 95 78 153 168 153c124 0 211 -119 333 -119c47 0 134 29 134 85c0 11 4 31 17 34c13 -3 18 -23 18 -34v-7c0 -95 -79 -153 -169 -153c-124 0 -211 119 -333 119c-47 0 -133 -29 -133 -85c0 -11 -5 -31 -18 -34zM71 289
c-13 3 -17 23 -17 34v7c0 95 78 153 168 153c124 0 211 -119 333 -119c47 0 134 29 134 85c0 11 4 31 17 34c13 -3 18 -23 18 -34v-7c0 -95 -79 -153 -169 -153c-124 0 -211 119 -333 119c-47 0 -133 -29 -133 -85c0 -11 -5 -31 -18 -34z" />
    <glyph glyph-name="followsorequal" unicode="&#xf076;" 
d="M69 -290c-11 0 -13 17 -14 25v6c0 93 76 163 167 163c128 0 207 -138 333 -138c63 0 139 43 139 113c1 8 3 25 14 25s13 -17 14 -25v-6c0 -93 -76 -163 -167 -163c-128 0 -207 138 -333 138c-63 0 -139 -43 -139 -113c-1 -8 -3 -25 -14 -25zM69 -56c-11 0 -13 17 -14 25
v6c0 93 76 163 167 163c128 0 207 -138 333 -138c63 0 139 43 139 113c1 8 3 25 14 25s13 -17 14 -25v-6c0 -93 -76 -163 -167 -163c-128 0 -207 138 -333 138c-63 0 -139 -43 -139 -113c-1 -8 -3 -25 -14 -25zM103 242c-12 0 -20 10 -20 22c18 152 146 213 281 238
c-135 25 -263 86 -281 239c0 11 8 21 20 21c11 0 19 -8 20 -18c26 -222 381 -222 553 -222c10 0 18 -10 18 -20s-8 -20 -18 -20c-173 0 -526 0 -553 -221c-1 -11 -9 -19 -20 -19z" />
    <glyph glyph-name="precedesorequal" unicode="&#xf077;" 
d="M69 -290c-11 0 -13 17 -14 25v6c0 93 76 163 167 163c128 0 207 -138 333 -138c63 0 139 43 139 113c1 8 3 25 14 25s13 -17 14 -25v-6c0 -93 -76 -163 -167 -163c-128 0 -207 138 -333 138c-63 0 -139 -43 -139 -113c-1 -8 -3 -25 -14 -25zM69 -56c-11 0 -13 17 -14 25
v6c0 93 76 163 167 163c128 0 207 -138 333 -138c63 0 139 43 139 113c1 8 3 25 14 25s13 -17 14 -25v-6c0 -93 -76 -163 -167 -163c-128 0 -207 138 -333 138c-63 0 -139 -43 -139 -113c-1 -8 -3 -25 -14 -25zM102 482c-11 0 -19 10 -19 20s8 20 19 20c172 0 525 0 552 222
c1 10 9 18 20 18c12 0 20 -10 20 -21c-18 -153 -146 -214 -281 -239c135 -25 263 -86 281 -238c0 -12 -8 -22 -20 -22c-11 0 -19 8 -20 19c-26 221 -381 221 -552 221z" />
    <glyph glyph-name="kappa" unicode="&#xf07b;" horiz-adv-x="666" 
d="M58 19c0 13 6 20 16 27l118 79c35 46 95 165 95 222c0 4 0 18 -5 18c-33 0 -99 -9 -120 -37c-4 -6 -4 -16 -13 -16h-5c-7 0 -10 8 -10 13c17 67 94 107 159 107c26 0 29 -30 29 -49c0 -68 -44 -166 -79 -224l391 260c15 10 32 17 50 17c16 0 30 -8 32 -24
c0 -13 -7 -20 -16 -27l-119 -79c-35 -46 -92 -165 -92 -222c0 -4 -3 -18 3 -18c33 0 99 9 119 37c4 6 5 16 13 16h5c8 0 10 -8 10 -13c-16 -67 -93 -107 -158 -107c-26 0 -27 30 -27 49c0 68 42 166 77 224l-391 -260c-15 -10 -33 -17 -50 -17c-16 0 -30 8 -32 24z" />
    <glyph glyph-name="hatwide" unicode="&#xf05b;" horiz-adv-x="1888" 
d="M1 589c-10 0 -11 9 -13 17c0 5 2 11 8 12l945 229h3h4l944 -229c6 -1 8 -7 8 -12c-2 -7 -4 -17 -14 -17l-942 194l-940 -193c-2 -1 -1 -1 -3 -1z" />
    <glyph glyph-name="hatwider" unicode="&#xf05c;" horiz-adv-x="2333" 
d="M2 589c-10 0 -12 10 -14 17c0 5 2 11 8 12l1170 229l1168 -228c7 -1 10 -6 10 -13c-2 -7 -4 -17 -14 -17l-1164 195z" />
    <glyph glyph-name="tildewide" unicode="&#xf05d;" horiz-adv-x="1888" 
d="M12 634c-10 0 -11 12 -12 20c0 10 10 17 19 21c1 1 3 2 5 2c184 59 327 96 441 119c79 16 161 29 243 29c66 0 130 -10 188 -39c44 -22 77 -49 120 -71c56 -28 117 -37 179 -37c201 0 483 85 677 147h4c10 0 11 -12 12 -20c0 -10 -10 -17 -19 -21c-1 -1 -3 -2 -5 -2
c-184 -59 -327 -96 -441 -119c-79 -16 -161 -29 -243 -29c-66 0 -130 10 -188 39c-44 22 -77 49 -120 71c-56 28 -117 37 -179 37c-201 0 -483 -85 -677 -146c-2 -1 -2 -1 -4 -1z" />
    <glyph glyph-name="tildewider" unicode="&#xf05e;" horiz-adv-x="2333" 
d="M1 688l-1 11c0 10 10 17 18 21c2 1 4 2 6 2c220 67 394 112 532 139c105 21 213 39 321 39c80 0 159 -11 230 -47c52 -26 91 -59 143 -85c68 -35 144 -45 220 -45c252 0 603 103 846 177h4c5 0 10 -4 11 -9l1 -11c0 -10 -10 -17 -18 -21c-2 -1 -4 -2 -6 -2
c-220 -67 -394 -112 -532 -139c-105 -21 -213 -39 -321 -39c-80 0 -159 11 -230 47c-52 26 -91 59 -143 85c-68 35 -144 45 -220 45c-252 0 -603 -103 -846 -176c-2 -1 -2 -1 -4 -1c-4 0 -10 4 -11 9z" />
    <glyph glyph-name="lessornotequal" unicode="&#xf0a1;" 
d="M102 -175c-11 0 -19 10 -19 20s8 20 19 20h267v154h-267c-11 0 -19 10 -19 20s8 20 19 20h267v84c0 11 10 19 20 19c9 0 20 -8 20 -19v-84h267c10 0 18 -10 18 -20s-8 -20 -18 -20h-267v-154h267c10 0 18 -10 18 -20s-8 -20 -18 -20h-267v-84c0 -11 -11 -19 -20 -19
c-10 0 -20 8 -20 19v84h-267zM96 445c-8 3 -13 10 -13 18c0 6 3 14 10 17l574 272c2 1 4 1 7 1c11 0 20 -9 20 -20c0 -6 -3 -14 -9 -17l-535 -253l532 -251c7 -4 12 -11 12 -19c0 -11 -9 -20 -20 -20c-3 0 -5 0 -7 2z" />
    <glyph glyph-name="greaterornotequal" unicode="&#xf0a2;" 
d="M102 -175c-11 0 -19 10 -19 20s8 20 19 20h267v154h-267c-11 0 -19 10 -19 20s8 20 19 20h267v84c0 11 10 19 20 19c9 0 20 -8 20 -19v-84h267c10 0 18 -10 18 -20s-8 -20 -18 -20h-267v-154h267c10 0 18 -10 18 -20s-8 -20 -18 -20h-267v-84c0 -11 -11 -19 -20 -19
c-10 0 -20 8 -20 19v84h-267zM83 193c0 6 3 14 10 17l534 253l-531 252c-8 3 -13 10 -13 18c0 11 9 20 20 20c3 0 5 0 8 -1l571 -270c7 -4 12 -11 12 -19c0 -6 -3 -14 -9 -17l-574 -271c-3 -2 -5 -2 -8 -2c-11 0 -20 9 -20 20z" />
    <glyph glyph-name="notlessequal" unicode="&#xf0a3;" 
d="M147 -283c0 3 0 5 1 7l57 138h-103c-11 0 -19 11 -19 20c0 10 8 20 19 20h120l127 306l-256 122c-7 2 -10 10 -10 17c0 8 5 14 13 18l397 188l99 238c3 7 10 12 19 12c10 0 20 -9 20 -20c0 -3 -1 -5 -2 -7l-82 -198l120 57c2 1 4 2 7 2c11 0 20 -10 20 -20
c0 -9 -5 -15 -12 -19l-158 -74l-123 -296l284 -134c6 -3 9 -11 9 -17c0 -11 -9 -20 -20 -20c-3 0 -5 0 -7 1l-281 133l-121 -289h411c10 0 18 -10 18 -20c0 -9 -8 -20 -18 -20h-427l-64 -153c-3 -7 -10 -12 -18 -12c-11 0 -20 9 -20 20zM150 347l215 -102l105 253z" />
    <glyph glyph-name="notgreaterequal" unicode="&#xf0a4;" 
d="M147 -283c0 3 0 5 1 7l57 138h-103c-11 0 -19 11 -19 20c0 10 8 20 19 20h120l108 260l-219 -104c-3 -1 -5 -1 -8 -1c-11 0 -20 9 -20 20c0 6 3 14 10 17l260 123l90 217l-347 164c-8 4 -13 10 -13 19c0 10 9 20 20 20c3 0 5 -1 8 -2l348 -165l133 321c3 7 10 12 19 12
c10 0 20 -9 20 -20c0 -3 -1 -5 -2 -7l-134 -323l187 -88c7 -4 12 -10 12 -18c0 -7 -3 -15 -9 -17l-301 -143l-119 -285h411c10 0 18 -10 18 -20c0 -9 -8 -20 -18 -20h-427l-64 -153c-3 -7 -10 -12 -18 -12c-11 0 -20 9 -20 20zM407 242l220 105l-148 69z" />
    <glyph glyph-name="notless" unicode="&#xf0a5;" 
d="M147 -187c0 3 0 6 1 8l158 311l-210 100c-8 3 -13 10 -13 18c0 6 3 14 10 17l371 176l130 254c3 6 10 10 17 10c10 0 20 -10 20 -20c0 -3 -1 -6 -2 -8l-106 -208l144 68c2 1 4 1 7 1c11 0 20 -9 20 -20c0 -6 -3 -14 -9 -17l-191 -90l-134 -263l322 -152
c7 -3 12 -10 12 -18c0 -11 -9 -20 -20 -20c-3 0 -5 0 -7 1l-325 154l-158 -312c-4 -6 -11 -10 -17 -10c-11 0 -20 10 -20 20zM150 250l174 -83l111 218z" />
    <glyph glyph-name="notgreater" unicode="&#xf0a6;" 
d="M147 -187c0 4 1 8 3 11l104 205l-143 -68c-3 -1 -5 -1 -8 -1c-11 0 -20 9 -20 20c0 8 5 15 13 18l187 89l134 263l-324 153c-7 3 -10 11 -10 17c0 11 9 20 20 20c3 0 5 0 8 -1l324 -154l159 312c3 6 10 10 17 10c10 0 20 -10 20 -20c0 -4 -2 -8 -3 -11l-157 -308
l214 -101c6 -3 9 -11 9 -17c0 -8 -5 -15 -12 -18l-369 -175l-129 -254c-4 -6 -11 -10 -17 -10c-11 0 -20 10 -20 20zM342 115l285 135l-174 83z" />
    <glyph glyph-name="notprecedes" unicode="&#xf0a7;" 
d="M147 -186c0 2 0 5 1 7l199 392c-78 13 -163 17 -245 17c-11 0 -19 10 -19 20s8 20 19 20c95 0 193 4 287 25l205 402c3 5 10 9 17 9c10 0 20 -9 20 -20c0 -2 -1 -5 -2 -7l-189 -372c107 32 202 95 214 214c1 10 9 19 20 19c12 0 20 -11 20 -22
c-16 -154 -141 -226 -278 -258l-9 -18c141 -32 271 -103 287 -261c0 -11 -8 -22 -20 -22c-11 0 -19 9 -20 19c-14 142 -142 201 -266 228l-204 -403c-4 -5 -11 -9 -17 -9c-11 0 -20 9 -20 20z" />
    <glyph glyph-name="notfollows" unicode="&#xf0a8;" 
d="M147 -186c0 2 0 5 1 7l189 372c-107 -32 -202 -95 -214 -215c-1 -10 -9 -19 -20 -19c-12 0 -20 11 -20 22c16 154 140 226 278 259l9 18c-140 31 -271 103 -287 260c0 11 8 22 20 22c11 0 19 -9 20 -19c14 -141 142 -200 266 -227l205 403c3 5 10 9 17 9
c10 0 20 -9 20 -20c0 -2 -1 -5 -2 -7l-199 -392c78 -13 163 -17 246 -17c10 0 18 -10 18 -20s-8 -20 -18 -20c-96 0 -194 -4 -288 -25l-204 -402c-4 -5 -11 -9 -17 -9c-11 0 -20 9 -20 20z" />
    <glyph glyph-name="lessornotdbleql" unicode="&#xf0a9;" 
d="M178 -258c0 5 2 10 5 14l66 69h-147c-11 0 -19 10 -19 20s8 20 19 20h185l147 154h-332c-11 0 -19 10 -19 20s8 20 19 20h370l92 96c4 4 9 7 15 7c11 0 20 -9 20 -20c0 -5 -2 -10 -5 -14l-66 -69h148c10 0 18 -10 18 -20s-8 -20 -18 -20h-186l-147 -154h333
c10 0 18 -10 18 -20s-8 -20 -18 -20h-371l-92 -96c-4 -4 -9 -7 -15 -7c-11 0 -20 9 -20 20zM96 445c-8 3 -13 10 -13 18c0 6 3 14 10 17l574 272c2 1 4 1 7 1c11 0 20 -9 20 -20c0 -6 -3 -14 -9 -17l-535 -253l532 -251c7 -4 12 -11 12 -19c0 -11 -9 -20 -20 -20
c-3 0 -5 0 -7 2z" />
    <glyph glyph-name="greaterornotdbleql" unicode="&#xf0aa;" 
d="M178 -258c0 5 2 10 5 14l66 69h-147c-11 0 -19 10 -19 20s8 20 19 20h185l147 154h-332c-11 0 -19 10 -19 20s8 20 19 20h370l92 96c4 4 9 7 15 7c11 0 20 -9 20 -20c0 -5 -2 -10 -5 -14l-66 -69h148c10 0 18 -10 18 -20s-8 -20 -18 -20h-186l-147 -154h333
c10 0 18 -10 18 -20s-8 -20 -18 -20h-371l-92 -96c-4 -4 -9 -7 -15 -7c-11 0 -20 9 -20 20zM83 193c0 6 3 14 10 17l534 253l-531 252c-8 3 -13 10 -13 18c0 11 9 20 20 20c3 0 5 0 8 -1l571 -270c7 -4 12 -11 12 -19c0 -6 -3 -14 -9 -17l-574 -271c-3 -2 -5 -2 -8 -2
c-11 0 -20 9 -20 20z" />
    <glyph glyph-name="notlessorslnteql" unicode="&#xf0ad;" 
d="M147 -283c0 3 0 5 1 7l134 322l-189 90c-7 2 -10 10 -10 17c0 10 9 20 20 20c3 0 5 -1 8 -2l186 -88l52 125l-256 122c-7 2 -10 10 -10 17c0 8 5 14 13 18l397 188l99 238c3 7 10 12 19 12c10 0 20 -9 20 -20c0 -3 -1 -5 -2 -7l-82 -198l120 57c2 1 4 2 7 2
c11 0 20 -10 20 -20c0 -9 -5 -15 -12 -19l-158 -74l-123 -296l284 -134c6 -3 9 -11 9 -17c0 -11 -9 -20 -20 -20c-3 0 -5 0 -7 1l-281 133l-53 -125l352 -167c6 -2 9 -10 9 -17c0 -10 -9 -20 -20 -20c-3 0 -5 1 -7 2l-349 165l-133 -320c-3 -7 -10 -12 -18 -12
c-11 0 -20 9 -20 20zM150 347l215 -102l105 253z" />
    <glyph glyph-name="notgreaterorslnteql" unicode="&#xf0ae;" 
d="M147 -283c0 3 0 5 1 7l82 196l-119 -56c-3 -1 -5 -2 -8 -2c-11 0 -20 10 -20 20c0 7 3 15 10 17l159 76l78 187l-219 -104c-3 -1 -5 -1 -8 -1c-11 0 -20 9 -20 20c0 6 3 14 10 17l260 123l90 217l-347 164c-8 4 -13 10 -13 19c0 10 9 20 20 20c3 0 5 -1 8 -2l348 -165
l133 321c3 7 10 12 19 12c10 0 20 -9 20 -20c0 -3 -1 -5 -2 -7l-134 -323l187 -88c7 -4 12 -10 12 -18c0 -7 -3 -15 -9 -17l-301 -143l-78 -186l361 170c2 1 4 2 7 2c11 0 20 -10 20 -20c0 -7 -3 -15 -9 -17l-402 -190l-98 -237c-3 -7 -10 -12 -18 -12c-11 0 -20 9 -20 20z
M407 242l220 105l-148 69z" />
    <glyph glyph-name="lessnotequal" unicode="&#xf0af;" 
d="M102 -138c-11 0 -19 10 -19 20s8 20 19 20h278l91 90c3 4 9 7 15 7c10 0 20 -9 20 -20c0 -5 -2 -10 -5 -14l-64 -63h239c10 0 18 -10 18 -20s-8 -20 -18 -20h-279l-90 -91c-4 -3 -10 -6 -15 -6c-11 0 -20 9 -20 20c0 4 1 10 5 13l63 64h-238zM96 328c-8 3 -13 10 -13 18
c0 6 3 14 10 17l574 272c2 1 4 1 7 1c11 0 20 -9 20 -20c0 -6 -3 -14 -9 -17l-535 -253l532 -251c7 -4 12 -11 12 -19c0 -11 -9 -20 -20 -20c-3 0 -5 0 -7 2z" />
    <glyph glyph-name="greaternotequal" unicode="&#xf0b0;" 
d="M102 -138c-11 0 -19 10 -19 20s8 20 19 20h278l91 90c3 4 9 7 15 7c10 0 20 -9 20 -20c0 -5 -2 -10 -5 -14l-64 -63h239c10 0 18 -10 18 -20s-8 -20 -18 -20h-279l-90 -91c-4 -3 -10 -6 -15 -6c-11 0 -20 9 -20 20c0 4 1 10 5 13l63 64h-238zM83 76c0 6 3 14 10 17
l534 253l-531 252c-8 3 -13 10 -13 18c0 11 9 20 20 20c3 0 5 0 8 -1l571 -270c7 -4 12 -11 12 -19c0 -6 -3 -14 -9 -17l-574 -271c-3 -2 -5 -2 -8 -2c-11 0 -20 9 -20 20z" />
    <glyph glyph-name="notprecedesoreql" unicode="&#xf0b1;" 
d="M147 -283c0 3 0 5 1 7l58 139h-104c-11 0 -19 10 -19 20s8 20 19 20h120l167 400c-94 20 -192 24 -287 24c-11 0 -19 10 -19 20s8 20 19 20c109 0 222 5 328 35l162 389c3 7 10 12 19 12c10 0 20 -9 20 -20c0 -3 -1 -5 -2 -7l-149 -358c92 35 163 98 174 200
c1 10 9 19 20 19c12 0 20 -11 20 -22c-14 -134 -114 -209 -234 -246l-16 -39c128 -36 235 -109 250 -252c0 -11 -8 -21 -20 -21c-11 0 -19 8 -20 18c-13 126 -114 187 -226 218l-162 -390h410c10 0 18 -10 18 -20s-8 -20 -18 -20h-427l-64 -154c-3 -7 -10 -12 -18 -12
c-11 0 -20 9 -20 20zM370 347c11 -2 23 -4 34 -7l7 15c-14 -3 -27 -5 -41 -8z" />
    <glyph glyph-name="notfollowsoreql" unicode="&#xf0b2;" 
d="M147 -283c0 3 0 5 1 7l58 139h-104c-11 0 -19 10 -19 20s8 20 19 20h120l167 400c-124 -27 -252 -86 -266 -228c-1 -10 -9 -18 -20 -18c-12 0 -20 10 -20 21c18 173 172 242 324 269c-151 27 -306 96 -324 268c0 11 8 22 20 22c11 0 19 -9 20 -19
c16 -154 167 -210 300 -233l169 406c3 7 10 12 19 12c10 0 20 -9 20 -20c0 -3 -1 -5 -2 -7l-165 -397c68 -9 141 -12 212 -12c10 0 18 -10 18 -20s-8 -20 -18 -20c-81 0 -164 -4 -240 -16l-170 -408h410c10 0 18 -10 18 -20s-8 -20 -18 -20h-427l-64 -154
c-3 -7 -10 -12 -18 -12c-11 0 -20 9 -20 20z" />
    <glyph glyph-name="precedeornoteqvlnt" unicode="&#xf0b3;" 
d="M69 -228c-11 0 -13 17 -14 25v6c0 95 62 203 167 203c65 0 117 -42 163 -83l106 195c4 6 11 9 17 9c11 0 20 -9 20 -20c0 -3 -1 -7 -3 -10l-110 -201c40 -34 85 -68 140 -68c81 0 139 76 139 153c1 8 3 25 14 25s13 -17 14 -25v-6c0 -95 -62 -203 -167 -203
c-65 0 -117 42 -163 83l-106 -195c-4 -6 -11 -9 -17 -9c-11 0 -20 9 -20 20c0 3 1 7 3 10l110 201c-40 34 -85 68 -140 68c-81 0 -139 -76 -139 -153c-1 -8 -3 -25 -14 -25zM102 422c-11 0 -19 10 -19 20s8 20 19 20c181 0 528 12 552 252c1 10 10 18 20 18
c12 0 20 -10 20 -21c-18 -173 -173 -242 -324 -269c151 -27 306 -96 324 -268c0 -12 -8 -22 -20 -22c-11 0 -19 8 -20 19c-24 239 -371 251 -552 251z" />
    <glyph glyph-name="followornoteqvlnt" unicode="&#xf0b4;" 
d="M69 -228c-11 0 -13 17 -14 25v6c0 95 62 203 167 203c65 0 117 -42 163 -83l106 195c4 6 11 9 17 9c11 0 20 -9 20 -20c0 -3 -1 -7 -3 -10l-110 -201c40 -34 85 -68 140 -68c81 0 139 76 139 153c1 8 3 25 14 25s13 -17 14 -25v-6c0 -95 -62 -203 -167 -203
c-65 0 -117 42 -163 83l-106 -195c-4 -6 -11 -9 -17 -9c-11 0 -20 9 -20 20c0 3 1 7 3 10l110 201c-40 34 -85 68 -140 68c-81 0 -139 -76 -139 -153c-1 -8 -3 -25 -14 -25zM103 152c-12 0 -20 10 -20 22c18 172 173 241 324 268c-151 27 -306 96 -324 269c0 11 8 21 20 21
c11 0 19 -8 20 -18c24 -240 371 -252 553 -252c10 0 18 -10 18 -20s-8 -20 -18 -20c-182 0 -529 -12 -553 -251c-1 -11 -9 -19 -20 -19z" />
    <glyph glyph-name="lessornotsimilar" unicode="&#xf0b5;" 
d="M69 -228c-11 0 -13 17 -14 25v6c0 95 62 203 167 203c65 0 117 -42 163 -83l106 195c4 6 11 9 17 9c11 0 20 -9 20 -20c0 -3 -1 -7 -3 -10l-110 -201c40 -34 85 -68 140 -68c81 0 139 76 139 153c1 8 3 25 14 25s13 -17 14 -25v-6c0 -95 -62 -203 -167 -203
c-65 0 -117 42 -163 83l-106 -195c-4 -6 -11 -9 -17 -9c-11 0 -20 9 -20 20c0 3 1 7 3 10l110 201c-40 34 -85 68 -140 68c-81 0 -139 -76 -139 -153c-1 -8 -3 -25 -14 -25zM96 424c-8 3 -13 10 -13 18c0 6 3 14 10 17l574 272c2 1 4 1 7 1c11 0 20 -9 20 -20
c0 -6 -3 -14 -9 -17l-535 -253l532 -251c7 -4 12 -11 12 -19c0 -11 -9 -20 -20 -20c-3 0 -5 0 -7 2z" />
    <glyph glyph-name="greaterornotsimilar" unicode="&#xf0b6;" 
d="M69 -228c-11 0 -13 17 -14 25v6c0 95 62 203 167 203c65 0 117 -42 163 -83l106 195c4 6 11 9 17 9c11 0 20 -9 20 -20c0 -3 -1 -7 -3 -10l-110 -201c40 -34 85 -68 140 -68c81 0 139 76 139 153c1 8 3 25 14 25s13 -17 14 -25v-6c0 -95 -62 -203 -167 -203
c-65 0 -117 42 -163 83l-106 -195c-4 -6 -11 -9 -17 -9c-11 0 -20 9 -20 20c0 3 1 7 3 10l110 201c-40 34 -85 68 -140 68c-81 0 -139 -76 -139 -153c-1 -8 -3 -25 -14 -25zM83 172c0 6 3 14 10 17l534 253l-531 252c-8 3 -13 10 -13 18c0 11 9 20 20 20c3 0 5 0 8 -1
l571 -270c7 -4 12 -11 12 -19c0 -6 -3 -14 -9 -17l-574 -271c-3 -2 -5 -2 -8 -2c-11 0 -20 9 -20 20z" />
    <glyph glyph-name="notlessdblequal" unicode="&#xf0b7;" 
d="M147 -400c0 3 0 5 1 7l74 218h-120c-11 0 -19 11 -19 20c0 10 8 20 19 20h134l53 155h-187c-11 0 -19 10 -19 20c0 9 8 20 19 20h200l85 247l-294 140c-7 2 -10 10 -10 17c0 8 5 14 13 18l418 198l78 228c3 7 11 12 19 12c10 0 20 -9 20 -20c0 -3 -1 -5 -2 -7l-64 -189
l102 48c2 1 4 2 7 2c11 0 20 -10 20 -20c0 -9 -5 -15 -12 -19l-135 -64l-111 -323l249 -117c6 -3 9 -11 9 -17c0 -11 -9 -20 -20 -20c-3 0 -5 0 -7 1l-244 115l-78 -230h331c10 0 18 -11 18 -20c0 -10 -8 -20 -18 -20h-345l-53 -155h398c10 0 18 -10 18 -20
c0 -9 -8 -20 -18 -20h-411l-80 -233c-3 -7 -11 -12 -18 -12c-11 0 -20 9 -20 20zM150 464l250 -119l96 282z" />
    <glyph glyph-name="notgreaterdblequal" unicode="&#xf0b8;" 
d="M147 -400c0 3 0 5 1 7l74 218h-120c-11 0 -19 11 -19 20c0 10 8 20 19 20h134l53 155h-187c-11 0 -19 10 -19 20c0 9 8 20 19 20h200l84 245l-275 -130c-3 -1 -5 -1 -8 -1c-11 0 -20 9 -20 20c0 8 5 14 13 18l308 146l62 182l-373 177c-7 2 -10 10 -10 17
c0 10 9 20 20 20c3 0 5 -1 8 -2l368 -174l113 330c3 7 11 12 19 12c10 0 20 -9 20 -20c0 -3 -1 -5 -2 -7l-113 -333l169 -79c6 -3 9 -11 9 -17c0 -9 -5 -15 -12 -19l-245 -116l-92 -269h331c10 0 18 -11 18 -20c0 -10 -8 -20 -18 -20h-345l-53 -155h398c10 0 18 -10 18 -20
c0 -9 -8 -20 -18 -20h-411l-80 -233c-3 -7 -11 -12 -18 -12c-11 0 -20 9 -20 20zM455 382l172 82l-124 58z" />
    <glyph glyph-name="precedenotslnteql" unicode="&#xf0b9;" 
d="M178 -258c0 5 2 10 5 14l66 69h-147c-11 0 -19 10 -19 20s8 20 19 20h185l147 154h-332c-11 0 -19 10 -19 20s8 20 19 20h370l92 96c4 4 9 7 15 7c11 0 20 -9 20 -20c0 -5 -2 -10 -5 -14l-66 -69h148c10 0 18 -10 18 -20s-8 -20 -18 -20h-186l-147 -154h333
c10 0 18 -10 18 -20s-8 -20 -18 -20h-371l-92 -96c-4 -4 -9 -7 -15 -7c-11 0 -20 9 -20 20zM102 443c-11 0 -19 10 -19 20s8 20 19 20c181 0 527 13 552 252c1 10 9 18 20 18c12 0 20 -10 20 -21c-18 -173 -173 -242 -324 -269c151 -27 306 -96 324 -268
c0 -12 -8 -22 -20 -22c-11 0 -19 8 -20 19c-24 238 -371 251 -552 251z" />
    <glyph glyph-name="follownotslnteql" unicode="&#xf0ba;" 
d="M178 -258c0 5 2 10 5 14l66 69h-147c-11 0 -19 10 -19 20s8 20 19 20h185l147 154h-332c-11 0 -19 10 -19 20s8 20 19 20h370l92 96c4 4 9 7 15 7c11 0 20 -9 20 -20c0 -5 -2 -10 -5 -14l-66 -69h148c10 0 18 -10 18 -20s-8 -20 -18 -20h-186l-147 -154h333
c10 0 18 -10 18 -20s-8 -20 -18 -20h-371l-92 -96c-4 -4 -9 -7 -15 -7c-11 0 -20 9 -20 20zM103 173c-12 0 -20 10 -20 22c18 172 173 241 324 268c-151 27 -306 96 -324 269c0 11 8 21 20 21c11 0 19 -8 20 -18c24 -239 371 -252 553 -252c10 0 18 -10 18 -20
s-8 -20 -18 -20c-182 0 -528 -13 -553 -251c-1 -11 -9 -19 -20 -19z" />
    <glyph glyph-name="precedenotdbleqv" unicode="&#xf0bb;" 
d="M69 -290c-11 0 -13 17 -14 25v6c0 93 76 163 167 163c42 0 80 -16 116 -36l67 133c-56 36 -113 81 -183 81c-63 0 -139 -43 -139 -113c-1 -8 -3 -25 -14 -25s-13 17 -14 25v6c0 93 76 163 167 163c79 0 142 -53 205 -93l64 126c3 6 11 10 17 10c11 0 20 -9 20 -20
c0 -4 -1 -7 -3 -11l-63 -125c29 -15 60 -25 93 -25c63 0 139 43 139 113c1 8 3 25 14 25s13 -17 14 -25v-6c0 -93 -76 -163 -167 -163c-41 0 -80 16 -116 36l-67 -133c56 -36 113 -81 183 -81c63 0 139 43 139 113c1 8 3 25 14 25s13 -17 14 -25v-6
c0 -93 -76 -163 -167 -163c-79 0 -142 53 -205 93l-64 -126c-3 -6 -11 -10 -17 -10c-11 0 -20 9 -20 20c0 4 1 7 3 11l63 125c-29 15 -60 25 -93 25c-63 0 -139 -43 -139 -113c-1 -8 -3 -25 -14 -25zM102 482c-11 0 -19 10 -19 20s8 20 19 20c172 0 525 0 552 222
c1 10 9 18 20 18c12 0 20 -10 20 -21c-18 -153 -146 -214 -281 -239c135 -25 263 -86 281 -238c0 -12 -8 -22 -20 -22c-11 0 -19 8 -20 19c-26 221 -381 221 -552 221z" />
    <glyph glyph-name="follownotdbleqv" unicode="&#xf0bc;" 
d="M69 -290c-11 0 -13 17 -14 25v6c0 93 76 163 167 163c42 0 80 -16 116 -36l67 133c-56 36 -113 81 -183 81c-63 0 -139 -43 -139 -113c-1 -8 -3 -25 -14 -25s-13 17 -14 25v6c0 93 76 163 167 163c79 0 142 -53 205 -93l64 126c3 6 11 10 17 10c11 0 20 -9 20 -20
c0 -4 -1 -7 -3 -11l-63 -125c29 -15 60 -25 93 -25c63 0 139 43 139 113c1 8 3 25 14 25s13 -17 14 -25v-6c0 -93 -76 -163 -167 -163c-41 0 -80 16 -116 36l-67 -133c56 -36 113 -81 183 -81c63 0 139 43 139 113c1 8 3 25 14 25s13 -17 14 -25v-6
c0 -93 -76 -163 -167 -163c-79 0 -142 53 -205 93l-64 -126c-3 -6 -11 -10 -17 -10c-11 0 -20 9 -20 20c0 4 1 7 3 11l63 125c-29 15 -60 25 -93 25c-63 0 -139 -43 -139 -113c-1 -8 -3 -25 -14 -25zM103 242c-12 0 -20 10 -20 22c18 152 146 213 281 238
c-135 25 -263 86 -281 239c0 11 8 21 20 21c11 0 19 -8 20 -18c26 -222 381 -222 553 -222c10 0 18 -10 18 -20s-8 -20 -18 -20c-173 0 -526 0 -553 -221c-1 -11 -9 -19 -20 -19z" />
    <glyph glyph-name="lessnotdblequal" unicode="&#xf0bd;" 
d="M69 -290c-11 0 -13 17 -14 25v6c0 93 76 163 167 163c43 0 84 -17 121 -38l57 138c-54 35 -110 78 -178 78c-63 0 -139 -43 -139 -113c-1 -8 -3 -25 -14 -25s-13 17 -14 25v6c0 93 76 163 167 163c75 0 137 -49 197 -88l71 169c3 7 10 12 18 12c11 0 20 -9 20 -20
c0 -2 0 -5 -1 -7l-73 -175c31 -17 65 -29 101 -29c63 0 139 43 139 113c1 8 3 25 14 25s13 -17 14 -25v-6c0 -93 -76 -163 -167 -163c-43 0 -84 17 -121 38l-57 -138c54 -35 110 -78 178 -78c63 0 139 43 139 113c1 8 3 25 14 25s13 -17 14 -25v-6c0 -93 -76 -163 -167 -163
c-75 0 -137 49 -197 88l-71 -169c-3 -7 -10 -12 -18 -12c-11 0 -20 9 -20 20c0 2 0 5 1 7l73 175c-31 17 -65 29 -101 29c-63 0 -139 -43 -139 -113c-1 -8 -3 -25 -14 -25zM96 484c-8 3 -13 10 -13 18s5 15 13 19l571 240c2 1 4 1 7 1c11 0 20 -9 20 -20
c0 -8 -5 -15 -12 -18l-527 -222l527 -221c7 -4 12 -11 12 -19c0 -11 -9 -20 -20 -20c-3 0 -5 0 -7 2z" />
    <glyph glyph-name="greaternotdblequal" unicode="&#xf0be;" 
d="M69 -290c-11 0 -13 17 -14 25v6c0 93 76 163 167 163c43 0 84 -17 121 -38l57 138c-54 35 -110 78 -178 78c-63 0 -139 -43 -139 -113c-1 -8 -3 -25 -14 -25s-13 17 -14 25v6c0 93 76 163 167 163c75 0 137 -49 197 -88l71 169c3 7 10 12 18 12c11 0 20 -9 20 -20
c0 -2 0 -5 -1 -7l-73 -175c31 -17 65 -29 101 -29c63 0 139 43 139 113c1 8 3 25 14 25s13 -17 14 -25v-6c0 -93 -76 -163 -167 -163c-43 0 -84 17 -121 38l-57 -138c54 -35 110 -78 178 -78c63 0 139 43 139 113c1 8 3 25 14 25s13 -17 14 -25v-6c0 -93 -76 -163 -167 -163
c-75 0 -137 49 -197 88l-71 -169c-3 -7 -10 -12 -18 -12c-11 0 -20 9 -20 20c0 2 0 5 1 7l73 175c-31 17 -65 29 -101 29c-63 0 -139 -43 -139 -113c-1 -8 -3 -25 -14 -25zM83 262c0 8 5 15 13 19l526 221l-526 222c-8 3 -13 10 -13 18c0 11 9 20 20 20c3 0 5 0 8 -1
l571 -240c7 -4 12 -11 12 -19s-5 -15 -12 -18l-571 -240c-3 -2 -5 -2 -8 -2c-11 0 -20 9 -20 20z" />
    <glyph glyph-name="notsimilar" unicode="&#xf0bf;" 
d="M71 133c-13 3 -17 23 -17 34v7c0 96 65 193 168 193c66 0 121 -42 171 -81l147 176c3 4 10 6 15 6c11 0 20 -9 20 -20c0 -5 -2 -10 -5 -13l-145 -173c38 -29 81 -54 130 -54c68 0 134 54 134 125c0 11 4 31 17 34c13 -3 18 -23 18 -34v-7c0 -96 -66 -193 -169 -193
c-66 0 -121 42 -171 81l-147 -175c-3 -5 -10 -7 -15 -7c-11 0 -20 9 -20 20c0 5 2 10 5 14l145 172c-38 29 -81 54 -130 54c-68 0 -133 -54 -133 -125c0 -11 -5 -31 -18 -34z" />
    <glyph glyph-name="notapproxequal" unicode="&#xf0c0;" 
d="M147 -137c0 4 1 7 3 10l76 134h-152c-11 0 -19 10 -19 20s8 20 19 20h175l88 154h-263c-11 0 -19 10 -19 20s8 20 19 20h286l99 171c-77 39 -146 113 -237 113c-63 0 -139 -43 -139 -113c-1 -8 -3 -25 -14 -25s-13 17 -14 25v6c0 93 76 163 167 163
c103 0 173 -87 263 -123l109 190c3 5 10 9 17 9c10 0 20 -9 20 -20c0 -4 -2 -7 -3 -10l-104 -181c10 -2 20 -3 31 -3c63 0 139 43 139 113c1 8 3 25 14 25s13 -17 14 -25v-6c0 -93 -76 -163 -167 -163c-20 0 -40 3 -59 10l-90 -156h298c10 0 18 -10 18 -20s-8 -20 -18 -20
h-321l-88 -154h409c10 0 18 -10 18 -20s-8 -20 -18 -20h-432l-88 -155c-4 -5 -11 -9 -17 -9c-11 0 -20 9 -20 20z" />
    <glyph glyph-name="upslope" unicode="&#xf0c1;" horiz-adv-x="888" 
d="M0 -174c0 5 2 10 5 13l820 849c4 4 9 6 15 6c11 0 20 -9 20 -20c0 -5 -2 -10 -5 -13l-820 -849c-4 -4 -9 -6 -15 -6c-11 0 -20 9 -20 20z" />
    <glyph glyph-name="downslope" unicode="&#xf0c2;" horiz-adv-x="888" 
d="M825 -188l-820 849c-3 3 -5 8 -5 13c0 11 9 20 20 20c6 0 11 -2 15 -6l820 -849c3 -3 5 -8 5 -13c0 -11 -9 -20 -20 -20c-6 0 -11 2 -15 6z" />
    <glyph glyph-name="notsubsetoreql" unicode="&#xf0c3;" 
d="M194 -229c0 5 2 10 5 13l65 78h-142c-11 0 -19 10 -19 20s8 20 19 20h176l129 154h-40c-161 0 -304 125 -304 290s143 290 304 290h289c10 0 18 -10 18 -20s-8 -20 -18 -20h-286c-140 0 -267 -105 -267 -250c0 -146 127 -250 267 -250h70l88 105c3 4 10 6 15 6
c11 0 20 -9 20 -20c0 -5 -2 -10 -5 -13l-65 -78h163c10 0 18 -10 18 -20s-8 -20 -18 -20h-197l-129 -154h326c10 0 18 -10 18 -20s-8 -20 -18 -20h-359l-88 -105c-3 -4 -10 -6 -15 -6c-11 0 -20 9 -20 20z" />
    <glyph glyph-name="epsiloninv" unicode="&#xf0c4;" horiz-adv-x="429" 
d="M129 0c-8 0 -13 7 -13 14c0 8 7 17 16 17h55c87 0 141 66 164 143h-179c-7 0 -13 7 -13 14c0 8 8 17 16 17h184c7 29 11 58 11 86c0 66 -34 129 -107 129c-52 0 -115 -44 -119 -44c-7 0 -11 8 -11 15c0 3 1 6 3 7c37 26 82 44 127 44c109 0 181 -83 181 -189
c0 -140 -120 -253 -258 -253h-57z" />
    <glyph glyph-name="notsupersetoreql" unicode="&#xf021;" 
d="M83 -229c0 4 1 7 3 10l54 81h-38c-11 0 -19 10 -19 20s8 20 19 20h64l103 154h-167c-11 0 -19 10 -19 20s8 20 19 20h194l70 105c2 4 10 6 15 6c10 0 20 -9 20 -20c0 -4 -1 -7 -3 -10l-54 -81h43c141 0 267 105 267 250c0 146 -127 250 -267 250h-285
c-11 0 -19 10 -19 20s8 20 19 20h288c161 0 304 -125 304 -290s-143 -290 -304 -290h-73l-103 -154h442c10 0 18 -10 18 -20s-8 -20 -18 -20h-468l-70 -105c-3 -4 -10 -6 -15 -6c-11 0 -20 9 -20 20z" />
    <glyph glyph-name="notsubsetordbleql" unicode="&#xf022;" 
d="M119 -309c0 3 0 6 1 8l39 86h-57c-11 0 -19 10 -19 20s8 20 19 20h75l68 154h-143c-11 0 -19 10 -19 20s8 20 19 20h161l71 159c-140 24 -251 139 -251 285c0 165 143 290 304 290h205l28 63c3 7 10 13 18 13c11 0 20 -10 20 -20c0 -3 0 -6 -1 -8l-22 -48h41
c10 0 18 -10 18 -20s-8 -20 -18 -20h-59l-223 -500h282c10 0 18 -10 18 -20s-8 -20 -18 -20h-289h-11l-69 -154h369c10 0 18 -10 18 -20s-8 -20 -18 -20h-387l-69 -154h456c10 0 18 -10 18 -20s-8 -20 -18 -20h-474l-45 -101c-3 -7 -10 -13 -18 -13c-11 0 -20 10 -20 20z
M351 215l223 498h-184c-140 0 -267 -105 -267 -250c0 -129 103 -231 228 -248z" />
    <glyph glyph-name="notsupersetordbleql" unicode="&#xf023;" 
d="M119 -309c0 3 0 6 1 8l39 86h-57c-11 0 -19 10 -19 20s8 20 19 20h75l68 154h-143c-11 0 -19 10 -19 20s8 20 19 20h161l69 154h-230c-11 0 -19 10 -19 20s8 20 19 20h248l201 448c-48 35 -106 52 -164 52h-285c-11 0 -19 10 -19 20s8 20 19 20h288c63 0 125 -20 177 -54
l53 117c3 7 10 13 18 13c11 0 20 -10 20 -20c0 -3 0 -6 -1 -8l-57 -128c59 -53 94 -130 94 -210c0 -165 -143 -290 -304 -290h-14l-69 -154h369c10 0 18 -10 18 -20s-8 -20 -18 -20h-387l-69 -154h456c10 0 18 -10 18 -20s-8 -20 -18 -20h-474l-45 -101
c-3 -7 -10 -13 -18 -13c-11 0 -20 10 -20 20zM394 213c137 0 260 110 260 250c0 65 -26 126 -72 171z" />
    <glyph glyph-name="subsetornotdbleql" unicode="&#xf024;" 
d="M174 -356c0 5 2 10 5 13l82 96h-159c-11 0 -19 10 -19 20s8 20 19 20h194l132 154h-326c-11 0 -19 10 -19 20s8 20 19 20h360l106 122c3 5 9 7 15 7c11 0 20 -9 20 -20c0 -5 -2 -10 -5 -14l-82 -95h160c10 0 18 -10 18 -20s-8 -20 -18 -20h-195l-132 -154h327
c10 0 18 -10 18 -20s-8 -20 -18 -20h-361l-106 -123c-3 -4 -9 -6 -15 -6c-11 0 -20 9 -20 20zM83 495c0 165 143 290 304 290h289c10 0 18 -10 18 -20s-8 -20 -18 -20h-286c-140 0 -267 -105 -267 -250c0 -146 127 -250 267 -250h286c10 0 18 -10 18 -20s-8 -20 -18 -20
h-289c-161 0 -304 125 -304 290z" />
    <glyph glyph-name="supersetornotdbleql" unicode="&#xf025;" 
d="M174 -356c0 5 2 10 5 13l82 96h-159c-11 0 -19 10 -19 20s8 20 19 20h194l132 154h-326c-11 0 -19 10 -19 20s8 20 19 20h360l106 122c3 5 9 7 15 7c11 0 20 -9 20 -20c0 -5 -2 -10 -5 -14l-82 -95h160c10 0 18 -10 18 -20s-8 -20 -18 -20h-195l-132 -154h327
c10 0 18 -10 18 -20s-8 -20 -18 -20h-361l-106 -123c-3 -4 -9 -6 -15 -6c-11 0 -20 9 -20 20zM102 205c-11 0 -19 10 -19 20s8 20 19 20h285c141 0 267 105 267 250c0 146 -127 250 -267 250h-285c-11 0 -19 10 -19 20s8 20 19 20h288c161 0 304 -125 304 -290
s-143 -290 -304 -290h-288z" />
    <glyph glyph-name="subsetornoteql" unicode="&#xf026;" 
d="M102 -215c-11 0 -19 10 -19 20s8 20 19 20h204l99 154h-303c-11 0 -19 10 -19 20s8 20 19 20h329l99 154h-143c-161 0 -304 125 -304 290s143 290 304 290h289c10 0 18 -10 18 -20s-8 -20 -18 -20h-286c-140 0 -267 -105 -267 -250c0 -146 127 -250 267 -250h166l67 105
c3 4 11 6 15 6c11 0 20 -9 20 -20c0 -4 -1 -7 -3 -10l-52 -81h73c10 0 18 -10 18 -20s-8 -20 -18 -20h-98l-99 -154h197c10 0 18 -10 18 -20s-8 -20 -18 -20h-223l-99 -154h322c10 0 18 -10 18 -20s-8 -20 -18 -20h-348l-67 -105c-3 -4 -11 -6 -15 -6c-11 0 -20 9 -20 20
c0 4 1 7 3 10l52 81h-179z" />
    <glyph glyph-name="supersetornoteql" unicode="&#xf027;" 
d="M119 -306c0 3 0 5 1 7l34 84h-52c-11 0 -19 10 -19 20s8 20 19 20h69l63 154h-132c-11 0 -19 10 -19 20s8 20 19 20h148l63 154h-211c-11 0 -19 10 -19 20s8 20 19 20h228l40 99c3 7 10 12 19 12c10 0 20 -9 20 -20c0 -3 -1 -5 -2 -7l-34 -84h14c141 0 267 105 267 250
c0 146 -127 250 -267 250h-285c-11 0 -19 10 -19 20s8 20 19 20h288c161 0 304 -125 304 -290s-143 -290 -304 -290h-34l-63 -154h383c10 0 18 -10 18 -20s-8 -20 -18 -20h-399l-63 -154h462c10 0 18 -10 18 -20s-8 -20 -18 -20h-478l-41 -99c-3 -7 -10 -12 -18 -12
c-11 0 -20 9 -20 20z" />
    <glyph glyph-name="subsetnoteql" unicode="&#xf028;" 
d="M122 -138c-11 0 -19 10 -19 20s8 20 19 20h259l100 90c4 4 9 7 15 7c10 0 20 -9 20 -20c0 -4 -2 -10 -5 -14l-71 -63h236c10 0 18 -10 18 -20s-8 -20 -18 -20h-280l-99 -91c-5 -3 -10 -6 -15 -6c-11 0 -20 9 -20 20c0 4 1 10 5 13l70 64h-215zM83 346
c0 165 143 290 304 290h289c10 0 18 -10 18 -20s-8 -20 -18 -20h-286c-140 0 -267 -105 -267 -250c0 -146 127 -250 267 -250h286c10 0 18 -10 18 -20s-8 -20 -18 -20h-289c-161 0 -304 125 -304 290z" />
    <glyph glyph-name="supersetnoteql" unicode="&#xf029;" 
d="M102 -138c-11 0 -19 10 -19 20s8 20 19 20h277l82 90c3 5 9 7 15 7c10 0 20 -9 20 -20c0 -5 -2 -10 -5 -14l-57 -63h222c10 0 18 -10 18 -20s-8 -20 -18 -20h-258l-81 -91c-4 -4 -10 -6 -15 -6c-11 0 -20 9 -20 20c0 5 1 10 5 13l56 64h-241zM102 56c-11 0 -19 10 -19 20
s8 20 19 20h285c141 0 267 105 267 250c0 146 -127 250 -267 250h-285c-11 0 -19 10 -19 20s8 20 19 20h288c161 0 304 -125 304 -290s-143 -290 -304 -290h-288z" />
    <glyph glyph-name="notsubseteql" unicode="&#xf02a;" 
d="M147 -283c0 3 0 5 1 7l58 139h-84c-11 0 -19 10 -19 20s8 20 19 20h100l71 169c-122 39 -210 145 -210 275c0 165 143 290 304 290h141l64 154c3 7 10 12 19 12c10 0 20 -9 20 -20c0 -3 -1 -5 -2 -7l-58 -139h105c10 0 18 -10 18 -20s-8 -20 -18 -20h-121l-207 -497
c13 -2 28 -3 42 -3h286c10 0 18 -10 18 -20s-8 -20 -18 -20h-289c-19 0 -37 2 -55 5l-66 -159h410c10 0 18 -10 18 -20s-8 -20 -18 -20h-427l-64 -154c-3 -7 -10 -12 -18 -12c-11 0 -20 9 -20 20zM308 109l203 488h-121c-140 0 -267 -105 -267 -250c0 -111 80 -207 185 -238
z" />
    <glyph glyph-name="notsuperseteql" unicode="&#xf02b;" 
d="M147 -283c0 3 0 5 1 7l58 139h-104c-11 0 -19 10 -19 20s8 20 19 20h120l64 154h-184c-11 0 -19 10 -19 20s8 20 19 20h201l199 476c-37 16 -76 24 -115 24h-285c-11 0 -19 10 -19 20s8 20 19 20h288c43 0 87 -9 127 -27l75 181c3 7 10 12 19 12c10 0 20 -9 20 -20
c0 -3 -1 -5 -2 -7l-76 -184c85 -52 141 -144 141 -245c0 -165 -143 -290 -304 -290h-60l-64 -154h390c10 0 18 -10 18 -20s-8 -20 -18 -20h-407l-64 -154c-3 -7 -10 -12 -18 -12c-11 0 -20 9 -20 20zM346 97h41c141 0 267 105 267 250c0 84 -46 163 -117 208z" />
    <glyph glyph-name="notparallel" unicode="&#xf02c;" horiz-adv-x="500" 
d="M133 -232v336l-118 -118c-4 -3 -9 -6 -15 -6c-11 0 -20 9 -20 20c0 5 2 10 5 14l148 147v571c0 10 10 18 20 18c9 0 20 -8 20 -18v-531l154 155v376c0 10 10 18 20 18c9 0 20 -8 20 -18v-336l117 118c4 3 9 6 15 6c11 0 20 -9 20 -20c0 -5 -2 -10 -5 -13l-147 -148v-571
c0 -10 -11 -18 -20 -18c-10 0 -20 8 -20 18v531l-154 -155v-376c0 -10 -11 -18 -20 -18c-10 0 -20 8 -20 18z" />
    <glyph glyph-name="notbar" unicode="&#xf02d;" horiz-adv-x="277" 
d="M119 -232v562l-104 -93c-4 -4 -9 -7 -15 -7c-11 0 -20 9 -20 20c0 4 2 10 5 14l134 120v348c0 10 10 18 20 18s20 -8 20 -18v-311l103 93c4 3 9 6 15 6c11 0 20 -9 20 -20c0 -4 -2 -10 -5 -13l-133 -121v-598c0 -10 -10 -18 -20 -18s-20 8 -20 18z" />
    <glyph glyph-name="notshortbar" unicode="&#xf02e;" horiz-adv-x="222" 
d="M91 -4v205l-76 -79c-4 -4 -9 -6 -15 -6c-11 0 -20 9 -20 20c0 4 2 10 5 13l106 110v154c0 10 10 18 20 18s20 -8 20 -18v-113l75 78c4 4 9 6 15 6c11 0 20 -9 20 -20c0 -4 -2 -10 -5 -13l-105 -109v-246c0 -10 -10 -18 -20 -18s-20 8 -20 18z" />
    <glyph glyph-name="notshortparallel" unicode="&#xf02f;" horiz-adv-x="388" 
d="M55 -4v149l-44 -26c-4 -2 -7 -3 -11 -3c-11 0 -20 9 -20 20c0 5 3 13 8 16l67 39v222c0 10 11 18 20 18c10 0 20 -8 20 -18v-198l198 116v82c0 10 10 18 20 18c9 0 20 -8 20 -18v-58l45 26c3 2 6 3 10 3c11 0 20 -9 20 -20c0 -5 -3 -13 -8 -16l-67 -39v-313
c0 -10 -11 -18 -20 -18c-10 0 -20 8 -20 18v289l-198 -116v-173c0 -10 -10 -18 -20 -18c-9 0 -20 8 -20 18z" />
    <glyph glyph-name="notturnstile" unicode="&#xf030;" horiz-adv-x="611" 
d="M-55 20c0 5 1 10 5 14l105 121v521c0 10 10 18 20 18s20 -8 20 -18v-309h145l280 321c3 4 9 6 15 6c10 0 20 -9 20 -20c0 -5 -2 -10 -5 -13l-256 -294h243c10 0 18 -10 18 -20s-8 -20 -18 -20h-278l-164 -188v-120c0 -11 -10 -19 -20 -19s-20 8 -20 19v74l-75 -86
c-4 -5 -10 -7 -15 -7c-11 0 -20 9 -20 20zM95 200l110 127h-110v-127z" />
    <glyph glyph-name="notforces" unicode="&#xf031;" horiz-adv-x="722" 
d="M-55 20c0 4 1 10 5 14l105 101v541c0 10 10 18 20 18s20 -8 20 -18v-503l154 148v355c0 10 10 18 20 18s20 -8 20 -18v-309h8l334 321c4 3 9 6 15 6c10 0 20 -9 20 -20c0 -4 -2 -10 -5 -13l-306 -294h293c10 0 18 -10 18 -20s-8 -20 -18 -20h-335l-24 -23v-285
c0 -11 -10 -19 -20 -19s-20 8 -20 19v246l-154 -148v-98c0 -11 -10 -19 -20 -19s-20 8 -20 19v60l-75 -72c-5 -4 -10 -7 -15 -7c-11 0 -20 9 -20 20z" />
    <glyph glyph-name="notsatisfies" unicode="&#xf032;" horiz-adv-x="611" 
d="M-55 20c0 5 1 10 5 14l105 121v521c0 10 10 18 20 18s20 -8 20 -18v-212h230l195 224c3 4 9 6 15 6c10 0 20 -9 20 -20c0 -5 -2 -10 -5 -13l-172 -197h159c10 0 18 -10 18 -20s-8 -20 -18 -20h-194l-134 -154h328c10 0 18 -10 18 -20s-8 -20 -18 -20h-363l-79 -91v-120
c0 -11 -10 -19 -20 -19s-20 8 -20 19v74l-75 -86c-4 -5 -10 -7 -15 -7c-11 0 -20 9 -20 20zM95 200l26 30h-26v-30zM95 270h61l134 154h-195v-154z" />
    <glyph glyph-name="notforcesextra" unicode="&#xf033;" horiz-adv-x="722" 
d="M-55 20c0 4 1 10 5 14l105 101v541c0 10 10 18 20 18s20 -8 20 -18v-503l154 148v355c0 10 10 18 20 18s20 -8 20 -18v-212h109l233 224c4 3 9 6 15 6c10 0 20 -9 20 -20c0 -4 -2 -10 -5 -13l-205 -197h192c10 0 18 -10 18 -20s-8 -20 -18 -20h-234l-125 -120v-34h359
c10 0 18 -10 18 -20s-8 -20 -18 -20h-359v-211c0 -11 -10 -19 -20 -19s-20 8 -20 19v246l-154 -148v-98c0 -11 -10 -19 -20 -19s-20 8 -20 19v60l-75 -72c-5 -4 -10 -7 -15 -7c-11 0 -20 9 -20 20zM289 360l67 64h-67v-64z" />
    <glyph glyph-name="nottriangeqlright" unicode="&#xf034;" 
d="M174 -283c0 2 0 3 1 4l51 141h-124c-11 0 -19 11 -19 20c0 10 8 20 19 20h139l95 263l-225 -107c-3 -1 -5 -1 -8 -1c-10 0 -20 8 -20 18v543c0 10 10 19 20 19c3 0 5 -1 8 -2l338 -160l115 316c3 7 11 12 19 12c11 0 20 -9 20 -20c0 -2 0 -3 -1 -4l-117 -321l197 -93
c7 -4 12 -10 12 -18c0 -7 -3 -15 -9 -17l-298 -141l-104 -287h393c10 0 18 -10 18 -20c0 -9 -8 -20 -18 -20h-407l-56 -153c-3 -7 -11 -12 -19 -12c-11 0 -20 9 -20 20zM123 108l233 110l80 219l-313 148v-477zM407 242l220 105l-155 73z" />
    <glyph glyph-name="nottriangeqlleft" unicode="&#xf035;" 
d="M174 -283c0 2 0 3 1 4l51 141h-124c-11 0 -19 11 -19 20c0 10 8 20 19 20h139l111 305l-256 121c-8 4 -13 10 -13 19c0 6 3 14 10 17l381 180l90 247c3 7 11 12 19 12c11 0 20 -9 20 -20c0 -2 0 -3 -1 -4l-76 -211l141 67c2 1 4 2 7 2c10 0 20 -9 20 -19v-543
c0 -10 -10 -18 -20 -18c-3 0 -5 0 -7 1l-279 132l-105 -288h393c10 0 18 -10 18 -20c0 -9 -8 -20 -18 -20h-407l-56 -153c-3 -7 -11 -12 -19 -12c-11 0 -20 9 -20 20zM402 227l252 -119v477l-148 -70zM150 347l215 -102l90 246z" />
    <glyph glyph-name="nottriangleleft" unicode="&#xf036;" 
d="M174 -186c0 3 1 5 2 7l136 307l-216 103c-8 4 -13 10 -13 19c0 6 3 14 10 17l356 168l115 259c4 7 10 12 19 12c11 0 20 -9 20 -20c0 -3 -1 -5 -2 -7l-96 -218l162 77c2 1 4 2 7 2c10 0 20 -9 20 -19v-543c0 -10 -10 -19 -20 -19c-3 0 -5 1 -7 2l-318 150l-136 -305
c-4 -7 -10 -12 -19 -12c-11 0 -20 9 -20 20zM365 148l289 -137v477l-174 -82zM150 250l179 -85l95 214z" />
    <glyph glyph-name="nottriangleright" unicode="&#xf037;" 
d="M174 -186c0 3 1 5 2 7l96 216l-161 -76c-3 -1 -5 -2 -8 -2c-10 0 -20 9 -20 19v543c0 10 10 19 20 19c3 0 5 -1 8 -2l317 -150l136 306c4 7 10 12 19 12c11 0 20 -9 20 -20c0 -3 -1 -5 -2 -7l-137 -308l218 -103c7 -4 12 -10 12 -18c0 -7 -3 -15 -9 -17l-358 -170
l-114 -257c-4 -7 -10 -12 -19 -12c-11 0 -20 9 -20 20zM123 11l174 82l115 258l-289 137v-477zM352 119l275 131l-179 84z" />
    <glyph glyph-name="notarrowleft" unicode="&#xf038;" horiz-adv-x="1000" 
d="M218 79c-28 72 -84 131 -155 161c-5 1 -8 5 -8 10s3 9 8 11c72 30 126 89 156 161c1 3 5 6 8 6h11c7 0 10 -8 10 -13c-23 -58 -59 -108 -109 -145h350l107 160c2 4 10 7 15 7c10 0 20 -9 20 -20c0 -4 -1 -8 -3 -11l-91 -136h388c11 0 19 -10 19 -20s-8 -20 -19 -20h-415
l-106 -160c-3 -4 -11 -7 -15 -7c-11 0 -20 10 -20 20c0 4 0 8 3 11l90 136h-323c50 -37 86 -87 109 -145c0 -5 -3 -13 -10 -13h-11c-4 0 -8 4 -9 7z" />
    <glyph glyph-name="notarrowright" unicode="&#xf039;" horiz-adv-x="1000" 
d="M74 230c-11 0 -19 10 -19 20s8 20 19 20h415l107 160c2 4 10 7 15 7c10 0 20 -9 20 -20c0 -4 -1 -8 -3 -11l-91 -136h323c-50 37 -86 87 -109 145c0 5 3 13 10 13h11c4 0 8 -4 9 -7c28 -72 84 -131 156 -160c4 -2 7 -6 7 -11s-3 -9 -7 -10c-73 -31 -127 -90 -156 -162
c-2 -3 -6 -6 -9 -6h-11c-7 0 -10 8 -10 13c23 58 59 108 109 145h-350l-106 -160c-3 -4 -11 -7 -15 -7c-11 0 -20 10 -20 20c0 4 0 8 3 11l90 136h-388z" />
    <glyph glyph-name="notdblarrowleft" unicode="&#xf03a;" horiz-adv-x="1000" 
d="M63 240c-5 1 -8 6 -8 10s3 9 8 11c139 34 254 130 318 258c1 3 5 6 8 6h20c6 0 10 -6 10 -11c0 -26 -80 -126 -101 -147h308l64 154c4 8 11 13 19 13c11 0 20 -9 20 -20c0 -3 -1 -6 -2 -8l-58 -139h257c10 0 18 -10 18 -20s-8 -20 -18 -20h-274l-65 -154h339
c10 0 18 -10 18 -20s-8 -20 -18 -20h-356l-65 -154c-3 -8 -10 -13 -18 -13c-11 0 -20 9 -20 20c0 3 0 6 1 8l59 139h-209c21 -21 101 -121 101 -147c0 -5 -4 -11 -10 -11h-20c-3 0 -7 3 -8 6c-64 128 -179 224 -318 259zM146 250c46 -19 89 -45 128 -77h270l65 154h-335
c-39 -32 -82 -58 -128 -77z" />
    <glyph glyph-name="notdblarrowright" unicode="&#xf03b;" horiz-adv-x="1000" 
d="M74 133c-11 0 -19 10 -19 20s8 20 19 20h273l65 154h-338c-11 0 -19 10 -19 20s8 20 19 20h355l65 154c3 8 10 13 18 13c11 0 20 -9 20 -20c0 -3 0 -6 -1 -8l-59 -139h209c-21 21 -101 121 -101 147c0 5 4 11 10 11h20c3 0 7 -3 9 -6c63 -128 178 -224 318 -258
c4 -2 7 -7 7 -11s-3 -9 -7 -10c-140 -35 -255 -131 -318 -259c-2 -3 -6 -6 -9 -6h-20c-6 0 -10 6 -10 11c0 26 80 126 101 147h-308l-64 -154c-4 -8 -11 -13 -19 -13c-11 0 -20 9 -20 20c0 3 1 6 2 8l58 139h-256zM390 173h335c39 32 82 58 128 77c-46 19 -89 45 -128 77
h-270z" />
    <glyph glyph-name="notdblarrowboth" unicode="&#xf03c;" horiz-adv-x="1000" 
d="M303 -18c-48 118 -144 212 -262 258c-5 1 -8 5 -8 10s3 9 8 11c118 45 214 139 262 257c1 3 5 7 9 7h20c5 0 10 -6 10 -11c0 -27 -68 -124 -88 -147h262l48 154c3 8 11 13 19 13c11 0 20 -9 20 -20c0 -2 0 -3 -1 -5l-45 -142h188c-20 23 -87 120 -87 147c0 5 4 11 10 11
h20c3 0 7 -4 9 -7c47 -118 143 -212 262 -257c4 -2 7 -6 7 -11s-3 -9 -7 -10c-119 -46 -215 -140 -262 -258c-2 -3 -6 -7 -9 -7h-20c-6 0 -10 6 -10 11c0 27 67 124 87 147h-262l-48 -154c-3 -8 -11 -13 -19 -13c-11 0 -20 9 -20 20c0 2 0 3 1 5l45 142h-188
c20 -23 88 -120 88 -147c0 -5 -5 -11 -10 -11h-20c-4 0 -8 4 -9 7zM109 250c39 -21 75 -47 107 -77h238l49 154h-287c-32 -30 -68 -56 -107 -77zM496 173h287c32 30 68 56 107 77c-39 21 -75 47 -107 77h-238z" />
    <glyph glyph-name="notarrowboth" unicode="&#xf03d;" horiz-adv-x="1000" 
d="M218 79c-28 72 -84 131 -155 161c-5 1 -8 5 -8 10s3 9 8 11c72 30 126 89 156 161c1 3 5 6 8 6h11c7 0 10 -8 10 -13c-23 -58 -59 -108 -109 -145h350l107 160c2 4 10 7 15 7c10 0 20 -9 20 -20c0 -4 -1 -8 -3 -11l-91 -136h323c-50 37 -86 87 -109 145c0 5 3 13 10 13
h11c4 0 8 -4 9 -7c28 -72 84 -131 156 -160c4 -2 7 -6 7 -11s-3 -9 -7 -10c-73 -31 -127 -90 -156 -162c-2 -3 -6 -6 -9 -6h-11c-7 0 -10 8 -10 13c23 58 59 108 109 145h-350l-106 -160c-3 -4 -11 -7 -15 -7c-11 0 -20 10 -20 20c0 4 0 8 3 11l90 136h-323
c50 -37 86 -87 109 -145c0 -5 -3 -13 -10 -13h-11c-4 0 -8 4 -9 7z" />
    <glyph glyph-name="dividemultiply" unicode="&#xf03e;" 
d="M327 34c0 34 28 62 62 62s62 -28 62 -62s-28 -62 -62 -62s-62 28 -62 62zM147 29c0 5 2 10 5 14l188 187h-266c-11 0 -19 10 -19 20s8 20 19 20h266l-188 188c-3 3 -5 9 -5 13c0 11 9 20 20 20c6 0 11 -3 15 -6l207 -207l206 207c4 3 9 6 15 6c11 0 20 -9 20 -20
c0 -4 -2 -10 -5 -13l-188 -188h267c10 0 18 -10 18 -20s-8 -20 -18 -20h-267l188 -187c3 -4 5 -9 5 -14c0 -11 -9 -20 -20 -20c-6 0 -11 3 -15 7l-206 206l-207 -206c-4 -4 -9 -7 -15 -7c-11 0 -20 9 -20 20zM327 466c0 34 28 62 62 62s62 -28 62 -62s-28 -62 -62 -62
s-62 28 -62 62z" />
    <glyph glyph-name="notexistential" unicode="&#xf040;" horiz-adv-x="555" 
d="M147 -147v5l32 142h-105c-11 0 -19 10 -19 20s8 20 19 20h114l64 287h-165c-10 0 -18 10 -18 20s8 20 18 20h174l65 287h-252c-11 0 -19 10 -19 20s8 20 19 20h261l34 151c2 9 10 16 20 16s20 -10 20 -20c0 -3 0 -2 -1 -5l-32 -142h106c9 0 18 -9 18 -18v-657
c0 -10 -9 -19 -18 -19h-262l-34 -151c-2 -9 -10 -16 -19 -16c-11 0 -20 10 -20 20zM229 40h231v287h-166zM303 367h157v287h-93z" />
    <glyph glyph-name="Finv" unicode="&#xf060;" horiz-adv-x="555" 
d="M74 0c-11 0 -19 10 -19 20s8 20 19 20h386v287h-237c-10 0 -18 10 -18 20s8 20 18 20h237v309c0 10 10 18 20 18s20 -8 20 -18v-657c0 -10 -9 -19 -18 -19h-408z" />
    <glyph glyph-name="Gmir" unicode="&#xf061;" horiz-adv-x="638" 
d="M39 45v246c0 9 9 18 19 18h174c10 0 18 -10 18 -20s-8 -20 -18 -20h-153v-221c0 -30 145 -30 169 -30c174 0 288 161 288 324c0 161 -114 323 -287 323c-59 0 -119 -16 -171 -45c-4 -2 -7 -3 -11 -3c-11 0 -20 9 -20 20c0 7 4 14 10 17c58 33 125 51 193 51
c195 0 326 -180 326 -363c0 -184 -131 -364 -326 -364c-51 0 -211 0 -211 67z" />
    <glyph glyph-name="Omegainv" unicode="&#xf066;" horiz-adv-x="722" 
d="M55 228c0 154 147 251 179 394h-68c-15 0 -67 0 -75 -11c-11 -23 -16 -51 -22 -77c-1 -4 -5 -9 -10 -9h-5c-7 0 -10 7 -10 13l33 136c1 4 5 9 10 9h165c7 0 10 -7 10 -13c0 -154 -109 -288 -110 -442c0 -122 80 -228 209 -228c128 0 208 106 208 228
c-1 154 -110 288 -110 442c0 6 3 13 10 13h165c5 0 9 -5 10 -9l33 -136c0 -6 -3 -13 -10 -13h-5c-5 0 -9 5 -10 9c-5 22 -13 54 -20 73c-4 8 -7 10 -15 12c-17 3 -41 3 -62 3h-68c33 -143 179 -240 179 -394c0 -158 -163 -250 -305 -250c-143 0 -306 92 -306 250z" />
    <glyph glyph-name="equalorsimilar" unicode="&#xf068;" 
d="M69 36c-11 0 -13 17 -14 25v6c0 95 66 191 167 191c135 0 202 -166 333 -166c76 0 139 65 139 141c1 8 3 25 14 25s13 -17 14 -25v-6c0 -95 -66 -191 -167 -191c-135 0 -202 166 -333 166c-76 0 -139 -65 -139 -141c-1 -8 -3 -25 -14 -25zM74 424c-11 0 -19 10 -19 20
s8 20 19 20h630c10 0 18 -10 18 -20s-8 -20 -18 -20h-630z" />
    <glyph glyph-name="beth" unicode="&#xf069;" horiz-adv-x="666" 
d="M12 -20c-10 0 -18 10 -18 20c0 5 1 10 5 14l83 83c4 3 9 7 14 7h475v461c0 23 -26 31 -45 31h-389c-81 0 -82 72 -82 132c0 15 0 35 21 35c26 0 14 -49 64 -49h389c81 0 82 -72 82 -132v-478h43c10 0 18 -11 18 -20c0 -5 -1 -11 -5 -14l-83 -84c-4 -3 -9 -6 -14 -6h-558z
" />
    <glyph glyph-name="gimel" unicode="&#xf06a;" horiz-adv-x="444" 
d="M12 -20c-10 0 -18 10 -18 20c0 5 1 10 5 14l83 83c4 3 9 7 14 7h216v492h-175c-81 0 -82 71 -82 131c0 15 0 36 20 36c27 0 15 -49 65 -49h194c33 0 67 -23 67 -59c0 -28 -22 -50 -49 -57c3 -177 34 -353 34 -531c0 -25 -1 -108 -40 -108c-25 0 -28 59 -31 79l-51 -52
c-3 -3 -9 -6 -14 -6h-238z" />
    <glyph glyph-name="daleth" unicode="&#xf06b;" horiz-adv-x="666" 
d="M549 -27c-9 40 -14 81 -14 123v500h-398c-81 0 -82 72 -82 132c0 15 0 35 21 35c26 0 14 -49 64 -49h417c33 0 67 -23 67 -59c0 -28 -22 -50 -49 -57c3 -177 34 -353 34 -531c0 -25 -2 -109 -41 -109c-9 0 -17 6 -19 15z" />
    <glyph glyph-name="lessdot" unicode="&#xf06c;" 
d="M96 232c-8 3 -13 10 -13 18c0 6 3 14 10 17l574 272c2 1 4 1 7 1c11 0 20 -9 20 -20c0 -6 -3 -14 -9 -17l-535 -253l532 -252c7 -3 12 -10 12 -18c0 -11 -9 -20 -20 -20c-3 0 -5 0 -7 1zM468 250c0 35 29 64 63 64c35 0 64 -29 64 -64s-29 -63 -64 -63
c-34 0 -63 28 -63 63z" />
    <glyph glyph-name="greaterdot" unicode="&#xf06d;" 
d="M83 -20c0 6 3 14 10 17l534 253l-531 252c-8 3 -13 10 -13 18c0 11 9 20 20 20c3 0 5 0 8 -1l571 -270c7 -4 12 -11 12 -19c0 -6 -3 -14 -9 -17l-574 -272c-3 -1 -5 -1 -8 -1c-11 0 -20 9 -20 20zM182 250c0 35 29 64 64 64c34 0 63 -29 63 -64s-29 -63 -63 -63
c-35 0 -64 28 -64 63z" />
    <glyph glyph-name="multicloseleft" unicode="&#xf06e;" 
d="M147 28v445c0 10 10 18 20 18c6 0 11 -3 15 -6l207 -207l206 207c4 3 9 6 15 6c11 0 20 -9 20 -20c0 -4 -2 -10 -5 -13l-208 -208l208 -207c3 -4 5 -9 5 -14c0 -11 -9 -20 -20 -20c-6 0 -11 3 -15 7l-206 206l-207 -206c-4 -4 -9 -7 -15 -7c-10 0 -20 8 -20 19zM187 77
l173 173l-173 173v-346z" />
    <glyph glyph-name="multicloseright" unicode="&#xf06f;" 
d="M147 29c0 5 2 10 5 14l208 207l-208 208c-3 3 -5 9 -5 13c0 11 9 20 20 20c6 0 11 -3 15 -6l207 -207l206 207c4 3 9 6 15 6c10 0 20 -8 20 -18v-445c0 -11 -10 -19 -20 -19c-6 0 -11 3 -15 7l-206 206l-207 -206c-4 -4 -9 -7 -15 -7c-11 0 -20 9 -20 20zM417 250
l173 -173v346z" />
    <glyph glyph-name="barshort" unicode="&#xf070;" horiz-adv-x="222" 
d="M91 -4v417c0 10 10 18 20 18s20 -8 20 -18v-417c0 -10 -10 -18 -20 -18s-20 8 -20 18z" />
    <glyph glyph-name="parallelshort" unicode="&#xf071;" horiz-adv-x="388" 
d="M55 -4v417c0 10 11 18 20 18c10 0 20 -8 20 -18v-417c0 -10 -10 -18 -20 -18c-9 0 -20 8 -20 18zM293 -4v417c0 10 10 18 20 18c9 0 20 -8 20 -18v-417c0 -10 -11 -18 -20 -18c-10 0 -20 8 -20 18z" />
    <glyph glyph-name="integerdivide" unicode="&#xf072;" 
d="M99 395c-5 4 -8 10 -8 16c0 11 9 20 20 20c3 0 8 -1 11 -3l556 -414c5 -4 8 -10 8 -16c0 -11 -9 -20 -20 -20c-3 0 -8 1 -10 3z" />
    <glyph glyph-name="approxorequal" unicode="&#xf075;" 
d="M68 -34c-11 0 -19 10 -19 20s8 20 19 20h642c10 0 18 -10 18 -20s-8 -20 -18 -20h-642zM69 152c-11 0 -13 17 -14 25v6c0 93 76 163 167 163c128 0 207 -138 333 -138c63 0 139 43 139 113c1 8 3 25 14 25s13 -17 14 -25v-6c0 -93 -76 -163 -167 -163
c-128 0 -207 138 -333 138c-63 0 -139 -43 -139 -113c-1 -8 -3 -25 -14 -25zM69 386c-11 0 -13 17 -14 25v6c0 93 76 163 167 163c128 0 207 -138 333 -138c63 0 139 43 139 113c1 8 3 25 14 25s13 -17 14 -25v-6c0 -93 -76 -163 -167 -163c-128 0 -207 138 -333 138
c-63 0 -139 -43 -139 -113c-1 -8 -3 -25 -14 -25z" />
    <glyph glyph-name="archleftdown" unicode="&#xf078;" horiz-adv-x="1000" 
d="M25 163c-3 1 -8 4 -8 8v13c0 5 7 9 11 9h4c57 -22 108 -61 144 -110c0 89 59 205 121 267c70 70 166 112 266 112c235 0 390 -219 390 -438c0 -12 -8 -22 -20 -22c-10 0 -20 8 -20 19c0 198 -135 401 -349 401c-89 0 -174 -37 -237 -99c-55 -55 -111 -157 -111 -236
c37 47 86 84 142 106h3c5 0 11 -4 11 -9v-13c0 -4 -4 -7 -7 -8c-72 -28 -131 -85 -160 -156c-2 -4 -6 -7 -10 -7s-9 3 -10 7c-30 71 -88 128 -160 156z" />
    <glyph glyph-name="archrightdown" unicode="&#xf079;" horiz-adv-x="1000" 
d="M67 2c-13 0 -20 10 -20 22c0 219 155 438 390 438c100 0 196 -42 266 -112c62 -63 120 -178 120 -267c37 49 88 88 145 110h4c4 0 11 -4 11 -9v-13c0 -4 -5 -7 -8 -8c-72 -28 -130 -85 -160 -156c-1 -4 -6 -7 -10 -7s-8 3 -10 7c-29 71 -88 128 -160 156c-3 1 -7 4 -7 8
v13c0 5 6 9 11 9h3c56 -22 105 -59 141 -106c0 78 -55 181 -110 236c-63 62 -148 99 -237 99c-215 0 -349 -203 -349 -401c0 -11 -11 -19 -20 -19z" />
    <glyph glyph-name="Digamma" unicode="&#xf07a;" 
d="M56 -73l167 669c4 8 35 9 44 9h411c6 0 44 -2 44 -10s-38 -10 -44 -10h-358l-78 -314h192c7 0 44 -2 44 -10s-38 -10 -44 -10h-197l-81 -325c-5 -8 -36 -9 -44 -9h-12c-7 0 -44 2 -44 10z" />
    <glyph glyph-name="planckover2pi" unicode="&#xf07d;" horiz-adv-x="540" 
d="M55 16c0 3 0 6 1 9l117 471l-70 -22c-2 -1 -2 -1 -4 -1c-7 0 -12 6 -12 13c0 5 4 10 9 12l85 26l21 85c2 9 4 18 5 27c0 16 -49 17 -64 17c-8 0 -10 6 -10 12c1 6 3 18 12 18l131 10c8 0 12 -4 12 -12l-34 -134l231 72c2 1 2 1 3 1c7 0 13 -6 13 -13c0 -5 -4 -10 -9 -12
l-245 -76l-38 -154c37 46 89 77 149 77c67 0 114 -37 114 -107c0 -65 -42 -168 -65 -230c-8 -20 -14 -41 -14 -62c0 -16 5 -32 23 -32c62 0 94 87 106 136c1 3 5 6 8 6h8c5 0 9 -5 9 -9c0 -2 0 -1 -1 -3c-15 -62 -56 -152 -130 -152c-47 0 -83 35 -83 82c0 14 3 27 8 40
c24 65 67 172 67 240c0 33 -12 69 -51 69c-80 0 -131 -58 -165 -123l-69 -276c-6 -18 -20 -32 -39 -32c-16 0 -29 11 -29 27z" />
    <glyph glyph-name="planckover2pi1" unicode="&#xf07e;" horiz-adv-x="540" 
d="M55 16c0 3 0 6 1 9l131 525h-70c-6 0 -11 6 -11 12s5 13 11 13h76l9 34c2 9 4 18 5 27c0 16 -49 17 -64 17c-8 0 -10 6 -10 12c1 6 3 18 12 18l131 10c8 0 12 -4 12 -12l-27 -106h205c6 0 11 -7 11 -13s-5 -12 -11 -12h-211l-46 -185c37 46 89 77 149 77
c67 0 114 -37 114 -107c0 -65 -42 -168 -65 -230c-8 -20 -14 -41 -14 -62c0 -16 5 -32 23 -32c62 0 94 87 106 136c1 3 5 6 8 6h8c5 0 9 -5 9 -9c0 -2 0 -1 -1 -3c-15 -62 -56 -152 -130 -152c-47 0 -83 35 -83 82c0 14 3 27 8 40c24 65 67 172 67 240c0 33 -12 69 -51 69
c-80 0 -131 -58 -165 -123l-69 -276c-6 -18 -20 -32 -39 -32c-16 0 -29 11 -29 27z" />
  </font>
</defs>
</svg>
